<!-- Generated with https://www.magicpattern.design/tools/wave-generator -->
<svg viewBox="0 0 1000 1000" xmlns="http://www.w3.org/2000/svg">
  <defs>
    <linearGradient id="a" gradientTransform="rotate(90)">
      <stop offset="5%" stop-color="#0f79e4" />
      <stop offset="95%" stop-color="#4b9aea" />
    </linearGradient>
    <linearGradient id="b" gradientTransform="rotate(90)">
      <stop offset="5%" stop-color="#1d81e6" />
      <stop offset="95%" stop-color="#55a0ec" />
    </linearGradient>
    <linearGradient id="c" gradientTransform="rotate(90)">
      <stop offset="5%" stop-color="#2c89e7" />
      <stop offset="95%" stop-color="#60a6ed" />
    </linearGradient>
    <linearGradient id="d" gradientTransform="rotate(90)">
      <stop offset="5%" stop-color="#509deb" />
      <stop offset="95%" stop-color="#7bb5f0" />
    </linearGradient>
    <linearGradient id="e" gradientTransform="rotate(90)">
      <stop offset="5%" stop-color="#8abef2" />
      <stop offset="95%" stop-color="#a7cef5" />
    </linearGradient>
    <linearGradient id="f" gradientTransform="rotate(90)">
      <stop offset="5%" stop-color="#c5def8" />
      <stop offset="95%" stop-color="#d3e6f9" />
    </linearGradient>
    <linearGradient id="g" gradientTransform="rotate(90)">
      <stop offset="5%" stop-color="#fff" />
      <stop offset="95%" stop-color="#fff" />
    </linearGradient>
  </defs>
  <path fill="#0071e3" d="M0 0h1000v600H0z" />
  <path
    d="M0 75c35.95-8.371 71.9-16.742 100-15 28.1 1.742 48.352 13.599 75 15 26.648 1.401 59.693-7.652 95-9 35.307-1.348 72.875 5.01 103 6 30.125.99 52.806-3.387 83-5 30.194-1.613 67.9-.46 96 5 28.1 5.46 46.59 15.228 76 19 29.41 3.772 69.737 1.547 105-5 35.263-6.547 65.462-17.415 93-22 27.538-4.585 52.414-2.888 86-3 33.586-.112 75.882-2.032 92 0 16.118 2.032 6.06 8.016 36 14l-40 525H0Z"
    fill="url(#a)" />
  <path
    d="M0 150c31.32-4.68 62.64-9.361 90-13 27.36-3.639 50.759-6.237 82-4s70.325 9.308 102 14c31.675 4.692 55.942 7.007 87 4 31.058-3.007 68.907-11.334 99-11 30.093.334 52.43 9.328 81 15 28.57 5.672 63.372 8.02 93 7 29.628-1.02 54.083-5.412 83-9s62.297-6.374 93-12c30.703-5.626 58.728-14.092 96-8 37.272 6.092 83.792 26.74 101 32 17.208 5.26 5.104-4.87 33-15l-40 450H0Z"
    fill="url(#b)" />
  <path
    d="M0 225c34.904-1.935 69.808-3.87 97-4 27.192-.13 46.67 1.543 77 5s71.51 8.697 106 5c34.49-3.697 62.291-16.33 91-17 28.709-.67 58.326 10.622 87 18s56.403 10.841 88 7c31.597-3.841 67.06-14.986 96-13 28.94 1.986 51.357 17.104 82 14 30.643-3.104 69.513-24.43 99-26 29.487-1.57 49.593 16.616 84 17 34.407.384 83.116-17.033 101-21 17.884-3.967 4.942 5.517 32 15l-40 375H0Z"
    fill="url(#c)" />
  <path
    d="M0 300c31.572-9.202 63.144-18.404 93-12s57.995 28.414 89 27c31.005-1.414 64.875-26.25 96-28s59.503 19.588 89 24c29.497 4.412 60.11-8.101 88-15 27.89-6.899 53.053-8.182 85-9 31.947-.818 70.676-1.17 102 4 31.324 5.17 55.244 15.863 84 19 28.756 3.137 62.347-1.283 90-5s49.368-6.732 84-8c34.632-1.268 82.18-.791 101 0 18.82.791 8.91 1.895 39 3l-40 300H0Z"
    fill="url(#d)" />
  <path
    d="M0 375c33.823 7.105 67.645 14.21 95 13 27.355-1.21 48.242-10.735 79-10 30.758.735 71.387 11.731 105 10 33.613-1.731 60.211-16.19 88-20 27.789-3.81 56.768 3.027 87 4 30.232.973 61.715-3.917 92-1 30.285 2.917 59.372 13.64 91 13 31.628-.64 65.798-12.644 97-13 31.202-.356 59.436 10.935 85 15 25.564 4.065 48.46.902 80 0s71.726.457 90-1 14.637-5.728 51-10l-40 225H0Z"
    fill="url(#e)" />
  <path
    d="M0 450c27.315-6.859 54.631-13.718 84-12s60.792 12.013 95 11 71.203-13.334 101-13c29.797.334 52.397 13.324 80 22s60.21 13.04 92 7c31.79-6.04 62.765-22.483 95-30 32.235-7.517 65.73-6.107 95-2 29.27 4.107 54.313 10.91 81 12 26.687 1.09 55.02-3.533 84-1 28.98 2.533 58.61 12.22 94 17 35.39 4.78 76.54 4.651 94 2 17.46-2.651 11.23-7.826 45-13l-40 150H0Z"
    fill="url(#f)" />
  <path
    d="M0 525c28.537-1.347 57.073-2.694 88 0s64.244 9.43 95 9c30.756-.43 58.952-8.024 89-16 30.048-7.976 61.948-16.333 92-10 30.052 6.333 58.255 27.358 89 32 30.745 4.642 64.032-7.097 97-8 32.968-.903 65.618 9.032 94 8 28.382-1.032 52.494-13.03 83-21 30.506-7.97 67.404-11.91 95-9 27.596 2.91 45.891 12.668 78 12 32.109-.668 78.031-11.762 97-13 18.969-1.238 10.984 7.381 43 16l-40 75H0Z"
    fill="url(#g)" />
</svg>
