<svg width="100%" height="100%" viewBox="0 0 127 30" fill="none" xmlns="http://www.w3.org/2000/svg">
<path d="M45.2068 8.11417H39.2889V10.2796H45.073C47.4645 10.2796 48.8386 11.3849 48.8386 13.3689C48.8386 15.2455 47.3226 16.4582 44.9839 16.4582H39.2889V23.9896H41.5669V18.5988H44.9433C48.0279 18.5988 51.1369 16.9614 51.1369 13.2575C51.1247 10.1311 48.7981 8.11417 45.2068 8.11417ZM64.2698 17.3078C64.2698 20.3847 62.7538 22.0799 60.0097 22.0799C57.2655 22.0799 55.6807 20.3022 55.6807 17.1965V8.11417H53.4027V17.3078C53.4027 21.5891 55.9077 24.2577 59.9448 24.2577C63.982 24.2577 66.5315 21.6097 66.5315 17.1717V8.11417H64.2535L64.2698 17.3078ZM72.2549 8.11417H69.9931V24.0061H80.7345V21.8325H72.2549V8.11417ZM88.975 14.9486C85.708 14.235 85.1081 13.4843 85.1081 12.2016C85.1081 10.923 86.3038 10.0238 88.0103 10.0238C89.5465 10.0238 91.026 10.593 92.1772 11.6242L92.4042 11.8098L93.7499 10.0238L93.5391 9.85061C92.015 8.539 90.0654 7.84195 88.0671 7.90382C85.0392 7.90382 82.8382 9.78049 82.8382 12.4161C82.8382 15.3486 84.95 16.4169 88.1157 17.1181C91.2814 17.8193 91.8124 18.5328 91.8124 19.7949C91.8124 21.1602 90.5477 22.1129 88.7318 22.1129C86.8146 22.1129 85.3716 21.5355 83.7543 20.0177L83.5394 19.8197L82.1208 21.5272L82.3275 21.7128C84.038 23.3627 86.316 24.2659 88.671 24.2371C91.8651 24.2371 94.0903 22.3357 94.0903 19.6052C94.0985 17.1263 92.5663 15.7405 88.975 14.9486ZM102.355 8.00281L95.2374 24.0061H97.5965L99.384 19.9517H107.219L108.986 24.0061H111.431L104.309 8.00281H102.355ZM100.3 17.8523L103.312 11.0179L106.307 17.8523H100.3ZM122.281 17.6419C124.726 17.0645 126.165 15.3239 126.165 12.944C126.177 12.3501 126.075 11.7603 125.861 11.2076C125.65 10.6549 125.33 10.1517 124.924 9.72275C123.696 8.60499 122.087 8.02343 120.441 8.10592H113.68V24.0061H115.958V18.0461H119.841L124.211 24.002H127L122.281 17.6419ZM115.938 15.9055V10.2796H120.308C122.585 10.2796 123.883 11.2777 123.883 13.0595C123.883 14.8455 122.472 15.955 120.287 15.955L115.938 15.9055Z" fill="white"/>
<path d="M34.7333 8.16358H26.2455C23.9513 3.68843 21.5234 0.211426 18.2199 0.211426C13.9192 0.211426 11.9007 4.02664 9.94695 7.74287L9.77671 8.06871H0V10.2754H5.69498C7.70544 10.2754 8.11483 10.9642 8.11483 10.9642C6.53807 13.4554 4.6411 15.9178 1.47948 15.9178H0V18.2316H1.49164C7.62032 18.2316 10.2955 13.1749 12.4438 9.11635C14.4138 5.37538 15.7879 3.11099 18.2239 3.11099C20.7532 3.11099 23.4122 8.70802 25.751 13.6492C26.0915 14.3669 26.4401 15.1011 26.7927 15.8311C17.8186 16.1199 13.5423 18.2564 10.0645 20.0011C7.51899 21.2756 5.50852 22.8553 2.20098 22.8553H0V25.1733H2.18071C6.16517 25.1733 8.64988 23.9235 11.2927 22.5954C14.9529 20.7641 19.1035 18.6895 28.8883 18.6895H34.5428V16.3715H31.3487C31.0852 16.3921 30.8218 16.3508 30.5786 16.2477C30.3354 16.1487 30.1165 15.992 29.9422 15.7899C29.3828 14.6886 28.8356 13.5296 28.3006 12.3706L27.5588 10.828C27.5588 10.828 28.0898 10.2506 29.5571 10.2506H34.7333V8.16358Z" fill="white"/>
</svg>
