<svg width="100%" height="100%" viewBox="0 0 2651 3137" fill="none" xmlns="http://www.w3.org/2000/svg">
<rect width="2651" height="3137" fill="white"/>
<circle cx="1827.08" cy="808" r="65" fill="#282826"/>
<g style="mix-blend-mode:multiply">
<path d="M2269 299L1827 809" stroke="#6ACCEB" stroke-width="130" stroke-linecap="round"/>
</g>
<g style="mix-blend-mode:multiply">
<path d="M2269 299L1827 809" stroke="#44C0E6" stroke-width="130" stroke-linecap="round"/>
</g>
<circle cx="2269" cy="299" r="65" fill="#1978BD"/>
<g style="mix-blend-mode:multiply">
<path d="M2499 662L1827 809" stroke="#6ACCEB" stroke-width="130" stroke-linecap="round"/>
</g>
<g style="mix-blend-mode:multiply">
<path d="M2499 662L1827 809" stroke="#44C0E6" stroke-width="130" stroke-linecap="round"/>
</g>
<circle cx="2499" cy="662" r="65" fill="#1978BD"/>
<g style="mix-blend-mode:multiply">
<path d="M2119.08 224L1827.08 809" stroke="#6ACCEB" stroke-width="130" stroke-linecap="round"/>
</g>
<g style="mix-blend-mode:multiply">
<path d="M2119.08 224L1827.08 809" stroke="#44C0E6" stroke-width="130" stroke-linecap="round"/>
</g>
<circle cx="2119.08" cy="224" r="65" fill="#1978BD"/>
<g style="mix-blend-mode:multiply">
<path d="M1080.08 2913L1827.08 808" stroke="#B4F5DE" stroke-width="130" stroke-linecap="round"/>
</g>
<g style="mix-blend-mode:multiply">
<path d="M1080.08 2913L1827.08 808" stroke="#6AEBBD" stroke-width="130" stroke-linecap="round"/>
</g>
<circle cx="1080.08" cy="2913" r="65" fill="#19BD82"/>
<g style="mix-blend-mode:multiply">
<path d="M728.085 1393L1827.08 808" stroke="#B4F5DE" stroke-width="130" stroke-linecap="round"/>
</g>
<g style="mix-blend-mode:multiply">
<path d="M728.085 1393L1827.08 808" stroke="#6AEBBD" stroke-width="130" stroke-linecap="round"/>
</g>
<circle cx="728.085" cy="1393" r="65" fill="#19BD82"/>
<g style="mix-blend-mode:multiply">
<path d="M1066.08 994L1827.08 808" stroke="#B4F5DE" stroke-width="130" stroke-linecap="round"/>
</g>
<g style="mix-blend-mode:multiply">
<path d="M1066.08 994L1827.08 808" stroke="#6AEBBD" stroke-width="130" stroke-linecap="round"/>
</g>
<circle cx="1066.08" cy="994" r="65" fill="#19BD82"/>
<g style="mix-blend-mode:multiply">
<path d="M1446.08 1601L1827.08 808" stroke="#B4F5DE" stroke-width="130" stroke-linecap="round"/>
</g>
<g style="mix-blend-mode:multiply">
<path d="M1446.08 1601L1827.08 808" stroke="#6AEBBD" stroke-width="130" stroke-linecap="round"/>
</g>
<circle cx="1446.08" cy="1601" r="65" fill="#19BD82"/>
<g style="mix-blend-mode:multiply">
<path d="M2222.08 1311L1827.08 808" stroke="#B4F5DE" stroke-width="130" stroke-linecap="round"/>
</g>
<g style="mix-blend-mode:multiply">
<path d="M2222.08 1311L1827.08 808" stroke="#6AEBBD" stroke-width="130" stroke-linecap="round"/>
</g>
<circle cx="2222.08" cy="1311" r="65" fill="#19BD82"/>
<g style="mix-blend-mode:multiply">
<path d="M1723.08 1363L1827.08 808" stroke="#FFF1CC" stroke-width="130" stroke-linecap="round"/>
</g>
<g style="mix-blend-mode:multiply">
<path d="M1723.08 1363L1827.08 808" stroke="#FFEAB2" stroke-width="130" stroke-linecap="round"/>
</g>
<circle cx="1723.08" cy="1363" r="65" fill="#FFCD4B"/>
<g style="mix-blend-mode:multiply">
<path d="M1322.08 224L1827.08 808" stroke="#FFF1CC" stroke-width="130" stroke-linecap="round"/>
</g>
<g style="mix-blend-mode:multiply">
<path d="M1322.08 224L1827.08 808" stroke="#FFEAB2" stroke-width="130" stroke-linecap="round"/>
</g>
<circle cx="1322.08" cy="224" r="65" fill="#FFCD4B"/>
<g style="mix-blend-mode:multiply">
<path d="M1413.08 597L1827.08 808" stroke="#FFF1CC" stroke-width="130" stroke-linecap="round"/>
</g>
<g style="mix-blend-mode:multiply">
<path d="M1413.08 597L1827.08 808" stroke="#FFEAB2" stroke-width="130" stroke-linecap="round"/>
</g>
<circle cx="1413.08" cy="597" r="65" fill="#FFCD4B"/>
<g style="mix-blend-mode:multiply">
<path d="M270.085 2512L1827.08 808" stroke="#FFF1CC" stroke-width="130" stroke-linecap="round"/>
</g>
<g style="mix-blend-mode:multiply">
<path d="M270.085 2512L1827.08 808" stroke="#FFEAB2" stroke-width="130" stroke-linecap="round"/>
</g>
<circle cx="270.085" cy="2512" r="65" fill="#FFCD4B"/>
<g style="mix-blend-mode:multiply">
<path d="M2381.08 874L1827.08 809" stroke="#FFF1CC" stroke-width="130" stroke-linecap="round"/>
</g>
<g style="mix-blend-mode:multiply">
<path d="M2381.08 874L1827.08 809" stroke="#FFEAB2" stroke-width="130" stroke-linecap="round"/>
</g>
<circle cx="2381.08" cy="874" r="65" fill="#FFCD4B"/>
</svg>
