<svg width="184" height="56" viewBox="0 0 184 56" fill="none" xmlns="http://www.w3.org/2000/svg">
<circle cx="28" cy="28" r="28" fill="#FFC01C"/>
<path d="M14.8008 19.5999C14.8008 17.8326 16.2335 16.3999 18.0008 16.3999H38.0008C39.7681 16.3999 41.2008 17.8326 41.2008 19.5999V31.5999C41.2008 33.3672 39.7681 34.7999 38.0008 34.7999H28.9927C28.6107 34.7999 28.2414 34.9365 27.9514 35.1851L22.8008 39.5999V36.3999C22.8008 35.5162 22.0844 34.7999 21.2008 34.7999H18.0008C16.2335 34.7999 14.8008 33.3672 14.8008 31.5999V19.5999Z" stroke="#282826" stroke-width="1.5" stroke-linejoin="round"/>
<circle cx="92" cy="28" r="27.5" stroke="#282826" stroke-dasharray="3 3"/>
<path d="M78.8008 19.5999C78.8008 17.8326 80.2335 16.3999 82.0008 16.3999H102.001C103.768 16.3999 105.201 17.8326 105.201 19.5999V31.5999C105.201 33.3672 103.768 34.7999 102.001 34.7999H92.9927C92.6107 34.7999 92.2414 34.9365 91.9514 35.1851L86.8008 39.5999V36.3999C86.8008 35.5162 86.0844 34.7999 85.2008 34.7999H82.0008C80.2335 34.7999 78.8008 33.3672 78.8008 31.5999V19.5999Z" stroke="#282826" stroke-width="1.5" stroke-linejoin="round"/>
<circle cx="156" cy="28" r="27.5" stroke="#282826" stroke-dasharray="3 3"/>
<path d="M142.801 19.5999C142.801 17.8326 144.233 16.3999 146.001 16.3999H166.001C167.768 16.3999 169.201 17.8326 169.201 19.5999V31.5999C169.201 33.3672 167.768 34.7999 166.001 34.7999H156.993C156.611 34.7999 156.241 34.9365 155.951 35.1851L150.801 39.5999V36.3999C150.801 35.5162 150.084 34.7999 149.201 34.7999H146.001C144.233 34.7999 142.801 33.3672 142.801 31.5999V19.5999Z" stroke="#282826" stroke-width="1.5" stroke-linejoin="round"/>
</svg>
