<svg width="2686" height="2685" viewBox="0 0 2686 2685" fill="none" xmlns="http://www.w3.org/2000/svg">
<g style="mix-blend-mode:multiply">
<path d="M1982 1981C1629.09 1981 1343 1694.91 1343 1342" stroke="#FFE298" stroke-width="130" stroke-linecap="round"/>
</g>
<g style="mix-blend-mode:multiply">
<path d="M1343 1342C1695.91 1342 1982 1628.09 1982 1981" stroke="#188FFF" stroke-width="130" stroke-linecap="round"/>
</g>
<g style="mix-blend-mode:multiply">
<path d="M1983 704C1983 1056.91 1696.91 1343 1344 1343" stroke="#44C0E6" stroke-width="130" stroke-linecap="round"/>
</g>
<g style="mix-blend-mode:multiply">
<path d="M704 703C1056.91 703 1343 989.09 1343 1342" stroke="#6AEBBD" stroke-width="130" stroke-linecap="round"/>
</g>
<g style="mix-blend-mode:multiply">
<path d="M1343 1343C990.09 1343 704 1629.09 704 1982" stroke="#6AEBBD" stroke-width="130" stroke-linecap="round"/>
</g>
<g style="mix-blend-mode:multiply">
<path d="M1343 1342C1343 1694.91 1056.91 1981 704 1981" stroke="#6AEBBD" stroke-width="130" stroke-linecap="round"/>
</g>
<g style="mix-blend-mode:multiply">
<path d="M65 2620C65 2267.09 351.09 1981 704 1981" stroke="#6AEBBD" stroke-width="130" stroke-linecap="round"/>
</g>
<g style="mix-blend-mode:multiply">
<path d="M65.002 1343C65.002 990.09 351.092 704 704.002 704" stroke="#FFE298" stroke-width="130" stroke-linecap="round"/>
</g>
<g style="mix-blend-mode:multiply">
<path d="M704 704C704 351.09 990.09 65 1343 65" stroke="#6AEBBD" stroke-width="130" stroke-linecap="round"/>
</g>
<g style="mix-blend-mode:multiply">
<path d="M1343 2619C1695.91 2619 1982 2332.91 1982 1980" stroke="#FFE298" stroke-width="130" stroke-linecap="round"/>
</g>
<g style="mix-blend-mode:multiply">
<path d="M1343 2620C990.09 2620 704 2333.91 704 1981" stroke="#188FFF" stroke-width="130" stroke-linecap="round"/>
</g>
<g style="mix-blend-mode:multiply">
<path d="M1343 65C1695.91 65 1982 351.09 1982 704" stroke="#FFEAB2" stroke-width="130" stroke-linecap="round"/>
</g>
<g style="mix-blend-mode:multiply">
<path d="M704.002 1981C351.092 1981 65.002 1694.91 65.002 1342" stroke="#FFE298" stroke-width="130" stroke-linecap="round"/>
</g>
<g style="mix-blend-mode:multiply">
<path d="M2621 1343C2621 1695.91 2334.91 1982 1982 1982" stroke="#44C0E6" stroke-width="130" stroke-linecap="round"/>
</g>
<circle cx="1343" cy="1342" r="65" transform="rotate(90 1343 1342)" fill="#282826"/>
</svg>
