<svg width="184" height="56" viewBox="0 0 184 56" fill="none" xmlns="http://www.w3.org/2000/svg">
<circle cx="28" cy="28" r="28" fill="#FFD465"/>
<path d="M33.2 19.9998C33.2 22.8717 30.8719 25.1998 28 25.1998C25.1281 25.1998 22.8 22.8717 22.8 19.9998C22.8 17.1279 25.1281 14.7998 28 14.7998C30.8719 14.7998 33.2 17.1279 33.2 19.9998Z" stroke="#282826" stroke-width="1.5" stroke-linejoin="round"/>
<path d="M18 38.5998C18 34.292 21.4922 30.7998 25.8 30.7998H30.2C34.5078 30.7998 38 34.292 38 38.5998C38 40.0357 36.8359 41.1998 35.4 41.1998H20.6C19.1641 41.1998 18 40.0357 18 38.5998Z" stroke="#282826" stroke-width="1.5" stroke-linejoin="round"/>
<circle cx="92" cy="28" r="28" fill="#FFC01C"/>
<path d="M97.2 19.9998C97.2 22.8717 94.8719 25.1998 92 25.1998C89.1281 25.1998 86.8 22.8717 86.8 19.9998C86.8 17.1279 89.1281 14.7998 92 14.7998C94.8719 14.7998 97.2 17.1279 97.2 19.9998Z" stroke="#282826" stroke-width="1.5" stroke-linejoin="round"/>
<path d="M82 38.5998C82 34.292 85.4922 30.7998 89.8 30.7998H94.2C98.5078 30.7998 102 34.292 102 38.5998C102 40.0357 100.836 41.1998 99.4 41.1998H84.6C83.1641 41.1998 82 40.0357 82 38.5998Z" stroke="#282826" stroke-width="1.5" stroke-linejoin="round"/>
<circle cx="156" cy="28" r="28" fill="#FFE298"/>
<path d="M161.2 19.9998C161.2 22.8717 158.872 25.1998 156 25.1998C153.128 25.1998 150.8 22.8717 150.8 19.9998C150.8 17.1279 153.128 14.7998 156 14.7998C158.872 14.7998 161.2 17.1279 161.2 19.9998Z" stroke="#282826" stroke-width="1.5" stroke-linejoin="round"/>
<path d="M146 38.5998C146 34.292 149.492 30.7998 153.8 30.7998H158.2C162.508 30.7998 166 34.292 166 38.5998C166 40.0357 164.836 41.1998 163.4 41.1998H148.6C147.164 41.1998 146 40.0357 146 38.5998Z" stroke="#282826" stroke-width="1.5" stroke-linejoin="round"/>
</svg>
