<svg version="1.2" xmlns="http://www.w3.org/2000/svg" viewBox="0 0 1548 360">
	<title>no-tagline-svg</title>
	<style>
		.s0 { fill: #ef4126 }
	</style>
	<g id="Symbols">
		<g id="Main-Navigation">
			<g id="Logo">
				<g id="Layer">
					<g id="Layer">
						<g id="Combined-Shape">
							<path id="Layer" fill-rule="evenodd" class="s0" d="m180.1 208.1c17.7 0 49.5 31.9 57.9 40.4 8.9 8.9 13.4 22.2 8.9 35.6-6.3 18.8-57.9 66.8-66.8 75.7-8.9-8.9-60.6-56.9-66.9-75.7-4.4-13.4 0-26.7 8.9-35.6l1.9-1.9c10.6-10.5 39.5-38.5 56.1-38.5zm617.5-128.6c47.7 0 87.7 37.2 87.7 100.6 0 61.2-41.1 100.7-91.9 100.7-27.3 0-48-11.5-61.9-28.8v101.9h-48.4v-269.1h48.4v27.3c12.7-18.4 36.9-32.6 66.1-32.6zm229.7 0c47.6 0 87.6 37.2 87.6 100.6 0 61.2-41.1 100.7-91.9 100.7-27.3 0-48-11.5-61.9-28.8v101.9h-48.4v-269.1h48.4v27.3c12.7-18.4 36.9-32.6 66.2-32.6zm-495.9 0c30.4 0 48.5 10 60.4 26.9v-21.6h48.4v190.7h-48.4v-24.6c-11.2 18.4-29.6 29.9-58.8 29.9-52.3 0-92.7-37.2-92.7-100.7 0-63.4 46.1-100.6 91.1-100.6zm710-2.3c57.9 0 94.9 42.7 94.9 96.4v17.1h-149.6c3.1 29.5 23.7 48.1 52.9 48.1 26.8 0 42.3-13.5 53.2-35.3l37.7 21.6c-17.1 35-44.7 55.7-93 55.7-52.5 0-99.1-41.1-99.1-101.8 0-60.6 43.9-101.8 103-101.8zm239.2 2.3c41.2 0 66.9 26.1 66.9 66.1v129.9h-48.4v-110c0-24.9-11.5-40.7-38.8-40.7-25.8 0-44.3 21.5-44.3 53.8v96.9h-48.4v-190.7h48.4v30.8c14.3-21.9 36.9-36.1 64.6-36.1zm-1196.3 33.6c18.9 6.3 66.9 57.9 75.8 66.8-8.9 8.9-56.9 60.5-75.8 66.8-13.3 4.5-26.7 0-35.6-8.9-8.4-8.4-40.4-40.2-40.4-57.9 0-17.7 32-49.5 40.4-57.9 8.9-8.9 22.3-13.4 35.6-8.9zm-172.9 8.9c8.4 8.4 40.3 40.2 40.3 57.9 0 17.7-31.9 49.5-40.3 57.9-8.9 8.9-22.3 13.4-35.7 8.9-18.8-6.3-66.8-57.9-75.7-66.8 8.9-8.9 56.9-60.5 75.7-66.8 13.4-4.5 26.8 0 35.7 8.9zm483.5 58.1c0-30.6-23.6-55.3-52.7-55.3-29.1 0-52.7 24.7-52.7 55.3 0 30.7 23.6 55.4 52.7 55.4 29.1 0 52.7-24.7 52.7-55.4zm241.2 0c0-30.6-24.1-55.3-53.8-55.3-29.8 0-53.9 24.7-53.9 55.3 0 30.7 24.1 55.4 53.9 55.4 29.7 0 53.8-24.7 53.8-55.4zm229.6 0c0-30.6-24.1-55.3-53.8-55.3-29.8 0-53.9 24.7-53.9 55.3 0 30.7 24.1 55.4 53.9 55.4 29.7 0 53.8-24.7 53.8-55.4zm173.9-65.6c-26.5 0-45.5 17.5-52.9 40.4h103.4c-4.7-24.9-22.5-40.4-50.5-40.4zm-1059.5-114.5c8.9 8.9 60.5 56.9 66.8 75.7 4.5 13.4 0 26.7-8.9 35.6-8.4 8.5-40.2 40.4-57.9 40.4-17.8 0-49.5-31.9-58-40.4-8.9-8.9-13.3-22.2-8.9-35.6 6.3-18.8 58-66.8 66.9-75.7z"/>
						</g>
					</g>
				</g>
			</g>
		</g>
	</g>
</svg>
