<svg width="56" height="56" viewBox="0 0 56 56" fill="none" xmlns="http://www.w3.org/2000/svg">
<g style="mix-blend-mode:multiply">
<circle cx="10.5" cy="26.25" r="3.5" stroke="#282826" stroke-width="4.375" stroke-linecap="round" stroke-linejoin="round"/>
</g>
<g style="mix-blend-mode:multiply">
<circle cx="19.25" cy="15.75" r="3.5" stroke="#282826" stroke-width="4.375" stroke-linecap="round" stroke-linejoin="round"/>
</g>
<g style="mix-blend-mode:multiply">
<circle cx="36.75" cy="15.75" r="3.5" stroke="#282826" stroke-width="4.375"/>
</g>
<g style="mix-blend-mode:multiply">
<path d="M5.25 40.25C5.25 38.317 6.817 36.75 8.75 36.75H12.25C14.183 36.75 15.75 38.317 15.75 40.25V43.75H5.25V40.25Z" stroke="#282826" stroke-width="4.375" stroke-linecap="round" stroke-linejoin="round"/>
</g>
<g style="mix-blend-mode:multiply">
<circle cx="28" cy="26.25" r="3.5" stroke="#282826" stroke-width="4.375"/>
</g>
<g style="mix-blend-mode:multiply">
<path d="M22.75 40.25C22.75 38.317 24.317 36.75 26.25 36.75H29.75C31.683 36.75 33.25 38.317 33.25 40.25V43.75H22.75V40.25Z" stroke="#282826" stroke-width="4.375" stroke-linecap="round" stroke-linejoin="round"/>
</g>
<g style="mix-blend-mode:multiply">
<circle cx="45.5" cy="26.25" r="3.5" stroke="#282826" stroke-width="4.375"/>
</g>
<g style="mix-blend-mode:multiply">
<path d="M40.25 40.25C40.25 38.317 41.817 36.75 43.75 36.75H47.25C49.183 36.75 50.75 38.317 50.75 40.25V43.75H40.25V40.25Z" stroke="#282826" stroke-width="4.375" stroke-linecap="round" stroke-linejoin="round"/>
</g>
</svg>
