<?xml version="1.0" encoding="UTF-8" standalone="no"?>
<!-- Created with Inkscape (http://www.inkscape.org/) -->

<svg
   xmlns:dc="http://purl.org/dc/elements/1.1/"
   xmlns:cc="http://creativecommons.org/ns#"
   xmlns:rdf="http://www.w3.org/1999/02/22-rdf-syntax-ns#"
   xmlns:svg="http://www.w3.org/2000/svg"
   xmlns="http://www.w3.org/2000/svg"
   xmlns:sodipodi="http://sodipodi.sourceforge.net/DTD/sodipodi-0.dtd"
   xmlns:inkscape="http://www.inkscape.org/namespaces/inkscape"
   width="1000.2"
   height="216.84758"
   id="svg3168"
   version="1.1"
   inkscape:version="0.92.4 (5da689c313, 2019-01-14)"
   sodipodi:docname="Domino's.svg">
  <defs
     id="defs3170" />
  <sodipodi:namedview
     id="base"
     pagecolor="#ffffff"
     bordercolor="#666666"
     borderopacity="1.0"
     inkscape:pageopacity="0.0"
     inkscape:pageshadow="2"
     inkscape:zoom="0.9899495"
     inkscape:cx="416.67392"
     inkscape:cy="61.915047"
     inkscape:document-units="px"
     inkscape:current-layer="layer1"
     showgrid="false"
     fit-margin-top="0.1"
     fit-margin-left="0.1"
     fit-margin-right="0.1"
     fit-margin-bottom="0.1"
     inkscape:window-width="1920"
     inkscape:window-height="1017"
     inkscape:window-x="-8"
     inkscape:window-y="-8"
     inkscape:window-maximized="1" />
  <metadata
     id="metadata3173">
    <rdf:RDF>
      <cc:Work
         rdf:about="">
        <dc:format>image/svg+xml</dc:format>
        <dc:type
           rdf:resource="http://purl.org/dc/dcmitype/StillImage" />
        <dc:title></dc:title>
      </cc:Work>
    </rdf:RDF>
  </metadata>
  <g
     inkscape:label="Layer 1"
     inkscape:groupmode="layer"
     id="layer1"
     transform="translate(275.23866,-331.21099)">
    <g
       id="g3271"
       transform="matrix(0.83286384,0,0,0.83286384,-45.985619,91.583695)">
      <g
         transform="matrix(0.4161099,0,0,0.4161099,483.61177,424.54446)"
         id="g3087">
        <g
           style="fill:#017eb4;fill-opacity:1"
           transform="matrix(2.4039585,0,0,2.4039585,-1169.1324,-3000.9358)"
           id="g3114">
          <path
             inkscape:connector-curvature="0"
             style="fill:#017eb4;fill-opacity:1;stroke:none"
             d="m 27,1218.5945 c -1.95344,0 -4,1.9806 -4,4 v 142 c 0,1.8955 2.104804,4 4,4 h 68 c 44.05344,0 78,-28.9193 78,-75 0,-36.8398 -24.83056,-75 -82,-75 z m 41,40 h 24 c 18.15387,0 34.5,11.0805 34.5,35 0,19.0966 -14.90271,36 -34.5,36 H 68 Z"
             id="path3057" />
          <path
             inkscape:connector-curvature="0"
             style="fill:#017eb4;fill-opacity:1;stroke:none"
             d="m 238,1257.0945 c -31.06281,0 -57.5,26.1065 -57.5,56 0,35.502 28.02017,58.5 57.5,58.5 32.10041,0 57.5,-25.3437 57.5,-57 0,-30.2153 -22.3373,-57.5 -57.5,-57.5 z m 0.0625,37.2812 c 11.92859,0 19.5,9.2498 19.5,19.5 0,10.7391 -8.61025,19.3438 -19.5,19.3438 -10.00073,0 -19.5,-7.8001 -19.5,-19.8438 0,-10.141 8.96226,-19 19.5,-19 z"
             id="path3059" />
          <path
             style="fill:#017eb4;fill-opacity:1;stroke:none"
             d="m 312,1368.5817 c -2.08155,0 -4,-1.9514 -4,-4 v -100 c 0.0675,-2.0096 2.04651,-4 4,-4 h 32 c 1.97679,0 4,2.0767 4,4 v 8 c 0,0 13.02859,-15 37,-15 19.3296,0 27,9 31,19 6,-9 18.32996,-19 38,-19 24.54474,0 34,13.8481 34,35 v 72 c 0,2.0463 -2.00591,4 -4,4 h -33 c -1.88445,0 -4,-2.0166 -4,-4 v -60 c 0,-7.0628 -5.51974,-11 -12,-11 -10.55799,0 -17,8 -17,8 v 63 c 0,1.9995 -2.05489,4 -4,4 h -33 c -1.89915,0 -4,-1.9224 -4,-4 v -60 c 0,-5.9408 -3.22709,-11 -12,-11 -10.51891,0 -17,8.5 -17,8.5 v 62.5 c 0,2.05 -2.0346,4 -4,4 z"
             id="path3061"
             inkscape:connector-curvature="0"
             sodipodi:nodetypes="cccccccccccccccccccccccccccc" />
          <path
             id="path3063"
             d="m 746,1257.0945 c -31.06281,0 -57.5,26.1065 -57.5,56 0,35.502 28.02017,58.5 57.5,58.5 32.10041,0 57.5,-25.3437 57.5,-57 0,-30.2153 -22.3373,-57.5 -57.5,-57.5 z m 0.0625,37.2812 c 11.92859,0 19.5,9.2498 19.5,19.5 0,10.7391 -8.61025,19.3438 -19.5,19.3438 -10.00073,0 -19.5,-7.8001 -19.5,-19.8438 0,-10.141 8.96226,-19 19.5,-19 z"
             style="fill:#017eb4;fill-opacity:1;stroke:none"
             inkscape:connector-curvature="0" />
          <path
             sodipodi:nodetypes="ccccccccccccccccccc"
             inkscape:connector-curvature="0"
             id="path3065"
             d="m 566,1368.5817 c -2.08155,0 -4,-1.9514 -4,-4 v -100 c 0.0675,-2.0096 2.04651,-4 4,-4 h 33 c 1.97679,0 4,2.0767 4,4 v 7.5 c 0,0 11.02859,-14.5 37,-14.5 27.2671,0 37,16.061 37,37 v 70 c 0,1.9995 -2.05489,4 -4,4 h -33 c -1.89915,0 -4,-1.9224 -4,-4 v -56 c 0,-6.4408 -2.66459,-15 -16,-15 -11.14391,0 -17,8 -17,8 v 63 c 0,2.05 -2.0346,4 -4,4 z"
             style="fill:#017eb4;fill-opacity:1;stroke:none" />
          <path
             style="fill:#017eb4;fill-opacity:1;stroke:none"
             d="m 508,1368.5817 c -2.08155,0 -4,-1.9514 -4,-4 v -100 c 0.0675,-2.0096 2.04651,-4 4,-4 h 33 c 1.97679,0 4,2.0767 4,4 v 7.5 92.5 c 0,2.05 -2.0346,4 -4,4 z"
             id="path3067"
             inkscape:connector-curvature="0"
             sodipodi:nodetypes="cccccccccc" />
          <path
             inkscape:connector-curvature="0"
             style="fill:#017eb4;fill-opacity:1;fill-rule:nonzero;stroke:none"
             d="m 548.74999,1229.4879 c 0,12.6163 -10.35342,22.8438 -23.125,22.8438 -12.77158,0 -23.125,-10.2275 -23.125,-22.8438 0,-12.6162 10.35342,-22.8437 23.125,-22.8437 12.77158,0 23.125,10.2275 23.125,22.8437 z"
             id="path3069" />
          <path
             style="fill:#017eb4;fill-opacity:1;stroke:none"
             d="m 789.875,1229.4567 c 0,-11.8747 9.81452,-22.25 22.9375,-22.25 14.39255,0 23.375,11.5803 23.375,23.9375 0,19.4821 -15.11613,30.0524 -26.75,35.5625 -1.59375,0.7173 -2.4375,1.2808 -5.25,-2.125 -3.49698,-4.2541 -2.05219,-4.527 0.125,-6.5625 1.51016,-1.3537 2.87199,-2.4107 4.6875,-4.375 0,0 1.4375,-1.3038 1.4375,-3.9375 -9.56808,0 -20.5625,-7.5667 -20.5625,-20.25 z"
             id="path3071"
             inkscape:connector-curvature="0"
             sodipodi:nodetypes="ccccccccc" />
          <path
             style="fill:#017eb4;fill-opacity:1;stroke:none"
             d="m 825.9375,1291.8942 c 0,-24.8385 23.98158,-34.209 48.79733,-34.209 24.46782,0 37.15198,7.1759 46.00314,12.3295 2.43249,1.1849 2.43364,3.5775 1.32453,5.6295 l -11.18306,18.8812 c -1.43662,2.401 -3.37221,2.7025 -6.40403,0.7299 -5.77888,-3.551 -13.70276,-8.7361 -27.41291,-8.7361 -6.70826,0 -12.0625,1.7472 -12.0625,5.8125 0,11.0083 63.125,-3.0954 63.125,41.875 0,25.4455 -23.29745,37.5 -52.75,37.5 -30.39489,0 -50.33395,-13.9742 -50.33395,-13.9742 -2.39237,-1.5421 -1.92098,-3.6467 -0.0732,-6.5013 l 11.90715,-19.8995 c 1.50357,-2.9057 4.20368,-2.7191 6.69508,-1.0809 0,0 17.65484,11.3309 34.30492,11.3309 11.07198,0 15.0625,-3.7671 15.0625,-5.875 0,-13.3652 -67,0.5544 -67,-43.8125 z"
             id="path3073"
             inkscape:connector-curvature="0"
             sodipodi:nodetypes="ccccccccccccccccc" />
        </g>
      </g>
      <g
         transform="matrix(0.45464146,0,0,0.45464146,-251.79282,-268.44573)"
         id="g3161">
        <path
           inkscape:connector-curvature="0"
           style="fill:#e3163d;fill-opacity:1;stroke:none"
           d="m 332.9,1223.559 c -5.25,0 -10.5,1.75 -14,5.25 l -172.5,172.5 192,192 170.5,-170.5 c 7.94937,-7.9494 8.0403,-23.9598 0,-32 l -162,-162 c -3.5,-3.5 -8.75,-5.25 -14,-5.25 z"
           id="path3159" />
        <path
           inkscape:connector-curvature="0"
           style="fill:#017eb4;fill-opacity:1;stroke:none"
           d="m 139.4,1408.309 -185.500003,185.5 c -7,7 -7,21 0,28 l 163.000003,163 c 6.88763,6.8876 23,7 30,0 l 7,-7 177.5,-177.5 z"
           id="path3145" />
        <path
           transform="matrix(0.93660073,0,0,0.93660073,257.08615,629.3774)"
           style="fill:#ffffff;fill-opacity:1;fill-rule:nonzero;stroke:none"
           d="m -160,1038.4353 a 50,50 0 0 1 -50,50 50,50 0 0 1 -50,-50 50,50 0 0 1 50,-50 50,50 0 0 1 50,50 z"
           id="path3151"
           inkscape:connector-curvature="0" />
        <path
           transform="matrix(0.93660073,0,0,0.93660073,399.3326,638.78349)"
           style="fill:#ffffff;fill-opacity:1;fill-rule:nonzero;stroke:none"
           d="m -160,1038.4353 a 50,50 0 0 1 -50,50 50,50 0 0 1 -50,-50 50,50 0 0 1 50,-50 50,50 0 0 1 50,50 z"
           id="path3153"
           inkscape:connector-curvature="0" />
        <path
           transform="matrix(0.93660073,0,0,0.93660073,531.01782,432.83967)"
           style="fill:#ffffff;fill-opacity:1;fill-rule:nonzero;stroke:none"
           d="m -160,1038.4353 a 50,50 0 0 1 -50,50 50,50 0 0 1 -50,-50 50,50 0 0 1 50,-50 50,50 0 0 1 50,50 z"
           id="path3155"
           inkscape:connector-curvature="0" />
      </g>
    </g>
  </g>
</svg>
