<?xml version="1.0" encoding="UTF-8" standalone="no"?>
<svg
   id="Layer_1"
   viewBox="0 0 606.613 992.38555"
   version="1.1"
   width="606.61334"
   height="992.38611"
   xmlns="http://www.w3.org/2000/svg"
   xmlns:svg="http://www.w3.org/2000/svg">
  <defs
     id="defs1">
    <style
       id="style1">
      .cls-1 {
        fill: #7c297d;
      }

      .cls-2 {
        fill: #f79a23;
      }

      .cls-3 {
        fill: #dd552c;
      }

      .cls-4 {
        fill: #d22128;
      }
    </style>
    <filter
       style="color-interpolation-filters:sRGB"
       id="filter7"
       x="0"
       y="0"
       width="1"
       height="1">
      <feColorMatrix
         values="0.21 0.72 0.072 0.23 0 0.21 0.72 0.072 0.23 0 0.21 0.72 0.072 0.23 0 0 0 0 1 0 "
         id="feColorMatrix7" />
    </filter>
  </defs>
  <g
     id="g7"
     style="filter:url(#filter7)"
     transform="translate(-21.693316,-3.8069614)">
    <path
       class="cls-3"
       d="M 276.70929,398.15158 C 302.23724,335.02733 330.72037,272.0269 361.28223,216.18798 315.661,182.30276 271.85458,109.23451 253.85632,76.861096 247.39206,84.205064 243.19551,92.663335 241.29273,99.544641 224.33709,160.7661 284.69512,234.69452 236.07962,207.68409 195.57375,185.17649 104.36388,135.88653 69.572883,184.87673 108.53762,234.94214 210.45066,360.90391 276.70929,398.15158 Z"
       id="path1" />
    <path
       class="cls-2"
       d="m 361.28223,216.18798 c 29.61372,-54.10557 61.17258,-101.49274 93.89136,-135.632093 0,0 -32.63406,47.237293 -79.24578,141.666263 28.22899,7.77405 108.62492,23.72617 220.60904,-5.20008 2.75317,-20.35067 -10.92799,-42.73447 -79.10569,-50.22831 -44.51018,-4.88729 53.4246,-106.28228 -17.52257,-154.236376 -2.29051,-1.5509 -4.54192,-2.9193413 -6.74771,-4.1444221 C 490.78239,7.5593151 488.27033,6.7773486 485.58883,6.0800952 402.72971,-15.541278 391.24458,124.95855 358.18043,94.755096 304.74931,45.947354 271.02374,57.351032 253.85632,76.861096 271.85458,109.23451 315.661,182.30276 361.28223,216.18798 Z"
       id="path2" />
    <path
       class="cls-4"
       d="M 210.0662,580.02395 C 228.77149,523.98954 251.27257,461.03472 276.70929,398.15158 210.45066,360.90391 108.53762,234.94214 69.572883,184.87673 62.61664,194.66435 57.862935,208.31618 56.279453,226.98563 47.782084,327.26632 151.23625,401.50752 130.61188,415.06812 103.33103,433.00774 49.03323,371.97525 27.633414,410.75427 58.651418,450.60198 121.83431,522.60155 210.0662,580.02395 Z"
       id="path3" />
    <path
       class="cls-3"
       d="m 496.71556,363.75157 c -52.38198,-18.68248 54.73766,-68.78699 89.52214,-121.94116 4.45069,-6.79659 9.05126,-15.58068 10.29915,-24.78834 -111.98412,28.92625 -192.38005,12.97413 -220.60904,5.20008 -24.13019,48.89246 -51.99426,110.5049 -81.05409,184.79172 30.26536,12.94154 153.84213,60.74576 328.39009,60.99338 29.34655,-76.43722 -76.83473,-86.53111 -126.54825,-104.25568 z"
       id="path4" />
    <path
       class="cls-4"
       d="m 230.3061,590.11132 c 30.78015,9.59212 132.76813,38.24468 241.08353,33.93083 14.55109,-39.39808 -39.85097,-43.24275 -44.28212,-74.84071 -3.43087,-24.44949 143.16829,20.54617 190.33717,-68.3569 2.38499,-4.49631 4.24542,-8.73848 5.81913,-12.83729 -174.54796,-0.24762 -298.12473,-48.05184 -328.39009,-60.99338 -21.23691,54.28802 -43.08309,115.21624 -64.56762,183.09745 z"
       id="path5" />
    <path
       class="cls-1"
       d="m 230.3061,590.11132 c -13.83104,43.69238 -27.47635,90.36926 -40.72091,139.69832 -4.69831,17.48998 -9.34124,35.30578 -13.919,53.51257 102.80578,33.93735 197.4726,0.0782 200.68192,-41.88734 0.0261,-0.33233 -0.0358,-0.57996 -0.0163,-0.89926 2.44691,-44.44828 -64.17338,-19.80982 -62.59641,-46.53352 1.58348,-26.9192 116.30774,-0.1564 151.78621,-57.87204 2.72059,-4.42463 4.49305,-8.35401 5.86801,-12.0879 C 363.07423,628.356 261.08625,599.70344 230.3061,590.11132 Z"
       id="path6" />
    <path
       class="cls-1"
       d="m 27.633414,410.75427 c -1.49877,2.71734 -2.85092,5.85824 -4.004321,9.61167 -19.9238542,64.75335 120.960447,151.7406 101.792487,170.70329 -17.2782,17.08597 -39.795576,-21.96023 -67.561903,-5.83217 -3.043153,1.77246 -6.131921,4.00758 -9.302143,7.25926 -31.402472,32.1714 -0.491988,124.85398 88.603316,174.3264 -20.79053,69.81006 -41.489835,147.8047 -61.752542,229.37032 7.350485,-2.57397 16.147608,-5.15446 18.337114,-12.0879 3.287518,-13.51499 23.605618,-95.7518 56.594828,-207.31887 0,0 6.02114,-22.85297 17.04361,-60.50465 10.19163,-34.81706 24.6743,-82.30198 42.68234,-136.25767 C 121.83431,522.60155 58.651418,450.60198 27.633414,410.75427 Z"
       id="path7" />
  </g>
</svg>
