<svg width="20" height="36" viewBox="0 0 20 36" fill="none" xmlns="http://www.w3.org/2000/svg">
<path fill-rule="evenodd" clip-rule="evenodd" d="M15.0385 0.171315C14.4842 0.504348 13.5638 1.44808 12.4645 2.81513L12.4648 2.81576C12.4039 2.89152 12.3429 2.96836 12.2811 3.0463L12.2354 3.10388C11.9445 3.47353 11.6419 3.8713 11.3317 4.29291C10.9823 4.76819 10.6228 5.27583 10.2575 5.80817C9.92058 6.30048 9.57866 6.81578 9.23675 7.34898C8.94582 7.80296 8.65323 8.27057 8.36315 8.7501L8.33078 8.80338L8.33055 8.80291L8.32686 8.809L8.32239 8.81641L8.32158 8.81773C8.31788 8.82388 8.31419 8.83004 8.31051 8.83619L8.29852 8.85631C8.28781 8.87428 8.2771 8.89225 8.26617 8.91023C7.96021 9.41957 7.65507 9.94084 7.3558 10.4732C7.05317 11.0106 6.7564 11.5583 6.46631 12.1136C6.22137 12.5821 5.98228 13.0548 5.74987 13.5318C5.7226 13.5884 5.69562 13.6443 5.66876 13.7002C5.64951 13.7403 5.6303 13.7804 5.6111 13.8205C5.32436 14.421 5.06604 15.0011 4.83197 15.559C4.56696 16.1909 4.33373 16.7948 4.12974 17.3672C3.99515 17.7437 3.8731 18.1074 3.76108 18.4566C3.66912 18.7547 3.58134 19.0537 3.49858 19.3509C3.30212 20.0519 3.13325 20.7512 2.99448 21.4479L2.99604 21.4511C2.99347 21.4641 2.99058 21.4773 2.98765 21.4907L2.9875 21.4914C2.98385 21.5082 2.98013 21.5252 2.97692 21.5425C2.8114 22.3925 2.69353 23.2391 2.63417 24.0807C2.63334 24.0956 2.63208 24.1103 2.63082 24.1251C2.62957 24.1397 2.62832 24.1544 2.62748 24.1693C2.21535 23.4964 1.11185 22.8397 1.11436 22.8456C1.90436 24.0125 2.50376 25.1709 2.59321 26.308C2.1702 26.3966 1.59087 26.2688 0.921252 26.0175C1.6193 26.6708 2.14346 26.8514 2.34743 26.9C1.70623 26.9408 1.03829 27.3897 0.365325 27.9067C1.34928 27.4979 2.14429 27.336 2.71359 27.4672C1.81073 30.0719 0.905365 32.9473 0 36C0.277547 35.9165 0.44307 35.7266 0.53586 35.4694C0.697211 34.9166 1.7681 31.2898 3.44591 26.5226C3.47512 26.4396 3.50464 26.3563 3.53427 26.2727L3.5378 26.2627C3.55535 26.2132 3.57294 26.1635 3.59054 26.1138C3.59875 26.0902 3.60727 26.0667 3.61575 26.0434L3.61583 26.0431L3.62239 26.025C3.62546 26.0165 3.6285 26.0081 3.6315 25.9997C3.80872 25.4997 3.99264 24.9895 4.18241 24.4691C4.22588 24.3507 4.26935 24.2323 4.31283 24.113C4.31366 24.1105 4.31449 24.1079 4.31533 24.1062L3.42223 22.3082L4.31533 24.1045C4.49006 23.6292 4.66895 23.148 4.85287 22.66C4.90387 22.5245 4.95569 22.3874 5.00752 22.2511C5.04286 22.1582 5.07837 22.065 5.11402 21.9717C5.07834 22.0653 5.04285 22.1587 5.00752 22.252C4.95569 22.3883 4.90387 22.5245 4.85287 22.6608C4.66895 23.1489 4.49006 23.6301 4.31533 24.1054L4.47082 24.418L4.6096 24.4026L4.61524 24.3864C4.61838 24.3774 4.62151 24.3686 4.62465 24.36C4.84953 23.734 5.0719 23.1242 5.2926 22.5305L5.29703 22.5187C5.29554 22.5229 5.29405 22.5271 5.29259 22.5313C5.0719 23.125 4.84952 23.7349 4.62548 24.36C4.62057 24.3742 4.61567 24.3884 4.61076 24.4017L4.61043 24.4018C4.57699 24.4929 4.54439 24.5841 4.51179 24.676C4.33791 25.1632 4.16318 25.659 3.98763 26.1657C3.98512 26.1734 3.98261 26.1802 3.98011 26.1879C3.96811 26.2221 3.95629 26.2564 3.94449 26.2906C3.93163 26.3279 3.91878 26.3652 3.9057 26.4025C3.802 26.703 3.70992 26.9772 3.52929 27.515L3.45009 27.7508C3.83715 27.9306 4.14814 28.4041 4.4424 28.9416C4.41147 28.3854 4.18492 27.8624 3.75606 27.4578C5.66461 27.5456 7.30898 27.0541 8.15917 25.6326C8.23525 25.5056 8.30463 25.3728 8.36733 25.2305C7.98111 25.7297 7.50209 25.9417 6.60007 25.8898C7.9276 25.2842 8.59388 24.7033 9.18241 23.74C9.32202 23.5117 9.45745 23.2621 9.59622 22.9853C8.43504 24.1999 7.08996 24.5457 5.67297 24.2834L5.67023 24.2837C5.66078 24.2818 5.65118 24.2803 5.64159 24.2788L5.64119 24.2787L5.64095 24.2787C5.63038 24.277 5.61981 24.2753 5.60943 24.2732C6.88012 24.1122 8.5688 23.1446 9.66059 21.9505C10.1638 21.4002 10.6203 20.7512 11.0425 19.9914C11.3568 19.4259 11.6519 18.799 11.9328 18.1048C12.1786 17.4984 12.4143 16.8417 12.6417 16.1296C12.3499 16.2863 12.0155 16.4013 11.6469 16.4814C11.5825 16.495 11.5165 16.5087 11.4496 16.5206C11.3828 16.5325 11.3152 16.5435 11.2468 16.5529L11.2471 16.5528C11.2473 16.5527 11.2475 16.5526 11.2477 16.5525C11.2481 16.5523 11.2485 16.5521 11.249 16.5521L11.254 16.5501C11.32 16.5403 11.3852 16.5304 11.4496 16.5189C11.5165 16.5069 11.5817 16.4942 11.6469 16.4797C11.5369 16.5001 11.4238 16.5198 11.3083 16.54L11.2568 16.549C12.4368 16.0839 13.1821 15.1886 13.7243 14.0931C13.4125 14.3094 12.9059 14.5931 12.2989 14.7294C12.2162 14.7481 12.1318 14.7626 12.0465 14.7753L12.0378 14.7767C12.0192 14.7796 12.0012 14.7825 11.9832 14.7847C11.9833 14.7847 11.9834 14.7846 11.9835 14.7845C11.9839 14.7843 11.984 14.7839 11.9846 14.7839C11.9846 14.7839 11.9851 14.7839 11.9853 14.7835C11.9886 14.7831 11.9919 14.7826 11.9952 14.7821L11.9991 14.7816L12.0042 14.7808L12.0068 14.7804L12.0151 14.779L12.0154 14.779C12.0255 14.7773 12.0356 14.7757 12.0456 14.7745C12.1318 14.7617 12.2162 14.7464 12.2981 14.7285L12.2831 14.731C12.2881 14.7299 12.2931 14.7288 12.2981 14.7277C12.2921 14.7289 12.2861 14.7302 12.2801 14.7315C12.2484 14.7368 12.2165 14.7423 12.1845 14.7478L12.1267 14.7578L12.126 14.7579L12.0072 14.7783L11.9893 14.7814C12.3989 14.6063 12.7446 14.4109 13.0446 14.18C13.109 14.1306 13.1717 14.0795 13.2319 14.0258C13.3239 13.9449 13.4108 13.8597 13.4944 13.7703C13.5479 13.7132 13.5997 13.6545 13.6499 13.5931C13.7678 13.45 13.8781 13.2959 13.9818 13.1281C14.0135 13.077 14.0445 13.025 14.0754 12.9714C14.1147 12.8938 14.1523 12.818 14.1891 12.7431C14.3546 12.4041 14.4867 12.1017 14.592 11.836C14.6447 11.7031 14.6907 11.5805 14.73 11.4663C14.7459 11.4212 14.7609 11.3769 14.7751 11.3343C14.8169 11.2065 14.8512 11.0933 14.8779 10.9936C14.9181 10.8445 14.9423 10.7261 14.9557 10.6401C14.9156 10.6725 14.8696 10.7049 14.8178 10.7364C14.46 10.9544 13.8463 11.152 13.3514 11.2449L13.206 11.261C14.1782 10.8054 14.6129 10.3931 15.0351 9.79689C15.1471 9.63251 15.26 9.46046 15.372 9.28244C15.7148 8.73732 16.0508 8.13684 16.3518 7.53977C16.6419 6.96314 16.8977 6.39162 17.0941 5.87631C17.2187 5.54839 17.319 5.24346 17.3884 4.97601C17.4494 4.74008 17.4971 4.51607 17.5339 4.30228C16.2339 4.52799 14.6422 4.74434 13.6064 4.79629C13.3097 5.2605 12.9853 5.78773 12.6367 6.3848C12.6244 6.40524 12.6122 6.42644 12.5999 6.44764C12.5938 6.45824 12.5876 6.46884 12.5815 6.47934C12.2806 6.99635 11.9604 7.56362 11.6243 8.18539C11.3334 8.72199 11.0308 9.29777 10.7164 9.91699C10.4422 10.4561 10.1588 11.0285 9.86792 11.6341L13.206 11.261L13.2039 11.262L9.86708 11.635L9.86676 11.6356C9.86101 11.6473 9.85525 11.659 9.84868 11.6716C9.84175 11.686 9.83482 11.7005 9.82789 11.715C9.8166 11.7386 9.8053 11.7622 9.79397 11.786L9.79345 11.787C9.77411 11.8275 9.75466 11.8683 9.73499 11.9092C9.6213 12.1486 9.50593 12.3922 9.38889 12.6417C9.36007 12.7034 9.3312 12.7654 9.30227 12.8276L9.33911 12.7482C9.35575 12.7123 9.37235 12.6765 9.3889 12.6409C9.5051 12.3913 9.62046 12.1477 9.73499 11.9084C9.75631 11.863 9.77788 11.8182 9.79941 11.7735L9.79949 11.7734L9.79961 11.7731L9.79988 11.7725L9.80103 11.7702C9.81698 11.737 9.83291 11.704 9.84869 11.6707C9.85009 11.6677 9.85153 11.6646 9.853 11.6616L9.85596 11.6555L9.85785 11.6516L9.86195 11.6432C9.8637 11.6396 9.86543 11.636 9.86708 11.6324L9.74335 11.646L9.64471 11.4484C9.92559 10.882 10.2098 10.3233 10.4974 9.77475C10.8042 9.19045 11.1152 8.61893 11.4295 8.06274C11.7556 7.48526 12.0858 6.92481 12.4193 6.3848L12.4242 6.37686L12.4349 6.35944C12.4492 6.33603 12.4637 6.31229 12.4778 6.28855C12.8072 5.75706 13.1399 5.24602 13.4752 4.75711L13.4748 4.75642C14.1836 3.72353 14.9032 2.79451 15.6295 2.00087C15.3946 2.26491 14.6815 3.11239 13.6056 4.79544C14.6414 4.74264 16.2331 4.52714 17.5313 4.30058C17.9176 2.09626 17.1526 1.08694 17.1526 1.08694C17.1526 1.08694 16.1804 -0.516044 15.0385 0.171315ZM15.6295 2.00087C15.6855 1.93784 15.7148 1.90802 15.7148 1.90802C15.7006 1.92328 15.6865 1.93874 15.6723 1.9542C15.6581 1.96983 15.6438 1.98545 15.6295 2.00087ZM9.64471 11.4484C9.63552 11.468 9.62548 11.4868 9.61545 11.5063C9.43822 11.8649 9.26266 12.2269 9.08878 12.5923C8.98846 12.8036 8.88815 13.0156 8.78866 13.2286C8.51279 13.8188 8.24109 14.4142 7.97442 15.0138C7.7044 15.6194 7.44023 16.2284 7.18107 16.8383C6.9261 17.4371 6.67698 18.0367 6.43204 18.6346C6.18793 19.2317 5.94967 19.8271 5.71643 20.4182C5.67799 20.5158 5.63971 20.6132 5.6016 20.7105C5.63973 20.6129 5.67801 20.5152 5.71643 20.4173C5.94884 19.8262 6.18793 19.2317 6.43204 18.6338C6.67614 18.0358 6.9261 17.4371 7.18107 16.8374C7.44023 16.2276 7.70523 15.6186 7.97442 15.013C8.24109 14.4142 8.51279 13.818 8.78866 13.2277C8.88815 13.0148 8.98846 12.8027 9.08878 12.5915C9.26266 12.2261 9.43822 11.8641 9.61545 11.5055C9.62229 11.4909 9.62959 11.4768 9.63701 11.4625C9.63949 11.4577 9.642 11.4529 9.6445 11.448L9.64471 11.4484ZM5.32436 22.4445L5.31983 22.4565C5.32136 22.4522 5.32287 22.4479 5.32436 22.4436C5.54673 21.8457 5.76659 21.2648 5.98479 20.6984C6.22973 20.063 6.47133 19.448 6.71042 18.8518C6.96204 18.2232 7.21033 17.6159 7.45527 17.0291C7.71192 16.4133 7.96522 15.8204 8.21351 15.2498C8.41582 14.7856 8.61478 14.3358 8.81123 13.9006C8.87644 13.7558 8.94165 13.6119 9.00686 13.4696C9.05462 13.365 9.10226 13.2612 9.1497 13.1581C9.10229 13.2613 9.05469 13.3654 9.00686 13.4705C8.96113 13.5702 8.91581 13.6704 8.87005 13.7716L8.81123 13.9015C8.61478 14.3367 8.41582 14.7864 8.21351 15.2506C7.96522 15.8213 7.71192 16.4141 7.45527 17.0299C7.21033 17.6168 6.96204 18.2241 6.71042 18.8527C6.47132 19.4489 6.22973 20.0647 5.98479 20.6992C5.76659 21.2657 5.54673 21.8465 5.32436 22.4445ZM13.2603 11.2601C13.2832 11.2564 13.306 11.2527 13.3289 11.2491C13.3028 11.2536 13.2766 11.2579 13.2503 11.2621L13.2492 11.2623L13.2489 11.2624L13.246 11.2628C13.2351 11.2646 13.2241 11.2664 13.2132 11.2682C13.2019 11.27 13.1906 11.2719 13.1792 11.2738L13.1815 11.2727C13.1923 11.2711 13.2031 11.2694 13.2139 11.2677L13.2329 11.2646L13.259 11.2604L13.2596 11.2603L13.2603 11.2601ZM13.1913 11.2681C13.1896 11.269 13.1879 11.2698 13.1861 11.2705L13.1879 11.2696C13.1916 11.2678 13.1953 11.266 13.1991 11.2643L13.1973 11.2652C13.1953 11.2662 13.1933 11.2672 13.1913 11.2681Z" fill="#B0AFAB"/>
<path d="M18.5479 3.39602V3.29637H19.1139V3.39602H18.8831V4.05528H18.777V3.39602H18.5479Z" fill="#B0AFAB"/>
<path d="M19.6154 3.82616L19.8713 3.29637H20V4.05528H19.9022V3.45309L19.6489 3.97521H19.5812L19.3279 3.45309V4.05528H19.2301V3.29637H19.358L19.6154 3.82616Z" fill="#B0AFAB"/>
</svg>
