<svg width="127" height="30" viewBox="0 0 127 30" fill="none" xmlns="http://www.w3.org/2000/svg">
<path d="M45.207 8.11408H39.2891V10.2795H45.0732C47.4647 10.2795 48.8388 11.3849 48.8388 13.3688C48.8388 15.2454 47.3228 16.4581 44.984 16.4581H39.2891V23.9895H41.5671V18.5987H44.9435C48.0281 18.5987 51.137 16.9613 51.137 13.2574C51.1249 10.131 48.7983 8.11408 45.207 8.11408ZM64.2699 17.3077C64.2699 20.3846 62.754 22.0798 60.0099 22.0798C57.2657 22.0798 55.6809 20.3022 55.6809 17.1964V8.11408H53.4029V17.3077C53.4029 21.589 55.9079 24.2576 59.945 24.2576C63.9822 24.2576 66.5317 21.6096 66.5317 17.1716V8.11408H64.2537L64.2699 17.3077ZM72.2551 8.11408H69.9933V24.006H80.7347V21.8324H72.2551V8.11408ZM88.9752 14.9485C85.7082 14.2349 85.1083 13.4843 85.1083 12.2015C85.1083 10.9229 86.304 10.0237 88.0105 10.0237C89.5467 10.0237 91.0262 10.5929 92.1773 11.6241L92.4043 11.8097L93.75 10.0237L93.5393 9.85052C92.0152 8.53891 90.0655 7.84186 88.0672 7.90373C85.0394 7.90373 82.8384 9.7804 82.8384 12.416C82.8384 15.3486 84.9502 16.4168 88.1159 17.118C91.2816 17.8192 91.8125 18.5327 91.8125 19.7948C91.8125 21.1601 90.5479 22.1128 88.732 22.1128C86.8147 22.1128 85.3717 21.5354 83.7545 20.0176L83.5396 19.8196L82.121 21.5272L82.3277 21.7128C84.0382 23.3626 86.3162 24.2659 88.6712 24.237C91.8652 24.237 94.0905 22.3356 94.0905 19.6051C94.0986 17.1262 92.5665 15.7404 88.9752 14.9485ZM102.355 8.00271L95.2376 24.006H97.5967L99.3842 19.9516H107.219L108.987 24.006H111.431L104.309 8.00271H102.355ZM100.3 17.8522L103.312 11.0178L106.307 17.8522H100.3ZM122.282 17.6418C124.726 17.0644 126.165 15.3238 126.165 12.9439C126.177 12.35 126.076 11.7602 125.861 11.2075C125.65 10.6548 125.33 10.1516 124.924 9.72266C123.696 8.6049 122.087 8.02334 120.441 8.10583H113.68V24.006H115.958V18.046H119.842L124.211 24.0019H127L122.282 17.6418ZM115.938 15.9054V10.2795H120.308C122.586 10.2795 123.883 11.2776 123.883 13.0594C123.883 14.8454 122.472 15.9549 120.287 15.9549L115.938 15.9054Z" fill="#188FFF"/>
<path d="M34.7333 8.16353H26.2455C23.9513 3.68838 21.5234 0.21138 18.2199 0.21138C13.9192 0.21138 11.9007 4.0266 9.94695 7.74283L9.77671 8.06867H0V10.2753H5.69498C7.70544 10.2753 8.11483 10.9641 8.11483 10.9641C6.53807 13.4553 4.6411 15.9177 1.47948 15.9177H0V18.2316H1.49164C7.62032 18.2316 10.2955 13.1749 12.4438 9.11631C14.4138 5.37533 15.7879 3.11095 18.2239 3.11095C20.7532 3.11095 23.4122 8.70797 25.751 13.6492C26.0915 14.3669 26.4401 15.101 26.7927 15.8311C17.8186 16.1198 13.5423 18.2563 10.0645 20.001C7.51899 21.2755 5.50852 22.8552 2.20098 22.8552H0V25.1732H2.18071C6.16517 25.1732 8.64988 23.9235 11.2927 22.5954C14.9529 20.7641 19.1035 18.6894 28.8883 18.6894H34.5428V16.3714H31.3487C31.0852 16.392 30.8218 16.3508 30.5786 16.2477C30.3354 16.1487 30.1165 15.9919 29.9422 15.7898C29.3828 14.6886 28.8356 13.5296 28.3006 12.3706L27.5588 10.828C27.5588 10.828 28.0898 10.2506 29.5571 10.2506H34.7333V8.16353Z" fill="#188FFF"/>
</svg>
