<svg width="32" height="32" viewBox="0 0 32 32" fill="none" xmlns="http://www.w3.org/2000/svg">
<path d="M7.99999 20C7.99999 20.7072 7.71904 21.3855 7.21894 21.8856C6.71884 22.3857 6.04057 22.6667 5.33332 22.6667C4.62608 22.6667 3.9478 22.3857 3.4477 21.8856C2.94761 21.3855 2.66666 20.7072 2.66666 20C2.66666 19.2928 2.94761 18.6145 3.4477 18.1144C3.9478 17.6143 4.62608 17.3333 5.33332 17.3333H7.99999V20ZM9.33332 20C9.33332 19.2928 9.61427 18.6145 10.1144 18.1144C10.6145 17.6143 11.2927 17.3333 12 17.3333C12.7072 17.3333 13.3855 17.6143 13.8856 18.1144C14.3857 18.6145 14.6667 19.2928 14.6667 20V26.6667C14.6667 27.3739 14.3857 28.0522 13.8856 28.5523C13.3855 29.0524 12.7072 29.3333 12 29.3333C11.2927 29.3333 10.6145 29.0524 10.1144 28.5523C9.61427 28.0522 9.33332 27.3739 9.33332 26.6667V20ZM12 9.33333C11.2927 9.33333 10.6145 9.05238 10.1144 8.55228C9.61427 8.05219 9.33332 7.37391 9.33332 6.66667C9.33332 5.95942 9.61427 5.28115 10.1144 4.78105C10.6145 4.28095 11.2927 4 12 4C12.7072 4 13.3855 4.28095 13.8856 4.78105C14.3857 5.28115 14.6667 5.95942 14.6667 6.66667V9.33333H12ZM12 10.6667C12.7072 10.6667 13.3855 10.9476 13.8856 11.4477C14.3857 11.9478 14.6667 12.6261 14.6667 13.3333C14.6667 14.0406 14.3857 14.7189 13.8856 15.219C13.3855 15.719 12.7072 16 12 16H5.33332C4.62608 16 3.9478 15.719 3.4477 15.219C2.94761 14.7189 2.66666 14.0406 2.66666 13.3333C2.66666 12.6261 2.94761 11.9478 3.4477 11.4477C3.9478 10.9476 4.62608 10.6667 5.33332 10.6667H12ZM22.6667 13.3333C22.6667 12.6261 22.9476 11.9478 23.4477 11.4477C23.9478 10.9476 24.6261 10.6667 25.3333 10.6667C26.0406 10.6667 26.7188 10.9476 27.2189 11.4477C27.719 11.9478 28 12.6261 28 13.3333C28 14.0406 27.719 14.7189 27.2189 15.219C26.7188 15.719 26.0406 16 25.3333 16H22.6667V13.3333ZM21.3333 13.3333C21.3333 14.0406 21.0524 14.7189 20.5523 15.219C20.0522 15.719 19.3739 16 18.6667 16C17.9594 16 17.2811 15.719 16.781 15.219C16.2809 14.7189 16 14.0406 16 13.3333V6.66667C16 5.95942 16.2809 5.28115 16.781 4.78105C17.2811 4.28095 17.9594 4 18.6667 4C19.3739 4 20.0522 4.28095 20.5523 4.78105C21.0524 5.28115 21.3333 5.95942 21.3333 6.66667V13.3333ZM18.6667 24C19.3739 24 20.0522 24.281 20.5523 24.781C21.0524 25.2811 21.3333 25.9594 21.3333 26.6667C21.3333 27.3739 21.0524 28.0522 20.5523 28.5523C20.0522 29.0524 19.3739 29.3333 18.6667 29.3333C17.9594 29.3333 17.2811 29.0524 16.781 28.5523C16.2809 28.0522 16 27.3739 16 26.6667V24H18.6667ZM18.6667 22.6667C17.9594 22.6667 17.2811 22.3857 16.781 21.8856C16.2809 21.3855 16 20.7072 16 20C16 19.2928 16.2809 18.6145 16.781 18.1144C17.2811 17.6143 17.9594 17.3333 18.6667 17.3333H25.3333C26.0406 17.3333 26.7188 17.6143 27.2189 18.1144C27.719 18.6145 28 19.2928 28 20C28 20.7072 27.719 21.3855 27.2189 21.8856C26.7188 22.3857 26.0406 22.6667 25.3333 22.6667H18.6667Z" fill="white"/>
</svg>
