<svg width="13" height="13" viewBox="0 0 13 13" fill="none" xmlns="http://www.w3.org/2000/svg">
<path d="M6.426 1.02L7.56 0.0839989C8.148 1.032 8.718 1.86 9.27 2.568C9.822 3.276 10.392 3.906 10.98 4.458C11.568 4.998 12.198 5.514 12.87 6.006V6.114C12.198 6.594 11.568 7.11 10.98 7.662C10.392 8.214 9.822 8.844 9.27 9.552C8.718 10.248 8.148 11.076 7.56 12.036L6.426 11.1C6.918 10.344 7.41 9.666 7.902 9.066C8.406 8.454 8.904 7.92 9.396 7.464C9.888 7.008 10.368 6.636 10.836 6.348C11.304 6.06 11.754 5.862 12.186 5.754V6.366C11.754 6.258 11.304 6.06 10.836 5.772C10.368 5.484 9.888 5.112 9.396 4.656C8.904 4.2 8.406 3.672 7.902 3.072C7.41 2.46 6.918 1.776 6.426 1.02ZM0.882 5.34H7.272C8.028 5.34 8.688 5.358 9.252 5.394C9.828 5.43 10.338 5.472 10.782 5.52L11.862 6.06L10.782 6.6C10.338 6.648 9.828 6.69 9.252 6.726C8.688 6.762 8.028 6.78 7.272 6.78H0.882V5.34Z" fill="#282826"/>
</svg>
