<svg width="127" height="26" viewBox="0 0 127 26" fill="none" xmlns="http://www.w3.org/2000/svg">
<path d="M45.2068 8.11405H39.2889V10.2794H45.073C47.4645 10.2794 48.8386 11.3848 48.8386 13.3687C48.8386 15.2454 47.3226 16.458 44.9839 16.458H39.2889V23.9895H41.5669V18.5987H44.9433C48.0279 18.5987 51.1369 16.9612 51.1369 13.2574C51.1247 10.131 48.7981 8.11405 45.2068 8.11405ZM64.2698 17.3077C64.2698 20.3846 62.7538 22.0798 60.0097 22.0798C57.2655 22.0798 55.6807 20.3021 55.6807 17.1963V8.11405H53.4027V17.3077C53.4027 21.589 55.9077 24.2576 59.9448 24.2576C63.982 24.2576 66.5315 21.6096 66.5315 17.1716V8.11405H64.2535L64.2698 17.3077ZM72.2549 8.11405H69.9931V24.006H80.7345V21.8323H72.2549V8.11405ZM88.975 14.9484C85.708 14.2349 85.1081 13.4842 85.1081 12.2015C85.1081 10.9229 86.3038 10.0237 88.0103 10.0237C89.5465 10.0237 91.026 10.5929 92.1772 11.624L92.4042 11.8097L93.7499 10.0237L93.5391 9.85049C92.015 8.53888 90.0654 7.84183 88.0671 7.90369C85.0392 7.90369 82.8382 9.78037 82.8382 12.416C82.8382 15.3485 84.95 16.4168 88.1157 17.118C91.2814 17.8191 91.8124 18.5327 91.8124 19.7948C91.8124 21.16 90.5477 22.1128 88.7318 22.1128C86.8146 22.1128 85.3716 21.5354 83.7543 20.0175L83.5394 19.8196L82.1208 21.5271L82.3275 21.7127C84.038 23.3625 86.316 24.2658 88.671 24.237C91.8651 24.237 94.0903 22.3355 94.0903 19.6051C94.0985 17.1262 92.5663 15.7404 88.975 14.9484ZM102.355 8.00268L95.2374 24.006H97.5965L99.384 19.9515H107.219L108.986 24.006H111.431L104.309 8.00268H102.355ZM100.3 17.8521L103.312 11.0177L106.307 17.8521H100.3ZM122.281 17.6418C124.726 17.0643 126.165 15.3238 126.165 12.9439C126.177 12.35 126.075 11.7602 125.861 11.2075C125.65 10.6548 125.33 10.1516 124.924 9.72263C123.696 8.60487 122.087 8.02331 120.441 8.1058H113.68V24.006H115.958V18.046H119.841L124.211 24.0019H127L122.281 17.6418ZM115.938 15.9053V10.2794H120.308C122.585 10.2794 123.883 11.2776 123.883 13.0594C123.883 14.8453 122.472 15.9548 120.287 15.9548L115.938 15.9053Z" fill="#282826"/>
<path d="M34.7333 8.16358H26.2455C23.9513 3.68843 21.5234 0.211426 18.2199 0.211426C13.9192 0.211426 11.9007 4.02664 9.94695 7.74287L9.77671 8.06871H0V10.2754H5.69498C7.70544 10.2754 8.11483 10.9642 8.11483 10.9642C6.53807 13.4554 4.6411 15.9178 1.47948 15.9178H0V18.2316H1.49164C7.62032 18.2316 10.2955 13.1749 12.4438 9.11635C14.4138 5.37538 15.7879 3.11099 18.2239 3.11099C20.7532 3.11099 23.4122 8.70802 25.751 13.6492C26.0915 14.3669 26.4401 15.1011 26.7927 15.8311C17.8186 16.1199 13.5423 18.2564 10.0645 20.0011C7.51899 21.2756 5.50852 22.8553 2.20098 22.8553H0V25.1733H2.18071C6.16517 25.1733 8.64988 23.9235 11.2927 22.5954C14.9529 20.7641 19.1035 18.6895 28.8883 18.6895H34.5428V16.3715H31.3487C31.0852 16.3921 30.8218 16.3508 30.5786 16.2477C30.3354 16.1487 30.1165 15.992 29.9422 15.7899C29.3828 14.6886 28.8356 13.5296 28.3006 12.3706L27.5588 10.828C27.5588 10.828 28.0898 10.2506 29.5571 10.2506H34.7333V8.16358Z" fill="#282826"/>
</svg>
