<svg xmlns="http://www.w3.org/2000/svg" xmlns:xlink="http://www.w3.org/1999/xlink" xmlns:lucid="lucid" width="878.15" height="811.33"><g transform="translate(-1465.5932274710149 -1213.6666666666667)" lucid:page-tab-id="0_0"><path d="M0 0h6299.2v6299.2H0z" fill="#fff"/><path d="M1485.6 1699a6 6 0 0 1 6-6h826.14a6 6 0 0 1 6 6v221.33a6 6 0 0 1-6 6H1491.6a6 6 0 0 1-6-6z" fill="#edf5ff"/><path d="M1502.1 1693h9.02m6 0h9.02m6 0h9.02m6 0h9.02m6 0h9.02m6 0h9.02m6 0h9.02m6 0h9.03m6 0h9.02m6 0h9m6.02 0h9m6.02 0h9m6.02 0h9m6.02 0h9m6.02 0h9m6.02 0h9m6.02 0h9m6.02 0h9m6.02 0h9.02m6 0h9.02m6 0h9.02m6 0h9.02m6 0h9.02m6 0h9.02m6 0h9.02m6 0h9.02m6 0h9.02m6 0h9.02m6 0h9.02m6 0h9.02m6 0h9.03m6 0h9.02m6 0h9.02m6 0h9m6.02 0h9m6.02 0h9m6.02 0h9m6.02 0h9m6.02 0h9m6.02 0h9m6.02 0h9m6.02 0h9m6.02 0h9.02m6 0h9.02m6 0h9.02m6 0h9.02m6 0h9.02m6 0h9.02m6 0h9.02m6 0h9.02m6 0h9.02m6 0h9.02m6 0h9.03m6 0h9.03m6 0h4.5l.95.07.9.22.88.35.8.5.72.6.6.72.5.8.37.88.22.9.07.95v4.43m0 5.9v8.85m0 5.9v8.86m0 5.9v8.85m0 5.9v8.85m0 5.9v8.85m0 5.9v8.86m0 5.9v8.86m0 5.9v8.85m0 5.9v8.86m0 5.9v8.85m0 5.9v8.86m0 5.9v8.85m0 5.9v8.85m0 5.9v8.85m0 5.9v4.43l-.07.94-.22.92-.36.86-.5.8-.62.72-.7.6-.82.5-.87.36-.92.22-.94.07h-4.5m-6 0h-9.03m-6 0h-9m-6.02 0h-9m-6.02 0h-9m-6.02 0h-9m-6.02 0h-9m-6.02 0h-9m-6.02 0h-9m-6.02 0h-9m-6.02 0h-9m-6.02 0H2148m-6 0h-9.02m-6 0h-9.02m-6 0h-9.02m-6 0h-9.02m-6 0h-9.02m-6 0h-9.02m-6 0h-9.02m-6 0h-9.02m-6 0h-9.02m-6 0h-9.02m-6 0h-9.02m-6 0h-9.03m-6 0h-9.02m-6 0h-9.02m-6 0h-9m-6.02 0h-9m-6.02 0h-9m-6.02 0h-9m-6.02 0h-9m-6.02 0h-9m-6.02 0h-9m-6.02 0h-9m-6.02 0h-9m-6.02 0h-9.02m-6 0h-9.02m-6 0h-9.02m-6 0h-9.02m-6 0h-9.02m-6 0h-9.02m-6 0h-9.02m-6 0h-9.02m-6 0h-9.02m-6 0h-9.02m-6 0h-9.02m-6 0h-9.02m-6 0h-9.03m-6 0h-9.02m-6 0h-9.02m-6 0h-9m-6.02 0h-9m-6.02 0h-9m-6.02 0h-9m-6.02 0h-9m-6.02 0h-4.5l-.94-.07-.92-.22-.87-.36-.8-.5-.72-.6-.6-.72-.5-.8-.36-.87-.23-.93-.08-.94v-4.42m0-5.9v-8.85m0-5.9v-8.85m0-5.9v-8.86m0-5.9v-8.86m0-5.9v-8.85m0-5.9v-8.86m0-5.9v-8.85m0-5.9v-8.86m0-5.9v-8.85m0-5.9v-8.85m0-5.9v-8.85m0-5.9v-8.86m0-5.9v-8.86m0-5.9v-8.85m0-5.9V1699l.07-.94.22-.9.35-.88.5-.8.6-.72.72-.6.8-.5.87-.37.9-.23.95-.07h4.5" stroke="#4881b3" stroke-width="3" fill="none"/><use xlink:href="#a" transform="matrix(1,0,0,1,1490.5932274710149,1698.0000000000002) translate(414.5 25.77072482638889)"/><use xlink:href="#b" transform="matrix(1,0,0,1,1490.5932274710149,1698.0000000000002) translate(414.5 49.31065538194444)"/><use xlink:href="#b" transform="matrix(1,0,0,1,1490.5932274710149,1698.0000000000002) translate(414.5 72.8505859375)"/><use xlink:href="#b" transform="matrix(1,0,0,1,1490.5932274710149,1698.0000000000002) translate(414.5 96.39051649305556)"/><use xlink:href="#b" transform="matrix(1,0,0,1,1490.5932274710149,1698.0000000000002) translate(414.5 119.93044704861111)"/><use xlink:href="#b" transform="matrix(1,0,0,1,1490.5932274710149,1698.0000000000002) translate(414.5 143.47037760416669)"/><use xlink:href="#b" transform="matrix(1,0,0,1,1490.5932274710149,1698.0000000000002) translate(414.5 167.01030815972223)"/><use xlink:href="#b" transform="matrix(1,0,0,1,1490.5932274710149,1698.0000000000002) translate(414.5 190.5502387152778)"/><use xlink:href="#c" transform="matrix(1,0,0,1,1490.5932274710149,1698.0000000000002) translate(414.5 214.09016927083334)"/><path d="M1485.6 1239.67a6 6 0 0 1 6-6h825.3a6 6 0 0 1 6 6v168a6 6 0 0 1-6 6h-825.3a6 6 0 0 1-6-6z" stroke="#4881b3" stroke-width="3" fill="#edf5ff"/><use xlink:href="#d" transform="matrix(1,0,0,1,1490.5932274710149,1238.6666666666667) translate(204.23253038194449 94.02137586805554)"/><use xlink:href="#e" transform="matrix(1,0,0,1,1490.5932274710149,1238.6666666666667) translate(381.72808159722223 94.02137586805554)"/><use xlink:href="#f" transform="matrix(1,0,0,1,1490.5932274710149,1238.6666666666667) translate(494.67979600694446 94.02137586805554)"/><path d="M1844.67 1740.47h120v120h-120v-120z" stroke="#fff" stroke-opacity="0" stroke-width="2" fill="#6db1ff"/><path d="M1884.33 1798.7c.13.15.22.28.4.37.22.22.45.4.72.58l.18.13.8.4.5.23h.35l.4.2c.77.26 1.58.57 2.52.88l1.47.4.77.23c4.2 1.04 7.88 1.48 12.23 1.44 6.58.13 12.18-.94 18.23-3.5 2.6-1.2 4.12-3.56 4.17-6.42v-22.96c0-.98-.54-1.83-1.44-2.28l-19.9-9.24c-.66-.36-1.42-.36-2.1 0l-19.93 9.24c-.9.45-1.43 1.3-1.43 2.28v23.05c0 1.8.58 3.32 1.74 4.7.1.13.2.22.33.3zm8.15.24l-1.34-.4c-.85-.27-1.57-.54-2.24-.76l-.6-.27h.02l-.54-.22c-.18-.1-.36-.17-.54-.26l-.4-.32-.18-.22-.14-.13-.13-.14c-.64-.75-.95-1.55-.95-2.54v-21.08l17.6 8.27v19.56c-3.5-.04-6.45-.44-9.85-1.24zm29.12-1.7c-5.1 2.2-9.8 3.17-15.37 3.2v-19.28l17.6-8.04v20.5c.06 1.6-.8 2.95-2.23 3.62zm-16.93-35.1l17.7 8.25-17.43 7.8-.1-.08-17.2-8z" stroke="#fff" stroke-opacity="0" stroke-width="2" fill="#fff"/><path d="M1932.3 1784.76l-.84 3.06c7.15 2.13 11.64 5.14 11.64 7.85 0 5.3-15.8 11.2-38.43 11.2s-38.44-5.9-38.44-11.2c0-2.7 4.5-5.73 11.65-7.85l-.84-3.06c-8.98 2.63-13.97 6.53-13.97 10.9 0 9.35 21.46 14.4 41.6 14.4 20.13 0 41.6-5.05 41.6-14.4 0-4.37-5-8.25-13.98-10.9zM1932.2 1815.1l-7.44-3.2c-.6-.3-1.2-.3-1.8 0l-7.6 3.26c-.7.37-1.08 1-1.08 1.76v8.25l-7.12-3.1c-.6-.3-1.2-.3-1.8 0l-7.17 3.1v-8.28c0-.8-.44-1.5-1.15-1.8l-7.5-3.2c-.54-.3-1.2-.3-1.8 0l-7.6 3.26c-.7.37-1.08 1-1.08 1.76v9.74c0 .82.43 1.48 1.2 1.82l7.44 3.18h.17c.27.12.5.18.8.18.3 0 .56-.03.77-.18l7.23-3.1v8.26c0 .8.44 1.45 1.14 1.8l7.46 3.2h.1c.28.12.55.18.88.18.27 0 .54-.06.8-.18l7.62-3.27c.7-.37 1.08-1 1.14-1.8v-8.18l7.06 3.1h.22c.27.1.54.17.87.2.27-.03.5-.1.7-.2l7.67-3.2c.7-.33 1.08-1 1.08-1.75v-9.83c0-.8-.43-1.5-1.2-1.8zm-8.36-.15l4.35 1.88-4.1 1.67-4.23-1.82zm-17.6 10.22l4.34 1.85-4.07 1.6-4.23-1.75zm-17.6-10.22l4.34 1.88-4.08 1.6-4.24-1.75zm-6.42 4.18l4.83 2.04v6.73l-4.83-2.06zm8.04 8.74v-6.4l4.78-1.97v6.4zm9.56 1.46l4.84 2.06v6.66l-4.84-2.06zm8 8.76v-6.44l4.83-1.97v6.4zm9.6-18.96l4.8 2.03v6.73l-4.8-2.06zm8 8.76v-6.4l4.83-2v6.4z" stroke="#fff" stroke-opacity="0" stroke-width="2" fill="#fff"/><use xlink:href="#g" transform="matrix(1,0,0,1,1814.666666666667,1869.4678715778603) translate(36.65798611111113 16.654513888888886)"/><path d="M2166.5 1740.47h120v120h-120v-120z" stroke="#fff" stroke-opacity="0" stroke-width="2" fill="#6db1ff"/><path d="M2239.3 1801.55c-.8 0-1.52-.62-1.6-1.44v-.44c-.24-2.06-1.04-2.85-2.72-4.4l-.48-.5c-2.24-2.2-4.88-3.22-8-3.22-4.96 0-10.56 2.14-11.2 8.12v.45c0 .92-.72 1.62-1.6 1.62-.88 0-1.6-.7-1.6-1.6-.16-2.36-1.12-3.26-2.96-5.12l-.24-.2c-2.24-2.14-4.88-3.22-8-3.22-6.08 0-10.48 3.1-11.2 7.87-.08.87-.88 1.52-1.76 1.44-.88-.1-1.52-.87-1.44-1.74.48-21.66 18.32-38.88 40-38.63 22.4 0 39.6 16.6 40 38.67v.17c0 .86-.72 1.56-1.6 1.56-.88 0-1.6-.7-1.6-1.56v-.13c0-1.3-1.28-2.63-3.2-4.48-2.24-2.15-4.88-3.22-8-3.22-4.88 0-10.8 2.27-11.2 8.53-.08.86-.72 1.52-1.6 1.52zm-38.4-13.22c4 0 7.36 1.36 10.16 4.12l.32.25c.8.74 1.44 1.44 2.08 2.26 2.24-4.08 6.96-6.5 13.04-6.5 4 0 7.36 1.35 10.24 4.07l.48.5c.72.65 1.28 1.27 1.92 2 2.24-4.06 6.96-6.62 12.96-6.62 4 0 7.36 1.37 10.24 4.13l.32.33c-3.2-17.1-17.76-29.2-36.16-29.2-17.2-.2-31.76 11.12-35.76 27.88 3.04-2.26 6.32-3.33 10.16-3.2z" stroke="#fff" stroke-opacity="0" stroke-width="2" fill="#fff"/><path d="M2187.3 1800.56l1.76-2.7 14.3 9.32-1.75 2.68-14.3-9.3z" stroke="#fff" stroke-opacity="0" stroke-width="1.09" fill="#fff"/><path d="M2251.25 1806.88l12.76-8.9 1.84 2.63-12.77 8.9-1.82-2.62z" stroke="#fff" stroke-opacity="0" stroke-width="1.64" fill="#fff"/><path d="M2239.2 1807.28l-3.1-.84 1.6-6.74v-1.6c0-20.3-5.85-34.5-11.2-34.5-5.33 0-11.18 14.2-11.18 34.56v1.5l1.57 6.73-3.08.84-1.6-6.88v-2.3c-.12-24.4 7.32-37.6 14.3-37.6 6.96 0 14.4 13.2 14.4 37.74v1.08c-.03.28-.03.47 0 .7v.48zM2219.58 1830.47l-5.87-5.78c-.34-.34-.5-.77-.48-1.26.04-.48.26-.88.64-1.17l6.63-5 1.9 2.56-5.1 3.84 4.57 4.46zM2234.2 1831.4l-1.92-2.55 5.14-3.84-4.52-4.45 2.24-2.3 5.93 5.78c.63.62.65 1.63.03 2.27l-.2.17z" stroke="#fff" stroke-opacity="0" stroke-width="2" fill="#fff"/><path d="M2221.55 1834.22l8.46-19.2 2.94 1.3-8.47 19.2-2.92-1.3z" stroke="#fff" stroke-opacity="0" stroke-width=".81" fill="#fff"/><path d="M2247.3 1840.47h-40c-.86 0-1.6-.73-1.6-1.6v-27.2c0-.87.74-1.6 1.6-1.6h40c.87 0 1.6.73 1.6 1.6v27.2c0 .87-.73 1.6-1.6 1.6zm-38.4-3.2h36.8v-24h-36.8z" stroke="#fff" stroke-opacity="0" stroke-width="2" fill="#fff"/><use xlink:href="#h" transform="matrix(1,0,0,1,2136.5049479166664,1869.4678715778603) translate(52.660590277777786 16.654513888888886)"/><path d="M1524.67 1740.47h120v120h-120v-120z" stroke="#fff" stroke-opacity="0" fill="#6db1ff"/><path d="M1583.06 1766.07v15.12h3.2v-15.13l7.46 7.43 2.26-2.24-10.18-10.2c-.64-.64-1.65-.62-2.26 0l-10.18 10.2 2.26 2.24zM1586.27 1834.87v-15.3h-3.2v15.3l-7.45-7.46-2.26 2.27 10.18 10.18v.03c.63.62 1.65.6 2.26-.03l10.18-10.18-2.26-2.26zM1554.7 1789.14l-2.25 2.26 7.42 7.36h-15.2v3.18h15.35l-7.57 7.56 2.25 2.26 10.2-10.18c.6-.6.6-1.63 0-2.26zM1624.67 1798.76h-15.13l7.35-7.36-2.3-2.26-10.17 10.18c-.6.63-.6 1.65 0 2.26l10.18 10.18 2.3-2.26-7.6-7.56h15.37zM1598.27 1791.75l-12.8-7.2c-.52-.3-1.1-.3-1.6 0l-12.8 7.2c-.53.3-.82.8-.82 1.38v14.4c0 .6.3 1.12.8 1.4l12.8 7.17c.27.16.5.22.8.22h-.02c.3 0 .52-.06.78-.22l12.8-7.17c.53-.3.82-.8.82-1.4v-14.4c0-.58-.26-1.06-.75-1.38zm-13.6-3.93l9.6 5.4-9.6 5.57-9.62-5.58zm-11.2 8.2l9.58 5.52v10.4l-9.58-5.38zm12.8 15.98v-10.43l9.6-5.56v10.57z" stroke="#fff" stroke-opacity="0" fill="#fff"/><use xlink:href="#i" transform="matrix(1,0,0,1,1494.666666666667,1869.4678715778603) translate(57.99479166666667 16.654513888888886)"/><path d="M1901.62 1721.96h-2l-.23-89.1h2zm-.6-233.95h-2l-.18-71.83h2z" stroke="#224c72" stroke-width=".05" fill="#224c72"/><path d="M1900.84 1416.2h-2v-1.03h2z" fill="#224c72"/><path d="M1900.86 1416.22h-2.05v-1.08h2.06zm-2-1.03v.97h1.95v-.98z" stroke="#224c72" stroke-width=".05" fill="#224c72"/><path d="M1900.66 1737.23l-4.67-14.25 9.26-.03z" fill="#224c72"/><path d="M1900.67 1740.47l-6.06-18.5 12.03-.02zm-3.3-16.5l3.28 10.03 3.23-10.04z" stroke="#224c72" stroke-width=".05" fill="#224c72"/><use xlink:href="#j" transform="matrix(1,0,0,1,1830.8621430975181,1488.0046247060386) translate(16.007604166666667 16.501736111111107)"/><use xlink:href="#k" transform="matrix(1,0,0,1,1830.8621430975181,1488.0046247060386) translate(69.34961805555554 37.19618055555554)"/><use xlink:href="#l" transform="matrix(1,0,0,1,1830.8621430975181,1488.0046247060386) translate(5.339201388888895 57.890624999999986)"/><use xlink:href="#k" transform="matrix(1,0,0,1,1830.8621430975181,1488.0046247060386) translate(69.34961805555554 78.58506944444443)"/><use xlink:href="#m" transform="matrix(1,0,0,1,1830.8621430975181,1488.0046247060386) translate(0.0049999999999954525 99.27951388888886)"/><use xlink:href="#n" transform="matrix(1,0,0,1,1830.8621430975181,1488.0046247060386) translate(85.3522222222222 99.27951388888886)"/><use xlink:href="#k" transform="matrix(1,0,0,1,1830.8621430975181,1488.0046247060386) translate(69.34961805555554 119.97395833333331)"/><use xlink:href="#o" transform="matrix(1,0,0,1,1830.8621430975181,1488.0046247060386) translate(53.347013888888874 140.66840277777774)"/><path d="M1609.92 1639.56l-3.85 7.35-3.4 7.23-3.03 7.2-2.7 7.3-2.43 7.44-2.13 7.7-1.88 8-1.62 8.45-1.32 8.95-1 9.6-.2 3.28-2-.13.2-3.32 1-9.67 1.35-9.04 1.63-8.53 1.9-8.1 2.17-7.77 2.44-7.53 2.74-7.37 3.06-7.28 3.44-7.3 3.88-7.43 3.43-5.93h2.3zm115.3-223.37l-.2 10.38-.67 10.45-1 9.68-1.34 9.05-1.62 8.52-1.9 8.1-2.17 7.77-2.43 7.53-.05.14h-2.14l.3-.8 2.42-7.44 2.15-7.7 1.88-8 1.6-8.45 1.32-8.94 1-9.6.66-10.37.22-10.35z" stroke="#224c72" stroke-width=".05" fill="#224c72"/><path d="M1725.22 1416.22l-2-.04.02-1h2z" fill="#224c72"/><path d="M1725.25 1416.24l-2.05-.04.02-1.06h2.05zm-1.98-1.05l-.02.95 1.95.04.02-1z" stroke="#224c72" stroke-width=".05" fill="#224c72"/><path d="M1589.94 1723.15l-5.15 14.08-4.12-14.42z" fill="#224c72"/><path d="M1591.36 1722.2l-6.7 18.27-5.32-18.7zm-6.45 11.8l3.63-9.9-6.5-.24z" stroke="#224c72" stroke-width=".05" fill="#224c72"/><g><use xlink:href="#p" transform="matrix(1,0,0,1,1557.2293950377325,1487.8064365735759) translate(53.347013888888874 16.501736111111107)"/><use xlink:href="#q" transform="matrix(1,0,0,1,1557.2293950377325,1487.8064365735759) translate(138.69423611111108 16.501736111111107)"/><use xlink:href="#k" transform="matrix(1,0,0,1,1557.2293950377325,1487.8064365735759) translate(112.02322916666664 37.19618055555554)"/><use xlink:href="#r" transform="matrix(1,0,0,1,1557.2293950377325,1487.8064365735759) translate(37.34440972222221 57.890624999999986)"/><use xlink:href="#s" transform="matrix(1,0,0,1,1557.2293950377325,1487.8064365735759) translate(122.69163194444441 57.890624999999986)"/><use xlink:href="#k" transform="matrix(1,0,0,1,1557.2293950377325,1487.8064365735759) translate(112.02322916666664 78.58506944444443)"/><use xlink:href="#t" transform="matrix(1,0,0,1,1557.2293950377325,1487.8064365735759) translate(0.0049999999999954525 99.27951388888886)"/><use xlink:href="#u" transform="matrix(1,0,0,1,1557.2293950377325,1487.8064365735759) translate(96.02062499999997 99.27951388888886)"/><use xlink:href="#v" transform="matrix(1,0,0,1,1557.2293950377325,1487.8064365735759) translate(138.69423611111108 99.27951388888886)"/><use xlink:href="#k" transform="matrix(1,0,0,1,1557.2293950377325,1487.8064365735759) translate(112.02322916666664 119.97395833333331)"/><use xlink:href="#o" transform="matrix(1,0,0,1,1557.2293950377325,1487.8064365735759) translate(96.02062499999997 140.66840277777774)"/></g><path d="M2193.57 1633.45l4.82 6.93 4.2 6.63 3.73 6.46 3.32 6.36 2.98 6.33 2.68 6.36 2.4 6.47 2.15 6.6 1.9 6.76 1.64 7.03 1.38 7.32 1.14 7.7.78 7.5-1.98.2-.8-7.46-1.1-7.6-1.4-7.25-1.62-6.94-1.87-6.7-2.1-6.5-2.38-6.38-2.65-6.3-2.94-6.24-3.3-6.28-3.67-6.37-4.18-6.56-4.77-6.88-3.8-5h2.52zm-138.8-209.07l.54 8.58.85 8.05 1.12 7.62 1.38 7.24 1.63 6.94 1.87 6.7 2.12 6.5 2.37 6.38 1 2.4h-2.17l-.7-1.66-2.4-6.45-2.13-6.6-1.9-6.77-1.64-7.02-1.4-7.32-1.13-7.7-.86-8.13-.53-8.66-.17-8.28 2-.05z" stroke="#224c72" stroke-width=".05" fill="#224c72"/><path d="M2054.6 1416.18l-2 .04-.02-1.05h2z" fill="#224c72"/><path d="M2054.62 1416.2l-2.05.04-.02-1.1h2.05zm-2.02-1l.02 1 1.95-.05-.02-.96z" stroke="#224c72" stroke-width=".05" fill="#224c72"/><path d="M2226.37 1737.23l-5.25-14.05 9.26-.4z" fill="#224c72"/><path d="M2226.5 1740.47l-6.8-18.23 12.02-.52zm-3.96-16.35l3.7 9.88 2.8-10.16z" stroke="#224c72" stroke-width=".05" fill="#224c72"/><g><use xlink:href="#w" transform="matrix(1,0,0,1,2033.2802341310608,1484.7729134722817) translate(58.68121527777775 16.501736111111107)"/><use xlink:href="#k" transform="matrix(1,0,0,1,2033.2802341310608,1484.7729134722817) translate(85.3522222222222 37.19618055555554)"/><use xlink:href="#x" transform="matrix(1,0,0,1,2033.2802341310608,1484.7729134722817) translate(58.68121527777775 57.890624999999986)"/><use xlink:href="#k" transform="matrix(1,0,0,1,2033.2802341310608,1484.7729134722817) translate(85.3522222222222 78.58506944444443)"/><use xlink:href="#y" transform="matrix(1,0,0,1,2033.2802341310608,1484.7729134722817) translate(0.0049999999999954525 99.27951388888886)"/><use xlink:href="#s" transform="matrix(1,0,0,1,2033.2802341310608,1484.7729134722817) translate(106.68902777777774 99.27951388888886)"/><use xlink:href="#k" transform="matrix(1,0,0,1,2033.2802341310608,1484.7729134722817) translate(85.3522222222222 119.97395833333331)"/><use xlink:href="#z" transform="matrix(1,0,0,1,2033.2802341310608,1484.7729134722817) translate(42.67861111111109 140.66840277777774)"/><use xlink:href="#A" transform="matrix(1,0,0,1,2033.2802341310608,1484.7729134722817) translate(96.02062499999997 140.66840277777774)"/></g><path d="M1784.07 1945h240v60h-240z" fill="none"/><g><use xlink:href="#B" transform="matrix(1,0,0,1,1784.0672992883447,1945.0000000000002) translate(18.983561197916686 37.77007378472222)"/><use xlink:href="#C" transform="matrix(1,0,0,1,1784.0672992883447,1945.0000000000002) translate(113.26557074652777 37.77007378472222)"/></g><defs><path fill="#1d262b" d="M1004 0L860-453H369L223 0H33l483-1468h195L1196 0h-192zM807-618c-63-210-144-435-195-650-51 232-127 431-190 650h385" id="D"/><path fill="#1d262b" d="M137-547c0-322 136-571 430-571 137 0 245 53 322 160h12c-24-215-7-376-12-598h182V0H924l-27-147h-8C814-36 706 20 567 20c-294 0-430-246-430-567zm463 416c241 0 288-157 289-416 0-151-23-259-69-323s-121-97-222-97c-181 0-272 141-272 422 0 276 91 414 274 414" id="E"/><path fill="#1d262b" d="M977 0v-707c0-97-9-165-27-203s-47-57-88-57c-58 0-100 28-126 83s-40 148-40 278V0H535v-707c0-173-42-260-125-260-56 0-96 26-120 79s-36 160-36 319V0H92v-1098h127l27 148h10c45-112 112-168 201-168 109 0 180 61 213 182h6c51-121 124-182 219-182 85 0 147 30 186 92s58 165 58 309V0H977" id="F"/><path fill="#1d262b" d="M739-1436c0 71-43 115-106 115-71 0-107-38-107-115 0-76 36-114 107-114s106 38 106 114zM541-954l-269-21v-123h451v955l352 20V0H197v-123l344-20v-811" id="G"/><path fill="#1d262b" d="M887 0v-707c0-173-79-260-238-260-205 0-307 133-307 398V0H160v-1098h147l27 148h10c69-112 181-168 336-168 259 0 389 134 389 401V0H887" id="H"/><path fill="#1d262b" d="M1026-301c0 225-197 321-448 321-165 0-290-23-375-69v-166c129 57 252 86 370 86 183 0 275-54 275-162 0-38-16-71-49-99s-108-63-226-106c-156-57-253-112-293-160s-61-105-61-171c2-338 524-340 789-217l-60 149c-121-48-228-72-319-72-157 0-236 44-236 133 0 41 17 74 51 98s111 57 232 101c141 51 234 101 280 151s70 111 70 183" id="I"/><path fill="#1d262b" d="M1020-150v138C933 9 849 20 768 20 527 20 406-95 406-324v-637H139v-94l267-49 77-287h105v293h438v137H588v637c0 130 64 195 192 195 62 0 142-7 240-21" id="J"/><path fill="#1d262b" d="M631-1118c283 0 470 204 465 491v113H322c5 250 120 375 344 375 130 0 253-25 370-76v160C925-5 804 20 672 20c-329 0-539-224-539-561 0-331 182-577 498-577zM326-662h573c0-203-91-305-272-305-183 0-284 102-301 305" id="K"/><path fill="#1d262b" d="M442-897c93-139 173-221 377-221 79 0 159 15 240 45l-49 166c-82-30-157-45-224-45-221 0-340 134-340 360V0H264v-1098h148l22 201h8" id="L"/><g id="d"><use transform="matrix(0.013129340277777775,0,0,0.013129340277777775,0,0)" xlink:href="#D"/><use transform="matrix(0.013129340277777775,0,0,0.013129340277777775,16.135959201388886,0)" xlink:href="#E"/><use transform="matrix(0.013129340277777775,0,0,0.013129340277777775,32.27191840277777,0)" xlink:href="#F"/><use transform="matrix(0.013129340277777775,0,0,0.013129340277777775,48.40787760416666,0)" xlink:href="#G"/><use transform="matrix(0.013129340277777775,0,0,0.013129340277777775,64.54383680555554,0)" xlink:href="#H"/><use transform="matrix(0.013129340277777775,0,0,0.013129340277777775,80.67979600694443,0)" xlink:href="#G"/><use transform="matrix(0.013129340277777775,0,0,0.013129340277777775,96.81575520833331,0)" xlink:href="#I"/><use transform="matrix(0.013129340277777775,0,0,0.013129340277777775,112.9517144097222,0)" xlink:href="#J"/><use transform="matrix(0.013129340277777775,0,0,0.013129340277777775,129.0876736111111,0)" xlink:href="#K"/><use transform="matrix(0.013129340277777775,0,0,0.013129340277777775,145.22363281249997,0)" xlink:href="#L"/></g><path fill="#1d262b" d="M1094-1034c0 310-213 470-541 465H362V0H176v-1462h404c343 0 514 143 514 428zM532-727c244-1 369-71 369-297 0-186-113-279-338-279H362v576h170" id="M"/><path fill="#1d262b" d="M578-131c239 0 309-137 309-397v-570h182V0H922l-27-147h-10C815-36 704 20 551 20c-261 0-391-134-391-401v-717h182v707c0 173 79 260 236 260" id="N"/><path fill="#1d262b" d="M532-1413l-268-21v-122h451v1413l352 20V0H188v-123l344-20v-1270" id="O"/><path fill="#1d262b" d="M596-1118c288 2 430 92 430 366V0H895l-37-152h-8C752-34 680 17 483 20 272 23 135-98 135-307c0-221 170-337 510-348l203-7c15-197-55-305-244-305-98 0-207 27-328 82l-63-137c131-64 258-96 383-96zm-72 991c194 0 325-116 322-311v-99c-251 15-522-6-522 232 0 119 67 178 200 178" id="P"/><g id="e"><use transform="matrix(0.013129340277777775,0,0,0.013129340277777775,0,0)" xlink:href="#M"/><use transform="matrix(0.013129340277777775,0,0,0.013129340277777775,16.135959201388886,0)" xlink:href="#N"/><use transform="matrix(0.013129340277777775,0,0,0.013129340277777775,32.27191840277777,0)" xlink:href="#O"/><use transform="matrix(0.013129340277777775,0,0,0.013129340277777775,48.40787760416666,0)" xlink:href="#I"/><use transform="matrix(0.013129340277777775,0,0,0.013129340277777775,64.54383680555554,0)" xlink:href="#P"/><use transform="matrix(0.013129340277777775,0,0,0.013129340277777775,80.67979600694443,0)" xlink:href="#L"/></g><path fill="#1d262b" d="M1059 0H217v-1462h842v164H403v452h617v162H403v520h656V0" id="Q"/><g id="f"><use transform="matrix(0.013129340277777775,0,0,0.013129340277777775,0,0)" xlink:href="#Q"/><use transform="matrix(0.013129340277777775,0,0,0.013129340277777775,16.135959201388886,0)" xlink:href="#H"/><use transform="matrix(0.013129340277777775,0,0,0.013129340277777775,32.27191840277777,0)" xlink:href="#J"/><use transform="matrix(0.013129340277777775,0,0,0.013129340277777775,48.40787760416666,0)" xlink:href="#G"/><use transform="matrix(0.013129340277777775,0,0,0.013129340277777775,64.54383680555554,0)" xlink:href="#J"/><use transform="matrix(0.013129340277777775,0,0,0.013129340277777775,80.67979600694443,0)" xlink:href="#G"/><use transform="matrix(0.013129340277777775,0,0,0.013129340277777775,96.81575520833331,0)" xlink:href="#K"/><use transform="matrix(0.013129340277777775,0,0,0.013129340277777775,112.9517144097222,0)" xlink:href="#I"/></g><path fill="#1d262b" d="M1092 0H877L297-1210h-8c32 442 13 766 18 1210H135v-1462h213L926-258h6c-25-469-9-747-14-1204h174V0" id="R"/><path fill="#1d262b" d="M1092-551c0 322-136 571-430 571-138 0-245-53-322-159h-12c24 220 7 402 12 631H158v-1590h147l27 148h8c73-112 181-168 322-168 294 0 430 246 430 567zM629-967c-241 0-288 156-289 416 0 151 24 259 70 323s120 97 221 97c181 0 272-141 272-422 0-276-91-414-274-414" id="S"/><path fill="#1d262b" d="M172-543c0-365 197-575 553-575 119 0 231 20 336 59l-62 158c-100-38-189-57-268-57-247 0-371 138-371 413 0 271 120 406 361 406 105 0 212-21 321-62v160C953 0 843 20 713 20c-347 1-541-210-541-563" id="T"/><g id="g"><use transform="matrix(0.008680555555555554,0,0,0.008680555555555554,0,0)" xlink:href="#R"/><use transform="matrix(0.008680555555555554,0,0,0.008680555555555554,10.668402777777777,0)" xlink:href="#P"/><use transform="matrix(0.008680555555555554,0,0,0.008680555555555554,21.336805555555554,0)" xlink:href="#F"/><use transform="matrix(0.008680555555555554,0,0,0.008680555555555554,32.00520833333333,0)" xlink:href="#K"/><use transform="matrix(0.008680555555555554,0,0,0.008680555555555554,42.67361111111111,0)" xlink:href="#I"/><use transform="matrix(0.008680555555555554,0,0,0.008680555555555554,53.342013888888886,0)" xlink:href="#S"/><use transform="matrix(0.008680555555555554,0,0,0.008680555555555554,64.01041666666666,0)" xlink:href="#P"/><use transform="matrix(0.008680555555555554,0,0,0.008680555555555554,74.67881944444443,0)" xlink:href="#T"/><use transform="matrix(0.008680555555555554,0,0,0.008680555555555554,85.3472222222222,0)" xlink:href="#K"/><use transform="matrix(0.008680555555555554,0,0,0.008680555555555554,96.01562499999997,0)" xlink:href="#I"/></g><path fill="#1d262b" d="M707 0H520v-1298H102v-164h1022v164H707V0" id="U"/><g id="h"><use transform="matrix(0.008680555555555554,0,0,0.008680555555555554,0,0)" xlink:href="#U"/><use transform="matrix(0.008680555555555554,0,0,0.008680555555555554,10.668402777777777,0)" xlink:href="#K"/><use transform="matrix(0.008680555555555554,0,0,0.008680555555555554,21.336805555555554,0)" xlink:href="#H"/><use transform="matrix(0.008680555555555554,0,0,0.008680555555555554,32.00520833333333,0)" xlink:href="#P"/><use transform="matrix(0.008680555555555554,0,0,0.008680555555555554,42.67361111111111,0)" xlink:href="#H"/><use transform="matrix(0.008680555555555554,0,0,0.008680555555555554,53.342013888888886,0)" xlink:href="#J"/><use transform="matrix(0.008680555555555554,0,0,0.008680555555555554,64.01041666666666,0)" xlink:href="#I"/></g><path fill="#1d262b" d="M1112-551c0 331-186 571-502 571-301 0-495-251-495-571 0-330 184-567 501-567 302 0 496 249 496 567zM614-131c207 0 310-140 310-420 0-277-104-416-312-416-206 0-309 139-309 416 0 280 104 420 311 420" id="V"/><g id="i"><use transform="matrix(0.008680555555555554,0,0,0.008680555555555554,0,0)" xlink:href="#U"/><use transform="matrix(0.008680555555555554,0,0,0.008680555555555554,10.668402777777777,0)" xlink:href="#V"/><use transform="matrix(0.008680555555555554,0,0,0.008680555555555554,21.336805555555554,0)" xlink:href="#S"/><use transform="matrix(0.008680555555555554,0,0,0.008680555555555554,32.00520833333333,0)" xlink:href="#G"/><use transform="matrix(0.008680555555555554,0,0,0.008680555555555554,42.67361111111111,0)" xlink:href="#T"/><use transform="matrix(0.008680555555555554,0,0,0.008680555555555554,53.342013888888886,0)" xlink:href="#I"/></g><g id="j"><use transform="matrix(0.008680555555555554,0,0,0.008680555555555554,0,0)" xlink:href="#M"/><use transform="matrix(0.008680555555555554,0,0,0.008680555555555554,10.668402777777777,0)" xlink:href="#K"/><use transform="matrix(0.008680555555555554,0,0,0.008680555555555554,21.336805555555554,0)" xlink:href="#L"/><use transform="matrix(0.008680555555555554,0,0,0.008680555555555554,32.00520833333333,0)" xlink:href="#F"/><use transform="matrix(0.008680555555555554,0,0,0.008680555555555554,42.67361111111111,0)" xlink:href="#G"/><use transform="matrix(0.008680555555555554,0,0,0.008680555555555554,53.342013888888886,0)" xlink:href="#I"/><use transform="matrix(0.008680555555555554,0,0,0.008680555555555554,64.01041666666666,0)" xlink:href="#I"/><use transform="matrix(0.008680555555555554,0,0,0.008680555555555554,74.67881944444443,0)" xlink:href="#G"/><use transform="matrix(0.008680555555555554,0,0,0.008680555555555554,85.3472222222222,0)" xlink:href="#V"/><use transform="matrix(0.008680555555555554,0,0,0.008680555555555554,96.01562499999997,0)" xlink:href="#H"/></g><path fill="#1d262b" d="M1087-391c0 281-226 411-532 411-177 0-315-23-414-69v-178c141 57 279 86 414 86 233 0 350-80 350-240 0-69-24-123-71-160s-142-82-285-133c-139-49-239-106-299-174s-90-156-90-264c2-252 211-371 481-371 153 0 291 26 416 78l-64 164c-129-52-249-78-360-78-195 0-293 70-293 209 0 68 22 123 66 164s134 85 270 133c164 58 273 119 328 181s83 143 83 241" id="W"/><path fill="#1d262b" d="M1092-551c0 322-136 571-430 571-138 0-245-53-322-159h-12L291 0H158v-1556h182c-2 221 6 379-8 602h8c71-109 179-164 322-164 294 0 430 246 430 567zM629-967c-241 0-289 146-289 416 0 151 24 259 70 323s120 97 221 97c181 0 272-141 272-422 0-276-91-414-274-414" id="X"/><g id="l"><use transform="matrix(0.008680555555555554,0,0,0.008680555555555554,0,0)" xlink:href="#W"/><use transform="matrix(0.008680555555555554,0,0,0.008680555555555554,10.668402777777777,0)" xlink:href="#N"/><use transform="matrix(0.008680555555555554,0,0,0.008680555555555554,21.336805555555554,0)" xlink:href="#X"/><use transform="matrix(0.008680555555555554,0,0,0.008680555555555554,32.00520833333333,0)" xlink:href="#I"/><use transform="matrix(0.008680555555555554,0,0,0.008680555555555554,42.67361111111111,0)" xlink:href="#T"/><use transform="matrix(0.008680555555555554,0,0,0.008680555555555554,53.342013888888886,0)" xlink:href="#L"/><use transform="matrix(0.008680555555555554,0,0,0.008680555555555554,64.01041666666666,0)" xlink:href="#G"/><use transform="matrix(0.008680555555555554,0,0,0.008680555555555554,74.67881944444443,0)" xlink:href="#S"/><use transform="matrix(0.008680555555555554,0,0,0.008680555555555554,85.3472222222222,0)" xlink:href="#J"/><use transform="matrix(0.008680555555555554,0,0,0.008680555555555554,96.01562499999997,0)" xlink:href="#G"/><use transform="matrix(0.008680555555555554,0,0,0.008680555555555554,106.68402777777774,0)" xlink:href="#V"/><use transform="matrix(0.008680555555555554,0,0,0.008680555555555554,117.35243055555551,0)" xlink:href="#H"/></g><path fill="#1d262b" d="M1137-424C1137-153 941 0 662 0H135v-1462c284 7 685-30 837 88 80 62 124 152 124 282 0 179-125 297-291 316v10c221 36 332 150 332 342zm-232-655c0-182-120-224-319-224H322v461h284c195-2 299-53 299-237zM322-686v528h307c207 0 311-91 311-274 0-169-108-254-324-254H322" id="Y"/><path fill="#1d262b" d="M383-553l135-152 395-393h222L641-623 1163 0H950L524-504l-129 82V0H215v-1556h180c-3 337 9 689-16 1003h4" id="Z"/><path fill="#1d262b" d="M188-739c-1-248 156-381 410-379 57 0 107 7 150 20h378v113l-196 27c43 57 65 128 65 213 2 253-212 385-489 346-67 37-100 82-100 133 0 56 54 84 161 84h187c216-2 358 93 358 297 0 251-188 377-565 377-145 0-255-26-331-80S102 283 102 186c0-141 80-231 240-270-64-31-96-83-96-154 0-75 44-139 133-192-109-41-191-166-191-309zm406 221c149 0 223-77 223-230 0-159-75-239-225-239s-225 81-225 242c0 151 76 227 227 227zm346 649c0-146-78-149-248-149H504c-153 0-230 66-230 198 0 116 90 174 271 174 263 0 395-74 395-223" id="aa"/><g id="m"><use transform="matrix(0.008680555555555554,0,0,0.008680555555555554,0,0)" xlink:href="#Y"/><use transform="matrix(0.008680555555555554,0,0,0.008680555555555554,10.668402777777777,0)" xlink:href="#P"/><use transform="matrix(0.008680555555555554,0,0,0.008680555555555554,21.336805555555554,0)" xlink:href="#T"/><use transform="matrix(0.008680555555555554,0,0,0.008680555555555554,32.00520833333333,0)" xlink:href="#Z"/><use transform="matrix(0.008680555555555554,0,0,0.008680555555555554,42.67361111111111,0)" xlink:href="#O"/><use transform="matrix(0.008680555555555554,0,0,0.008680555555555554,53.342013888888886,0)" xlink:href="#V"/><use transform="matrix(0.008680555555555554,0,0,0.008680555555555554,64.01041666666666,0)" xlink:href="#aa"/></g><path fill="#1d262b" d="M137-547c0-322 136-571 430-571 138 0 245 56 322 168h8l27-148h147V492H889c5-232-12-415 12-639h-12C814-36 706 20 567 20c-294 0-430-246-430-567zm463 416c241 0 288-157 289-416 0-151-23-259-69-323s-121-97-222-97c-181 0-272 141-272 422 0 276 91 414 274 414" id="ab"/><g id="n"><use transform="matrix(0.008680555555555554,0,0,0.008680555555555554,0,0)" xlink:href="#ab"/><use transform="matrix(0.008680555555555554,0,0,0.008680555555555554,10.668402777777777,0)" xlink:href="#N"/><use transform="matrix(0.008680555555555554,0,0,0.008680555555555554,21.336805555555554,0)" xlink:href="#V"/><use transform="matrix(0.008680555555555554,0,0,0.008680555555555554,32.00520833333333,0)" xlink:href="#J"/><use transform="matrix(0.008680555555555554,0,0,0.008680555555555554,42.67361111111111,0)" xlink:href="#P"/></g><path fill="#1d262b" d="M614-301c101 0 152 55 152 166S715 31 614 31 463-24 463-135s50-166 151-166" id="ac"/><g id="o"><use transform="matrix(0.008680555555555554,0,0,0.008680555555555554,0,0)" xlink:href="#ac"/><use transform="matrix(0.008680555555555554,0,0,0.008680555555555554,10.668402777777777,0)" xlink:href="#ac"/><use transform="matrix(0.008680555555555554,0,0,0.008680555555555554,21.336805555555554,0)" xlink:href="#ac"/></g><path fill="#1d262b" d="M532 0L254-1280h-8c34 456 12 817 18 1280H113v-1462h247L608-270h6l250-1192h252V0H963c5-467-12-807 14-1278h-8L686 0H532" id="ad"/><g id="p"><use transform="matrix(0.008680555555555554,0,0,0.008680555555555554,0,0)" xlink:href="#ad"/><use transform="matrix(0.008680555555555554,0,0,0.008680555555555554,10.668402777777777,0)" xlink:href="#K"/><use transform="matrix(0.008680555555555554,0,0,0.008680555555555554,21.336805555555554,0)" xlink:href="#I"/><use transform="matrix(0.008680555555555554,0,0,0.008680555555555554,32.00520833333333,0)" xlink:href="#I"/><use transform="matrix(0.008680555555555554,0,0,0.008680555555555554,42.67361111111111,0)" xlink:href="#P"/><use transform="matrix(0.008680555555555554,0,0,0.008680555555555554,53.342013888888886,0)" xlink:href="#aa"/><use transform="matrix(0.008680555555555554,0,0,0.008680555555555554,64.01041666666666,0)" xlink:href="#K"/></g><path fill="#1d262b" d="M233 0v-1462h187v1296h635V0H233" id="ae"/><g id="q"><use transform="matrix(0.008680555555555554,0,0,0.008680555555555554,0,0)" xlink:href="#U"/><use transform="matrix(0.008680555555555554,0,0,0.008680555555555554,10.668402777777777,0)" xlink:href="#U"/><use transform="matrix(0.008680555555555554,0,0,0.008680555555555554,21.336805555555554,0)" xlink:href="#ae"/></g><path fill="#1d262b" d="M616 20C261 20 84-232 84-735c0-500 178-750 534-750 171 0 301 65 392 195s137 316 137 557-46 426-138 557S786 20 616 20zm0-163c115 0 195-51 254-145 102-163 102-730-2-890-59-92-137-143-250-143-225 0-337 196-337 588 0 393 112 590 335 590" id="af"/><path fill="#1d262b" d="M866-1417c-164 2-207 56-211 215v104h389v137H655V0H473v-961H156v-110l317-33c-17-319 78-463 389-463 86 0 170 12 252 35l-41 143c-69-19-138-28-207-28" id="ag"/><g id="r"><use transform="matrix(0.008680555555555554,0,0,0.008680555555555554,0,0)" xlink:href="#af"/><use transform="matrix(0.008680555555555554,0,0,0.008680555555555554,10.668402777777777,0)" xlink:href="#ag"/><use transform="matrix(0.008680555555555554,0,0,0.008680555555555554,21.336805555555554,0)" xlink:href="#ag"/><use transform="matrix(0.008680555555555554,0,0,0.008680555555555554,32.00520833333333,0)" xlink:href="#O"/><use transform="matrix(0.008680555555555554,0,0,0.008680555555555554,42.67361111111111,0)" xlink:href="#V"/><use transform="matrix(0.008680555555555554,0,0,0.008680555555555554,53.342013888888886,0)" xlink:href="#P"/><use transform="matrix(0.008680555555555554,0,0,0.008680555555555554,64.01041666666666,0)" xlink:href="#E"/></g><path fill="#1d262b" d="M82-1098h188l262 654c55 137 84 233 89 290h6c15-75 45-172 90-292l239-652h189L670 143c-45 116-99 201-156 261-87 92-259 104-414 71V330c92 17 226 18 286-29 67-53 115-195 153-291" id="ah"/><g id="s"><use transform="matrix(0.008680555555555554,0,0,0.008680555555555554,0,0)" xlink:href="#S"/><use transform="matrix(0.008680555555555554,0,0,0.008680555555555554,10.668402777777777,0)" xlink:href="#V"/><use transform="matrix(0.008680555555555554,0,0,0.008680555555555554,21.336805555555554,0)" xlink:href="#O"/><use transform="matrix(0.008680555555555554,0,0,0.008680555555555554,32.00520833333333,0)" xlink:href="#G"/><use transform="matrix(0.008680555555555554,0,0,0.008680555555555554,42.67361111111111,0)" xlink:href="#T"/><use transform="matrix(0.008680555555555554,0,0,0.008680555555555554,53.342013888888886,0)" xlink:href="#ah"/></g><g id="t"><use transform="matrix(0.008680555555555554,0,0,0.008680555555555554,0,0)" xlink:href="#M"/><use transform="matrix(0.008680555555555554,0,0,0.008680555555555554,10.668402777777777,0)" xlink:href="#L"/><use transform="matrix(0.008680555555555554,0,0,0.008680555555555554,21.336805555555554,0)" xlink:href="#V"/><use transform="matrix(0.008680555555555554,0,0,0.008680555555555554,32.00520833333333,0)" xlink:href="#E"/><use transform="matrix(0.008680555555555554,0,0,0.008680555555555554,42.67361111111111,0)" xlink:href="#N"/><use transform="matrix(0.008680555555555554,0,0,0.008680555555555554,53.342013888888886,0)" xlink:href="#T"/><use transform="matrix(0.008680555555555554,0,0,0.008680555555555554,64.01041666666666,0)" xlink:href="#K"/><use transform="matrix(0.008680555555555554,0,0,0.008680555555555554,74.67881944444443,0)" xlink:href="#L"/></g><g id="u"><use transform="matrix(0.008680555555555554,0,0,0.008680555555555554,0,0)" xlink:href="#P"/><use transform="matrix(0.008680555555555554,0,0,0.008680555555555554,10.668402777777777,0)" xlink:href="#H"/><use transform="matrix(0.008680555555555554,0,0,0.008680555555555554,21.336805555555554,0)" xlink:href="#E"/></g><g id="v"><use transform="matrix(0.008680555555555554,0,0,0.008680555555555554,0,0)" xlink:href="#T"/><use transform="matrix(0.008680555555555554,0,0,0.008680555555555554,10.668402777777777,0)" xlink:href="#V"/><use transform="matrix(0.008680555555555554,0,0,0.008680555555555554,21.336805555555554,0)" xlink:href="#H"/><use transform="matrix(0.008680555555555554,0,0,0.008680555555555554,32.00520833333333,0)" xlink:href="#I"/><use transform="matrix(0.008680555555555554,0,0,0.008680555555555554,42.67361111111111,0)" xlink:href="#N"/><use transform="matrix(0.008680555555555554,0,0,0.008680555555555554,53.342013888888886,0)" xlink:href="#F"/><use transform="matrix(0.008680555555555554,0,0,0.008680555555555554,64.01041666666666,0)" xlink:href="#K"/><use transform="matrix(0.008680555555555554,0,0,0.008680555555555554,74.67881944444443,0)" xlink:href="#L"/></g><path fill="#1d262b" d="M887 0v-707c0-173-79-260-238-260-205 0-307 133-307 398V0H160v-1556h182c-2 202 6 416-8 606h10c69-112 181-168 336-168 259 0 389 134 389 401V0H887" id="ai"/><g id="w"><use transform="matrix(0.008680555555555554,0,0,0.008680555555555554,0,0)" xlink:href="#D"/><use transform="matrix(0.008680555555555554,0,0,0.008680555555555554,10.668402777777777,0)" xlink:href="#N"/><use transform="matrix(0.008680555555555554,0,0,0.008680555555555554,21.336805555555554,0)" xlink:href="#J"/><use transform="matrix(0.008680555555555554,0,0,0.008680555555555554,32.00520833333333,0)" xlink:href="#ai"/><use transform="matrix(0.008680555555555554,0,0,0.008680555555555554,42.67361111111111,0)" xlink:href="#H"/></g><path fill="#1d262b" d="M1044 0H182v-125l660-836H215v-137h811v146L379-137h665V0" id="aj"/><g id="x"><use transform="matrix(0.008680555555555554,0,0,0.008680555555555554,0,0)" xlink:href="#D"/><use transform="matrix(0.008680555555555554,0,0,0.008680555555555554,10.668402777777777,0)" xlink:href="#N"/><use transform="matrix(0.008680555555555554,0,0,0.008680555555555554,21.336805555555554,0)" xlink:href="#J"/><use transform="matrix(0.008680555555555554,0,0,0.008680555555555554,32.00520833333333,0)" xlink:href="#ai"/><use transform="matrix(0.008680555555555554,0,0,0.008680555555555554,42.67361111111111,0)" xlink:href="#aj"/></g><path fill="#1d262b" d="M1001 0H225v-123l295-20v-1176l-295-20v-123h776v123l-294 20v1176l294 20V0" id="ak"/><g id="y"><use transform="matrix(0.008680555555555554,0,0,0.008680555555555554,0,0)" xlink:href="#ak"/><use transform="matrix(0.008680555555555554,0,0,0.008680555555555554,10.668402777777777,0)" xlink:href="#I"/><use transform="matrix(0.008680555555555554,0,0,0.008680555555555554,21.336805555555554,0)" xlink:href="#V"/><use transform="matrix(0.008680555555555554,0,0,0.008680555555555554,32.00520833333333,0)" xlink:href="#O"/><use transform="matrix(0.008680555555555554,0,0,0.008680555555555554,42.67361111111111,0)" xlink:href="#P"/><use transform="matrix(0.008680555555555554,0,0,0.008680555555555554,53.342013888888886,0)" xlink:href="#J"/><use transform="matrix(0.008680555555555554,0,0,0.008680555555555554,64.01041666666666,0)" xlink:href="#G"/><use transform="matrix(0.008680555555555554,0,0,0.008680555555555554,74.67881944444443,0)" xlink:href="#V"/><use transform="matrix(0.008680555555555554,0,0,0.008680555555555554,85.3472222222222,0)" xlink:href="#H"/></g><g id="A"><use transform="matrix(0.008680555555555554,0,0,0.008680555555555554,0,0)" xlink:href="#ac"/><use transform="matrix(0.008680555555555554,0,0,0.008680555555555554,10.668402777777777,0)" xlink:href="#ac"/><use transform="matrix(0.008680555555555554,0,0,0.008680555555555554,21.336805555555554,0)" xlink:href="#ac"/></g><g id="B"><use transform="matrix(0.010959201388888886,0,0,0.010959201388888886,0,0)" xlink:href="#M"/><use transform="matrix(0.010959201388888886,0,0,0.010959201388888886,13.468858506944441,0)" xlink:href="#N"/><use transform="matrix(0.010959201388888886,0,0,0.010959201388888886,26.937717013888882,0)" xlink:href="#O"/><use transform="matrix(0.010959201388888886,0,0,0.010959201388888886,40.40657552083332,0)" xlink:href="#I"/><use transform="matrix(0.010959201388888886,0,0,0.010959201388888886,53.875434027777764,0)" xlink:href="#P"/><use transform="matrix(0.010959201388888886,0,0,0.010959201388888886,67.3442925347222,0)" xlink:href="#L"/></g><path fill="#1d262b" d="M326-731c0 353 139 584 471 588 87 0 196-19 327-58v162c-97 39-217 59-358 59-433-1-637-301-637-753 0-438 243-750 668-750 147 0 274 29 383 86l-78 156c-103-52-204-78-305-78-307 1-471 259-471 588" id="al"/><g id="C"><use transform="matrix(0.010959201388888886,0,0,0.010959201388888886,0,0)" xlink:href="#al"/><use transform="matrix(0.010959201388888886,0,0,0.010959201388888886,13.468858506944441,0)" xlink:href="#O"/><use transform="matrix(0.010959201388888886,0,0,0.010959201388888886,26.937717013888882,0)" xlink:href="#N"/><use transform="matrix(0.010959201388888886,0,0,0.010959201388888886,40.40657552083332,0)" xlink:href="#I"/><use transform="matrix(0.010959201388888886,0,0,0.010959201388888886,53.875434027777764,0)" xlink:href="#J"/><use transform="matrix(0.010959201388888886,0,0,0.010959201388888886,67.3442925347222,0)" xlink:href="#K"/><use transform="matrix(0.010959201388888886,0,0,0.010959201388888886,80.81315104166664,0)" xlink:href="#L"/><use transform="matrix(0.010959201388888886,0,0,0.010959201388888886,94.28200954861109,0)" xlink:href="#I"/></g></defs></g></svg>