<svg xmlns="http://www.w3.org/2000/svg" xmlns:xlink="http://www.w3.org/1999/xlink" xmlns:lucid="lucid" width="1093.5" height="361.07"><g transform="translate(1604.4147375328084 -1255.365911541303)" lucid:page-tab-id="0_0"><path d="M-1806.87 1258.84H64v1322.83h-1870.87z" fill="#fff"/><path d="M-1583.9 1490.1a.5.5 0 0 1 .5-.5h1051.48a.5.5 0 0 1 .5.5.5.5 0 0 1-.5.5h-1051.5a.5.5 0 0 1-.5-.5z" stroke="#4c535d" fill="none"/><path d="M-1485.4 1458.6a.5.5 0 0 1 .5.5v76a.5.5 0 0 1-.5.5.5.5 0 0 1-.5-.5v-76a.5.5 0 0 1 .5-.5z" stroke="#4c535d" fill="none"/><path d="M-1513.54 1542.1a6 6 0 0 1 6-6h47.27a6 6 0 0 1 6 6v48a6 6 0 0 1-6 6h-47.27a6 6 0 0 1-6-6z" stroke="#000" stroke-opacity="0" fill="#fff" fill-opacity="0"/><use xlink:href="#a" transform="matrix(1,0,0,1,-1508.5390841352487,1541.1020226524133) translate(12.998046875000002 31.064453124999996)"/><path d="M-1043.4 1458.6a.5.5 0 0 1 .5.5v76a.5.5 0 0 1-.5.5.5.5 0 0 1-.5-.5v-76a.5.5 0 0 1 .5-.5z" stroke="#1071e5" fill="none"/><path d="M-1062.33 1542.1a6 6 0 0 1 6-6h40.12a6 6 0 0 1 6 6v48a6 6 0 0 1-6 6h-40.13a6 6 0 0 1-6-6z" stroke="#000" stroke-opacity="0" fill="#fff" fill-opacity="0"/><use xlink:href="#b" transform="matrix(1,0,0,1,-1057.3283365624857,1541.1020226524133) translate(9.498046875000002 31.064453124999996)"/><path d="M-1445.4 1490.1c0 11.05-8.97 20-20 20-11.06 0-20-8.95-20-20 0-11.04 8.94-20 20-20 11.03 0 20 8.96 20 20z" stroke="#6db1ff" fill="#6db1ff"/><use xlink:href="#c" transform="matrix(1,0,0,1,-1480.4147375328416,1475.1020226524138) translate(9.66579861111111 20.251736111111107)"/><path d="M-1405.4 1490.1c0 11.05-8.97 20-20 20-11.06 0-20-8.95-20-20 0-11.04 8.94-20 20-20 11.03 0 20 8.96 20 20z" stroke="#6db1ff" fill="#6db1ff"/><use xlink:href="#d" transform="matrix(1,0,0,1,-1440.4147375328416,1475.1020226524138) translate(9.66579861111111 20.251736111111107)"/><path d="M-1364.4 1490.1c0 11.05-8.97 20-20 20-11.06 0-20-8.95-20-20 0-11.04 8.94-20 20-20 11.03 0 20 8.96 20 20z" stroke="#6db1ff" fill="#6db1ff"/><use xlink:href="#e" transform="matrix(1,0,0,1,-1399.4147375328416,1475.1020226524138) translate(9.66579861111111 20.251736111111107)"/><path d="M-1324.4 1490.1c0 11.05-8.97 20-20 20-11.06 0-20-8.95-20-20 0-11.04 8.94-20 20-20 11.03 0 20 8.96 20 20z" stroke="#6db1ff" fill="#6db1ff"/><use xlink:href="#f" transform="matrix(1,0,0,1,-1359.4147375328416,1475.1020226524138) translate(9.66579861111111 20.251736111111107)"/><path d="M-1284.4 1490.1c0 11.05-8.97 20-20 20-11.06 0-20-8.95-20-20 0-11.04 8.94-20 20-20 11.03 0 20 8.96 20 20z" stroke="#6db1ff" fill="#6db1ff"/><use xlink:href="#g" transform="matrix(1,0,0,1,-1319.4147375328416,1475.1020226524138) translate(9.66579861111111 20.251736111111107)"/><path d="M-1243.4 1490.1c0 11.05-8.97 20-20 20-11.06 0-20-8.95-20-20 0-11.04 8.94-20 20-20 11.03 0 20 8.96 20 20z" stroke="#6db1ff" fill="#6db1ff"/><use xlink:href="#h" transform="matrix(1,0,0,1,-1278.4147375328416,1475.1020226524138) translate(9.66579861111111 20.251736111111107)"/><path d="M-1203.4 1490.1c0 11.05-8.97 20-20 20-11.06 0-20-8.95-20-20 0-11.04 8.94-20 20-20 11.03 0 20 8.96 20 20z" stroke="#6db1ff" fill="#6db1ff"/><use xlink:href="#i" transform="matrix(1,0,0,1,-1238.4147375328416,1475.1020226524138) translate(9.66579861111111 20.251736111111107)"/><path d="M-1163.4 1490.1c0 11.05-8.97 20-20 20-11.06 0-20-8.95-20-20 0-11.04 8.94-20 20-20 11.03 0 20 8.96 20 20z" stroke="#6db1ff" fill="#6db1ff"/><use xlink:href="#j" transform="matrix(1,0,0,1,-1198.4147375328416,1475.1020226524138) translate(9.66579861111111 20.251736111111107)"/><path d="M-1122.4 1490.1c0 11.05-8.97 20-20 20-11.06 0-20-8.95-20-20 0-11.04 8.94-20 20-20 11.03 0 20 8.96 20 20z" stroke="#6db1ff" fill="#6db1ff"/><use xlink:href="#k" transform="matrix(1,0,0,1,-1157.4147375328416,1475.1020226524138) translate(9.66579861111111 20.251736111111107)"/><path d="M-1082.4 1490.1c0 11.05-8.97 20-20 20-11.06 0-20-8.95-20-20 0-11.04 8.94-20 20-20 11.03 0 20 8.96 20 20z" stroke="#6db1ff" fill="#6db1ff"/><use xlink:href="#l" transform="matrix(1,0,0,1,-1117.4147375328416,1475.1020226524138) translate(4.331597222222223 20.251736111111107)"/><g fill="none"><path d="M-1083.4 1363.77v86.67h-402v-86.67z"/><path d="M-1485.4 1450.44c0-13.88 11.23-25.13 25.1-25.13h150.76c13.88 0 25.13-11.24 25.13-25.1 0 13.86 11.23 25.1 25.1 25.1h150.76c13.88 0 25.13 11.26 25.13 25.14" stroke="#4c535d" stroke-width="2"/></g><use xlink:href="#m" transform="matrix(1,-2.4492935982947064e-16,2.4492935982947064e-16,1,-1480.4147375328412,1364.4145226524142) translate(83.98177083333334 16.50173611111111)"/><use xlink:href="#n" transform="matrix(1,-2.4492935982947064e-16,2.4492935982947064e-16,1,-1480.4147375328412,1364.4145226524142) translate(201.33420138888889 16.50173611111111)"/><use xlink:href="#o" transform="matrix(1,-2.4492935982947064e-16,2.4492935982947064e-16,1,-1480.4147375328412,1364.4145226524142) translate(265.34461805555554 16.50173611111111)"/><use xlink:href="#p" transform="matrix(1,-2.4492935982947064e-16,2.4492935982947064e-16,1,-1480.4147375328412,1364.4145226524142) translate(286.6814236111111 16.50173611111111)"/><path d="M-1043.4 1490.1c0 11.05-8.97 20-20 20-11.06 0-20-8.95-20-20 0-11.04 8.94-20 20-20 11.03 0 20 8.96 20 20z" stroke="#188fff" fill="#188fff"/><use xlink:href="#q" transform="matrix(1,0,0,1,-1078.4147375328416,1475.1020226524138) translate(4.331597222222223 20.251736111111107)"/><path d="M-1063.4 1469.1v-31.7a.25.25 0 0 1 .24-.24.25.25 0 0 0 .25-.25v-83.4" stroke="#188fff" fill="none"/><path d="M-1062.9 1469.66l-.5-.06-.5.02v-.53h1z" stroke="#188fff" stroke-width=".05" fill="#188fff"/><path d="M-1062.9 1338.72l4.62 14.27h-9.27z" stroke="#188fff" fill="#188fff"/><path d="M-1198.4 1281.37a6 6 0 0 1 6-6h259a6 6 0 0 1 6 6v49.73a6 6 0 0 1-6 6h-259a6 6 0 0 1-6-6z" stroke="#000" stroke-opacity="0" fill="#fff" fill-opacity="0"/><use xlink:href="#r" transform="matrix(1,0,0,1,-1193.4147375328416,1280.365911541303) translate(13.147569444444457 32.751736111111114)"/><use xlink:href="#s" transform="matrix(1,0,0,1,-1193.4147375328416,1280.365911541303) translate(173.1736111111111 32.751736111111114)"/><path d="M-1002.4 1490.1c0 11.05-8.97 20-20 20-11.06 0-20-8.95-20-20 0-11.04 8.94-20 20-20 11.03 0 20 8.96 20 20z" stroke="#6db1ff" fill="#6db1ff"/><use xlink:href="#c" transform="matrix(1,0,0,1,-1037.4147375328416,1475.1020226524129) translate(9.66579861111111 20.251736111111107)"/><path d="M-961.4 1490.1c0 11.05-8.97 20-20 20-11.06 0-20-8.95-20-20 0-11.04 8.94-20 20-20 11.03 0 20 8.96 20 20z" stroke="#6db1ff" fill="#6db1ff"/><use xlink:href="#d" transform="matrix(1,0,0,1,-996.4147375328417,1475.1020226524129) translate(9.66579861111111 20.251736111111107)"/><path d="M-921.4 1490.1c0 11.05-8.97 20-20 20-11.06 0-20-8.95-20-20 0-11.04 8.94-20 20-20 11.03 0 20 8.96 20 20z" stroke="#6db1ff" fill="#6db1ff"/><use xlink:href="#e" transform="matrix(1,0,0,1,-956.4147375328417,1475.1020226524129) translate(9.66579861111111 20.251736111111107)"/><path d="M-881.4 1490.1c0 11.05-8.97 20-20 20-11.06 0-20-8.95-20-20 0-11.04 8.94-20 20-20 11.03 0 20 8.96 20 20z" stroke="#6db1ff" fill="#6db1ff"/><use xlink:href="#f" transform="matrix(1,0,0,1,-916.4147375328417,1475.1020226524129) translate(9.66579861111111 20.251736111111107)"/><path d="M-840.4 1490.1c0 11.05-8.97 20-20 20-11.06 0-20-8.95-20-20 0-11.04 8.94-20 20-20 11.03 0 20 8.96 20 20z" stroke="#6db1ff" fill="#6db1ff"/><use xlink:href="#g" transform="matrix(1,0,0,1,-875.4147375328417,1475.1020226524129) translate(9.66579861111111 20.251736111111107)"/><path d="M-800.4 1490.1c0 11.05-8.97 20-20 20-11.06 0-20-8.95-20-20 0-11.04 8.94-20 20-20 11.03 0 20 8.96 20 20z" stroke="#6db1ff" fill="#6db1ff"/><use xlink:href="#h" transform="matrix(1,0,0,1,-835.4147375328417,1475.1020226524129) translate(9.66579861111111 20.251736111111107)"/><path d="M-760.4 1490.1c0 11.05-8.97 20-20 20-11.06 0-20-8.95-20-20 0-11.04 8.94-20 20-20 11.03 0 20 8.96 20 20z" stroke="#6db1ff" fill="#6db1ff"/><use xlink:href="#i" transform="matrix(1,0,0,1,-795.4147375328417,1475.1020226524129) translate(9.66579861111111 20.251736111111107)"/><path d="M-719.4 1490.1c0 11.05-8.97 20-20 20-11.06 0-20-8.95-20-20 0-11.04 8.94-20 20-20 11.03 0 20 8.96 20 20z" stroke="#6db1ff" fill="#6db1ff"/><use xlink:href="#j" transform="matrix(1,0,0,1,-754.4147375328417,1475.1020226524129) translate(9.66579861111111 20.251736111111107)"/><path d="M-679.4 1490.1c0 11.05-8.97 20-20 20-11.06 0-20-8.95-20-20 0-11.04 8.94-20 20-20 11.03 0 20 8.96 20 20z" stroke="#6db1ff" fill="#6db1ff"/><use xlink:href="#k" transform="matrix(1,0,0,1,-714.4147375328417,1475.1020226524129) translate(9.66579861111111 20.251736111111107)"/><g fill="none"><path d="M-681.4 1363.77v86.67h-400v-86.67z"/><path d="M-1081.4 1450.44c0-13.8 11.18-25 25-25h150c13.8 0 25-11.2 25-25 0 13.8 11.18 25 25 25h150c13.8 0 25 11.2 25 25" stroke="#4c535d" stroke-width="2"/></g><use xlink:href="#m" transform="matrix(1,-2.4492935982947064e-16,2.4492935982947064e-16,1,-1076.4147375328416,1364.6020226524138) translate(109.65277777777779 16.50173611111111)"/><use xlink:href="#t" transform="matrix(1,-2.4492935982947064e-16,2.4492935982947064e-16,1,-1076.4147375328416,1364.6020226524138) translate(227.00520833333331 16.50173611111111)"/><g><path d="M-602.7 1458.93a.5.5 0 0 1 .5.5v76a.5.5 0 0 1-.5.5.5.5 0 0 1-.5-.5v-76a.5.5 0 0 1 .5-.5z" stroke="#4c535d" fill="none"/></g><path d="M-630.4 1542.43a6 6 0 0 1 6-6h46.86a6 6 0 0 1 6 6v48a6 6 0 0 1-6 6h-46.87a6 6 0 0 1-6-6z" stroke="#000" stroke-opacity="0" fill="#fff" fill-opacity="0"/><g><use xlink:href="#u" transform="matrix(1,0,0,1,-625.4125781464888,1541.435355985747) translate(12.498046875000002 31.064453124999996)"/></g><defs><path fill="#3a414a" d="M612 20c-153 0-268-65-347-194S147-489 147-733c0-501 155-752 465-752 155 0 271 64 350 193s119 316 119 559c0 502-156 753-469 753zm0-155c98 0 165-50 216-141 86-153 87-759 0-912-51-91-118-141-216-141-97 0-162 49-212 139-85 152-84 764 0 915 50 90 115 140 212 140" id="v"/><path fill="#3a414a" d="M1026-301c0 225-197 321-448 321-165 0-290-23-375-69v-166c129 57 252 86 370 86 183 0 275-54 275-162 0-38-16-71-49-99s-108-63-226-106c-156-57-253-112-293-160s-61-105-61-171c2-338 524-340 789-217l-60 149c-121-48-228-72-319-72-157 0-236 44-236 133 0 41 17 74 51 98s111 57 232 101c141 51 234 101 280 151s70 111 70 183" id="w"/><g id="a"><use transform="matrix(0.009765624999999998,0,0,0.009765624999999998,0,0)" xlink:href="#v"/><use transform="matrix(0.009765624999999998,0,0,0.009765624999999998,12.001953124999998,0)" xlink:href="#w"/></g><path fill="#3a414a" d="M758 0H582c3-449-8-824 8-1274-61 68-188 168-268 234l-97-123 383-299h150V0" id="x"/><g id="b"><use transform="matrix(0.009765624999999998,0,0,0.009765624999999998,0,0)" xlink:href="#x"/><use transform="matrix(0.009765624999999998,0,0,0.009765624999999998,12.001953124999998,0)" xlink:href="#w"/></g><path fill="#fff" d="M758 0H582c3-449-8-824 8-1274-61 68-188 168-268 234l-97-123 383-299h150V0" id="y"/><use transform="matrix(0.008680555555555554,0,0,0.008680555555555554,0,0)" xlink:href="#y" id="c"/><path fill="#fff" d="M594-1483c248 0 420 149 418 391 0 79-21 160-59 244-73 161-414 504-572 674v8h688V0H158v-156c172-193 489-508 607-698 43-69 62-147 62-231 0-146-91-244-235-244-107 0-213 46-318 137l-102-119c128-115 269-172 422-172" id="z"/><use transform="matrix(0.008680555555555554,0,0,0.008680555555555554,0,0)" xlink:href="#z" id="d"/><path fill="#fff" d="M1010-1120c0 200-132 322-316 350v6c241 31 361 147 361 348 0 294-219 436-537 436-161 0-290-26-387-79v-170c123 64 250 96 383 96 236 0 354-96 354-289 0-172-127-258-381-258H354v-151h133c195 4 334-97 336-277 1-140-106-221-250-221-119 0-233 40-344 121l-92-125c125-100 270-150 436-150 252 0 437 128 437 363" id="A"/><use transform="matrix(0.008680555555555554,0,0,0.008680555555555554,0,0)" xlink:href="#A" id="e"/><path fill="#fff" d="M1126-328H913V0H737v-328H61v-159l664-983h188v976h213v166zM737-494c1-292-4-481 13-788h-9c-24 68-55 128-90 180L240-494h497" id="B"/><use transform="matrix(0.008680555555555554,0,0,0.008680555555555554,0,0)" xlink:href="#B" id="f"/><path fill="#fff" d="M1055-469c0 318-203 489-527 489-149 0-268-26-356-79v-172c96 64 216 96 360 96 224 0 336-105 336-314 0-196-115-294-344-294-59 0-136 9-231 26l-90-57 55-688h690v166H416l-39 419c71-13 141-20 209-20 270-4 469 161 469 428" id="C"/><use transform="matrix(0.008680555555555554,0,0,0.008680555555555554,0,0)" xlink:href="#C" id="g"/><path fill="#fff" d="M1075-471c0 288-166 493-444 491-145 0-261-56-347-168S154-420 154-625c0-572 213-858 639-858 69 0 127 6 172 19v155c-47-16-103-24-166-24-149 0-262 47-337 141S347-949 340-745h12c63-113 166-170 307-170 262 0 416 178 416 444zM629-133c183-3 270-141 270-338 0-183-88-297-264-301-154-4-299 123-299 266 0 185 113 376 293 373" id="D"/><use transform="matrix(0.008680555555555554,0,0,0.008680555555555554,0,0)" xlink:href="#D" id="h"/><path fill="#fff" d="M334 0l563-1296H143v-166h940v145L528 0H334" id="E"/><use transform="matrix(0.008680555555555554,0,0,0.008680555555555554,0,0)" xlink:href="#E" id="i"/><path fill="#fff" d="M614-1485c230 0 412 129 412 352 0 153-87 273-262 359 206 107 309 238 309 393 0 249-200 401-459 401-271 0-458-134-458-393 0-171 94-302 282-393-157-97-235-220-235-369 0-219 188-350 411-350zm-2 152c-137 0-233 71-231 207 0 60 16 110 49 152s95 84 186 126c155-69 232-161 232-278 1-138-96-207-236-207zm-2 1202c171 0 285-85 285-248 0-60-22-112-63-159-43-49-141-111-244-158-169 81-254 189-254 325 0 160 92 240 276 240" id="F"/><use transform="matrix(0.008680555555555554,0,0,0.008680555555555554,0,0)" xlink:href="#F" id="j"/><path fill="#fff" d="M154-991c0-288 166-494 444-492 147 0 262 57 348 171s129 272 129 474c0 572-213 858-639 858-70 0-127-6-172-18v-156c45 17 100 25 166 25 149 0 261-47 336-141s116-243 123-447h-12c-64 113-167 170-308 170-262 0-415-176-415-444zm446-338c-185 4-270 138-270 338 0 183 88 296 264 301 153 4 299-124 299-266 0-185-111-377-293-373" id="G"/><use transform="matrix(0.008680555555555554,0,0,0.008680555555555554,0,0)" xlink:href="#G" id="k"/><path fill="#fff" d="M612 20c-153 0-268-65-347-194S147-489 147-733c0-501 155-752 465-752 155 0 271 64 350 193s119 316 119 559c0 502-156 753-469 753zm0-155c98 0 165-50 216-141 86-153 87-759 0-912-51-91-118-141-216-141-97 0-162 49-212 139-85 152-84 764 0 915 50 90 115 140 212 140" id="H"/><g id="l"><use transform="matrix(0.008680555555555554,0,0,0.008680555555555554,0,0)" xlink:href="#y"/><use transform="matrix(0.008680555555555554,0,0,0.008680555555555554,10.668402777777777,0)" xlink:href="#H"/></g><path fill="#4c535d" d="M707 0H520v-1298H102v-164h1022v164H707V0" id="I"/><path fill="#4c535d" d="M887 0v-707c0-173-79-260-238-260-205 0-307 133-307 398V0H160v-1556h182c-2 202 6 416-8 606h10c69-112 181-168 336-168 259 0 389 134 389 401V0H887" id="J"/><path fill="#4c535d" d="M442-897c93-139 173-221 377-221 79 0 159 15 240 45l-49 166c-82-30-157-45-224-45-221 0-340 134-340 360V0H264v-1098h148l22 201h8" id="K"/><path fill="#4c535d" d="M1112-551c0 331-186 571-502 571-301 0-495-251-495-571 0-330 184-567 501-567 302 0 496 249 496 567zM614-131c207 0 310-140 310-420 0-277-104-416-312-416-206 0-309 139-309 416 0 280 104 420 311 420" id="L"/><path fill="#4c535d" d="M1020-150v138C933 9 849 20 768 20 527 20 406-95 406-324v-637H139v-94l267-49 77-287h105v293h438v137H588v637c0 130 64 195 192 195 62 0 142-7 240-21" id="M"/><path fill="#4c535d" d="M532-1413l-268-21v-122h451v1413l352 20V0H188v-123l344-20v-1270" id="N"/><path fill="#4c535d" d="M739-1436c0 71-43 115-106 115-71 0-107-38-107-115 0-76 36-114 107-114s106 38 106 114zM541-954l-269-21v-123h451v955l352 20V0H197v-123l344-20v-811" id="O"/><path fill="#4c535d" d="M887 0v-707c0-173-79-260-238-260-205 0-307 133-307 398V0H160v-1098h147l27 148h10c69-112 181-168 336-168 259 0 389 134 389 401V0H887" id="P"/><path fill="#4c535d" d="M188-739c-1-248 156-381 410-379 57 0 107 7 150 20h378v113l-196 27c43 57 65 128 65 213 2 253-212 385-489 346-67 37-100 82-100 133 0 56 54 84 161 84h187c216-2 358 93 358 297 0 251-188 377-565 377-145 0-255-26-331-80S102 283 102 186c0-141 80-231 240-270-64-31-96-83-96-154 0-75 44-139 133-192-109-41-191-166-191-309zm406 221c149 0 223-77 223-230 0-159-75-239-225-239s-225 81-225 242c0 151 76 227 227 227zm346 649c0-146-78-149-248-149H504c-153 0-230 66-230 198 0 116 90 174 271 174 263 0 395-74 395-223" id="Q"/><g id="m"><use transform="matrix(0.008680555555555556,0,0,0.008680555555555556,0,0)" xlink:href="#I"/><use transform="matrix(0.008680555555555556,0,0,0.008680555555555556,10.668402777777779,0)" xlink:href="#J"/><use transform="matrix(0.008680555555555556,0,0,0.008680555555555556,21.336805555555557,0)" xlink:href="#K"/><use transform="matrix(0.008680555555555556,0,0,0.008680555555555556,32.005208333333336,0)" xlink:href="#L"/><use transform="matrix(0.008680555555555556,0,0,0.008680555555555556,42.673611111111114,0)" xlink:href="#M"/><use transform="matrix(0.008680555555555556,0,0,0.008680555555555556,53.34201388888889,0)" xlink:href="#M"/><use transform="matrix(0.008680555555555556,0,0,0.008680555555555556,64.01041666666667,0)" xlink:href="#N"/><use transform="matrix(0.008680555555555556,0,0,0.008680555555555556,74.67881944444446,0)" xlink:href="#O"/><use transform="matrix(0.008680555555555556,0,0,0.008680555555555556,85.34722222222223,0)" xlink:href="#P"/><use transform="matrix(0.008680555555555556,0,0,0.008680555555555556,96.015625,0)" xlink:href="#Q"/></g><path fill="#4c535d" d="M137-547c0-322 136-571 430-571 138 0 245 56 322 168h8l27-148h147V492H889c5-232-12-415 12-639h-12C814-36 706 20 567 20c-294 0-430-246-430-567zm463 416c241 0 288-157 289-416 0-151-23-259-69-323s-121-97-222-97c-181 0-272 141-272 422 0 276 91 414 274 414" id="R"/><path fill="#4c535d" d="M578-131c239 0 309-137 309-397v-570h182V0H922l-27-147h-10C815-36 704 20 551 20c-261 0-391-134-391-401v-717h182v707c0 173 79 260 236 260" id="S"/><path fill="#4c535d" d="M596-1118c288 2 430 92 430 366V0H895l-37-152h-8C752-34 680 17 483 20 272 23 135-98 135-307c0-221 170-337 510-348l203-7c15-197-55-305-244-305-98 0-207 27-328 82l-63-137c131-64 258-96 383-96zm-72 991c194 0 325-116 322-311v-99c-251 15-522-6-522 232 0 119 67 178 200 178" id="T"/><g id="n"><use transform="matrix(0.008680555555555556,0,0,0.008680555555555556,0,0)" xlink:href="#R"/><use transform="matrix(0.008680555555555556,0,0,0.008680555555555556,10.668402777777779,0)" xlink:href="#S"/><use transform="matrix(0.008680555555555556,0,0,0.008680555555555556,21.336805555555557,0)" xlink:href="#L"/><use transform="matrix(0.008680555555555556,0,0,0.008680555555555556,32.005208333333336,0)" xlink:href="#M"/><use transform="matrix(0.008680555555555556,0,0,0.008680555555555556,42.673611111111114,0)" xlink:href="#T"/></g><path fill="#4c535d" d="M152-852v-149h923v149H152zm0 410v-150h923v150H152" id="U"/><use transform="matrix(0.008680555555555556,0,0,0.008680555555555556,0,0)" xlink:href="#U" id="o"/><path fill="#4c535d" d="M758 0H582c3-449-8-824 8-1274-61 68-188 168-268 234l-97-123 383-299h150V0" id="V"/><path fill="#4c535d" d="M612 20c-153 0-268-65-347-194S147-489 147-733c0-501 155-752 465-752 155 0 271 64 350 193s119 316 119 559c0 502-156 753-469 753zm0-155c98 0 165-50 216-141 86-153 87-759 0-912-51-91-118-141-216-141-97 0-162 49-212 139-85 152-84 764 0 915 50 90 115 140 212 140" id="W"/><g id="p"><use transform="matrix(0.008680555555555556,0,0,0.008680555555555556,0,0)" xlink:href="#V"/><use transform="matrix(0.008680555555555556,0,0,0.008680555555555556,10.668402777777779,0)" xlink:href="#W"/></g><g id="q"><use transform="matrix(0.008680555555555554,0,0,0.008680555555555554,0,0)" xlink:href="#y"/><use transform="matrix(0.008680555555555554,0,0,0.008680555555555554,10.668402777777777,0)" xlink:href="#y"/></g><path fill="#188fff" d="M616 20C261 20 84-232 84-735c0-500 178-750 534-750 171 0 301 65 392 195s137 316 137 557-46 426-138 557S786 20 616 20zm0-163c115 0 195-51 254-145 102-163 102-730-2-890-59-92-137-143-250-143-225 0-337 196-337 588 0 393 112 590 335 590" id="X"/><path fill="#188fff" d="M498 0L82-1098h188l240 652c57 154 90 262 100 325h6c67-256 244-708 340-977h189L729 0H498" id="Y"/><path fill="#188fff" d="M631-1118c283 0 470 204 465 491v113H322c5 250 120 375 344 375 130 0 253-25 370-76v160C925-5 804 20 672 20c-329 0-539-224-539-561 0-331 182-577 498-577zM326-662h573c0-203-91-305-272-305-183 0-284 102-301 305" id="Z"/><path fill="#188fff" d="M442-897c93-139 173-221 377-221 79 0 159 15 240 45l-49 166c-82-30-157-45-224-45-221 0-340 134-340 360V0H264v-1098h148l22 201h8" id="aa"/><path fill="#188fff" d="M285-465v-168h659v168H285" id="ab"/><path fill="#188fff" d="M137-547c0-322 136-571 430-571 137 0 245 53 322 160h12c-24-215-7-376-12-598h182V0H924l-27-147h-8C814-36 706 20 567 20c-294 0-430-246-430-567zm463 416c241 0 288-157 289-416 0-151-23-259-69-323s-121-97-222-97c-181 0-272 141-272 422 0 276 91 414 274 414" id="ac"/><path fill="#188fff" d="M532-1413l-268-21v-122h451v1413l352 20V0H188v-123l344-20v-1270" id="ad"/><path fill="#188fff" d="M739-1436c0 71-43 115-106 115-71 0-107-38-107-115 0-76 36-114 107-114s106 38 106 114zM541-954l-269-21v-123h451v955l352 20V0H197v-123l344-20v-811" id="ae"/><g id="r"><use transform="matrix(0.008680555555555556,0,0,0.008680555555555556,0,0)" xlink:href="#X"/><use transform="matrix(0.008680555555555556,0,0,0.008680555555555556,10.668402777777779,0)" xlink:href="#Y"/><use transform="matrix(0.008680555555555556,0,0,0.008680555555555556,21.336805555555557,0)" xlink:href="#Z"/><use transform="matrix(0.008680555555555556,0,0,0.008680555555555556,32.005208333333336,0)" xlink:href="#aa"/><use transform="matrix(0.008680555555555556,0,0,0.008680555555555556,42.673611111111114,0)" xlink:href="#ab"/><use transform="matrix(0.008680555555555556,0,0,0.008680555555555556,53.34201388888889,0)" xlink:href="#ac"/><use transform="matrix(0.008680555555555556,0,0,0.008680555555555556,64.01041666666667,0)" xlink:href="#Z"/><use transform="matrix(0.008680555555555556,0,0,0.008680555555555556,74.67881944444446,0)" xlink:href="#ad"/><use transform="matrix(0.008680555555555556,0,0,0.008680555555555556,85.34722222222223,0)" xlink:href="#ae"/><use transform="matrix(0.008680555555555556,0,0,0.008680555555555556,96.015625,0)" xlink:href="#Y"/><use transform="matrix(0.008680555555555556,0,0,0.008680555555555556,106.68402777777777,0)" xlink:href="#Z"/><use transform="matrix(0.008680555555555556,0,0,0.008680555555555556,117.35243055555554,0)" xlink:href="#aa"/><use transform="matrix(0.008680555555555556,0,0,0.008680555555555556,128.02083333333331,0)" xlink:href="#Z"/><use transform="matrix(0.008680555555555556,0,0,0.008680555555555556,138.6892361111111,0)" xlink:href="#ac"/></g><path fill="#188fff" d="M977 0v-707c0-97-9-165-27-203s-47-57-88-57c-58 0-100 28-126 83s-40 148-40 278V0H535v-707c0-173-42-260-125-260-56 0-96 26-120 79s-36 160-36 319V0H92v-1098h127l27 148h10c45-112 112-168 201-168 109 0 180 61 213 182h6c51-121 124-182 219-182 85 0 147 30 186 92s58 165 58 309V0H977" id="af"/><path fill="#188fff" d="M1026-301c0 225-197 321-448 321-165 0-290-23-375-69v-166c129 57 252 86 370 86 183 0 275-54 275-162 0-38-16-71-49-99s-108-63-226-106c-156-57-253-112-293-160s-61-105-61-171c2-338 524-340 789-217l-60 149c-121-48-228-72-319-72-157 0-236 44-236 133 0 41 17 74 51 98s111 57 232 101c141 51 234 101 280 151s70 111 70 183" id="ag"/><path fill="#188fff" d="M596-1118c288 2 430 92 430 366V0H895l-37-152h-8C752-34 680 17 483 20 272 23 135-98 135-307c0-221 170-337 510-348l203-7c15-197-55-305-244-305-98 0-207 27-328 82l-63-137c131-64 258-96 383-96zm-72 991c194 0 325-116 322-311v-99c-251 15-522-6-522 232 0 119 67 178 200 178" id="ah"/><path fill="#188fff" d="M188-739c-1-248 156-381 410-379 57 0 107 7 150 20h378v113l-196 27c43 57 65 128 65 213 2 253-212 385-489 346-67 37-100 82-100 133 0 56 54 84 161 84h187c216-2 358 93 358 297 0 251-188 377-565 377-145 0-255-26-331-80S102 283 102 186c0-141 80-231 240-270-64-31-96-83-96-154 0-75 44-139 133-192-109-41-191-166-191-309zm406 221c149 0 223-77 223-230 0-159-75-239-225-239s-225 81-225 242c0 151 76 227 227 227zm346 649c0-146-78-149-248-149H504c-153 0-230 66-230 198 0 116 90 174 271 174 263 0 395-74 395-223" id="ai"/><g id="s"><use transform="matrix(0.008680555555555556,0,0,0.008680555555555556,0,0)" xlink:href="#af"/><use transform="matrix(0.008680555555555556,0,0,0.008680555555555556,10.668402777777779,0)" xlink:href="#Z"/><use transform="matrix(0.008680555555555556,0,0,0.008680555555555556,21.336805555555557,0)" xlink:href="#ag"/><use transform="matrix(0.008680555555555556,0,0,0.008680555555555556,32.005208333333336,0)" xlink:href="#ag"/><use transform="matrix(0.008680555555555556,0,0,0.008680555555555556,42.673611111111114,0)" xlink:href="#ah"/><use transform="matrix(0.008680555555555556,0,0,0.008680555555555556,53.34201388888889,0)" xlink:href="#ai"/><use transform="matrix(0.008680555555555556,0,0,0.008680555555555556,64.01041666666667,0)" xlink:href="#Z"/></g><g id="t"><use transform="matrix(0.008680555555555556,0,0,0.008680555555555556,0,0)" xlink:href="#R"/><use transform="matrix(0.008680555555555556,0,0,0.008680555555555556,10.668402777777779,0)" xlink:href="#S"/><use transform="matrix(0.008680555555555556,0,0,0.008680555555555556,21.336805555555557,0)" xlink:href="#L"/><use transform="matrix(0.008680555555555556,0,0,0.008680555555555556,32.005208333333336,0)" xlink:href="#M"/><use transform="matrix(0.008680555555555556,0,0,0.008680555555555556,42.673611111111114,0)" xlink:href="#T"/></g><path fill="#3a414a" d="M594-1483c248 0 420 149 418 391 0 79-21 160-59 244-73 161-414 504-572 674v8h688V0H158v-156c172-193 489-508 607-698 43-69 62-147 62-231 0-146-91-244-235-244-107 0-213 46-318 137l-102-119c128-115 269-172 422-172" id="aj"/><g id="u"><use transform="matrix(0.009765624999999998,0,0,0.009765624999999998,0,0)" xlink:href="#aj"/><use transform="matrix(0.009765624999999998,0,0,0.009765624999999998,12.001953124999998,0)" xlink:href="#w"/></g></defs></g></svg>