<svg xmlns="http://www.w3.org/2000/svg" xmlns:xlink="http://www.w3.org/1999/xlink" xmlns:lucid="lucid" width="1780" height="1360"><g transform="translate(6 -2)" lucid:page-tab-id="0_0"><path d="M14 28c0-3.3 2.7-6 6-6h1728c3.3 0 6 2.7 6 6v1308c0 3.3-2.7 6-6 6H20c-3.3 0-6-2.7-6-6z" stroke="#3a414a" stroke-width="3" fill="#fff" filter="url(#a)"/><path d="M1380 746c0-3.3 2.7-6 6-6h268c3.3 0 6 2.7 6 6v148c0 3.3-2.7 6-6 6h-268c-3.3 0-6-2.7-6-6z" stroke="#3a414a" stroke-width="3" fill="#fff"/><path d="M28 66c0-3.3 2.7-6 6-6h788c3.3 0 6 2.7 6 6v1248c0 3.3-2.7 6-6 6H34c-3.3 0-6-2.7-6-6z" fill-opacity="0"/><path d="M63.2 60h29.17m14.6 0h29.18m14.6 0h29.18m14.6 0h29.17m14.6 0h29.18m14.6 0h29.18m14.6 0h29.18m14.6 0h29.17m14.6 0h29.2m14.6 0h29.17m14.6 0h29.18m14.6 0h29.18m14.6 0h29.17m14.6 0h29.18m14.6 0h29.18m14.6 0h29.18m14.6 0h29.17m14.6 0H822l3.03.82 2.15 2.15L828 66v14.86m0 14.85v29.73m0 14.86V170m0 14.86v29.7m0 14.87v29.7m0 14.87v29.7m0 14.87v29.72m0 14.84v29.72m0 14.85v29.73m0 14.86V482m0 14.86v29.7m0 14.87v29.7m0 14.87v29.7m0 14.87v29.72m0 14.84v29.72m0 14.85v29.73m0 14.86V794m0 14.86v29.7m0 14.87v29.7m0 14.87v29.7m0 14.87v29.72m0 14.84v29.72m0 14.85v29.73m0 14.86v29.7m0 14.86v29.7m0 14.87v29.7m0 14.87v29.7m0 14.87v29.72m0 14.84V1314l-.82 3.03-2.15 2.15-3.03.82h-14.6m-14.6 0h-29.17m-14.6 0h-29.18m-14.6 0h-29.18m-14.6 0H632.3m-14.6 0h-29.18m-14.6 0h-29.18m-14.6 0h-29.18m-14.6 0H457.2m-14.6 0h-29.2m-14.6 0h-29.17m-14.6 0h-29.18m-14.6 0h-29.18m-14.6 0H238.3m-14.6 0h-29.18m-14.6 0h-29.18m-14.6 0h-29.18m-14.6 0H63.2m-14.6 0H34l-3.03-.82-2.15-2.15L28 1314v-14.86m0-14.85v-29.73m0-14.86V1210m0-14.86v-29.7m0-14.87v-29.7m0-14.87v-29.7m0-14.87v-29.72m0-14.84v-29.72m0-14.85v-29.73m0-14.86V898m0-14.86v-29.7m0-14.87v-29.7M28 794v-29.7m0-14.87V719.7m0-14.84v-29.72m0-14.85v-29.73m0-14.86V586m0-14.86v-29.7m0-14.87v-29.7M28 482v-29.7m0-14.87V407.7m0-14.84v-29.72m0-14.85v-29.73m0-14.86V274m0-14.86v-29.7m0-14.87v-29.7M28 170v-29.7m0-14.87V95.7m0-14.84V66l.82-3.03 2.15-2.15L34 60h14.6" stroke="#ced4db" stroke-width="3" fill="none"/><path d="M48 166c0-3.3 2.7-6 6-6h288c3.3 0 6 2.7 6 6v188c0 3.3-2.7 6-6 6H54c-3.3 0-6-2.7-6-6z" stroke="#3a414a" stroke-width="3" fill="#fff"/><use xlink:href="#b" transform="matrix(1,0,0,1,60,172) translate(53.986328125 100.37803819444443)"/><use xlink:href="#c" transform="matrix(1,0,0,1,60,172) translate(203.34396701388889 100.37803819444443)"/><path d="M508 166c0-3.3 2.7-6 6-6h268c3.3 0 6 2.7 6 6v188c0 3.3-2.7 6-6 6H514c-3.3 0-6-2.7-6-6z" stroke="#3a414a" stroke-width="3" fill="#fff"/><use xlink:href="#b" transform="matrix(1,0,0,1,520,172) translate(43.986328125 100.37803819444443)"/><use xlink:href="#d" transform="matrix(1,0,0,1,520,172) translate(193.34396701388889 100.37803819444443)"/><path d="M68 1066c0-3.3 2.7-6 6-6h288c3.3 0 6 2.7 6 6v188c0 3.3-2.7 6-6 6H74c-3.3 0-6-2.7-6-6z" stroke="#3a414a" stroke-width="3" fill="#fff"/><use xlink:href="#e" transform="matrix(1,0,0,1,80,1072) translate(53.986328125 100.37803819444443)"/><use xlink:href="#f" transform="matrix(1,0,0,1,80,1072) translate(203.34396701388889 100.37803819444443)"/><path d="M438.27 701.76c-.07-.27.1-.54.35-.62l50.14-13.66c.27-.07.54.1.62.35.07.27-.1.54-.36.62L438.9 702.1c-.28.08-.56-.08-.63-.34z" stroke="#3a414a" fill="none"/><path d="M480 666c0-3.3 2.7-6 6-6h28c3.3 0 6 2.7 6 6v28c0 3.3-2.7 6-6 6h-28c-3.3 0-6-2.7-6-6zM400 626c0-3.3 2.7-6 6-6h28c3.3 0 6 2.7 6 6v28c0 3.3-2.7 6-6 6h-28c-3.3 0-6-2.7-6-6zM400.06 786c0-3.3 2.7-6 6-6h28c3.32 0 6 2.7 6 6v28c0 3.3-2.68 6-6 6h-28c-3.3 0-6-2.7-6-6zM320.13 666c0-3.3 2.68-6 6-6h28c3.3 0 6 2.7 6 6v28c0 3.3-2.7 6-6 6h-28c-3.32 0-6-2.7-6-6zM480 746c0-3.3 2.7-6 6-6h28c3.3 0 6 2.7 6 6v28c0 3.3-2.7 6-6 6h-28c-3.3 0-6-2.7-6-6zM320.13 746c0-3.3 2.68-6 6-6h28c3.3 0 6 2.7 6 6v28c0 3.3-2.7 6-6 6h-28c-3.32 0-6-2.7-6-6z" stroke="#3a414a" stroke-width="2" fill="#dfe3e8"/><path d="M539.25 1067.17c0-3.32 2.7-6 6-6h248c3.3 0 6 2.68 6 6V1254c0 3.3-2.7 6-6 6h-248c-3.3 0-6-2.7-6-6z" stroke="#3a414a" stroke-width="2" fill="#fff"/><path d="M594.32 1161.25c-.1-.25.02-.54.28-.65l130.53-53.42c.25-.1.55.02.65.27.1.26-.02.55-.27.66l-130.53 53.43c-.25.1-.54-.02-.65-.28z" stroke="#3a414a" fill="none"/><path d="M594 1161.3c0-.3.22-.5.5-.5h188.75c.28 0 .5.2.5.5 0 .26-.22.5-.5.5H594.5c-.28 0-.5-.24-.5-.5z" stroke="#3a414a" fill="none"/><path d="M593.5 1161.14c0 10.96-9.07 19.85-20.25 19.85s-20.25-8.9-20.25-19.86c0-10.97 9.07-19.86 20.25-19.86s20.25 8.9 20.25 19.86zM754.75 1100.58c0 10.97-9.07 19.86-20.25 19.86s-20.25-8.9-20.25-19.86c0-10.96 9.07-19.85 20.25-19.85s20.25 8.9 20.25 19.85zM755.5 1160.15c0 10.96-9.07 19.85-20.25 19.85s-20.25-8.9-20.25-19.85c0-10.97 9.07-19.86 20.25-19.86s20.25 8.88 20.25 19.85z" stroke="#3a414a" stroke-width="2" fill="#cfe4ff"/><path d="M594.9 1162.57c.1-.25.4-.36.65-.25l128.27 58.65c.25.12.36.4.25.67-.12.25-.42.36-.67.24l-128.26-58.65c-.25-.1-.36-.4-.25-.66zM756 1102.9c0-.28.22-.5.5-.5h28c.28 0 .5.22.5.5 0 .27-.22.5-.5.5h-28c-.28 0-.5-.23-.5-.5zM755.25 1222.8c0-.28.22-.5.5-.5h28c.28 0 .5.22.5.5 0 .27-.22.5-.5.5h-28c-.28 0-.5-.23-.5-.5z" stroke="#3a414a" fill="none"/><path d="M755.5 1219.7c0 10.97-9.07 19.86-20.25 19.86s-20.25-8.9-20.25-19.85c0-10.96 9.07-19.85 20.25-19.85s20.25 8.9 20.25 19.86z" stroke="#3a414a" stroke-width="2" fill="#cfe4ff"/><path d="M900 66c0-3.3 2.7-6 6-6h828c3.3 0 6 2.7 6 6v1248c0 3.3-2.7 6-6 6H906c-3.3 0-6-2.7-6-6z" fill-opacity="0"/><path d="M936.67 60h30.66m15.34 0h30.66m15.34 0h30.66m15.34 0h30.66m15.34 0h30.66m15.34 0h30.66m15.34 0h30.66m15.34 0h30.66m15.34 0h30.66m15.34 0h30.66m15.34 0h30.66m15.34 0h30.66m15.34 0h30.66m15.34 0h30.66m15.34 0h30.66m15.34 0h30.66m15.34 0h30.66m15.34 0H1734l3.03.82 2.15 2.15.82 3.03v14.86m0 14.85v29.73m0 14.86V170m0 14.86v29.7m0 14.87v29.7m0 14.87v29.7m0 14.87v29.72m0 14.84v29.72m0 14.85v29.73m0 14.86V482m0 14.86v29.7m0 14.87v29.7m0 14.87v29.7m0 14.87v29.72m0 14.84v29.72m0 14.85v29.73m0 14.86V794m0 14.86v29.7m0 14.87v29.7m0 14.87v29.7m0 14.87v29.72m0 14.84v29.72m0 14.85v29.73m0 14.86v29.7m0 14.86v29.7m0 14.87v29.7m0 14.87v29.7m0 14.87v29.72m0 14.84V1314l-.82 3.03-2.15 2.15-3.03.82h-15.33m-15.34 0h-30.66m-15.34 0h-30.66m-15.34 0h-30.66m-15.34 0h-30.66m-15.34 0h-30.66m-15.34 0h-30.66m-15.34 0h-30.66m-15.34 0h-30.66m-15.34 0h-30.66m-15.34 0h-30.66m-15.34 0h-30.66m-15.34 0h-30.66m-15.34 0h-30.66m-15.34 0h-30.66m-15.34 0h-30.66m-15.34 0h-30.66m-15.34 0h-30.66m-15.34 0H906l-3.03-.82-2.15-2.15-.82-3.03v-14.86m0-14.85v-29.73m0-14.86V1210m0-14.86v-29.7m0-14.87v-29.7m0-14.87v-29.7m0-14.87v-29.72m0-14.84v-29.72m0-14.85v-29.73m0-14.86V898m0-14.86v-29.7m0-14.87v-29.7m0-14.87v-29.7m0-14.87V719.7m0-14.84v-29.72m0-14.85v-29.73m0-14.86V586m0-14.86v-29.7m0-14.87v-29.7m0-14.87v-29.7m0-14.87V407.7m0-14.84v-29.72m0-14.85v-29.73m0-14.86V274m0-14.86v-29.7m0-14.87v-29.7m0-14.87v-29.7m0-14.87V95.7m0-14.84V66l.82-3.03 2.15-2.15L906 60h15.33" stroke="#ced4db" stroke-width="3" fill="none"/><path d="M80 86c0-3.3 2.7-6 6-6h748c3.3 0 6 2.7 6 6v48c0 3.3-2.7 6-6 6H86c-3.3 0-6-2.7-6-6z" fill-opacity="0"/><use xlink:href="#g" transform="matrix(1,0,0,1,85,85) translate(188.30295138888889 35.128038194444436)"/><use xlink:href="#h" transform="matrix(1,0,0,1,85,85) translate(412.33940972222223 35.128038194444436)"/><path d="M48 526c0-3.3 2.7-6 6-6h748c3.3 0 6 2.7 6 6v48c0 3.3-2.7 6-6 6H54c-3.3 0-6-2.7-6-6z" fill-opacity="0"/><use xlink:href="#i" transform="matrix(1,0,0,1,53,525) translate(244.31206597222223 35.128038194444436)"/><use xlink:href="#j" transform="matrix(1,0,0,1,53,525) translate(393.6697048611111 35.128038194444436)"/><path d="M539.25 986c0-3.3 2.7-6 6-6h248c3.3 0 6 2.7 6 6v48c0 3.3-2.7 6-6 6h-248c-3.3 0-6-2.7-6-6z" fill-opacity="0"/><use xlink:href="#k" transform="matrix(1,0,0,1,544.25,985) translate(31.651475694444443 35.128038194444436)"/><path d="M298.5 680H258c-3.3 0-6-2.7-6-6V382.12" stroke="#3a414a" stroke-width="3" fill="none"/><path d="M314.27 680L300 684.64v-9.28zM252 366.35l4.64 14.27h-9.28z" stroke="#3a414a" stroke-width="3" fill="#3a414a"/><path d="M541.62 680H572c3.3 0 6-2.7 6-6V382.12" stroke="#3a414a" stroke-width="3" fill="none"/><path d="M525.85 680l14.27-4.64v9.28zM578 366.35l4.64 14.27h-9.28z" stroke="#3a414a" stroke-width="3" fill="#3a414a"/><path d="M298.5 760H256c-3.3 0-6 2.7-6 6v271.88" stroke="#3a414a" stroke-width="3" fill="none"/><path d="M314.27 760L300 764.64v-9.28zM250 1053.65l-4.64-14.27h9.28z" stroke="#3a414a" stroke-width="3" fill="#3a414a"/><path d="M500 801.62v297.58c0 3.3 2.7 6 6 6h11.63" stroke="#3a414a" stroke-width="3" fill="none"/><path d="M500 785.85l4.64 14.27h-9.28zM533.4 1105.2l-14.27 4.64v-9.28z" stroke="#3a414a" stroke-width="3" fill="#3a414a"/><path d="M1000 166c0-3.3 2.7-6 6-6h268c3.3 0 6 2.7 6 6v188c0 3.3-2.7 6-6 6h-268c-3.3 0-6-2.7-6-6z" stroke="#3a414a" stroke-width="3" fill="#cfe4ff"/><use xlink:href="#b" transform="matrix(1,0,0,1,1012,172) translate(43.986328125 100.37803819444443)"/><use xlink:href="#d" transform="matrix(1,0,0,1,1012,172) translate(193.34396701388889 100.37803819444443)"/><path d="M1020 186c0-3.3 2.7-6 6-6h268c3.3 0 6 2.7 6 6v188c0 3.3-2.7 6-6 6h-268c-3.3 0-6-2.7-6-6z" stroke="#3a414a" stroke-width="3" fill="#fff"/><use xlink:href="#l" transform="matrix(1,0,0,1,1032,192) translate(81.32573784722223 78.37803819444443)"/><use xlink:href="#m" transform="matrix(1,0,0,1,1032,192) translate(43.986328125 114.5933159722222)"/><path d="M940 546c0-3.3 2.7-6 6-6h268c3.3 0 6 2.7 6 6v188c0 3.3-2.7 6-6 6H946c-3.3 0-6-2.7-6-6z" stroke="#3a414a" stroke-width="3" fill="#cfe4ff"/><use xlink:href="#b" transform="matrix(1,0,0,1,952,552) translate(43.986328125 100.37803819444443)"/><use xlink:href="#d" transform="matrix(1,0,0,1,952,552) translate(193.34396701388889 100.37803819444443)"/><path d="M960 566c0-3.3 2.7-6 6-6h268c3.3 0 6 2.7 6 6v188c0 3.3-2.7 6-6 6H966c-3.3 0-6-2.7-6-6z" stroke="#3a414a" stroke-width="3" fill="#fff"/><use xlink:href="#n" transform="matrix(1,0,0,1,972,572) translate(53.32118055555556 61.878038194444436)"/><use xlink:href="#o" transform="matrix(1,0,0,1,972,572) translate(71.99088541666667 98.0933159722222)"/><use xlink:href="#m" transform="matrix(1,0,0,1,972,572) translate(43.986328125 134.30859374999997)"/><path d="M950 866c0-3.3 2.7-6 6-6h268c3.3 0 6 2.7 6 6v108c0 3.3-2.7 6-6 6H956c-3.3 0-6-2.7-6-6z" stroke="#3a414a" stroke-width="3" fill="#fff"/><use xlink:href="#p" transform="matrix(1,0,0,1,962,872) translate(71.99088541666667 40.878038194444436)"/><use xlink:href="#q" transform="matrix(1,0,0,1,962,872) translate(34.65147569444444 77.0933159722222)"/><path d="M1380 406c0-3.3 2.7-6 6-6h268c3.3 0 6 2.7 6 6v148c0 3.3-2.7 6-6 6h-268c-3.3 0-6-2.7-6-6z" stroke="#3a414a" stroke-width="3" fill="#fff"/><path d="M1380 566c0-3.3 2.7-6 6-6h268c3.3 0 6 2.7 6 6v106.65c0 3.3-2.7 6-6 6h-268c-3.3 0-6-2.7-6-6z" stroke="#000" stroke-opacity="0" stroke-width="3" fill="#fff" fill-opacity="0"/><use xlink:href="#r" transform="matrix(1,0,0,1,1385,565) translate(97.66059027777779 45.909288194444436)"/><use xlink:href="#s" transform="matrix(1,0,0,1,1385,565) translate(4.3120659722222285 82.1245659722222)"/><path d="M1380 886c0-3.3 2.7-6 6-6h268c3.3 0 6 2.7 6 6v106.65c0 3.3-2.7 6-6 6h-268c-3.3 0-6-2.7-6-6z" stroke="#000" stroke-opacity="0" stroke-width="3" fill="#fff" fill-opacity="0"/><use xlink:href="#t" transform="matrix(1,0,0,1,1385,885) translate(-42.362196180555486 65.27039930555554)"/><path d="M940 86c0-3.3 2.7-6 6-6h748c3.3 0 6 2.7 6 6v48c0 3.3-2.7 6-6 6H946c-3.3 0-6-2.7-6-6z" fill-opacity="0"/><use xlink:href="#u" transform="matrix(1,0,0,1,945,85) translate(253.64691840277777 35.128038194444436)"/><use xlink:href="#h" transform="matrix(1,0,0,1,945,85) translate(346.9954427083333 35.128038194444436)"/><path d="M997 260H810.12" stroke="#3a414a" stroke-width="3" fill="none"/><path d="M998.5 261.5h-1.54v-3h1.54z" stroke="#3a414a" stroke-width=".05" fill="#3a414a"/><path d="M794.35 260l14.27-4.64v9.28z" stroke="#3a414a" stroke-width="3" fill="#3a414a"/><path d="M844.94 448.5V324.24c0-3.3-2.7-6-6-6h-28.82" stroke="#3a414a" stroke-width="3" fill="none"/><path d="M846.44 450h-3v-1.54h3z" stroke="#3a414a" stroke-width=".05" fill="#3a414a"/><path d="M794.35 318.24l14.27-4.64v9.28z" stroke="#3a414a" stroke-width="3" fill="#3a414a"/><path d="M801 186c0-3.3 2.7-6 6-6h173.5c3.3 0 6 2.7 6 6v61.3c0 3.3-2.7 6-6 6H807c-3.3 0-6-2.7-6-6z" stroke="#000" stroke-opacity="0" stroke-width="3" fill="#fff"/><use xlink:href="#v" transform="matrix(1,0,0,1,806,185) translate(3.986328125000014 40.878038194444436)"/><use xlink:href="#w" transform="matrix(1,0,0,1,806,185) translate(97.33485243055556 40.878038194444436)"/><path d="M937 640h-86.06c-3.32 0-6-2.7-6-6V530.62" stroke="#3a414a" stroke-width="3" fill="none"/><path d="M938.5 641.5h-1.54v-3h1.54z" stroke="#3a414a" stroke-width=".05" fill="#3a414a"/><path d="M844.94 514.85l4.63 14.27h-9.27z" stroke="#3a414a" stroke-width="3" fill="#3a414a"/><path d="M724.94 456c0-3.3 2.68-6 6-6h228c3.3 0 6 2.7 6 6v48c0 3.3-2.7 6-6 6h-228c-3.32 0-6-2.7-6-6z" stroke="#000" stroke-opacity="0" stroke-width="3" fill="#fff"/><use xlink:href="#x" transform="matrix(1,0,0,1,729.9361780406022,455) translate(68.32573784722223 35.128038194444436)"/><path d="M801.75 1160.58h66.63c3.3 0 6-2.68 6-6V926c0-3.3 2.68-6 6-6h47.5" stroke="#3a414a" stroke-width="3" fill="none"/><path d="M801.8 1162.08h-1.55v-3h1.54z" stroke="#3a414a" stroke-width=".05" fill="#3a414a"/><path d="M943.65 920l-14.27 4.64v-9.28z" stroke="#3a414a" stroke-width="3" fill="#3a414a"/><path d="M1233 920h42.5c3.3 0 6-2.7 6-6V666c0-3.3-2.7-6-6-6h-13.38" stroke="#3a414a" stroke-width="3" fill="none"/><path d="M1233.04 921.5h-1.54v-3h1.54z" stroke="#3a414a" stroke-width=".05" fill="#3a414a"/><path d="M1246.35 660l14.27-4.64v9.28z" stroke="#3a414a" stroke-width="3" fill="#3a414a"/><path d="M1090 983v32.5c0 3.3 2.7 6 6 6h198c3.3 0 6-2.7 6-6V826c0-3.3 2.7-6 6-6h51.88" stroke="#3a414a" stroke-width="3" fill="none"/><path d="M1091.5 983.04h-3v-1.54h3z" stroke="#3a414a" stroke-width=".05" fill="#3a414a"/><path d="M1373.65 820l-14.27 4.64v-9.28z" stroke="#3a414a" stroke-width="3" fill="#3a414a"/><path d="M1400 766c0-3.3 2.7-6 6-6h8c3.3 0 6 2.7 6 6v8c0 3.3-2.7 6-6 6h-8c-3.3 0-6-2.7-6-6zM1400 816c0-3.3 2.7-6 6-6h8c3.3 0 6 2.7 6 6v8c0 3.3-2.7 6-6 6h-8c-3.3 0-6-2.7-6-6zM1400 866c0-3.3 2.7-6 6-6h8c3.3 0 6 2.7 6 6v8c0 3.3-2.7 6-6 6h-8c-3.3 0-6-2.7-6-6zM1620 816c0-3.3 2.7-6 6-6h8c3.3 0 6 2.7 6 6v8c0 3.3-2.7 6-6 6h-8c-3.3 0-6-2.7-6-6z" stroke="#3a414a" stroke-width="3" fill="#d3e3fc"/><path d="M1423 820h174.88" stroke="#3a414a" stroke-width="3" fill="none"/><path d="M1423.04 821.5h-1.54v-3h1.54z" stroke="#3a414a" stroke-width=".05" fill="#3a414a"/><path d="M1613.65 820l-14.27 4.64v-9.28z" stroke="#3a414a" stroke-width="3" fill="#3a414a"/><path d="M1663 820h32.5c3.3 0 6-2.7 6-6V486.96c0-3.3-2.7-6-6-6h-13.38" stroke="#3a414a" stroke-width="3" fill="none"/><path d="M1663.04 821.5h-1.54v-3h1.54z" stroke="#3a414a" stroke-width=".05" fill="#3a414a"/><path d="M1666.35 480.96l14.27-4.64v9.28z" stroke="#3a414a" stroke-width="3" fill="#3a414a"/><path d="M1560 520c0 5.52-17.9 10-40 10s-40-4.48-40-10v-80c0-5.52 17.9-10 40-10s40 4.48 40 10z" stroke="#3a414a" stroke-width="3" fill="#d3e3fc"/><path d="M1560 440c0 5.52-17.9 10-40 10s-40-4.48-40-10" stroke="#3a414a" stroke-width="3" fill="none"/><path d="M400.06 706c0-3.3 2.7-6 6-6h28c3.32 0 6 2.7 6 6v28c0 3.3-2.68 6-6 6h-28c-3.3 0-6-2.7-6-6z" stroke="#3a414a" stroke-width="2" fill="#cfe4ff"/><g><path d="M420.76 699.5c-.27 0-.5-.22-.5-.5v-38c0-.28.23-.5.5-.5.28 0 .5.22.5.5v38c0 .28-.22.5-.5.5z" stroke="#3a414a" fill="none"/></g><g><path d="M360.86 684.56c.1-.26.4-.38.66-.27l40.9 17.48c.26.1.38.4.27.66-.12.25-.4.37-.67.26l-40.9-17.5c-.26-.1-.38-.4-.27-.64z" stroke="#3a414a" fill="none"/></g><g><path d="M438.16 738.3c.04-.26.3-.45.57-.4l42.7 6.08c.3.04.48.3.44.56-.04.28-.3.47-.57.43l-42.7-6.1c-.3-.03-.48-.3-.44-.56z" stroke="#3a414a" fill="none"/></g><g><path d="M420.76 738.72c.28 0 .5.23.5.5V779c0 .28-.22.5-.5.5-.27 0-.5-.22-.5-.5v-39.78c0-.27.23-.5.5-.5z" stroke="#3a414a" fill="none"/></g><g><path d="M402.9 738.13c.03.27-.15.53-.43.57l-40.6 6.6c-.27.04-.53-.14-.57-.4-.04-.3.14-.54.4-.6l40.6-6.58c.3-.05.54.14.6.4z" stroke="#3a414a" fill="none"/></g><defs><filter id="a" filterUnits="objectBoundingBox" x="0" y="0" width="1.01" height="1.02"><feOffset result="offOut" in="SourceAlpha" dx="4.24" dy="4.24"/><feGaussianBlur result="blurOut" in="offOut" stdDeviation="5"/><feColorMatrix result="colorOut" in="blurOut" values="0 0 0 0 0 0 0 0 0 0 0 0 0 0 0 0 0 0 0.5019607843137255 0"/><feBlend in="SourceGraphic" in2="colorOut"/></filter><path fill="#3a414a" d="M1087-391c0 281-226 411-532 411-177 0-315-23-414-69v-178c141 57 279 86 414 86 233 0 350-80 350-240 0-69-24-123-71-160s-142-82-285-133c-139-49-239-106-299-174s-90-156-90-264c2-252 211-371 481-371 153 0 291 26 416 78l-64 164c-129-52-249-78-360-78-195 0-293 70-293 209 0 68 22 123 66 164s134 85 270 133c164 58 273 119 328 181s83 143 83 241" id="y"/><path fill="#3a414a" d="M631-1118c283 0 470 204 465 491v113H322c5 250 120 375 344 375 130 0 253-25 370-76v160C925-5 804 20 672 20c-329 0-539-224-539-561 0-331 182-577 498-577zM326-662h573c0-203-91-305-272-305-183 0-284 102-301 305" id="z"/><path fill="#3a414a" d="M442-897c93-139 173-221 377-221 79 0 159 15 240 45l-49 166c-82-30-157-45-224-45-221 0-340 134-340 360V0H264v-1098h148l22 201h8" id="A"/><path fill="#3a414a" d="M498 0L82-1098h188l240 652c57 154 90 262 100 325h6c67-256 244-708 340-977h189L729 0H498" id="B"/><path fill="#3a414a" d="M739-1436c0 71-43 115-106 115-71 0-107-38-107-115 0-76 36-114 107-114s106 38 106 114zM541-954l-269-21v-123h451v955l352 20V0H197v-123l344-20v-811" id="C"/><path fill="#3a414a" d="M172-543c0-365 197-575 553-575 119 0 231 20 336 59l-62 158c-100-38-189-57-268-57-247 0-371 138-371 413 0 271 120 406 361 406 105 0 212-21 321-62v160C953 0 843 20 713 20c-347 1-541-210-541-563" id="D"/><g id="b"><use transform="matrix(0.015190972222222219,0,0,0.015190972222222219,0,0)" xlink:href="#y"/><use transform="matrix(0.015190972222222219,0,0,0.015190972222222219,18.669704861111107,0)" xlink:href="#z"/><use transform="matrix(0.015190972222222219,0,0,0.015190972222222219,37.339409722222214,0)" xlink:href="#A"/><use transform="matrix(0.015190972222222219,0,0,0.015190972222222219,56.00911458333332,0)" xlink:href="#B"/><use transform="matrix(0.015190972222222219,0,0,0.015190972222222219,74.67881944444443,0)" xlink:href="#C"/><use transform="matrix(0.015190972222222219,0,0,0.015190972222222219,93.34852430555554,0)" xlink:href="#D"/><use transform="matrix(0.015190972222222219,0,0,0.015190972222222219,112.01822916666666,0)" xlink:href="#z"/></g><path fill="#3a414a" d="M1004 0L860-453H369L223 0H33l483-1468h195L1196 0h-192zM807-618c-63-210-144-435-195-650-51 232-127 431-190 650h385" id="E"/><use transform="matrix(0.015190972222222219,0,0,0.015190972222222219,0,0)" xlink:href="#E" id="c"/><path fill="#3a414a" d="M1137-424C1137-153 941 0 662 0H135v-1462c284 7 685-30 837 88 80 62 124 152 124 282 0 179-125 297-291 316v10c221 36 332 150 332 342zm-232-655c0-182-120-224-319-224H322v461h284c195-2 299-53 299-237zM322-686v528h307c207 0 311-91 311-274 0-169-108-254-324-254H322" id="F"/><use transform="matrix(0.015190972222222219,0,0,0.015190972222222219,0,0)" xlink:href="#F" id="d"/><g id="e"><use transform="matrix(0.015190972222222219,0,0,0.015190972222222219,0,0)" xlink:href="#y"/><use transform="matrix(0.015190972222222219,0,0,0.015190972222222219,18.669704861111107,0)" xlink:href="#z"/><use transform="matrix(0.015190972222222219,0,0,0.015190972222222219,37.339409722222214,0)" xlink:href="#A"/><use transform="matrix(0.015190972222222219,0,0,0.015190972222222219,56.00911458333332,0)" xlink:href="#B"/><use transform="matrix(0.015190972222222219,0,0,0.015190972222222219,74.67881944444443,0)" xlink:href="#C"/><use transform="matrix(0.015190972222222219,0,0,0.015190972222222219,93.34852430555554,0)" xlink:href="#D"/><use transform="matrix(0.015190972222222219,0,0,0.015190972222222219,112.01822916666666,0)" xlink:href="#z"/></g><path fill="#3a414a" d="M326-731c0 353 139 584 471 588 87 0 196-19 327-58v162c-97 39-217 59-358 59-433-1-637-301-637-753 0-438 243-750 668-750 147 0 274 29 383 86l-78 156c-103-52-204-78-305-78-307 1-471 259-471 588" id="G"/><use transform="matrix(0.015190972222222219,0,0,0.015190972222222219,0,0)" xlink:href="#G" id="f"/><path fill="#3a414a" d="M1092-551c0 322-136 571-430 571-138 0-245-53-322-159h-12c24 220 7 402 12 631H158v-1590h147l27 148h8c73-112 181-168 322-168 294 0 430 246 430 567zM629-967c-241 0-288 156-289 416 0 151 24 259 70 323s120 97 221 97c181 0 272-141 272-422 0-276-91-414-274-414" id="H"/><path fill="#3a414a" d="M532-1413l-268-21v-122h451v1413l352 20V0H188v-123l344-20v-1270" id="I"/><path fill="#3a414a" d="M596-1118c288 2 430 92 430 366V0H895l-37-152h-8C752-34 680 17 483 20 272 23 135-98 135-307c0-221 170-337 510-348l203-7c15-197-55-305-244-305-98 0-207 27-328 82l-63-137c131-64 258-96 383-96zm-72 991c194 0 325-116 322-311v-99c-251 15-522-6-522 232 0 119 67 178 200 178" id="J"/><path fill="#3a414a" d="M1020-150v138C933 9 849 20 768 20 527 20 406-95 406-324v-637H139v-94l267-49 77-287h105v293h438v137H588v637c0 130 64 195 192 195 62 0 142-7 240-21" id="K"/><path fill="#3a414a" d="M1112-551c0 331-186 571-502 571-301 0-495-251-495-571 0-330 184-567 501-567 302 0 496 249 496 567zM614-131c207 0 310-140 310-420 0-277-104-416-312-416-206 0-309 139-309 416 0 280 104 420 311 420" id="L"/><path fill="#3a414a" d="M887 0v-707c0-173-79-260-238-260-205 0-307 133-307 398V0H160v-1098h147l27 148h10c69-112 181-168 336-168 259 0 389 134 389 401V0H887" id="M"/><g id="g"><use transform="matrix(0.015190972222222219,0,0,0.015190972222222219,0,0)" xlink:href="#E"/><use transform="matrix(0.015190972222222219,0,0,0.015190972222222219,18.669704861111107,0)" xlink:href="#H"/><use transform="matrix(0.015190972222222219,0,0,0.015190972222222219,37.339409722222214,0)" xlink:href="#H"/><use transform="matrix(0.015190972222222219,0,0,0.015190972222222219,56.00911458333332,0)" xlink:href="#I"/><use transform="matrix(0.015190972222222219,0,0,0.015190972222222219,74.67881944444443,0)" xlink:href="#C"/><use transform="matrix(0.015190972222222219,0,0,0.015190972222222219,93.34852430555554,0)" xlink:href="#D"/><use transform="matrix(0.015190972222222219,0,0,0.015190972222222219,112.01822916666666,0)" xlink:href="#J"/><use transform="matrix(0.015190972222222219,0,0,0.015190972222222219,130.68793402777777,0)" xlink:href="#K"/><use transform="matrix(0.015190972222222219,0,0,0.015190972222222219,149.35763888888889,0)" xlink:href="#C"/><use transform="matrix(0.015190972222222219,0,0,0.015190972222222219,168.02734375,0)" xlink:href="#L"/><use transform="matrix(0.015190972222222219,0,0,0.015190972222222219,186.69704861111111,0)" xlink:href="#M"/></g><path fill="#3a414a" d="M1026-301c0 225-197 321-448 321-165 0-290-23-375-69v-166c129 57 252 86 370 86 183 0 275-54 275-162 0-38-16-71-49-99s-108-63-226-106c-156-57-253-112-293-160s-61-105-61-171c2-338 524-340 789-217l-60 149c-121-48-228-72-319-72-157 0-236 44-236 133 0 41 17 74 51 98s111 57 232 101c141 51 234 101 280 151s70 111 70 183" id="N"/><g id="h"><use transform="matrix(0.015190972222222219,0,0,0.015190972222222219,0,0)" xlink:href="#N"/><use transform="matrix(0.015190972222222219,0,0,0.015190972222222219,18.669704861111107,0)" xlink:href="#z"/><use transform="matrix(0.015190972222222219,0,0,0.015190972222222219,37.339409722222214,0)" xlink:href="#A"/><use transform="matrix(0.015190972222222219,0,0,0.015190972222222219,56.00911458333332,0)" xlink:href="#B"/><use transform="matrix(0.015190972222222219,0,0,0.015190972222222219,74.67881944444443,0)" xlink:href="#C"/><use transform="matrix(0.015190972222222219,0,0,0.015190972222222219,93.34852430555554,0)" xlink:href="#D"/><use transform="matrix(0.015190972222222219,0,0,0.015190972222222219,112.01822916666666,0)" xlink:href="#z"/><use transform="matrix(0.015190972222222219,0,0,0.015190972222222219,130.68793402777777,0)" xlink:href="#N"/></g><path fill="#3a414a" d="M532 0L254-1280h-8c34 456 12 817 18 1280H113v-1462h247L608-270h6l250-1192h252V0H963c5-467-12-807 14-1278h-8L686 0H532" id="O"/><path fill="#3a414a" d="M188-739c-1-248 156-381 410-379 57 0 107 7 150 20h378v113l-196 27c43 57 65 128 65 213 2 253-212 385-489 346-67 37-100 82-100 133 0 56 54 84 161 84h187c216-2 358 93 358 297 0 251-188 377-565 377-145 0-255-26-331-80S102 283 102 186c0-141 80-231 240-270-64-31-96-83-96-154 0-75 44-139 133-192-109-41-191-166-191-309zm406 221c149 0 223-77 223-230 0-159-75-239-225-239s-225 81-225 242c0 151 76 227 227 227zm346 649c0-146-78-149-248-149H504c-153 0-230 66-230 198 0 116 90 174 271 174 263 0 395-74 395-223" id="P"/><g id="i"><use transform="matrix(0.015190972222222219,0,0,0.015190972222222219,0,0)" xlink:href="#O"/><use transform="matrix(0.015190972222222219,0,0,0.015190972222222219,18.669704861111107,0)" xlink:href="#z"/><use transform="matrix(0.015190972222222219,0,0,0.015190972222222219,37.339409722222214,0)" xlink:href="#N"/><use transform="matrix(0.015190972222222219,0,0,0.015190972222222219,56.00911458333332,0)" xlink:href="#N"/><use transform="matrix(0.015190972222222219,0,0,0.015190972222222219,74.67881944444443,0)" xlink:href="#J"/><use transform="matrix(0.015190972222222219,0,0,0.015190972222222219,93.34852430555554,0)" xlink:href="#P"/><use transform="matrix(0.015190972222222219,0,0,0.015190972222222219,112.01822916666666,0)" xlink:href="#z"/></g><path fill="#3a414a" d="M1092-551c0 322-136 571-430 571-138 0-245-53-322-159h-12L291 0H158v-1556h182c-2 221 6 379-8 602h8c71-109 179-164 322-164 294 0 430 246 430 567zM629-967c-241 0-289 146-289 416 0 151 24 259 70 323s120 97 221 97c181 0 272-141 272-422 0-276-91-414-274-414" id="Q"/><path fill="#3a414a" d="M383-553l135-152 395-393h222L641-623 1163 0H950L524-504l-129 82V0H215v-1556h180c-3 337 9 689-16 1003h4" id="R"/><g id="j"><use transform="matrix(0.015190972222222219,0,0,0.015190972222222219,0,0)" xlink:href="#Q"/><use transform="matrix(0.015190972222222219,0,0,0.015190972222222219,18.669704861111107,0)" xlink:href="#A"/><use transform="matrix(0.015190972222222219,0,0,0.015190972222222219,37.339409722222214,0)" xlink:href="#L"/><use transform="matrix(0.015190972222222219,0,0,0.015190972222222219,56.00911458333332,0)" xlink:href="#R"/><use transform="matrix(0.015190972222222219,0,0,0.015190972222222219,74.67881944444443,0)" xlink:href="#z"/><use transform="matrix(0.015190972222222219,0,0,0.015190972222222219,93.34852430555554,0)" xlink:href="#A"/></g><path fill="#3a414a" d="M373-604V0H186v-1462h357c347 0 520 138 520 415 0 191-96 322-289 392L1171 0H952L602-604H373zm497-434c0-207-118-263-338-265H373v541h164c215-1 333-70 333-276" id="S"/><g id="k"><use transform="matrix(0.015190972222222219,0,0,0.015190972222222219,0,0)" xlink:href="#S"/><use transform="matrix(0.015190972222222219,0,0,0.015190972222222219,18.669704861111107,0)" xlink:href="#z"/><use transform="matrix(0.015190972222222219,0,0,0.015190972222222219,37.339409722222214,0)" xlink:href="#H"/><use transform="matrix(0.015190972222222219,0,0,0.015190972222222219,56.00911458333332,0)" xlink:href="#I"/><use transform="matrix(0.015190972222222219,0,0,0.015190972222222219,74.67881944444443,0)" xlink:href="#C"/><use transform="matrix(0.015190972222222219,0,0,0.015190972222222219,93.34852430555554,0)" xlink:href="#D"/><use transform="matrix(0.015190972222222219,0,0,0.015190972222222219,112.01822916666666,0)" xlink:href="#J"/><use transform="matrix(0.015190972222222219,0,0,0.015190972222222219,130.68793402777777,0)" xlink:href="#K"/><use transform="matrix(0.015190972222222219,0,0,0.015190972222222219,149.35763888888889,0)" xlink:href="#L"/><use transform="matrix(0.015190972222222219,0,0,0.015190972222222219,168.02734375,0)" xlink:href="#A"/></g><path fill="#3a414a" d="M887 0v-707c0-173-79-260-238-260-205 0-307 133-307 398V0H160v-1556h182c-2 202 6 416-8 606h10c69-112 181-168 336-168 259 0 389 134 389 401V0H887" id="T"/><g id="l"><use transform="matrix(0.015190972222222219,0,0,0.015190972222222219,0,0)" xlink:href="#F"/><use transform="matrix(0.015190972222222219,0,0,0.015190972222222219,18.669704861111107,0)" xlink:href="#J"/><use transform="matrix(0.015190972222222219,0,0,0.015190972222222219,37.339409722222214,0)" xlink:href="#K"/><use transform="matrix(0.015190972222222219,0,0,0.015190972222222219,56.00911458333332,0)" xlink:href="#D"/><use transform="matrix(0.015190972222222219,0,0,0.015190972222222219,74.67881944444443,0)" xlink:href="#T"/></g><g id="m"><use transform="matrix(0.015190972222222219,0,0,0.015190972222222219,0,0)" xlink:href="#H"/><use transform="matrix(0.015190972222222219,0,0,0.015190972222222219,18.669704861111107,0)" xlink:href="#A"/><use transform="matrix(0.015190972222222219,0,0,0.015190972222222219,37.339409722222214,0)" xlink:href="#L"/><use transform="matrix(0.015190972222222219,0,0,0.015190972222222219,56.00911458333332,0)" xlink:href="#D"/><use transform="matrix(0.015190972222222219,0,0,0.015190972222222219,74.67881944444443,0)" xlink:href="#z"/><use transform="matrix(0.015190972222222219,0,0,0.015190972222222219,93.34852430555554,0)" xlink:href="#N"/><use transform="matrix(0.015190972222222219,0,0,0.015190972222222219,112.01822916666666,0)" xlink:href="#N"/><use transform="matrix(0.015190972222222219,0,0,0.015190972222222219,130.68793402777777,0)" xlink:href="#L"/><use transform="matrix(0.015190972222222219,0,0,0.015190972222222219,149.35763888888889,0)" xlink:href="#A"/></g><path fill="#3a414a" d="M1092 0H877L297-1210h-8c32 442 13 766 18 1210H135v-1462h213L926-258h6c-25-469-9-747-14-1204h174V0" id="U"/><path fill="#3a414a" d="M707 0H520v-1298H102v-164h1022v164H707V0" id="V"/><path fill="#3a414a" d="M977 0v-707c0-97-9-165-27-203s-47-57-88-57c-58 0-100 28-126 83s-40 148-40 278V0H535v-707c0-173-42-260-125-260-56 0-96 26-120 79s-36 160-36 319V0H92v-1098h127l27 148h10c45-112 112-168 201-168 109 0 180 61 213 182h6c51-121 124-182 219-182 85 0 147 30 186 92s58 165 58 309V0H977" id="W"/><g id="n"><use transform="matrix(0.015190972222222219,0,0,0.015190972222222219,0,0)" xlink:href="#U"/><use transform="matrix(0.015190972222222219,0,0,0.015190972222222219,18.669704861111107,0)" xlink:href="#z"/><use transform="matrix(0.015190972222222219,0,0,0.015190972222222219,37.339409722222214,0)" xlink:href="#J"/><use transform="matrix(0.015190972222222219,0,0,0.015190972222222219,56.00911458333332,0)" xlink:href="#A"/><use transform="matrix(0.015190972222222219,0,0,0.015190972222222219,74.67881944444443,0)" xlink:href="#V"/><use transform="matrix(0.015190972222222219,0,0,0.015190972222222219,93.34852430555554,0)" xlink:href="#C"/><use transform="matrix(0.015190972222222219,0,0,0.015190972222222219,112.01822916666666,0)" xlink:href="#W"/><use transform="matrix(0.015190972222222219,0,0,0.015190972222222219,130.68793402777777,0)" xlink:href="#z"/></g><g id="o"><use transform="matrix(0.015190972222222219,0,0,0.015190972222222219,0,0)" xlink:href="#N"/><use transform="matrix(0.015190972222222219,0,0,0.015190972222222219,18.669704861111107,0)" xlink:href="#K"/><use transform="matrix(0.015190972222222219,0,0,0.015190972222222219,37.339409722222214,0)" xlink:href="#A"/><use transform="matrix(0.015190972222222219,0,0,0.015190972222222219,56.00911458333332,0)" xlink:href="#z"/><use transform="matrix(0.015190972222222219,0,0,0.015190972222222219,74.67881944444443,0)" xlink:href="#J"/><use transform="matrix(0.015190972222222219,0,0,0.015190972222222219,93.34852430555554,0)" xlink:href="#W"/></g><g id="p"><use transform="matrix(0.015190972222222219,0,0,0.015190972222222219,0,0)" xlink:href="#y"/><use transform="matrix(0.015190972222222219,0,0,0.015190972222222219,18.669704861111107,0)" xlink:href="#K"/><use transform="matrix(0.015190972222222219,0,0,0.015190972222222219,37.339409722222214,0)" xlink:href="#A"/><use transform="matrix(0.015190972222222219,0,0,0.015190972222222219,56.00911458333332,0)" xlink:href="#z"/><use transform="matrix(0.015190972222222219,0,0,0.015190972222222219,74.67881944444443,0)" xlink:href="#J"/><use transform="matrix(0.015190972222222219,0,0,0.015190972222222219,93.34852430555554,0)" xlink:href="#W"/></g><g id="q"><use transform="matrix(0.015190972222222219,0,0,0.015190972222222219,0,0)" xlink:href="#H"/><use transform="matrix(0.015190972222222219,0,0,0.015190972222222219,18.669704861111107,0)" xlink:href="#A"/><use transform="matrix(0.015190972222222219,0,0,0.015190972222222219,37.339409722222214,0)" xlink:href="#L"/><use transform="matrix(0.015190972222222219,0,0,0.015190972222222219,56.00911458333332,0)" xlink:href="#D"/><use transform="matrix(0.015190972222222219,0,0,0.015190972222222219,74.67881944444443,0)" xlink:href="#z"/><use transform="matrix(0.015190972222222219,0,0,0.015190972222222219,93.34852430555554,0)" xlink:href="#N"/><use transform="matrix(0.015190972222222219,0,0,0.015190972222222219,112.01822916666666,0)" xlink:href="#N"/><use transform="matrix(0.015190972222222219,0,0,0.015190972222222219,130.68793402777777,0)" xlink:href="#N"/><use transform="matrix(0.015190972222222219,0,0,0.015190972222222219,149.35763888888889,0)" xlink:href="#L"/><use transform="matrix(0.015190972222222219,0,0,0.015190972222222219,168.02734375,0)" xlink:href="#A"/></g><path fill="#3a414a" d="M1147-745C1147-274 901 1 436 0H135v-1462h342c429-3 670 280 670 717zm-825-558v1143h96c355 0 532-193 532-579 0-376-164-564-493-564H322" id="X"/><g id="r"><use transform="matrix(0.015190972222222219,0,0,0.015190972222222219,0,0)" xlink:href="#X"/><use transform="matrix(0.015190972222222219,0,0,0.015190972222222219,18.669704861111107,0)" xlink:href="#J"/><use transform="matrix(0.015190972222222219,0,0,0.015190972222222219,37.339409722222214,0)" xlink:href="#K"/><use transform="matrix(0.015190972222222219,0,0,0.015190972222222219,56.00911458333332,0)" xlink:href="#J"/></g><path fill="#3a414a" d="M813 0c-67-308-137-613-199-926h-6C551-608 477-306 408 0H219L-4-1098h162c53 313 118 604 155 936h6c53-329 132-625 201-936h193c63 300 147 629 194 936h6c45-366 103-603 162-936h158L1008 0H813" id="Y"/><path fill="#3a414a" d="M578-131c239 0 309-137 309-397v-570h182V0H922l-27-147h-10C815-36 704 20 551 20c-261 0-391-134-391-401v-717h182v707c0 173 79 260 236 260" id="Z"/><path fill="#3a414a" d="M1016-1462L389 0H211l627-1462h178" id="aa"/><g id="s"><use transform="matrix(0.015190972222222219,0,0,0.015190972222222219,0,0)" xlink:href="#Y"/><use transform="matrix(0.015190972222222219,0,0,0.015190972222222219,18.669704861111107,0)" xlink:href="#J"/><use transform="matrix(0.015190972222222219,0,0,0.015190972222222219,37.339409722222214,0)" xlink:href="#A"/><use transform="matrix(0.015190972222222219,0,0,0.015190972222222219,56.00911458333332,0)" xlink:href="#z"/><use transform="matrix(0.015190972222222219,0,0,0.015190972222222219,74.67881944444443,0)" xlink:href="#T"/><use transform="matrix(0.015190972222222219,0,0,0.015190972222222219,93.34852430555554,0)" xlink:href="#L"/><use transform="matrix(0.015190972222222219,0,0,0.015190972222222219,112.01822916666666,0)" xlink:href="#Z"/><use transform="matrix(0.015190972222222219,0,0,0.015190972222222219,130.68793402777777,0)" xlink:href="#N"/><use transform="matrix(0.015190972222222219,0,0,0.015190972222222219,149.35763888888889,0)" xlink:href="#z"/><use transform="matrix(0.015190972222222219,0,0,0.015190972222222219,168.02734375,0)" xlink:href="#aa"/><use transform="matrix(0.015190972222222219,0,0,0.015190972222222219,186.69704861111111,0)" xlink:href="#I"/><use transform="matrix(0.015190972222222219,0,0,0.015190972222222219,205.36675347222223,0)" xlink:href="#J"/><use transform="matrix(0.015190972222222219,0,0,0.015190972222222219,224.03645833333334,0)" xlink:href="#R"/><use transform="matrix(0.015190972222222219,0,0,0.015190972222222219,242.70616319444446,0)" xlink:href="#z"/></g><g id="t"><use transform="matrix(0.015190972222222219,0,0,0.015190972222222219,0,0)" xlink:href="#E"/><use transform="matrix(0.015190972222222219,0,0,0.015190972222222219,18.669704861111107,0)" xlink:href="#P"/><use transform="matrix(0.015190972222222219,0,0,0.015190972222222219,37.339409722222214,0)" xlink:href="#P"/><use transform="matrix(0.015190972222222219,0,0,0.015190972222222219,56.00911458333332,0)" xlink:href="#A"/><use transform="matrix(0.015190972222222219,0,0,0.015190972222222219,74.67881944444443,0)" xlink:href="#z"/><use transform="matrix(0.015190972222222219,0,0,0.015190972222222219,93.34852430555554,0)" xlink:href="#P"/><use transform="matrix(0.015190972222222219,0,0,0.015190972222222219,112.01822916666666,0)" xlink:href="#J"/><use transform="matrix(0.015190972222222219,0,0,0.015190972222222219,130.68793402777777,0)" xlink:href="#K"/><use transform="matrix(0.015190972222222219,0,0,0.015190972222222219,149.35763888888889,0)" xlink:href="#L"/><use transform="matrix(0.015190972222222219,0,0,0.015190972222222219,168.02734375,0)" xlink:href="#A"/><use transform="matrix(0.015190972222222219,0,0,0.015190972222222219,186.69704861111111,0)" xlink:href="#aa"/><use transform="matrix(0.015190972222222219,0,0,0.015190972222222219,205.36675347222223,0)" xlink:href="#J"/><use transform="matrix(0.015190972222222219,0,0,0.015190972222222219,224.03645833333334,0)" xlink:href="#A"/><use transform="matrix(0.015190972222222219,0,0,0.015190972222222219,242.70616319444446,0)" xlink:href="#D"/><use transform="matrix(0.015190972222222219,0,0,0.015190972222222219,261.37586805555554,0)" xlink:href="#T"/><use transform="matrix(0.015190972222222219,0,0,0.015190972222222219,280.04557291666663,0)" xlink:href="#C"/><use transform="matrix(0.015190972222222219,0,0,0.015190972222222219,298.7152777777777,0)" xlink:href="#B"/><use transform="matrix(0.015190972222222219,0,0,0.015190972222222219,317.3849826388888,0)" xlink:href="#z"/><use transform="matrix(0.015190972222222219,0,0,0.015190972222222219,336.0546874999999,0)" xlink:href="#A"/></g><g id="u"><use transform="matrix(0.015190972222222219,0,0,0.015190972222222219,0,0)" xlink:href="#X"/><use transform="matrix(0.015190972222222219,0,0,0.015190972222222219,18.669704861111107,0)" xlink:href="#J"/><use transform="matrix(0.015190972222222219,0,0,0.015190972222222219,37.339409722222214,0)" xlink:href="#K"/><use transform="matrix(0.015190972222222219,0,0,0.015190972222222219,56.00911458333332,0)" xlink:href="#J"/></g><path fill="#3a414a" d="M233 0v-1462h187v1296h635V0H233" id="ab"/><path fill="#3a414a" d="M137-547c0-322 136-571 430-571 137 0 245 53 322 160h12c-24-215-7-376-12-598h182V0H924l-27-147h-8C814-36 706 20 567 20c-294 0-430-246-430-567zm463 416c241 0 288-157 289-416 0-151-23-259-69-323s-121-97-222-97c-181 0-272 141-272 422 0 276 91 414 274 414" id="ac"/><g id="v"><use transform="matrix(0.015190972222222219,0,0,0.015190972222222219,0,0)" xlink:href="#ab"/><use transform="matrix(0.015190972222222219,0,0,0.015190972222222219,18.669704861111107,0)" xlink:href="#L"/><use transform="matrix(0.015190972222222219,0,0,0.015190972222222219,37.339409722222214,0)" xlink:href="#J"/><use transform="matrix(0.015190972222222219,0,0,0.015190972222222219,56.00911458333332,0)" xlink:href="#ac"/></g><g id="w"><use transform="matrix(0.015190972222222219,0,0,0.015190972222222219,0,0)" xlink:href="#X"/><use transform="matrix(0.015190972222222219,0,0,0.015190972222222219,18.669704861111107,0)" xlink:href="#J"/><use transform="matrix(0.015190972222222219,0,0,0.015190972222222219,37.339409722222214,0)" xlink:href="#K"/><use transform="matrix(0.015190972222222219,0,0,0.015190972222222219,56.00911458333332,0)" xlink:href="#J"/></g><g id="x"><use transform="matrix(0.015190972222222219,0,0,0.015190972222222219,0,0)" xlink:href="#O"/><use transform="matrix(0.015190972222222219,0,0,0.015190972222222219,18.669704861111107,0)" xlink:href="#z"/><use transform="matrix(0.015190972222222219,0,0,0.015190972222222219,37.339409722222214,0)" xlink:href="#A"/><use transform="matrix(0.015190972222222219,0,0,0.015190972222222219,56.00911458333332,0)" xlink:href="#P"/><use transform="matrix(0.015190972222222219,0,0,0.015190972222222219,74.67881944444443,0)" xlink:href="#z"/></g></defs></g></svg>