<svg style="width: initial; height: initial;" width="12" height="24" viewBox="0 0 24 24" fill="none" xmlns="http://www.w3.org/2000/svg">
<path fill-rule="evenodd" clip-rule="evenodd" d="M20.5631 3.31573C20.3196 3.10665 20.0077 2.99428 19.6867 2.99996L19.6691 3.00012H17.9991V12.0001H19.6691L19.6867 12.0003C20.0077 12.0059 20.3196 11.8936 20.5631 11.6845C20.792 11.488 20.9457 11.219 20.9991 10.9233V4.07698C20.9457 3.78126 20.792 3.51222 20.5631 3.31573ZM15.9991 12.7879L12.3912 20.9055C12.0898 20.8094 11.8127 20.6422 11.5848 20.4143C11.2098 20.0393 10.9991 19.5306 10.9991 19.0001V15.0001C10.9991 14.4478 10.5513 14.0001 9.99905 14.0001H4.33905L4.32773 14.0002C4.18278 14.0018 4.0392 13.9719 3.90694 13.9126C3.77469 13.8532 3.65692 13.7658 3.5618 13.6564C3.46668 13.547 3.39648 13.4183 3.35606 13.2791C3.3157 13.14 3.306 12.9939 3.32764 12.8508C3.32761 12.8509 3.32767 12.8506 3.32764 12.8508L4.70775 3.85005C4.74391 3.6116 4.86503 3.39425 5.0488 3.23805C5.23256 3.08185 5.46659 2.99733 5.70775 3.00005L15.9991 3.00012V12.7879ZM19.661 1.00012C20.4686 0.988184 21.2528 1.27194 21.8658 1.79814C22.4813 2.32643 22.8813 3.0623 22.99 3.86607C22.996 3.9105 22.9991 3.95528 22.9991 4.00012V11.0001C22.9991 11.045 22.996 11.0897 22.99 11.1342C22.8813 11.9379 22.4813 12.6738 21.8658 13.2021C21.2528 13.7283 20.4686 14.012 19.661 14.0001H17.6489L13.9129 22.4063C13.7524 22.7674 13.3942 23.0001 12.9991 23.0001C11.9382 23.0001 10.9208 22.5787 10.1706 21.8285C9.42048 21.0784 8.99905 20.061 8.99905 19.0001V16.0001H4.34417C3.91142 16.0041 3.48289 15.9144 3.08802 15.7372C2.69126 15.5592 2.33796 15.297 2.05259 14.9688C1.76722 14.6406 1.55662 14.2543 1.43537 13.8367C1.31412 13.419 1.28512 12.98 1.35038 12.5501L2.73036 3.55018C2.7304 3.54988 2.73031 3.55048 2.73036 3.55018C2.83901 2.83518 3.20244 2.18257 3.7535 1.71417C4.30321 1.24692 5.00284 0.993458 5.72414 1.00012H19.661Z" fill="currentColor"/>
</svg>
