<svg width="100%" height="100%" viewBox="0 0 2323 3183" fill="none" xmlns="http://www.w3.org/2000/svg">
  <g style="mix-blend-mode:multiply">
    <path d="M1117 428L1622 1012" stroke="#FFFACA" stroke-width="130" stroke-linecap="round"/>
  </g>
  <g style="mix-blend-mode:multiply">
    <path d="M861 1198L1622 1012" stroke="#CAFFCF" stroke-width="130" stroke-linecap="round"/>
  </g>
  <g style="mix-blend-mode:multiply">
    <path d="M1241 1805L1622 1012" stroke="#CAFFCF" stroke-width="130" stroke-linecap="round"/>
  </g>
  <g style="mix-blend-mode:multiply">
    <path d="M1518 1567L1622 1012" stroke="#CAFFCF" stroke-width="130" stroke-linecap="round"/>
  </g>
  <g style="mix-blend-mode:multiply">
    <path d="M1208 801L1622 1012" stroke="#FFFACA" stroke-width="130" stroke-linecap="round"/>
  </g>
  <g style="mix-blend-mode:multiply">
    <path d="M1914 428L1622 1013" stroke="#62B4FF" stroke-width="130" stroke-linecap="round"/>
  </g>
  <g style="mix-blend-mode:multiply">
    <path d="M1963 634L1622 1013" stroke="#62B4FF" stroke-width="130" stroke-linecap="round"/>
  </g>
  <g style="mix-blend-mode:multiply">
    <path d="M2017 1515L1622 1012" stroke="#CAFFCF" stroke-width="130" stroke-linecap="round"/>
  </g>
  <g style="mix-blend-mode:multiply">
    <path d="M523 1597L1622 1012" stroke="#CAFFCF" stroke-width="130" stroke-linecap="round"/>
  </g>
  <g style="mix-blend-mode:multiply">
    <path d="M65 2716L1622 1012" stroke="#FFFACA" stroke-width="130" stroke-linecap="round"/>
  </g>
  <g style="mix-blend-mode:multiply">
    <path d="M875 3117L1622 1012" stroke="#CAFFCF" stroke-width="130" stroke-linecap="round"/>
  </g>
  <g style="mix-blend-mode:multiply">
    <path d="M2176 1078L1622 1013" stroke="#CAFFCF" stroke-width="130" stroke-linecap="round"/>
  </g>
  <circle cx="1117" cy="428" r="65" fill="#FFCD4B"/>
  <circle cx="1208" cy="801" r="65" fill="#FFCD4B"/>
  <circle cx="523" cy="1597" r="65" fill="#19BD82"/>
  <circle cx="1306" cy="65" r="65" fill="#FF8C4B"/>
  <circle cx="861" cy="1198" r="65" fill="#19BD82"/>
  <circle cx="1241" cy="1805" r="65" fill="#19BD82"/>
  <circle cx="1518" cy="1567" r="65" fill="#19BD82"/>
  <circle cx="2017" cy="1515" r="65" fill="#19BD82"/>
  <circle cx="2176" cy="1078" r="65" fill="#FFCD4B"/>
  <circle cx="2258" cy="620" r="65" fill="#1996BD"/>
  <circle cx="1622" cy="1012" r="65" fill="#282826"/>
</svg>
