<svg xmlns="http://www.w3.org/2000/svg" xmlns:xlink="http://www.w3.org/1999/xlink" xmlns:lucid="lucid" width="880" height="450.1"><g transform="translate(-1738 -1623.450476190476)" lucid:page-tab-id="0_0"><path d="M0 0h6299.2v6299.2H0z" fill="#fff"/><path d="M1758 1649.45a6 6 0 0 1 6-6h828a6 6 0 0 1 6 6v326.67a6 6 0 0 1-6 6h-828a6 6 0 0 1-6-6z" fill="#edf5ff"/><path d="M1774.54 1643.45h9.03m6.02 0h9.03m6.02 0h9.03m6.02 0h9.03m6.03 0h9.03m6 0h9.04m6.03 0h9.03m6.02 0h9.03m6.02 0h9.04m6.03 0h9.03m6.02 0h9.04m6.02 0h9.03m6.02 0h9.02m6.03 0h9.03m6.02 0h9.04m6.02 0h9.03m6 0h9.04m6.02 0h9.04m6.02 0h9.03m6.02 0h9.04m6.03 0h9.03m6.02 0h9.04m6.02 0h9.03m6.02 0h9.02m6.03 0h9.03m6.02 0h9.03m6.03 0h9.03m6 0h9.04m6.03 0h9.03m6.02 0h9.03m6.03 0h9.03m6.03 0h9.03m6.02 0h9.04m6.02 0h9.03m6.02 0h9.03m6.02 0h9.03m6.02 0h9.03m6.03 0h9.03m6 0h9.04m6.03 0h9.03m6.02 0h9.03m6.03 0h9.03m6.03 0h9.03m6.02 0h9.04m6.02 0h9.03m6.02 0h9.03m6.02 0h9.03m6.02 0h9.04m6.02 0h9.03m6 0h9.04m6.03 0h9.03m6.02 0h9.03m6.03 0h9.03m6.03 0h9.03m6.02 0h4.52l.94.07.9.22.88.36.8.5.72.6.6.72.5.8.37.88.23.9.07.95v4.45m0 5.94v8.9m0 5.95v8.9m0 5.94v8.9m0 5.95v8.9m0 5.94v8.9m0 5.95v8.9m0 5.93v8.9m0 5.95v8.9m0 5.95v8.9m0 5.95v8.9m0 5.95v8.9m0 5.95v8.9m0 5.95v8.9m0 5.94v8.9m0 5.95v8.9m0 5.95v8.9m0 5.95v8.9m0 5.95v8.9m0 5.95v8.9m0 5.95v8.9m0 5.94v8.92m0 5.94v4.46l-.07.94-.22.9-.35.88-.5.8-.6.72-.72.6-.8.5-.88.36-.9.22-.95.08h-4.52m-6.02 0h-9.03m-6.02 0h-9.03m-6.02 0h-9.03m-6.02 0h-9.04m-6.02 0h-9.03m-6 0h-9.04m-6.02 0h-9.04m-6.02 0h-9.03m-6.03 0H2452m-6.03 0h-9.03m-6.02 0h-9.04m-6.02 0h-9.03m-6.02 0h-9.03m-6.02 0h-9.03m-6.02 0h-9.03m-6.03 0h-9.03m-6 0h-9.04m-6.03 0h-9.03m-6.02 0h-9.03m-6.02 0h-9.04m-6.03 0h-9.03m-6.02 0h-9.04m-6.02 0h-9.03m-6.02 0h-9.02m-6.03 0h-9.03m-6.02 0h-9.03m-6.03 0H2181m-6 0h-9.04m-6.03 0h-9.03m-6.02 0h-9.03m-6.03 0h-9.03m-6.03 0h-9.03m-6.02 0h-9.04m-6.02 0h-9.03m-6.02 0h-9.03m-6.02 0h-9.03m-6.02 0h-9.04m-6.02 0h-9.03m-6 0h-9.04m-6.02 0h-9.04m-6.02 0h-9.03m-6.03 0h-9.03m-6.03 0h-9.03m-6.02 0h-9.04m-6.02 0h-9.03m-6.02 0h-9.03m-6.02 0h-9.03m-6.02 0h-9.04m-6.02 0h-9.03m-6 0h-9.04m-6.03 0h-9.03m-6.02 0h-9.03m-6.03 0h-9.03m-6.03 0h-9.03m-6.02 0H1764l-.94-.08-.9-.22-.88-.36-.8-.5-.72-.6-.6-.72-.5-.8-.37-.87-.23-.9-.07-.95v-4.46m0-5.94v-8.9m0-5.94v-8.9m0-5.95v-8.9m0-5.95v-8.9m0-5.95v-8.9m0-5.95v-8.9m0-5.95v-8.9m0-5.95v-8.9m0-5.95v-8.9m0-5.94v-8.92m0-5.94v-8.9m0-5.95v-8.92m0-5.94v-8.9m0-5.95v-8.92m0-5.94v-8.9m0-5.94v-8.9m0-5.95v-8.9m0-5.95v-8.9m0-5.95v-8.9m0-5.95v-8.9m0-5.95v-8.9m0-5.94v-4.45l.07-.94.22-.9.35-.87.5-.8.6-.72.72-.6.8-.5.88-.36.9-.22.95-.07h4.52" stroke="#4881b3" stroke-width="3" fill="none"/><use xlink:href="#a" transform="matrix(1,0,0,1,1758,1643.450476190476) translate(420 43.72406684027777)"/><use xlink:href="#b" transform="matrix(1,0,0,1,1758,1643.450476190476) translate(420 77.68882378472222)"/><use xlink:href="#b" transform="matrix(1,0,0,1,1758,1643.450476190476) translate(420 111.65358072916665)"/><use xlink:href="#b" transform="matrix(1,0,0,1,1758,1643.450476190476) translate(420 145.61833767361108)"/><use xlink:href="#b" transform="matrix(1,0,0,1,1758,1643.450476190476) translate(420 179.58309461805553)"/><use xlink:href="#b" transform="matrix(1,0,0,1,1758,1643.450476190476) translate(420 213.54785156249997)"/><use xlink:href="#b" transform="matrix(1,0,0,1,1758,1643.450476190476) translate(420 247.51260850694442)"/><use xlink:href="#b" transform="matrix(1,0,0,1,1758,1643.450476190476) translate(420 281.47736545138883)"/><use xlink:href="#c" transform="matrix(1,0,0,1,1758,1643.450476190476) translate(420 315.4421223958333)"/><path d="M2065.73 1993.55h240v60h-240z" fill="none"/><use xlink:href="#d" transform="matrix(1,0,0,1,2065.730603793627,1993.5495238095236) translate(47.388183593750014 39.30870225694444)"/><use xlink:href="#e" transform="matrix(1,0,0,1,2065.730603793627,1993.5495238095236) translate(111.93202039930556 39.30870225694444)"/><path d="M2405.92 1699.55h120v120h-120v-120z" stroke="#fff" stroke-opacity="0" fill="#6db1ff"/><path d="M2464.67 1776.45c-.38 0-.72-.13-1.02-.4-.38-.3-.55-.67-.6-1.14l-.07-2.8c-1.06-.16-1.9-.37-2.88-.76l-1.4 2.4c-.24.4-.58.65-1.04.73-.47.1-.9-.04-1.27-.3l-6.14-4.68c-.38-.26-.6-.65-.63-1.12-.04-.48.08-.86.42-1.2l1.86-2.02c-.58-.86-1.05-1.68-1.47-2.62l-2.66.64c-.46.13-.9.04-1.27-.26-.42-.25-.63-.6-.72-1.07l-1-7.7c-.14-.85.5-1.66 1.38-1.8h.13l2.82-.16c.13-1.13.34-2.03.68-3.06l-2.28-1.42c-.76-.47-.97-1.46-.5-2.2l.07-.08 4.6-6.18c.3-.38.68-.6 1.14-.64.46-.05.9.13 1.22.43l2.03 1.84c.84-.65 1.6-1.12 2.57-1.6l-.64-2.7c-.08-.47-.04-.9.26-1.3.24-.38.62-.6 1.04-.68l7.6-1.07c.47-.04.9.1 1.23.4.38.3.55.67.6 1.15l.04 2.83c1.06.2 1.9.43 2.88.77l1.43-2.36c.48-.73 1.5-1 2.2-.5l.18.07 6.04 4.7c.38.25.6.64.63 1.1.05.44-.12.87-.42 1.2l-1.86 2.07c.6.86 1.06 1.63 1.52 2.58l2.6-.64c.9-.17 1.74.35 1.95 1.2v.18l1.06 7.64c.05.48-.07.9-.37 1.25-.3.34-.68.56-1.14.56l-2.8.17c-.12 1.03-.38 1.93-.76 2.96l2.37 1.46c.73.48.98 1.46.47 2.2 0 .04-.04.08-.04.12l-4.65 6.14c-.5.73-1.52.86-2.24.35l-.12-.13-2-1.85c-.83.64-1.6 1.12-2.56 1.6l.63 2.74c.2.85-.35 1.7-1.2 1.88-.08.04-.12.04-.16.04l-7.52 1.07zm-5.2-8.67c.2 0 .42.04.64.13 1.53.7 2.88 1.03 4.52 1.2.85.1 1.48.78 1.48 1.6l.1 2.4 4.08-.6-.55-2.32c-.16-.77.26-1.6 1.02-1.85 1.52-.64 2.74-1.37 3.97-2.5.63-.54 1.52-.54 2.1 0l1.74 1.6 2.58-3.35-1.98-1.24c-.72-.43-.98-1.3-.64-2.02.72-1.55 1.06-2.92 1.23-4.6.04-.8.7-1.4 1.52-1.46l2.32-.13-.56-4.16-2.24.56c-.8.17-1.6-.26-1.9-1.03-.55-1.55-1.27-2.8-2.32-4.04-.55-.6-.55-1.5 0-2.1l1.6-1.76-3.25-2.54-1.22 1.98c-.42.73-1.3 1-2.02.64-1.52-.7-2.87-1.07-4.52-1.2-.85-.1-1.44-.73-1.48-1.55l-.13-2.36-4.05.6.5 2.32c.17.77-.2 1.54-.97 1.84-1.56.6-2.78 1.33-4.05 2.4-.6.56-1.52.56-2.1 0l-1.74-1.6-2.4 3.32 1.97 1.25c.7.44.98 1.3.65 2.02-.72 1.5-1.06 2.92-1.23 4.6-.04.82-.72 1.42-1.52 1.46l-2.32.13.55 4.17 2.24-.55c.8-.18 1.6.25 1.9 1.03.55 1.54 1.26 2.8 2.32 4.08.54.6.54 1.5 0 2.1l-1.62 1.76 3.2 2.52 1.24-2c.3-.5.76-.74 1.35-.74z" stroke="#fff" stroke-opacity="0" fill="#fff"/><path d="M2466.03 1765.4c-.62 0-1.14-.05-1.74-.16-5.65-.95-9.47-6.3-8.5-11.94.94-5.64 6.3-9.46 11.93-8.5 5.65.95 9.46 6.3 8.5 11.94-.84 5.04-5.1 8.63-10.2 8.65zm0-17.5c-3.52.03-6.45 2.5-7.03 5.96-.66 3.9 1.97 7.57 5.85 8.23 3.9.63 7.57-1.98 8.24-5.86.6-3.9-2-7.57-5.88-8.23-.42-.05-.77-.1-1.2-.1zM2491.45 1797.32c-.73.03-1.38-.4-1.58-1.12l-.5-1.6c-1.17-.13-2.14-.37-3.22-.84l-1.2 1.18c-.6.58-1.6.58-2.22 0l-4.02-4.1c-.6-.6-.6-1.6 0-2.23l1.16-1.22c-.47-1.06-.7-2.03-.85-3.18l-1.6-.5c-.8-.23-1.26-1.06-1.1-1.85l1.5-5.62c.2-.85 1.06-1.35 1.9-1.17l1.6.38c.34-.47.66-.82 1.04-1.23.4-.38.76-.7 1.17-1.05l-.36-1.6c-.2-.84.3-1.7 1.1-1.93l5.63-1.6c.82-.22 1.7.25 1.93 1.07l.5 1.6c1.17.12 2.13.4 3.22.86l1.2-1.18c.6-.6 1.6-.6 2.22 0l4.13 4.1c.6.6.6 1.58 0 2.2l-1.14 1.26c.47 1.1.73 2.06.88 3.2l1.62.48c.82.26 1.32 1.1 1.08 1.94l-1.46 5.58c-.24.86-1.06 1.36-1.9 1.15l-1.62-.36c-.35.44-.67.82-1.05 1.23-.4.4-.8.74-1.23 1.1l.38 1.58c.2.85-.3 1.7-1.1 1.9l-5.6 1.63c-.18 0-.3 0-.47-.06zm-5.53-7.06c.3 0 .52.06.8.2 1.25.68 2.45.98 3.88 1 .73.04 1.32.48 1.52 1.15l.35 1.16 2.6-.7-.26-1.18c-.16-.68.13-1.36.72-1.74 1.23-.8 2.1-1.67 2.87-2.9.34-.6 1-.9 1.7-.74l1.18.3.68-2.66-1.17-.35c-.7-.18-1.15-.77-1.15-1.48-.06-1.44-.4-2.67-1.1-3.9-.34-.63-.25-1.36.25-1.9l.82-.87-1.9-1.88-.9.85c-.5.47-1.24.56-1.86.23-1.3-.67-2.5-1-3.92-1.03-.7 0-1.32-.44-1.52-1.1l-.32-1.16-2.6.7.28 1.18c.18.68-.12 1.35-.7 1.74-.6.38-1.08.76-1.6 1.3-.5.5-.9.96-1.27 1.58-.34.62-1 .9-1.72.73l-1.17-.27-.66 2.62 1.17.35c.68.2 1.12.8 1.15 1.5.06 1.44.38 2.64 1.1 3.9.3.63.22 1.36-.25 1.86l-.82.88 1.93 1.88.86-.82c.3-.3.65-.4 1.06-.44z" stroke="#fff" stroke-opacity="0" fill="#fff"/><path d="M2490.86 1788.9c-3.43 0-6.23-2.76-6.25-6.2 0-1.73.6-3.2 1.84-4.43 2.4-2.45 6.36-2.48 8.83-.06 2.45 2.43 2.47 6.4.05 8.83-1.22 1.24-2.68 1.85-4.4 1.86zm-2.16-8.38c-.57.6-.86 1.3-.86 2.12 0 1.7 1.35 3.05 3.02 3.06.84 0 1.55-.33 2.13-.9.6-.6.92-1.32.93-2.16 0-.85-.3-1.56-.9-2.15-1.2-1.2-3.12-1.2-4.3 0zM2496.48 1740.18l-2.82 1.46c-4.72-9.13-12.6-14.88-22.68-16.56-17-2.8-33.05 8.7-35.8 25.66l2.75-2.78 2.25 2.26-5.56 5.58-.36.35c-.35.3-.7.5-1.12.5-.5 0-.85-.2-1.2-.5l-5.92-5.93 2.32-2.26 3.53 3.48c2.25-17.2 16.7-29.77 34.03-29.67 13.18-.17 24.52 6.66 30.58 18.4z" stroke="#fff" stroke-opacity="0" fill="#fff"/><path d="M2431.54 1755.7l.1.1h-.1v-.1zM2434.74 1755.7v.1h-.1l.1-.1zM2505.8 1760.06l-2.28 2.28-3.35-3.4c-.3 3.23-.92 5.9-2.04 8.9l-3-1.1c.93-2.5 1.46-4.73 1.77-7.4l-2.97 3-2.28-2.28 5.96-5.95c.63-.62 1.63-.62 2.27 0zM2465.95 1789.6c-13.28.02-24.58-6.9-30.6-18.75l2.86-1.46c6.77 13.3 21.43 19.86 35.85 16l.83 3.1c-3.04.8-5.73 1.12-8.93 1.1z" stroke="#fff" stroke-opacity="0" fill="#fff"/><use xlink:href="#f" transform="matrix(1,0,0,1,2375.923809523809,1828.5495238095236) translate(29.990234375000007 25.564453124999993)"/><use xlink:href="#g" transform="matrix(1,0,0,1,2375.923809523809,1828.5495238095236) translate(23.989257812500014 55.830078124999986)"/><use xlink:href="#h" transform="matrix(1,0,0,1,2375.923809523809,1828.5495238095236) translate(23.989257812500014 86.09570312499997)"/><path d="M1845.54 1703h120v120h-120v-120z" stroke="#fff" stroke-opacity="0" fill="#6db1ff"/><path d="M1915.13 1783.82h19.23v3.2h-19.23v1.6h-3.2v-1.6h-4.82l.02-3.2h4.8v-1.6h3.2zm6.4-9.62h-3.2v1.6h-11.2l-.02 3.2h11.24v1.6h3.2v-1.6h12.83v-3.2h-12.83zm-46.47-2.57c-4.17-2.56-6.5-6.73-6.34-11.54-.32-5.86 3.7-10.9 9.38-12.03.72-.16 1.2-.8 1.2-1.6l-.16-2.33c.16-7.2 4.1-13.22 10.58-16.35 7.06-3.13 14.83-1.6 20.12 4 2.4 2.4 3.93 4.97 5.05 8.18.15.56.63.96 1.27 1.04.56.08 1.12-.08 1.52-.64 1.68-2.33 4.56-3.3 7.37-2.4 3.04.95 4.8 3.92 4.8 8-.07.4 0 .8.25 1.2.24.4.64.65 1.04.65 3.37.64 11.22 2.97 11.22 12.34v1.13l3.2.16v-1.3c0-10.73-8.33-14.17-12.5-15.13-.32-5.05-2.88-8.74-6.97-10.1-3.2-1.13-6.4-.5-9.13 1.6-1.2-2.8-2.64-4.9-4.8-7.05-6.26-6.58-15.4-8.34-23.65-4.73-7.77 3.68-12.42 10.9-12.58 19.47v1.13c-6.57 1.92-10.82 7.85-10.5 14.74-.08 5.92 2.72 11.05 7.77 14.18 1.46 1.04 2.98 1.52 4.74 1.52h13v-3.2H1878c-1.12 0-2.08-.32-2.96-.96zm52.9-5.45h-3.2v1.6h-17.64v3.2h17.63v1.62h3.2v-1.6h6.4l.02-3.2h-6.42z" stroke="#fff" stroke-opacity="0" fill="#fff"/><path d="M1945.02 1771.47c.33.33.5.73.5 1.13v9.6c0 .5-.17.9-.5 1.14-.32.32-.72.48-1.2.48l-2.64-.16c-.48 1.6-1.05 2.96-1.85 4.4l2 1.77c.33.32.57.72.57 1.2 0 .4-.16.8-.48 1.12l-6.74 6.74c-.32.3-.72.47-1.2.47s-.8-.16-1.12-.48l-1.76-2.02c-1.52.8-2.8 1.36-4.5 1.84l.17 2.65c.08.48-.08.8-.4 1.2-.32.32-.72.48-1.2.48h-9.54c-.48 0-.88-.16-1.2-.48-.32-.4-.48-.72-.4-1.2l.16-2.64c-1.62-.5-2.98-1.05-4.42-1.85l-1.84 2c-.25.33-.64.5-1.13.5-.47 0-.8-.17-1.2-.5l-6.64-6.73c-.32-.32-.48-.72-.48-1.2s.24-.88.56-1.12l2-1.76c-.8-1.53-1.36-2.8-1.84-4.5l-2.64.17c-.5.08-.9-.08-1.2-.4-.33-.32-.5-.72-.5-1.2v-9.54c0-.88.65-1.6 1.54-1.6h.15l2.65.15c.48-1.68 1.04-2.96 1.84-4.4l-2-1.85c-.32-.24-.56-.64-.56-1.12 0-.48.16-.88.48-1.2l6.73-6.73c.3-.32.7-.5 1.2-.5.47 0 .8.26 1.12.58l1.84 2c1.44-.8 2.72-1.36 4.4-1.84l-.15-2.66c-.07-.48.1-.88.4-1.2.33-.32.73-.48 1.13-.48h9.62c.48 0 .88.16 1.2.48.32.32.48.72.4 1.2l-.16 2.65c1.6.47 2.95 1.03 4.4 1.83l1.84-2c.24-.33.64-.57 1.12-.57.48 0 .8.17 1.2.5l6.74 6.72c.32.32.48.72.4 1.2 0 .48-.16.88-.48 1.12l-2 1.85c.8 1.44 1.36 2.72 1.84 4.4l2.64-.16c.48 0 .8.15 1.12.47zm-2.72 2.8l-2.24.17c-.8.08-1.45-.48-1.6-1.2-.5-2.25-1.2-4-2.4-5.93-.5-.63-.33-1.52.23-2.08l1.67-1.44-4.4-4.4-1.6 1.75c-.57.57-1.37.65-2.1.25-1.84-1.13-3.6-1.85-5.76-2.4-.7-.17-1.28-.8-1.2-1.6l.08-2.26h-6.1l.1 2.25c0 .8-.5 1.44-1.2 1.6-2.25.48-4.02 1.28-5.94 2.5-.64.4-1.52.23-2-.34l-1.6-1.68-4.33 4.33 1.77 1.6c.56.56.72 1.37.24 2.1-1.1 1.83-1.83 3.6-2.4 5.76-.15.72-.8 1.28-1.6 1.2l-2.24-.16v6.17l2.24-.08c.8-.08 1.44.48 1.6 1.2.57 2.25 1.3 4 2.5 5.93.4.65.3 1.53-.33 2l-1.68 1.6 4.3 4.34 1.54-1.76c.56-.57 1.36-.64 2.08-.25 1.84 1.13 3.7 1.93 5.85 2.4.72.17 1.2.8 1.2 1.6l-.08 2.26h6.08l-.08-2.26c-.08-.8.48-1.44 1.2-1.6 2.25-.56 4-1.28 5.94-2.48.64-.4 1.52-.32 2.08.32l1.44 1.76 4.4-4.4-1.75-1.6c-.55-.57-.63-1.38-.23-2.1 1.12-1.84 1.84-3.6 2.4-5.77.16-.72.8-1.28 1.6-1.2l2.25.08z" stroke="#fff" stroke-opacity="0" fill="#fff"/><use xlink:href="#i" transform="matrix(1,0,0,1,1815.5373980634458,1832.005383544889) translate(29.990234375000007 25.564453124999993)"/><use xlink:href="#j" transform="matrix(1,0,0,1,1815.5373980634458,1832.005383544889) translate(53.99414062500001 55.830078124999986)"/><use xlink:href="#k" transform="matrix(1,0,0,1,1815.5373980634458,1832.005383544889) translate(35.99121093750001 86.09570312499997)"/><path d="M2125.73 1703h120v120h-120v-120z" stroke="#fff" stroke-opacity="0" fill="#6db1ff"/><path d="M2211.92 1736.72h-9.98c-.88 0-1.6-.72-1.6-1.6v-9.97h3.2v8.36h8.38z" stroke="#fff" stroke-opacity="0" fill="#fff"/><path d="M2211.9 1794.1h-14.94v-3.18h13.34v-55.1l-9-9.1h-40.14v64.2h13.34v3.17h-14.95c-.9 0-1.6-.7-1.6-1.63v-67.3c0-.9.7-1.62 1.6-1.62h42.4c.46 0 .8.14 1.12.5l10 9.94c.3.34.45.7.45 1.12v57.35c0 .92-.72 1.62-1.6 1.62z" stroke="#fff" stroke-opacity="0" fill="#fff"/><path d="M2193.2 1802.46c-.37 0-.7-.12-1-.36l-6.4-5.38-6.4 5.38c-.5.4-1.13.5-1.7.22-.6-.27-.93-.82-.93-1.47v-13.35h3.2v9.9l4.8-4.05c.6-.5 1.44-.5 2.05 0l4.8 4.06v-9.9h3.2v13.35c0 .9-.72 1.6-1.6 1.6z" stroke="#fff" stroke-opacity="0" fill="#fff"/><path d="M2185.73 1789.1c-2.2 0-4.1-1.28-4.95-3.3-.67-.26-1.24-.5-1.85-.8-.67.26-1.24.36-1.92.36-2.94 0-5.33-2.38-5.33-5.34 0-.68.1-1.28.36-1.92-.32-.65-.54-1.18-.8-1.86-2.73-1.14-4-4.24-2.9-6.98.57-1.4 1.56-2.35 2.9-2.92.23-.68.48-1.2.8-1.85-1.1-2.76.25-5.85 2.95-6.92 1.32-.5 2.63-.5 3.95 0 .6-.32 1.18-.54 1.85-.8 1.14-2.73 4.24-4 6.98-2.9 1.4.56 2.35 1.52 2.92 2.9.67.26 1.24.48 1.85.8.67-.25 1.24-.36 1.92-.36 3 0 5.38 2.42 5.34 5.38 0 .68-.12 1.25-.37 1.9.32.63.57 1.16.8 1.84 2.73 1.14 4 4.24 2.9 6.98-.56 1.4-1.56 2.35-2.9 2.92-.26.68-.48 1.2-.8 1.86.25.64.36 1.24.36 1.92 0 2.92-2.36 5.3-5.28 5.34-.67 0-1.28-.1-1.92-.35-.64.3-1.17.54-1.85.8-.86 2.06-2.78 3.34-5.02 3.3zm-6.8-7.5c.3 0 .54.06.8.2.9.53 1.73.9 2.76 1.17.6.15 1.02.6 1.13 1.22.18.84.82 1.45 1.64 1.62 1.17.25 2.3-.46 2.56-1.63.1-.62.53-1.08 1.14-1.23 1.03-.28 1.85-.64 2.78-1.17.5-.3 1.06-.3 1.6 0 .32.2.64.28 1.03.28 1.17.04 2.13-.92 2.13-2.1.05-.42-.06-.75-.3-1.1-.3-.5-.3-1.1 0-1.6.53-.93.85-1.75 1.13-2.75.18-.6.64-1.03 1.25-1.14 1-.22 1.7-1.08 1.7-2.1 0-1.04-.7-1.9-1.7-2.1-.6-.12-1.07-.55-1.25-1.15-.28-1-.6-1.85-1.13-2.74-.3-.53-.3-1.1 0-1.6.24-.35.35-.7.32-1.1.03-1.14-.86-2.1-2-2.17-.4 0-.74.1-1.1.32-.53.28-1.1.28-1.6 0-.93-.54-1.75-.9-2.78-1.14-.57-.17-1-.63-1.14-1.24-.14-.9-.82-1.57-1.7-1.7-1.18-.22-2.28.56-2.5 1.7-.1.6-.53 1.07-1.14 1.25-1 .26-1.85.6-2.74 1.15-.53.28-1.1.28-1.6 0-.36-.22-.7-.32-1.14-.32-1.17 0-2.13.96-2.13 2.13 0 .4.1.75.32 1.1.32.5.32 1.08 0 1.6-.5.9-.82 1.76-1.1 2.75-.18.62-.65 1.05-1.25 1.15-1 .22-1.7 1.07-1.7 2.1-.05 1.04.63 1.9 1.63 2.14.6.13 1.06.53 1.2 1.13.3 1.04.65 1.86 1.14 2.78.28.5.28 1.08 0 1.58-.22.35-.32.7-.32 1.1 0 .4.1.75.28 1.07.6 1.03 1.92 1.36 2.92.8.28-.2.53-.26.85-.26zM2165.78 1730.64h14.96v3.2h-14.96v-3.2zM2165.78 1738.5h39.9v3.2h-39.9v-3.2zM2165.78 1743.5h39.9v3.2h-39.9v-3.2zM2165.78 1748.5h39.9v3.2h-39.9v-3.2z" stroke="#fff" stroke-opacity="0" fill="#fff"/><path d="M2184.36 1775.53c-.45 0-.82-.15-1.14-.46l-2.7-2.7 2.28-2.17 1.6 1.6 4.24-4.23 2.26 2.25-5.4 5.2c-.3.32-.7.5-1.14.5z" stroke="#fff" stroke-opacity="0" fill="#fff"/><path d="M2185.7 1782.25c-6.07 0-11.02-4.9-11.02-10.98s4.9-11.03 10.98-11.03 11.03 4.9 11.03 10.98v.02c0 6.08-4.92 11-11 11zm0-18.8h-.04c-4.32 0-7.8 3.52-7.8 7.82.03 4.3 3.53 7.8 7.84 7.8 4.32 0 7.8-3.5 7.8-7.83-.02-4.3-3.5-7.8-7.8-7.8z" stroke="#fff" stroke-opacity="0" fill="#fff"/><g><use xlink:href="#l" transform="matrix(1,0,0,1,2095.730603793627,1832.005383544889) translate(5.986328125000014 25.564453124999993)"/><use xlink:href="#j" transform="matrix(1,0,0,1,2095.730603793627,1832.005383544889) translate(102.001953125 25.564453124999993)"/><use xlink:href="#m" transform="matrix(1,0,0,1,2095.730603793627,1832.005383544889) translate(17.988281250000014 55.830078124999986)"/><use xlink:href="#n" transform="matrix(1,0,0,1,2095.730603793627,1832.005383544889) translate(126.005859375 55.830078124999986)"/><use xlink:href="#o" transform="matrix(1,0,0,1,2095.730603793627,1832.005383544889) translate(17.988281250000014 86.09570312499997)"/><use xlink:href="#p" transform="matrix(1,0,0,1,2095.730603793627,1832.005383544889) translate(53.99414062500001 116.36132812499997)"/></g><defs><path fill="#1d262b" d="M1104-516c1 337-164 537-496 536-322 0-483-180-483-540v-942h186v932c0 258 102 387 307 387 197 0 300-130 300-389v-932h186v948" id="q"/><path fill="#1d262b" d="M1026-301c0 225-197 321-448 321-165 0-290-23-375-69v-166c129 57 252 86 370 86 183 0 275-54 275-162 0-38-16-71-49-99s-108-63-226-106c-156-57-253-112-293-160s-61-105-61-171c2-338 524-340 789-217l-60 149c-121-48-228-72-319-72-157 0-236 44-236 133 0 41 17 74 51 98s111 57 232 101c141 51 234 101 280 151s70 111 70 183" id="r"/><path fill="#1d262b" d="M631-1118c283 0 470 204 465 491v113H322c5 250 120 375 344 375 130 0 253-25 370-76v160C925-5 804 20 672 20c-329 0-539-224-539-561 0-331 182-577 498-577zM326-662h573c0-203-91-305-272-305-183 0-284 102-301 305" id="s"/><g id="d"><use transform="matrix(0.013129340277777775,0,0,0.013129340277777775,0,0)" xlink:href="#q"/><use transform="matrix(0.013129340277777775,0,0,0.013129340277777775,16.135959201388886,0)" xlink:href="#r"/><use transform="matrix(0.013129340277777775,0,0,0.013129340277777775,32.27191840277777,0)" xlink:href="#s"/></g><path fill="#1d262b" d="M326-731c0 353 139 584 471 588 87 0 196-19 327-58v162c-97 39-217 59-358 59-433-1-637-301-637-753 0-438 243-750 668-750 147 0 274 29 383 86l-78 156c-103-52-204-78-305-78-307 1-471 259-471 588" id="t"/><path fill="#1d262b" d="M596-1118c288 2 430 92 430 366V0H895l-37-152h-8C752-34 680 17 483 20 272 23 135-98 135-307c0-221 170-337 510-348l203-7c15-197-55-305-244-305-98 0-207 27-328 82l-63-137c131-64 258-96 383-96zm-72 991c194 0 325-116 322-311v-99c-251 15-522-6-522 232 0 119 67 178 200 178" id="u"/><g id="e"><use transform="matrix(0.013129340277777775,0,0,0.013129340277777775,0,0)" xlink:href="#t"/><use transform="matrix(0.013129340277777775,0,0,0.013129340277777775,16.135959201388886,0)" xlink:href="#u"/><use transform="matrix(0.013129340277777775,0,0,0.013129340277777775,32.27191840277777,0)" xlink:href="#r"/><use transform="matrix(0.013129340277777775,0,0,0.013129340277777775,48.40787760416666,0)" xlink:href="#s"/><use transform="matrix(0.013129340277777775,0,0,0.013129340277777775,64.54383680555554,0)" xlink:href="#r"/></g><path fill="#1d262b" d="M430 0H244v-1462h841v164H430v516h617v164H430V0" id="v"/><path fill="#1d262b" d="M172-543c0-365 197-575 553-575 119 0 231 20 336 59l-62 158c-100-38-189-57-268-57-247 0-371 138-371 413 0 271 120 406 361 406 105 0 212-21 321-62v160C953 0 843 20 713 20c-347 1-541-210-541-563" id="w"/><path fill="#1d262b" d="M739-1436c0 71-43 115-106 115-71 0-107-38-107-115 0-76 36-114 107-114s106 38 106 114zM541-954l-269-21v-123h451v955l352 20V0H197v-123l344-20v-811" id="x"/><path fill="#1d262b" d="M532-1413l-268-21v-122h451v1413l352 20V0H188v-123l344-20v-1270" id="y"/><path fill="#1d262b" d="M1020-150v138C933 9 849 20 768 20 527 20 406-95 406-324v-637H139v-94l267-49 77-287h105v293h438v137H588v637c0 130 64 195 192 195 62 0 142-7 240-21" id="z"/><g id="f"><use transform="matrix(0.009765624999999997,0,0,0.009765624999999997,0,0)" xlink:href="#v"/><use transform="matrix(0.009765624999999997,0,0,0.009765624999999997,12.001953124999996,0)" xlink:href="#u"/><use transform="matrix(0.009765624999999997,0,0,0.009765624999999997,24.003906249999993,0)" xlink:href="#w"/><use transform="matrix(0.009765624999999997,0,0,0.009765624999999997,36.005859374999986,0)" xlink:href="#x"/><use transform="matrix(0.009765624999999997,0,0,0.009765624999999997,48.007812499999986,0)" xlink:href="#y"/><use transform="matrix(0.009765624999999997,0,0,0.009765624999999997,60.009765624999986,0)" xlink:href="#x"/><use transform="matrix(0.009765624999999997,0,0,0.009765624999999997,72.01171874999999,0)" xlink:href="#z"/><use transform="matrix(0.009765624999999997,0,0,0.009765624999999997,84.01367187499999,0)" xlink:href="#u"/><use transform="matrix(0.009765624999999997,0,0,0.009765624999999997,96.01562499999999,0)" xlink:href="#z"/><use transform="matrix(0.009765624999999997,0,0,0.009765624999999997,108.01757812499999,0)" xlink:href="#s"/></g><path fill="#1d262b" d="M1092-551c0 322-136 571-430 571-138 0-245-53-322-159h-12c24 220 7 402 12 631H158v-1590h147l27 148h8c73-112 181-168 322-168 294 0 430 246 430 567zM629-967c-241 0-288 156-289 416 0 151 24 259 70 323s120 97 221 97c181 0 272-141 272-422 0-276-91-414-274-414" id="A"/><path fill="#1d262b" d="M1112-551c0 331-186 571-502 571-301 0-495-251-495-571 0-330 184-567 501-567 302 0 496 249 496 567zM614-131c207 0 310-140 310-420 0-277-104-416-312-416-206 0-309 139-309 416 0 280 104 420 311 420" id="B"/><path fill="#1d262b" d="M887 0v-707c0-173-79-260-238-260-205 0-307 133-307 398V0H160v-1098h147l27 148h10c69-112 181-168 336-168 259 0 389 134 389 401V0H887" id="C"/><g id="g"><use transform="matrix(0.009765624999999997,0,0,0.009765624999999997,0,0)" xlink:href="#u"/><use transform="matrix(0.009765624999999997,0,0,0.009765624999999997,12.001953124999996,0)" xlink:href="#A"/><use transform="matrix(0.009765624999999997,0,0,0.009765624999999997,24.003906249999993,0)" xlink:href="#A"/><use transform="matrix(0.009765624999999997,0,0,0.009765624999999997,36.005859374999986,0)" xlink:href="#y"/><use transform="matrix(0.009765624999999997,0,0,0.009765624999999997,48.007812499999986,0)" xlink:href="#x"/><use transform="matrix(0.009765624999999997,0,0,0.009765624999999997,60.009765624999986,0)" xlink:href="#w"/><use transform="matrix(0.009765624999999997,0,0,0.009765624999999997,72.01171874999999,0)" xlink:href="#u"/><use transform="matrix(0.009765624999999997,0,0,0.009765624999999997,84.01367187499999,0)" xlink:href="#z"/><use transform="matrix(0.009765624999999997,0,0,0.009765624999999997,96.01562499999999,0)" xlink:href="#x"/><use transform="matrix(0.009765624999999997,0,0,0.009765624999999997,108.01757812499999,0)" xlink:href="#B"/><use transform="matrix(0.009765624999999997,0,0,0.009765624999999997,120.01953124999999,0)" xlink:href="#C"/></g><path fill="#1d262b" d="M137-547c0-322 136-571 430-571 137 0 245 53 322 160h12c-24-215-7-376-12-598h182V0H924l-27-147h-8C814-36 706 20 567 20c-294 0-430-246-430-567zm463 416c241 0 288-157 289-416 0-151-23-259-69-323s-121-97-222-97c-181 0-272 141-272 422 0 276 91 414 274 414" id="D"/><path fill="#1d262b" d="M498 0L82-1098h188l240 652c57 154 90 262 100 325h6c67-256 244-708 340-977h189L729 0H498" id="E"/><path fill="#1d262b" d="M977 0v-707c0-97-9-165-27-203s-47-57-88-57c-58 0-100 28-126 83s-40 148-40 278V0H535v-707c0-173-42-260-125-260-56 0-96 26-120 79s-36 160-36 319V0H92v-1098h127l27 148h10c45-112 112-168 201-168 109 0 180 61 213 182h6c51-121 124-182 219-182 85 0 147 30 186 92s58 165 58 309V0H977" id="F"/><g id="h"><use transform="matrix(0.009765624999999997,0,0,0.009765624999999997,0,0)" xlink:href="#D"/><use transform="matrix(0.009765624999999997,0,0,0.009765624999999997,12.001953124999996,0)" xlink:href="#s"/><use transform="matrix(0.009765624999999997,0,0,0.009765624999999997,24.003906249999993,0)" xlink:href="#E"/><use transform="matrix(0.009765624999999997,0,0,0.009765624999999997,36.005859374999986,0)" xlink:href="#s"/><use transform="matrix(0.009765624999999997,0,0,0.009765624999999997,48.007812499999986,0)" xlink:href="#y"/><use transform="matrix(0.009765624999999997,0,0,0.009765624999999997,60.009765624999986,0)" xlink:href="#B"/><use transform="matrix(0.009765624999999997,0,0,0.009765624999999997,72.01171874999999,0)" xlink:href="#A"/><use transform="matrix(0.009765624999999997,0,0,0.009765624999999997,84.01367187499999,0)" xlink:href="#F"/><use transform="matrix(0.009765624999999997,0,0,0.009765624999999997,96.01562499999999,0)" xlink:href="#s"/><use transform="matrix(0.009765624999999997,0,0,0.009765624999999997,108.01757812499999,0)" xlink:href="#C"/><use transform="matrix(0.009765624999999997,0,0,0.009765624999999997,120.01953124999999,0)" xlink:href="#z"/></g><path fill="#1d262b" d="M1004 0L860-453H369L223 0H33l483-1468h195L1196 0h-192zM807-618c-63-210-144-435-195-650-51 232-127 431-190 650h385" id="G"/><path fill="#1d262b" d="M442-897c93-139 173-221 377-221 79 0 159 15 240 45l-49 166c-82-30-157-45-224-45-221 0-340 134-340 360V0H264v-1098h148l22 201h8" id="H"/><g id="i"><use transform="matrix(0.009765624999999997,0,0,0.009765624999999997,0,0)" xlink:href="#G"/><use transform="matrix(0.009765624999999997,0,0,0.009765624999999997,12.001953124999996,0)" xlink:href="#D"/><use transform="matrix(0.009765624999999997,0,0,0.009765624999999997,24.003906249999993,0)" xlink:href="#F"/><use transform="matrix(0.009765624999999997,0,0,0.009765624999999997,36.005859374999986,0)" xlink:href="#x"/><use transform="matrix(0.009765624999999997,0,0,0.009765624999999997,48.007812499999986,0)" xlink:href="#C"/><use transform="matrix(0.009765624999999997,0,0,0.009765624999999997,60.009765624999986,0)" xlink:href="#x"/><use transform="matrix(0.009765624999999997,0,0,0.009765624999999997,72.01171874999999,0)" xlink:href="#r"/><use transform="matrix(0.009765624999999997,0,0,0.009765624999999997,84.01367187499999,0)" xlink:href="#z"/><use transform="matrix(0.009765624999999997,0,0,0.009765624999999997,96.01562499999999,0)" xlink:href="#s"/><use transform="matrix(0.009765624999999997,0,0,0.009765624999999997,108.01757812499999,0)" xlink:href="#H"/></g><path fill="#1d262b" d="M1094-1034c0 310-213 470-541 465H362V0H176v-1462h404c343 0 514 143 514 428zM532-727c244-1 369-71 369-297 0-186-113-279-338-279H362v576h170" id="I"/><path fill="#1d262b" d="M578-131c239 0 309-137 309-397v-570h182V0H922l-27-147h-10C815-36 704 20 551 20c-261 0-391-134-391-401v-717h182v707c0 173 79 260 236 260" id="J"/><g id="j"><use transform="matrix(0.009765624999999997,0,0,0.009765624999999997,0,0)" xlink:href="#I"/><use transform="matrix(0.009765624999999997,0,0,0.009765624999999997,12.001953124999996,0)" xlink:href="#J"/><use transform="matrix(0.009765624999999997,0,0,0.009765624999999997,24.003906249999993,0)" xlink:href="#y"/><use transform="matrix(0.009765624999999997,0,0,0.009765624999999997,36.005859374999986,0)" xlink:href="#r"/><use transform="matrix(0.009765624999999997,0,0,0.009765624999999997,48.007812499999986,0)" xlink:href="#u"/><use transform="matrix(0.009765624999999997,0,0,0.009765624999999997,60.009765624999986,0)" xlink:href="#H"/></g><g id="k"><use transform="matrix(0.009765624999999997,0,0,0.009765624999999997,0,0)" xlink:href="#x"/><use transform="matrix(0.009765624999999997,0,0,0.009765624999999997,12.001953124999996,0)" xlink:href="#C"/><use transform="matrix(0.009765624999999997,0,0,0.009765624999999997,24.003906249999993,0)" xlink:href="#r"/><use transform="matrix(0.009765624999999997,0,0,0.009765624999999997,36.005859374999986,0)" xlink:href="#z"/><use transform="matrix(0.009765624999999997,0,0,0.009765624999999997,48.007812499999986,0)" xlink:href="#u"/><use transform="matrix(0.009765624999999997,0,0,0.009765624999999997,60.009765624999986,0)" xlink:href="#C"/><use transform="matrix(0.009765624999999997,0,0,0.009765624999999997,72.01171874999999,0)" xlink:href="#w"/><use transform="matrix(0.009765624999999997,0,0,0.009765624999999997,84.01367187499999,0)" xlink:href="#s"/><use transform="matrix(0.009765624999999997,0,0,0.009765624999999997,96.01562499999999,0)" xlink:href="#r"/></g><path fill="#1d262b" d="M532 0L254-1280h-8c34 456 12 817 18 1280H113v-1462h247L608-270h6l250-1192h252V0H963c5-467-12-807 14-1278h-8L686 0H532" id="K"/><g id="l"><use transform="matrix(0.009765624999999997,0,0,0.009765624999999997,0,0)" xlink:href="#K"/><use transform="matrix(0.009765624999999997,0,0,0.009765624999999997,12.001953124999996,0)" xlink:href="#B"/><use transform="matrix(0.009765624999999997,0,0,0.009765624999999997,24.003906249999993,0)" xlink:href="#C"/><use transform="matrix(0.009765624999999997,0,0,0.009765624999999997,36.005859374999986,0)" xlink:href="#x"/><use transform="matrix(0.009765624999999997,0,0,0.009765624999999997,48.007812499999986,0)" xlink:href="#z"/><use transform="matrix(0.009765624999999997,0,0,0.009765624999999997,60.009765624999986,0)" xlink:href="#B"/><use transform="matrix(0.009765624999999997,0,0,0.009765624999999997,72.01171874999999,0)" xlink:href="#H"/></g><g id="m"><use transform="matrix(0.009765624999999997,0,0,0.009765624999999997,0,0)" xlink:href="#w"/><use transform="matrix(0.009765624999999997,0,0,0.009765624999999997,12.001953124999996,0)" xlink:href="#y"/><use transform="matrix(0.009765624999999997,0,0,0.009765624999999997,24.003906249999993,0)" xlink:href="#J"/><use transform="matrix(0.009765624999999997,0,0,0.009765624999999997,36.005859374999986,0)" xlink:href="#r"/><use transform="matrix(0.009765624999999997,0,0,0.009765624999999997,48.007812499999986,0)" xlink:href="#z"/><use transform="matrix(0.009765624999999997,0,0,0.009765624999999997,60.009765624999986,0)" xlink:href="#s"/><use transform="matrix(0.009765624999999997,0,0,0.009765624999999997,72.01171874999999,0)" xlink:href="#H"/><use transform="matrix(0.009765624999999997,0,0,0.009765624999999997,84.01367187499999,0)" xlink:href="#r"/></g><g id="n"><use transform="matrix(0.009765624999999997,0,0,0.009765624999999997,0,0)" xlink:href="#u"/><use transform="matrix(0.009765624999999997,0,0,0.009765624999999997,12.001953124999996,0)" xlink:href="#C"/><use transform="matrix(0.009765624999999997,0,0,0.009765624999999997,24.003906249999993,0)" xlink:href="#D"/></g><path fill="#1d262b" d="M1092-551c0 322-136 571-430 571-138 0-245-53-322-159h-12L291 0H158v-1556h182c-2 221 6 379-8 602h8c71-109 179-164 322-164 294 0 430 246 430 567zM629-967c-241 0-289 146-289 416 0 151 24 259 70 323s120 97 221 97c181 0 272-141 272-422 0-276-91-414-274-414" id="L"/><path fill="#1d262b" d="M887 0v-707c0-173-79-260-238-260-205 0-307 133-307 398V0H160v-1556h182c-2 202 6 416-8 606h10c69-112 181-168 336-168 259 0 389 134 389 401V0H887" id="M"/><g id="o"><use transform="matrix(0.009765624999999997,0,0,0.009765624999999997,0,0)" xlink:href="#z"/><use transform="matrix(0.009765624999999997,0,0,0.009765624999999997,12.001953124999996,0)" xlink:href="#H"/><use transform="matrix(0.009765624999999997,0,0,0.009765624999999997,24.003906249999993,0)" xlink:href="#B"/><use transform="matrix(0.009765624999999997,0,0,0.009765624999999997,36.005859374999986,0)" xlink:href="#J"/><use transform="matrix(0.009765624999999997,0,0,0.009765624999999997,48.007812499999986,0)" xlink:href="#L"/><use transform="matrix(0.009765624999999997,0,0,0.009765624999999997,60.009765624999986,0)" xlink:href="#y"/><use transform="matrix(0.009765624999999997,0,0,0.009765624999999997,72.01171874999999,0)" xlink:href="#s"/><use transform="matrix(0.009765624999999997,0,0,0.009765624999999997,84.01367187499999,0)" xlink:href="#r"/><use transform="matrix(0.009765624999999997,0,0,0.009765624999999997,96.01562499999999,0)" xlink:href="#M"/><use transform="matrix(0.009765624999999997,0,0,0.009765624999999997,108.01757812499999,0)" xlink:href="#B"/><use transform="matrix(0.009765624999999997,0,0,0.009765624999999997,120.01953124999999,0)" xlink:href="#B"/><use transform="matrix(0.009765624999999997,0,0,0.009765624999999997,132.02148437499997,0)" xlink:href="#z"/></g><g id="p"><use transform="matrix(0.009765624999999997,0,0,0.009765624999999997,0,0)" xlink:href="#x"/><use transform="matrix(0.009765624999999997,0,0,0.009765624999999997,12.001953124999996,0)" xlink:href="#r"/><use transform="matrix(0.009765624999999997,0,0,0.009765624999999997,24.003906249999993,0)" xlink:href="#r"/><use transform="matrix(0.009765624999999997,0,0,0.009765624999999997,36.005859374999986,0)" xlink:href="#J"/><use transform="matrix(0.009765624999999997,0,0,0.009765624999999997,48.007812499999986,0)" xlink:href="#s"/><use transform="matrix(0.009765624999999997,0,0,0.009765624999999997,60.009765624999986,0)" xlink:href="#r"/></g></defs></g></svg>