<?xml version="1.0" encoding="UTF-8" standalone="no"?>
<!DOCTYPE svg PUBLIC "-//W3C//DTD SVG 1.1//EN" "http://www.w3.org/Graphics/SVG/1.1/DTD/svg11.dtd">
<svg xmlns:dc="http://purl.org/dc/elements/1.1/" xmlns="http://www.w3.org/2000/svg" version="1.1" xmlns:xl="http://www.w3.org/1999/xlink" viewBox="-377 761 1e3 450" width="1000" height="450">
  <defs>
    <marker orient="auto" overflow="visible" markerUnits="strokeWidth" id="DimensionArrow_Marker" stroke-linejoin="miter" stroke-miterlimit="10" viewBox="-1 -5 8 10" markerWidth="8" markerHeight="10" color="black">
      <g>
        <path d="M 0 0 L 5.866667 0 M 5.866667 3.6666667 L 5.866667 -3.6666667 M 0 1.4666667 L 5.1333333 0 L 0 -1.4666667" fill="none" stroke="currentColor" stroke-width="1"/>
      </g>
    </marker>
    <marker orient="auto" overflow="visible" markerUnits="strokeWidth" id="DimensionArrow_Marker_2" stroke-linejoin="miter" stroke-miterlimit="10" viewBox="-7 -5 8 10" markerWidth="8" markerHeight="10" color="black">
      <g>
        <path d="M 0 0 L -5.866667 0 M -5.866667 -3.6666667 L -5.866667 3.6666667 M 0 -1.4666667 L -5.1333333 0 L 0 1.4666667" fill="none" stroke="currentColor" stroke-width="1"/>
      </g>
    </marker>
    <marker orient="auto" overflow="visible" markerUnits="strokeWidth" id="FilledArrow_Marker" stroke-linejoin="miter" stroke-miterlimit="10" viewBox="-1 -4 8 8" markerWidth="8" markerHeight="8" color="black">
      <g>
        <path d="M 5.866667 0 L 0 -2.2 L 0 2.2 Z" fill="currentColor" stroke="currentColor" stroke-width="1"/>
      </g>
    </marker>
    <marker orient="auto" overflow="visible" markerUnits="strokeWidth" id="DimensionArrow_Marker_3" stroke-linejoin="miter" stroke-miterlimit="10" viewBox="-1 -5 8 10" markerWidth="8" markerHeight="10" color="#b34400">
      <g>
        <path d="M 0 0 L 5.866667 0 M 5.866667 3.6666667 L 5.866667 -3.6666667 M 0 1.4666667 L 5.1333333 0 L 0 -1.4666667" fill="none" stroke="currentColor" stroke-width="1"/>
      </g>
    </marker>
    <marker orient="auto" overflow="visible" markerUnits="strokeWidth" id="DimensionArrow_Marker_4" stroke-linejoin="miter" stroke-miterlimit="10" viewBox="-7 -5 8 10" markerWidth="8" markerHeight="10" color="#b34400">
      <g>
        <path d="M 0 0 L -5.866667 0 M -5.866667 -3.6666667 L -5.866667 3.6666667 M 0 -1.4666667 L -5.1333333 0 L 0 1.4666667" fill="none" stroke="currentColor" stroke-width="1"/>
      </g>
    </marker>
  </defs>
  <g id="Canvas_8" fill="none" stroke-opacity="1" fill-opacity="1" stroke="none" stroke-dasharray="none">
    <title>Canvas 8</title>
    <rect fill="white" x="-377" y="761" width="1e3" height="450"/>
    <g id="Canvas_8_Layer_1">
      <title>Layer 1</title>
      <g id="Graphic_34">
        <rect x="521.546" y="965.9462" width="45" height="57.552" fill="#d3e3fd"/>
        <rect x="521.546" y="965.9462" width="45" height="57.552" stroke="black" stroke-linecap="round" stroke-linejoin="round" stroke-width="1.5"/>
        <text transform="translate(526.546 985.4982)" fill="black">
          <tspan font-family="Helvetica Neue" font-size="16" fill="black" x="13.052" y="15">0</tspan>
        </text>
      </g>
      <g id="Graphic_33">
        <rect x="476.546" y="965.9462" width="45" height="57.552" fill="#d3e3fd"/>
        <rect x="476.546" y="965.9462" width="45" height="57.552" stroke="black" stroke-linecap="round" stroke-linejoin="round" stroke-width="1.5"/>
        <text transform="translate(481.546 985.4982)" fill="black">
          <tspan font-family="Helvetica Neue" font-size="16" fill="black" x="13.052" y="15">1</tspan>
        </text>
      </g>
      <g id="Graphic_32">
        <rect x="431.546" y="965.9462" width="45" height="57.552" fill="#d3e3fd"/>
        <rect x="431.546" y="965.9462" width="45" height="57.552" stroke="black" stroke-linecap="round" stroke-linejoin="round" stroke-width="1.5"/>
        <text transform="translate(436.546 985.4982)" fill="black">
          <tspan font-family="Helvetica Neue" font-size="16" fill="black" x="13.052" y="15">2</tspan>
        </text>
      </g>
      <g id="Graphic_31">
        <rect x="386.546" y="965.9462" width="45" height="57.552" fill="#d3e3fd"/>
        <rect x="386.546" y="965.9462" width="45" height="57.552" stroke="black" stroke-linecap="round" stroke-linejoin="round" stroke-width="1.5"/>
        <text transform="translate(391.546 985.4982)" fill="black">
          <tspan font-family="Helvetica Neue" font-size="16" fill="black" x="13.052" y="15">3</tspan>
        </text>
      </g>
      <g id="Graphic_30">
        <rect x="341.546" y="965.9462" width="45" height="57.552" fill="#d3e3fd"/>
        <rect x="341.546" y="965.9462" width="45" height="57.552" stroke="black" stroke-linecap="round" stroke-linejoin="round" stroke-width="1.5"/>
        <text transform="translate(346.546 985.4982)" fill="black">
          <tspan font-family="Helvetica Neue" font-size="16" fill="black" x="13.052" y="15">4</tspan>
        </text>
      </g>
      <g id="Graphic_29">
        <rect x="296.546" y="965.9462" width="45" height="57.552" fill="#1790ff"/>
        <rect x="296.546" y="965.9462" width="45" height="57.552" stroke="black" stroke-linecap="round" stroke-linejoin="round" stroke-width="1"/>
        <text transform="translate(301.546 985.4982)" fill="black">
          <tspan font-family="Helvetica Neue" font-size="16" fill="black" x="13.052" y="15">5</tspan>
        </text>
      </g>
      <g id="Graphic_28">
        <rect x="251.296" y="965.9462" width="45" height="57.552" fill="#1790ff"/>
        <rect x="251.296" y="965.9462" width="45" height="57.552" stroke="black" stroke-linecap="round" stroke-linejoin="round" stroke-width="1.5"/>
        <text transform="translate(256.296 985.4982)" fill="black">
          <tspan font-family="Helvetica Neue" font-size="16" fill="black" x="13.052" y="15">6</tspan>
        </text>
      </g>
      <g id="Graphic_27">
        <rect x="206.296" y="965.9462" width="45" height="57.552" fill="#1790ff"/>
        <rect x="206.296" y="965.9462" width="45" height="57.552" stroke="black" stroke-linecap="round" stroke-linejoin="round" stroke-width="1.5"/>
        <text transform="translate(211.296 985.4982)" fill="black">
          <tspan font-family="Helvetica Neue" font-size="16" fill="black" x="13.052" y="15">7</tspan>
        </text>
      </g>
      <g id="Graphic_26">
        <rect x="161.296" y="965.9462" width="45" height="57.552" fill="#1790ff"/>
        <rect x="161.296" y="965.9462" width="45" height="57.552" stroke="black" stroke-linecap="round" stroke-linejoin="round" stroke-width="1.5"/>
        <text transform="translate(166.296 985.4982)" fill="black">
          <tspan font-family="Helvetica Neue" font-size="16" fill="black" x="13.052" y="15">8</tspan>
        </text>
      </g>
      <g id="Graphic_25">
        <rect x="116.296" y="965.9462" width="45" height="57.552" fill="white"/>
        <rect x="116.296" y="965.9462" width="45" height="57.552" stroke="black" stroke-linecap="round" stroke-linejoin="round" stroke-width="1.5"/>
        <text transform="translate(121.296 985.4982)" fill="black">
          <tspan font-family="Helvetica Neue" font-size="16" fill="black" x="13.052" y="15">9</tspan>
        </text>
      </g>
      <g id="Graphic_24">
        <rect x="71.296" y="965.9462" width="45" height="57.552" fill="white"/>
        <rect x="71.296" y="965.9462" width="45" height="57.552" stroke="black" stroke-linecap="round" stroke-linejoin="round" stroke-width="1.5"/>
        <text transform="translate(76.296 985.4982)" fill="black">
          <tspan font-family="Helvetica Neue" font-size="16" fill="black" x="8.604" y="15">10</tspan>
        </text>
      </g>
      <g id="Graphic_23">
        <rect x="26.296" y="965.9462" width="45" height="57.552" fill="white"/>
        <rect x="26.296" y="965.9462" width="45" height="57.552" stroke="black" stroke-linecap="round" stroke-linejoin="round" stroke-width="1.5"/>
        <text transform="translate(31.296 985.4982)" fill="black">
          <tspan font-family="Helvetica Neue" font-size="16" fill="black" x="8.604" y="15">11</tspan>
        </text>
      </g>
      <g id="Graphic_22">
        <rect x="-18.704" y="965.9462" width="45" height="57.552" fill="white"/>
        <rect x="-18.704" y="965.9462" width="45" height="57.552" stroke="black" stroke-linecap="round" stroke-linejoin="round" stroke-width="1.5"/>
        <text transform="translate(-13.704 985.4982)" fill="black">
          <tspan font-family="Helvetica Neue" font-size="16" fill="black" x="8.604" y="15">12</tspan>
        </text>
      </g>
      <g id="Graphic_21">
        <rect x="-63.954" y="965.9462" width="45" height="57.552" fill="white"/>
        <rect x="-63.954" y="965.9462" width="45" height="57.552" stroke="black" stroke-linecap="round" stroke-linejoin="round" stroke-width="1.5"/>
        <text transform="translate(-58.954 985.4982)" fill="black">
          <tspan font-family="Helvetica Neue" font-size="16" fill="black" x="8.604" y="15">13</tspan>
        </text>
      </g>
      <g id="Graphic_20">
        <rect x="-108.954" y="965.9462" width="45" height="57.552" fill="white"/>
        <rect x="-108.954" y="965.9462" width="45" height="57.552" stroke="black" stroke-linecap="round" stroke-linejoin="round" stroke-width="1.5"/>
        <text transform="translate(-103.954 985.4982)" fill="black">
          <tspan font-family="Helvetica Neue" font-size="16" fill="black" x="8.604" y="15">14</tspan>
        </text>
      </g>
      <g id="Line_19">
        <line x1="-100.1541" y1="941.9026" x2="152.24173" y2="943.1252" marker-end="url(#DimensionArrow_Marker)" marker-start="url(#DimensionArrow_Marker_2)" stroke="black" stroke-linecap="round" stroke-linejoin="round" stroke-width="1.5"/>
      </g>
      <g id="Graphic_18">
        <rect x="-51.087277" y="920.0837" width="150.025" height="44.839996" fill="white"/>
        <text transform="translate(-46.08728 925.0837)" fill="black">
          <tspan font-family="Helvetica Neue" font-size="15" fill="black" x="42.6525" y="14">Backlog</tspan>
          <tspan font-family="Helvetica Neue" font-size="15" fill="black" x="73896445e-20" y="31.42">(Unacked messages)</tspan>
        </text>
      </g>
      <g id="Line_17">
        <line x1="169.84161" y1="943.1499" x2="557.746" y2="942.3585" marker-end="url(#DimensionArrow_Marker)" marker-start="url(#DimensionArrow_Marker_2)" stroke="black" stroke-linecap="round" stroke-linejoin="round" stroke-width="1.5"/>
      </g>
      <g id="Graphic_16">
        <rect x="306.05698" y="929.0506" width="109.195" height="27.419998" fill="white"/>
        <text transform="translate(311.05698 934.0506)" fill="black">
          <tspan font-family="Helvetica Neue" font-size="15" fill="black" x="0" y="14">Ackd message</tspan>
        </text>
      </g>
      <g id="Line_15">
        <line x1="160.09966" y1="870.052" x2="161.14914" y2="951.513" marker-end="url(#FilledArrow_Marker)" stroke="black" stroke-linecap="round" stroke-linejoin="round" stroke-width="1.5"/>
      </g>
      <g id="Graphic_14">
        <path d="M 109.571 823.912 L 210.021 823.912 C 221.9028 823.912 231.546 834.0234 231.546 846.482 C 231.546 858.9406 221.9028 869.052 210.021 869.052 L 109.571 869.052 C 97.6892 869.052 88.046 858.9406 88.046 846.482 C 88.046 834.0234 97.6892 823.912 109.571 823.912 Z" fill="white"/>
        <path d="M 109.571 823.912 L 210.021 823.912 C 221.9028 823.912 231.546 834.0234 231.546 846.482 C 231.546 858.9406 221.9028 869.052 210.021 869.052 L 109.571 869.052 C 97.6892 869.052 88.046 858.9406 88.046 846.482 C 88.046 834.0234 97.6892 823.912 109.571 823.912 Z" stroke="black" stroke-linecap="round" stroke-linejoin="round" stroke-width="2"/>
        <text transform="translate(107.396 840.342)" fill="black">
          <tspan font-family="Helvetica Neue" font-size="10" fill="black" x="24.245002" y="10">Subsctiption</tspan>
        </text>
      </g>
      <g id="Line_13">
        <line x1="-100.15401" y1="1042.9232" x2="333.154" y2="1043.4723" marker-end="url(#DimensionArrow_Marker_3)" marker-start="url(#DimensionArrow_Marker_4)" stroke="#b34400" stroke-linecap="round" stroke-linejoin="round" stroke-width="1.5"/>
      </g>
      <g id="Graphic_12">
        <rect x="56.151844" y="1029.4832" width="113.62" height="27.419998" fill="white"/>
        <text transform="translate(61.151845 1034.4832)" fill="#b34400">
          <tspan font-family="Helvetica Neue" font-size="15" fill="#b34400" x="0" y="14">Retained policy</tspan>
        </text>
      </g>
      <g id="Line_11">
        <line x1="350.75355" y1="1043.394" x2="558.15445" y2="1041.2871" marker-end="url(#DimensionArrow_Marker)" marker-start="url(#DimensionArrow_Marker_2)" stroke="black" stroke-linecap="round" stroke-linejoin="round" stroke-width="1.5"/>
      </g>
      <g id="Graphic_10">
        <rect x="365.7285" y="1028.6485" width="173.92" height="27.419998" fill="white"/>
        <text transform="translate(370.7285 1033.6485)" fill="black">
          <tspan font-family="Helvetica Neue" font-size="15" fill="black" x="0" y="14">Will be deleted message</tspan>
        </text>
      </g>
      <g id="Graphic_9">
        <path d="M -302.879 969.566 L -218.529 969.566 C -208.5516 969.566 -200.454 979.6774 -200.454 992.136 C -200.454 1004.5946 -208.5516 1014.706 -218.529 1014.706 L -302.879 1014.706 C -312.8564 1014.706 -320.954 1004.5946 -320.954 992.136 C -320.954 979.6774 -312.8564 969.566 -302.879 969.566 Z" fill="white"/>
        <path d="M -302.879 969.566 L -218.529 969.566 C -208.5516 969.566 -200.454 979.6774 -200.454 992.136 C -200.454 1004.5946 -208.5516 1014.706 -218.529 1014.706 L -302.879 1014.706 C -312.8564 1014.706 -320.954 1004.5946 -320.954 992.136 C -320.954 979.6774 -312.8564 969.566 -302.879 969.566 Z" stroke="black" stroke-linecap="round" stroke-linejoin="round" stroke-width="2"/>
        <text transform="translate(-303.904 982.912)" fill="black">
          <tspan font-family="Helvetica Neue" font-size="16" fill="black" x="10.456001" y="15">Producer</tspan>
        </text>
      </g>
      <g id="Graphic_8">
        <rect x="135.9605" y="894.4596" width="49.234" height="25.363998" fill="white"/>
        <text transform="translate(140.9605 899.4596)" fill="black">
          <tspan font-family="Helvetica Neue" font-size="13" fill="black" x="18829382e-20" y="12">Cursor</tspan>
        </text>
      </g>
      <g id="Graphic_7">
        <rect x="-171.454" y="1109.552" width="59.5" height="22.307999" fill="#1790ff"/>
        <rect x="-171.454" y="1109.552" width="59.5" height="22.307999" stroke="black" stroke-linecap="round" stroke-linejoin="round" stroke-width="1.5"/>
      </g>
      <g id="Graphic_6">
        <rect x="-171.454" y="1148.136" width="59.5" height="22" fill="#d3e3fd"/>
        <rect x="-171.454" y="1148.136" width="59.5" height="22" stroke="black" stroke-linecap="round" stroke-linejoin="round" stroke-width="1.5"/>
      </g>
      <g id="Graphic_5">
        <text transform="translate(-98.24224 1109.954)" fill="black">
          <tspan font-family="Helvetica Neue" font-size="16" fill="black" x="2.224" y="15">Acked messages within retention limit (not ready for deletion) </tspan>
        </text>
      </g>
      <g id="Graphic_4">
        <text transform="translate(-93.954 1149.912)" fill="black">
          <tspan font-family="Helvetica Neue" font-size="16" fill="black" x="0" y="15">Acked messages over retention limit (ready for deletion)</tspan>
        </text>
      </g>
      <g id="Graphic_3">
        <path d="M -177.454 998.966 L -177.454 985.306 L -153.63248 985.306 L -153.63248 977.912 L -132.454 992.136 L -153.63248 1006.36 L -153.63248 998.966 Z" fill="#666"/>
        <path d="M -177.454 998.966 L -177.454 985.306 L -153.63248 985.306 L -153.63248 977.912 L -132.454 992.136 L -153.63248 1006.36 L -153.63248 998.966 Z" stroke="black" stroke-linecap="round" stroke-linejoin="round" stroke-width="1"/>
      </g>
      <g id="Graphic_2">
        <rect x="-316.954" y="811.5" width="292.328" height="57.552" fill="white"/>
        <path d="M -316.954 811.5 L -24.626 811.5 L -24.626 869.052 L -316.954 869.052 Z" stroke="black" stroke-linecap="round" stroke-linejoin="round" stroke-dasharray="4.0,4.0" stroke-width="1"/>
        <text transform="translate(-311.954 821.8409)" fill="#3c4053">
          <tspan font-family="Helvetica Neue" font-weight="bold" font-size="15" fill="#3c4053" x="0" y="15">Assume a message is 1MB</tspan>
          <tspan font-family="Helvetica Neue" font-weight="bold" font-size="15" fill="#3c4053" x="0" y="33.435104">Retention Policy: {size: 10MB Time: 0}</tspan>
        </text>
      </g>
    </g>
  </g>
</svg>
