<svg width="373" height="128" viewBox="0 0 373 128" fill="none" xmlns="http://www.w3.org/2000/svg">
  <g clip-path="url(#clip0_368_767)">
    <circle cx="28" cy="28" r="28" fill="#1978BD"/>
    <rect width="32" height="32" transform="translate(12 12)" fill="white" fill-opacity="0.01"/>
    <path d="M18.828 35.7383C21.5369 34.2072 24.6664 33.3333 28 33.3333C31.3336 33.3333 34.4631 34.2072 37.172 35.7383M32 25.3333C32 27.5425 30.2091 29.3333 28 29.3333C25.7909 29.3333 24 27.5425 24 25.3333C24 23.1242 25.7909 21.3333 28 21.3333C30.2091 21.3333 32 23.1242 32 25.3333ZM40 28C40 34.6274 34.6274 40 28 40C21.3726 40 16 34.6274 16 28C16 21.3726 21.3726 16 28 16C34.6274 16 40 21.3726 40 28Z" stroke="#282826" stroke-width="2" stroke-linecap="round" stroke-linejoin="round"/>
    <circle cx="225" cy="28" r="28" fill="#FF8C4B"/>
    <rect width="32" height="32" transform="translate(209 12)" fill="white" fill-opacity="0.01"/>
    <path d="M215.828 35.7383C218.537 34.2072 221.666 33.3333 225 33.3333C228.334 33.3333 231.463 34.2072 234.172 35.7383M229 25.3333C229 27.5425 227.209 29.3333 225 29.3333C222.791 29.3333 221 27.5425 221 25.3333C221 23.1242 222.791 21.3333 225 21.3333C227.209 21.3333 229 23.1242 229 25.3333ZM237 28C237 34.6274 231.627 40 225 40C218.373 40 213 34.6274 213 28C213 21.3726 218.373 16 225 16C231.627 16 237 21.3726 237 28Z" stroke="#282826" stroke-width="2" stroke-linecap="round" stroke-linejoin="round"/>
    <path opacity="0.3" d="M28 100H169" stroke="#19BD82" stroke-width="56"/>
    <path opacity="0.3" d="M28 100L225 28" stroke="#FF8C4B" stroke-width="56"/>
    <path opacity="0.3" d="M28 100L28 28" stroke="#1978BD" stroke-width="56"/>
    <circle cx="28" cy="100" r="28" fill="#282826"/>
    <circle cx="169" cy="100" r="28" fill="#19BD82"/>
    <rect width="32" height="32" transform="translate(153 84)" fill="white" fill-opacity="0.01"/>
    <path d="M159.828 107.738C162.537 106.207 165.666 105.333 169 105.333C172.334 105.333 175.463 106.207 178.172 107.738M173 97.3333C173 99.5425 171.209 101.333 169 101.333C166.791 101.333 165 99.5425 165 97.3333C165 95.1242 166.791 93.3333 169 93.3333C171.209 93.3333 173 95.1242 173 97.3333ZM181 100C181 106.627 175.627 112 169 112C162.373 112 157 106.627 157 100C157 93.3726 162.373 88 169 88C175.627 88 181 93.3726 181 100Z" stroke="#282826" stroke-width="2" stroke-linecap="round" stroke-linejoin="round"/>
  </g>
</svg>
