<svg width="373" height="128" viewBox="0 0 373 128" fill="none" xmlns="http://www.w3.org/2000/svg">
  <g clip-path="url(#clip0_368_805)">
    <path d="M14.0002 72.0001H28.0002H56.0002V128H0.000228882V100V86.0001L14.0002 72.0001Z" fill="#1996BD"/>
    <path d="M26.0583 107.16C25.0556 107.16 24.1863 106.941 23.4503 106.504C22.7249 106.056 22.1596 105.427 21.7543 104.616C21.3596 103.805 21.1623 102.84 21.1623 101.72C21.1623 100.6 21.3703 99.6347 21.7863 98.8241C22.2129 98.0134 22.8049 97.3894 23.5623 96.9521C24.3196 96.5041 25.1889 96.2801 26.1703 96.2801C27.2156 96.2801 28.0636 96.4774 28.7143 96.8721C29.3756 97.2667 29.9089 97.8747 30.3143 98.6961L29.1463 99.3361C28.9116 98.7281 28.5383 98.2694 28.0263 97.9601C27.5249 97.6401 26.9063 97.4801 26.1703 97.4801C25.4556 97.4801 24.8209 97.6507 24.2663 97.9921C23.7223 98.3227 23.2903 98.8081 22.9703 99.4481C22.6609 100.077 22.5063 100.835 22.5063 101.72C22.5063 102.605 22.6396 103.368 22.9063 104.008C23.1836 104.637 23.5889 105.123 24.1223 105.464C24.6663 105.795 25.3276 105.96 26.1063 105.96C26.5436 105.96 26.9489 105.907 27.3223 105.8C27.7063 105.683 28.0369 105.512 28.3143 105.288C28.6023 105.064 28.8263 104.781 28.9863 104.44C29.1463 104.099 29.2263 103.699 29.2263 103.24V102.872H25.8663V101.672H30.3943V107H29.3863L29.3223 105.032L29.5943 105.08C29.3169 105.741 28.8796 106.253 28.2823 106.616C27.6849 106.979 26.9436 107.16 26.0583 107.16ZM36.1324 98.8401C36.8897 98.8401 37.5564 99.0054 38.1324 99.3361C38.7191 99.6667 39.1777 100.147 39.5084 100.776C39.8391 101.395 40.0044 102.136 40.0044 103C40.0044 103.864 39.8391 104.611 39.5084 105.24C39.1777 105.859 38.7191 106.333 38.1324 106.664C37.5564 106.995 36.8897 107.16 36.1324 107.16C35.3857 107.16 34.7191 106.995 34.1324 106.664C33.5457 106.333 33.0871 105.859 32.7564 105.24C32.4257 104.611 32.2604 103.864 32.2604 103C32.2604 102.136 32.4257 101.395 32.7564 100.776C33.0871 100.147 33.5457 99.6667 34.1324 99.3361C34.7191 99.0054 35.3857 98.8401 36.1324 98.8401ZM36.1324 99.9441C35.5884 99.9441 35.1244 100.067 34.7404 100.312C34.3564 100.557 34.0577 100.909 33.8444 101.368C33.6417 101.816 33.5404 102.36 33.5404 103C33.5404 103.629 33.6417 104.173 33.8444 104.632C34.0577 105.091 34.3564 105.443 34.7404 105.688C35.1244 105.933 35.5884 106.056 36.1324 106.056C36.6764 106.056 37.1404 105.933 37.5244 105.688C37.9084 105.443 38.2017 105.091 38.4044 104.632C38.6177 104.173 38.7244 103.629 38.7244 103C38.7244 102.36 38.6177 101.816 38.4044 101.368C38.2017 100.909 37.9084 100.557 37.5244 100.312C37.1404 100.067 36.6764 99.9441 36.1324 99.9441Z" fill="#282826"/>
    <path d="M14.0002 72.0001L0.000228882 86.0001H14.0002V72.0001Z" fill="#282826"/>
    <path d="M14.0002 0H28.0002H56.0002V56H0.000228882V28V14L14.0002 0Z" fill="#19BD82"/>
    <path d="M25.4196 38.296C25.1956 38.8933 24.8756 39.4107 24.4596 39.848C24.0436 40.2747 23.5529 40.6 22.9876 40.824C22.4329 41.048 21.8249 41.16 21.1636 41.16C20.1609 41.16 19.2916 40.9413 18.5556 40.504C17.8303 40.056 17.2649 39.4267 16.8596 38.616C16.4649 37.8053 16.2676 36.84 16.2676 35.72C16.2676 34.6 16.4649 33.6347 16.8596 32.824C17.2649 32.0133 17.8303 31.3893 18.5556 30.952C19.2916 30.504 20.1503 30.28 21.1316 30.28C21.8143 30.28 22.4223 30.376 22.9556 30.568C23.4889 30.7493 23.9423 31.0267 24.3156 31.4C24.6996 31.7627 25.0036 32.2107 25.2276 32.744L23.9636 33.336C23.7289 32.728 23.3876 32.2693 22.9396 31.96C22.5023 31.64 21.9316 31.48 21.2276 31.48C20.5129 31.48 19.8836 31.6507 19.3396 31.992C18.7956 32.3227 18.3689 32.8027 18.0596 33.432C17.7609 34.0613 17.6116 34.824 17.6116 35.72C17.6116 36.6053 17.7556 37.368 18.0436 38.008C18.3316 38.6373 18.7423 39.1227 19.2756 39.464C19.8089 39.7947 20.4383 39.96 21.1636 39.96C21.8676 39.96 22.4809 39.784 23.0036 39.432C23.5263 39.0693 23.9049 38.5307 24.1396 37.816L25.4196 38.296ZM31.2684 31.976V39.912H30.0684V31.976H31.2684ZM34.5484 35.336V36.536H26.7724V35.336H34.5484ZM40.6046 31.976V39.912H39.4046V31.976H40.6046ZM43.8846 35.336V36.536H36.1086V35.336H43.8846Z" fill="#282826"/>
    <path d="M14 0L0 14H14V0Z" fill="#282826"/>
    <path d="M86 72H100H128V128H72V100V86L86 72Z" fill="#FF8C4B"/>
    <path d="M93.0905 96.44V103.384C93.0905 104.568 92.7705 105.496 92.1305 106.168C91.5011 106.829 90.6264 107.16 89.5064 107.16C88.7171 107.16 88.0664 107.011 87.5544 106.712C87.0424 106.413 86.6851 105.992 86.4824 105.448C86.2904 104.893 86.2638 104.248 86.4024 103.512L87.5864 103.272C87.4691 104.179 87.5491 104.856 87.8264 105.304C88.1144 105.741 88.6584 105.96 89.4584 105.96C90.3651 105.96 90.9838 105.715 91.3144 105.224C91.6451 104.723 91.8105 104.003 91.8105 103.064V96.44H93.0905ZM100.272 101.832C100.272 101.235 100.112 100.776 99.7917 100.456C99.4717 100.125 99.0184 99.96 98.4317 99.96C97.877 99.96 97.4077 100.083 97.0237 100.328C96.6397 100.563 96.357 100.947 96.1757 101.48L95.1357 100.84C95.349 100.243 95.7437 99.7627 96.3197 99.4C96.8957 99.0267 97.6104 98.84 98.4637 98.84C99.0397 98.84 99.5624 98.9413 100.032 99.144C100.501 99.336 100.869 99.6347 101.136 100.04C101.413 100.435 101.552 100.947 101.552 101.576V105.448C101.552 105.832 101.754 106.024 102.16 106.024C102.362 106.024 102.56 105.997 102.752 105.944L102.688 106.952C102.474 107.059 102.197 107.112 101.856 107.112C101.546 107.112 101.269 107.053 101.024 106.936C100.778 106.819 100.586 106.643 100.448 106.408C100.309 106.163 100.24 105.859 100.24 105.496V105.336L100.56 105.384C100.432 105.8 100.213 106.141 99.9037 106.408C99.5944 106.664 99.2477 106.856 98.8637 106.984C98.4797 107.101 98.101 107.16 97.7277 107.16C97.2584 107.16 96.821 107.08 96.4157 106.92C96.0104 106.76 95.685 106.52 95.4397 106.2C95.205 105.869 95.0877 105.464 95.0877 104.984C95.0877 104.387 95.285 103.896 95.6797 103.512C96.085 103.117 96.645 102.851 97.3597 102.712L100.528 102.088V103.144L97.9517 103.672C97.429 103.779 97.0397 103.928 96.7837 104.12C96.5277 104.312 96.3997 104.579 96.3997 104.92C96.3997 105.251 96.5277 105.523 96.7837 105.736C97.0504 105.939 97.4237 106.04 97.9037 106.04C98.213 106.04 98.5064 106.003 98.7837 105.928C99.0717 105.843 99.3277 105.72 99.5517 105.56C99.7757 105.389 99.9517 105.181 100.08 104.936C100.208 104.68 100.272 104.381 100.272 104.04V101.832ZM109.373 99H110.717L107.389 107H106.109L102.781 99H104.237L106.765 105.704L109.373 99ZM116.538 101.832C116.538 101.235 116.378 100.776 116.058 100.456C115.738 100.125 115.285 99.96 114.698 99.96C114.143 99.96 113.674 100.083 113.29 100.328C112.906 100.563 112.623 100.947 112.442 101.48L111.402 100.84C111.615 100.243 112.01 99.7627 112.586 99.4C113.162 99.0267 113.877 98.84 114.73 98.84C115.306 98.84 115.829 98.9413 116.298 99.144C116.767 99.336 117.135 99.6347 117.402 100.04C117.679 100.435 117.818 100.947 117.818 101.576V105.448C117.818 105.832 118.021 106.024 118.426 106.024C118.629 106.024 118.826 105.997 119.018 105.944L118.954 106.952C118.741 107.059 118.463 107.112 118.122 107.112C117.813 107.112 117.535 107.053 117.29 106.936C117.045 106.819 116.853 106.643 116.714 106.408C116.575 106.163 116.506 105.859 116.506 105.496V105.336L116.826 105.384C116.698 105.8 116.479 106.141 116.17 106.408C115.861 106.664 115.514 106.856 115.13 106.984C114.746 107.101 114.367 107.16 113.994 107.16C113.525 107.16 113.087 107.08 112.682 106.92C112.277 106.76 111.951 106.52 111.706 106.2C111.471 105.869 111.354 105.464 111.354 104.984C111.354 104.387 111.551 103.896 111.946 103.512C112.351 103.117 112.911 102.851 113.626 102.712L116.794 102.088V103.144L114.218 103.672C113.695 103.779 113.306 103.928 113.05 104.12C112.794 104.312 112.666 104.579 112.666 104.92C112.666 105.251 112.794 105.523 113.05 105.736C113.317 105.939 113.69 106.04 114.17 106.04C114.479 106.04 114.773 106.003 115.05 105.928C115.338 105.843 115.594 105.72 115.818 105.56C116.042 105.389 116.218 105.181 116.346 104.936C116.474 104.68 116.538 104.381 116.538 104.04V101.832Z" fill="#282826"/>
    <path d="M86 72L72 86H86V72Z" fill="#282826"/>
    <path d="M86.0002 0H100H128V56H72.0002V28V14L86.0002 0Z" fill="#1978BD"/>
    <path d="M102.012 38.296C101.788 38.8933 101.468 39.4107 101.052 39.848C100.636 40.2747 100.145 40.6 99.5796 40.824C99.0249 41.048 98.4169 41.16 97.7556 41.16C96.7529 41.16 95.8836 40.9413 95.1476 40.504C94.4222 40.056 93.8569 39.4267 93.4516 38.616C93.0569 37.8053 92.8596 36.84 92.8596 35.72C92.8596 34.6 93.0569 33.6347 93.4516 32.824C93.8569 32.0133 94.4222 31.3893 95.1476 30.952C95.8836 30.504 96.7422 30.28 97.7236 30.28C98.4062 30.28 99.0142 30.376 99.5476 30.568C100.081 30.7493 100.534 31.0267 100.908 31.4C101.292 31.7627 101.596 32.2107 101.82 32.744L100.556 33.336C100.321 32.728 99.9796 32.2693 99.5316 31.96C99.0942 31.64 98.5236 31.48 97.8196 31.48C97.1049 31.48 96.4756 31.6507 95.9316 31.992C95.3876 32.3227 94.9609 32.8027 94.6516 33.432C94.3529 34.0613 94.2036 34.824 94.2036 35.72C94.2036 36.6053 94.3476 37.368 94.6356 38.008C94.9236 38.6373 95.3342 39.1227 95.8676 39.464C96.4009 39.7947 97.0302 39.96 97.7556 39.96C98.4596 39.96 99.0729 39.784 99.5956 39.432C100.118 39.0693 100.497 38.5307 100.732 37.816L102.012 38.296ZM110.82 30.44L109.06 41H107.972L109.732 30.44H110.82ZM111.62 37.064V38.04H102.74V37.064H111.62ZM107.076 30.44L105.316 41H104.228L105.988 30.44H107.076ZM112.324 33.384V34.36H103.444V33.384H112.324Z" fill="#282826"/>
    <path d="M86 0L72 14H86V0Z" fill="#282826"/>
  </g>
</svg>
