<svg width="373" height="128" viewBox="0 0 373 128" fill="none" xmlns="http://www.w3.org/2000/svg">
<rect y="72" width="294" height="56" rx="28" fill="#FF8C4B" fill-opacity="0.1"/>
<rect y="72" width="176" height="56" rx="28" fill="#FF8C4B" fill-opacity="0.3"/>
<rect y="72" width="83" height="56" rx="28" fill="#FF8C4B" fill-opacity="0.4"/>
<rect y="72" width="56" height="56" rx="28" fill="#282826"/>
<rect width="197" height="56" rx="28" fill="#FF8C4B" fill-opacity="0.1"/>
<rect width="151" height="56" rx="28" fill="#FF8C4B" fill-opacity="0.3"/>
<rect width="116" height="56" rx="28" fill="#FF8C4B" fill-opacity="0.4"/>
<rect width="56" height="56" rx="28" fill="#282826"/>
<rect width="32" height="32" transform="translate(11 84)" fill="white" fill-opacity="0.01"/>
<path d="M17.6667 100H36.3333M17.6667 100C16.1939 100 15 98.8061 15 97.3333V92C15 90.5273 16.1939 89.3333 17.6667 89.3333H36.3333C37.8061 89.3333 39 90.5273 39 92V97.3333C39 98.8061 37.8061 100 36.3333 100M17.6667 100C16.1939 100 15 101.194 15 102.667V108C15 109.473 16.1939 110.667 17.6667 110.667H36.3333C37.8061 110.667 39 109.473 39 108V102.667C39 101.194 37.8061 100 36.3333 100M33.6667 94.6667H33.68M33.6667 105.333H33.68" stroke="#F7F7F7" stroke-width="2" stroke-linecap="round" stroke-linejoin="round"/>
<rect width="32" height="32" transform="translate(11 12)" fill="white" fill-opacity="0.01"/>
<path d="M17.6667 28H36.3333M17.6667 28C16.1939 28 15 26.8061 15 25.3333V20C15 18.5273 16.1939 17.3333 17.6667 17.3333H36.3333C37.8061 17.3333 39 18.5273 39 20V25.3333C39 26.8061 37.8061 28 36.3333 28M17.6667 28C16.1939 28 15 29.1939 15 30.6667V36C15 37.4728 16.1939 38.6667 17.6667 38.6667H36.3333C37.8061 38.6667 39 37.4728 39 36V30.6667C39 29.1939 37.8061 28 36.3333 28M33.6667 22.6667H33.68M33.6667 33.3333H33.68" stroke="#F7F7F7" stroke-width="2" stroke-linecap="round" stroke-linejoin="round"/>
</svg>
