<svg width="373" height="128" viewBox="0 0 373 128" fill="none" xmlns="http://www.w3.org/2000/svg">
<circle cx="12.8" cy="89.6" r="12.8" fill="#1978BD"/>
<circle cx="38.4" cy="89.6" r="12.8" fill="#1978BD"/>
<circle opacity="0.5" cx="64" cy="89.6" r="12.8" fill="#1978BD"/>
<circle opacity="0.25" cx="89.6" cy="89.6" r="12.8" fill="#1978BD"/>
<circle opacity="0.05" cx="115.2" cy="89.6001" r="12.8" fill="#1978BD"/>
<circle opacity="0.02" cx="140.8" cy="89.6001" r="12.8" fill="#1978BD"/>
<circle opacity="0.5" cx="12.8" cy="64" r="12.8" fill="#1978BD"/>
<circle opacity="0.5" cx="38.4" cy="64" r="12.8" fill="#1978BD"/>
<circle opacity="0.5" cx="64" cy="64" r="12.8" fill="#1978BD"/>
<circle opacity="0.05" cx="115.2" cy="64" r="12.8" fill="#1978BD"/>
<circle opacity="0.25" cx="89.6" cy="64" r="12.8" fill="#1978BD"/>
<circle opacity="0.02" cx="140.8" cy="64" r="12.8" fill="#1978BD"/>
<circle opacity="0.25" cx="12.8" cy="38.4" r="12.8" fill="#1978BD"/>
<circle opacity="0.25" cx="38.4" cy="38.4" r="12.8" fill="#1978BD"/>
<circle opacity="0.05" cx="115.2" cy="38.4001" r="12.8" fill="#1978BD"/>
<circle opacity="0.25" cx="64" cy="38.4" r="12.8" fill="#1978BD"/>
<circle opacity="0.25" cx="89.6" cy="38.4" r="12.8" fill="#1978BD"/>
<circle opacity="0.02" cx="140.8" cy="38.4001" r="12.8" fill="#1978BD"/>
<circle opacity="0.05" cx="12.8" cy="12.8" r="12.8" fill="#1978BD"/>
<circle opacity="0.05" cx="115.2" cy="12.8" r="12.8" fill="#1978BD"/>
<circle opacity="0.05" cx="38.4" cy="12.8" r="12.8" fill="#1978BD"/>
<circle opacity="0.05" cx="64" cy="12.8" r="12.8" fill="#1978BD"/>
<circle opacity="0.05" cx="89.6" cy="12.8" r="12.8" fill="#1978BD"/>
<circle opacity="0.02" cx="140.8" cy="12.8" r="12.8" fill="#1978BD"/>
<circle opacity="0.05" cx="115.2" cy="115.2" r="12.8" fill="#1978BD"/>
<circle cx="12.8" cy="115.2" r="12.8" fill="#282826"/>
<circle opacity="0.5" cx="64" cy="115.2" r="12.8" fill="#1978BD"/>
<circle cx="38.4" cy="115.2" r="12.8" fill="#1978BD"/>
<circle opacity="0.25" cx="89.6" cy="115.2" r="12.8" fill="#1978BD"/>
<circle opacity="0.02" cx="140.8" cy="115.2" r="12.8" fill="#1978BD"/>
</svg>
