<svg width="1152" height="114" viewBox="0 0 1152 114" fill="none" xmlns="http://www.w3.org/2000/svg">
<circle cx="33.5" cy="57.1758" r="56.5" fill="#FFE298"/>
<circle cx="56.5" cy="56.5" r="56.5" transform="matrix(-1 0 0 1 203 0.675781)" fill="#FFE298"/>
<circle cx="259.5" cy="57.1758" r="56.5" fill="#FFE298"/>
<circle cx="56.5" cy="56.5" r="56.5" transform="matrix(-1 0 0 1 429 0.675781)" fill="#FFE298"/>
<circle cx="56.5" cy="56.5" r="56.5" transform="matrix(-1 0 0 1 429 0.675781)" fill="#FFE298"/>
<path d="M372.5 49.1757V58.1757H377.5M389.5 57.6757C389.5 66.7884 382.113 74.1757 373 74.1757C363.887 74.1757 356.5 66.7884 356.5 57.6757C356.5 48.563 363.887 41.1757 373 41.1757C382.113 41.1757 389.5 48.563 389.5 57.6757Z" stroke="#343432" stroke-width="2" stroke-linecap="round" stroke-linejoin="round"/>
<circle cx="56.5" cy="56.5" r="56.5" transform="matrix(-1 0 0 1 542 0.675781)" fill="#FFE298"/>
<circle cx="56.5" cy="56.5" r="56.5" transform="matrix(-1 0 0 1 655 0.675781)" fill="#FFE298"/>
<circle cx="56.5" cy="56.5" r="56.5" transform="matrix(-1 0 0 1 768 0.675781)" fill="#FFE298"/>
<circle cx="56.5" cy="56.5" r="56.5" transform="matrix(-1 0 0 1 768 0.675781)" fill="#FFE298"/>
<path d="M711.5 49.1757V58.1757H716.5M728.5 57.6757C728.5 66.7884 721.113 74.1757 712 74.1757C702.887 74.1757 695.5 66.7884 695.5 57.6757C695.5 48.563 702.887 41.1757 712 41.1757C721.113 41.1757 728.5 48.563 728.5 57.6757Z" stroke="#343432" stroke-width="2" stroke-linecap="round" stroke-linejoin="round"/>
<circle cx="56.5" cy="56.5" r="56.5" transform="matrix(-1 0 0 1 881 0.675781)" fill="#FFE298"/>
<circle cx="56.5" cy="56.5" r="56.5" transform="matrix(-1 0 0 1 881 0.675781)" fill="#FFE298"/>
<path d="M824.5 49.1757V58.1757H829.5M841.5 57.6757C841.5 66.7884 834.113 74.1757 825 74.1757C815.887 74.1757 808.5 66.7884 808.5 57.6757C808.5 48.563 815.887 41.1757 825 41.1757C834.113 41.1757 841.5 48.563 841.5 57.6757Z" stroke="#343432" stroke-width="2" stroke-linecap="round" stroke-linejoin="round"/>
<circle cx="56.5" cy="56.5" r="56.5" transform="matrix(-1 0 0 1 994 0.675781)" fill="#FFE298"/>
<circle cx="1050.5" cy="57.1758" r="56.5" fill="#FFE298"/>
<circle cx="56.5" cy="56.5" r="56.5" transform="matrix(-1 0 0 1 1220 0.675781)" fill="#FFE298"/>
</svg>
