<svg width="32" height="33" viewBox="0 0 32 33" fill="none" xmlns="http://www.w3.org/2000/svg">
<rect x="0.5" y="0.824707" width="31" height="31" stroke="white" stroke-opacity="0.01"/>
<path d="M2.7998 6.32476H22.7998M22.7998 6.32476C22.7998 8.09207 24.2325 9.52476 25.9998 9.52476C27.7671 9.52476 29.1998 8.09207 29.1998 6.32476C29.1998 4.55744 27.7671 3.12476 25.9998 3.12476C24.2325 3.12476 22.7998 4.55744 22.7998 6.32476ZM2.7998 16.3248H6.39981M6.39981 16.3248C6.39981 18.0921 7.83249 19.5248 9.59981 19.5248C11.3671 19.5248 12.7998 18.0921 12.7998 16.3248M6.39981 16.3248C6.39981 14.5574 7.83249 13.1248 9.59981 13.1248C11.3671 13.1248 12.7998 14.5574 12.7998 16.3248M12.7998 16.3248H29.1998M2.7998 26.3248H15.5998M15.5998 26.3248C15.5998 28.0921 17.0325 29.5248 18.7998 29.5248C20.5671 29.5248 21.9998 28.0921 21.9998 26.3248M15.5998 26.3248C15.5998 24.5574 17.0325 23.1248 18.7998 23.1248C20.5671 23.1248 21.9998 24.5574 21.9998 26.3248M21.9998 26.3248H29.1998" stroke="#282826" stroke-width="1.5" stroke-linecap="round" stroke-linejoin="round"/>
</svg>
