<svg width="348" height="229" viewBox="0 0 348 229" fill="none" xmlns="http://www.w3.org/2000/svg">
<path d="M25 0H50H100V102.099H0V51.0496V25.5248L25 0Z" fill="#44C0E6"/>
<path fill-rule="evenodd" clip-rule="evenodd" d="M53.4531 61.4163L53.4466 61.418L53.4433 61.4189C52.9512 61.5496 52.4519 61.6822 51.8743 61.8312L51.8395 61.8406C51.5566 61.9165 51.5272 61.9245 51.264 61.6208C50.9483 61.263 50.7168 61.0315 50.2749 60.8211C48.9491 60.1687 47.6654 60.3581 46.4659 61.1368C45.0349 62.0627 44.2983 63.4306 44.3194 65.1352C44.3404 66.8188 45.4979 68.2077 47.1603 68.4392C48.5914 68.6286 49.7909 68.1235 50.7379 67.0503C50.8784 66.8786 51.0073 66.6953 51.1504 66.4918C51.2002 66.421 51.2517 66.3477 51.3061 66.2716H47.2445C46.8026 66.2716 46.6974 65.998 46.8447 65.6403C47.1183 64.9879 47.6233 63.8936 47.9179 63.3464C47.9811 63.2202 48.1284 63.0097 48.4441 63.0097H55.2164C55.5205 62.0461 56.014 61.1355 56.6723 60.2739C58.2086 58.2536 60.0605 57.2014 62.5647 56.7595C64.7113 56.3807 66.7315 56.5911 68.5624 57.8327C70.2249 58.9691 71.256 60.5054 71.5296 62.5257C71.8874 65.3667 71.0666 67.6816 69.1095 69.6598C67.7206 71.0697 66.016 71.9536 64.0589 72.3534C63.6856 72.4226 63.3123 72.4554 62.945 72.4876C62.7532 72.5045 62.563 72.5212 62.3753 72.5428C60.4603 72.5008 58.7136 71.9536 57.2405 70.6909C56.2045 69.7954 55.4908 68.6946 55.1362 67.4133C54.89 67.9103 54.5958 68.3862 54.2523 68.839C52.7371 70.8383 50.7589 72.0799 48.2547 72.4166C46.1923 72.6902 44.2773 72.2903 42.5937 71.0277C41.0365 69.8492 40.1526 68.2919 39.9211 66.3558C39.6475 64.062 40.3209 61.9996 41.7099 60.1898C43.204 58.2326 45.1822 56.991 47.6023 56.5491C49.5804 56.1913 51.4744 56.4228 53.179 57.5802C54.2944 58.3168 55.0941 59.3269 55.6202 60.5475C55.7464 60.7369 55.6623 60.8421 55.4097 60.9053C54.6748 61.0919 54.0692 61.2527 53.4531 61.4163ZM67.3693 63.8158C67.3734 63.8865 67.3777 63.961 67.3839 64.0409C67.2787 65.8507 66.3738 67.1975 64.7113 68.0604C63.5959 68.6286 62.4385 68.6917 61.281 68.1866C59.7658 67.5132 58.9662 65.8507 59.345 64.2092C59.8079 62.231 61.0706 60.9894 63.0277 60.5475C65.0269 60.0845 66.942 61.263 67.3208 63.3464C67.3506 63.4954 67.3593 63.6445 67.3693 63.8158Z" fill="white"/>
<path d="M31.6505 61.284C31.5663 61.284 31.5452 61.242 31.5873 61.1788L32.0293 60.6106C32.0713 60.5475 32.1766 60.5054 32.2607 60.5054H39.7736C39.8577 60.5054 39.8788 60.5685 39.8367 60.6317L39.4789 61.1788C39.4369 61.242 39.3316 61.3051 39.2685 61.3051L31.6505 61.284Z" fill="white"/>
<path d="M28.4728 63.2202C28.3887 63.2202 28.3676 63.1781 28.4097 63.1149L28.8516 62.5468C28.8937 62.4836 28.999 62.4415 29.0831 62.4415H38.6793C38.7635 62.4415 38.8056 62.5047 38.7846 62.5678L38.6162 63.0729C38.5952 63.1571 38.511 63.1991 38.4268 63.1991L28.4728 63.2202Z" fill="white"/>
<path d="M33.5023 65.03C33.4602 65.0932 33.4812 65.1563 33.5654 65.1563L38.1531 65.1774C38.2162 65.1774 38.3004 65.1142 38.3004 65.03L38.3425 64.525C38.3425 64.4408 38.3004 64.3777 38.2162 64.3777H34.0073C33.9232 64.3777 33.839 64.4408 33.7969 64.5039L33.5023 65.03Z" fill="white"/>
<path d="M25 0L0 25.5248H25V0Z" fill="#282826"/>
<path d="M149 0H174H224V102.099H124V51.0496V25.5248L149 0Z" fill="#FF8C4B"/>
<path d="M177.807 43.7898C178.673 44.7757 178.959 46.1855 178.71 47.457C178.443 48.8852 177.65 50.1475 176.72 51.2348C175.973 52.1101 175.116 52.8841 174.223 53.6028C173.181 54.4413 172.159 55.3443 171.504 56.5237C170.952 57.4819 170.823 58.6613 171.2 59.7025C171.818 61.49 173.255 62.8169 174.038 64.5031C173.172 63.7383 172.324 62.9459 171.532 62.1074C170.703 61.2228 169.92 60.283 169.404 59.1773C169.053 58.4033 168.897 57.5003 169.164 56.6803C169.431 55.8418 170.03 55.1692 170.629 54.5426C172.297 52.8749 174.352 51.6494 175.982 49.954C176.885 49.0234 177.632 47.9085 177.89 46.6277C178.102 45.6879 178 44.7204 177.807 43.7898Z" fill="white"/>
<path d="M176.445 54.2852C178.233 52.9676 180.324 52.1291 182.443 51.521C180.766 52.5898 179.016 53.5665 177.569 54.9394C177.044 55.4462 176.546 56.0267 176.316 56.7362C176.141 57.2614 176.215 57.8418 176.427 58.3394C176.814 59.224 177.468 59.9427 177.965 60.7535C178.389 61.4446 178.463 62.3291 178.14 63.0754C177.652 64.1719 176.694 64.9735 175.699 65.6093C175.57 65.683 175.459 65.8212 175.302 65.8397C175.966 65.2408 176.482 64.3931 176.463 63.4809C176.445 62.799 176.067 62.2001 175.625 61.7118C174.713 60.6245 173.948 59.2424 174.105 57.7774C174.261 56.3123 175.312 55.1329 176.445 54.2852Z" fill="white"/>
<path d="M177.807 43.7898C178.673 44.7757 178.959 46.1855 178.71 47.457C178.443 48.8852 177.65 50.1475 176.72 51.2348C175.973 52.1101 175.116 52.8841 174.223 53.6028C173.181 54.4413 172.159 55.3443 171.504 56.5237C170.952 57.4819 170.823 58.6613 171.2 59.7025C171.818 61.49 173.255 62.8169 174.038 64.5031C173.172 63.7383 172.324 62.9459 171.532 62.1074C170.703 61.2228 169.92 60.283 169.404 59.1773C169.053 58.4033 168.897 57.5003 169.164 56.6803C169.431 55.8418 170.03 55.1692 170.629 54.5426C172.297 52.8749 174.352 51.6494 175.982 49.954C176.885 49.0234 177.632 47.9085 177.89 46.6277C178.102 45.6879 178 44.7204 177.807 43.7898Z" stroke="white" stroke-width="0.0166262" stroke-miterlimit="10"/>
<path d="M176.445 54.2852C178.233 52.9676 180.324 52.1291 182.443 51.521C180.766 52.5898 179.016 53.5665 177.569 54.9394C177.044 55.4462 176.546 56.0267 176.316 56.7362C176.141 57.2614 176.215 57.8418 176.427 58.3394C176.814 59.224 177.468 59.9427 177.965 60.7535C178.389 61.4446 178.463 62.3291 178.14 63.0754C177.652 64.1719 176.694 64.9735 175.699 65.6093C175.57 65.683 175.459 65.8212 175.302 65.8397C175.966 65.2408 176.482 64.3931 176.463 63.4809C176.445 62.799 176.067 62.2001 175.625 61.7118C174.713 60.6245 173.948 59.2424 174.105 57.7774C174.261 56.3123 175.312 55.1329 176.445 54.2852Z" stroke="white" stroke-width="0.0166262" stroke-miterlimit="10"/>
<path d="M182.784 64.936C183.171 64.4661 183.788 64.3463 184.35 64.2726C185.327 64.1436 186.368 64.3923 187.105 65.065C187.713 65.6086 188.054 66.4563 187.925 67.2763C187.787 68.2254 187.151 69.0178 186.432 69.6167C185.133 70.6579 183.53 71.266 181.927 71.6715C182.019 71.5701 182.12 71.478 182.24 71.4043C183.456 70.7501 184.663 69.9853 185.557 68.9165C186.101 68.253 186.525 67.3869 186.35 66.5116C186.165 65.498 185.179 64.7609 184.175 64.7056C183.696 64.6595 183.244 64.8438 182.784 64.936Z" fill="white"/>
<path d="M164.261 65.7749C165.956 65.047 167.799 64.5771 169.651 64.6047C168.573 64.918 167.467 65.1852 166.454 65.6643C166.214 65.7933 165.938 65.9131 165.799 66.1619C165.726 66.3554 165.928 66.4844 166.076 66.5489C166.702 66.8069 167.393 66.8437 168.066 66.9082C170.425 67.0649 172.793 66.9727 175.142 66.8253C177.464 66.6779 179.768 66.3646 182.062 65.9961C181.555 66.2356 181.039 66.4752 180.569 66.7792C180.33 66.9451 180.035 66.9912 179.768 67.0557C176.948 67.6822 174.055 67.8757 171.18 67.9218C170.065 67.931 168.96 67.9126 167.854 67.8389C166.619 67.7559 165.375 67.6638 164.168 67.3413C163.818 67.24 163.45 67.1294 163.173 66.8806C163.035 66.77 163.035 66.5489 163.155 66.4199C163.459 66.1066 163.883 65.9592 164.261 65.7749Z" fill="white"/>
<path d="M166.437 69.709C166.916 69.3312 167.488 69.1193 168.059 68.9165C167.875 69.1377 167.617 69.3496 167.598 69.6537C167.589 69.8472 167.746 69.9946 167.902 70.0867C168.206 70.2434 168.547 70.2987 168.888 70.3447C170.657 70.529 172.445 70.6304 174.232 70.5106C175.863 70.4277 177.485 70.1605 179.097 69.8748C179.54 70.2894 180.065 70.5751 180.618 70.8239C178.673 71.3951 176.674 71.7268 174.665 71.8835C172.767 72.0125 170.842 72.0033 168.953 71.6992C168.206 71.561 167.442 71.4044 166.76 71.0542C166.483 70.9068 166.17 70.7133 166.087 70.3908C166.032 70.1144 166.234 69.8656 166.437 69.709Z" fill="white"/>
<path d="M167.508 73.7264C167.932 73.3855 168.457 73.2104 168.973 73.063C168.807 73.2196 168.512 73.4131 168.641 73.6803C168.89 74.0028 169.351 74.0397 169.719 74.1226C171.277 74.3161 172.852 74.4451 174.409 74.3253C175.589 74.2516 176.75 74.0397 177.902 73.837C178.565 74.2239 179.256 74.5557 179.966 74.8505C178.878 75.3389 177.708 75.6521 176.538 75.8733C174.566 76.2234 172.53 76.2695 170.549 75.9562C169.673 75.7996 168.78 75.5968 167.987 75.1638C167.683 74.9887 167.361 74.786 167.232 74.4451C167.13 74.1779 167.296 73.8922 167.508 73.7264Z" fill="white"/>
<path d="M162.392 76.3349C163.24 76.0492 164.115 75.8189 165.009 75.7912C165.368 75.782 165.737 75.8005 166.05 75.9847C164.981 76.0492 163.913 76.3164 162.954 76.8048C162.742 76.9246 162.503 77.0628 162.42 77.3116C162.42 77.5972 162.742 77.6893 162.954 77.7815C164.29 78.279 165.719 78.4357 167.119 78.5831C171.293 78.9332 175.495 78.8411 179.669 78.4633C181.244 78.2883 182.829 78.1132 184.359 77.6801C184.847 77.5143 185.4 77.3484 185.722 76.9154C185.916 76.6574 185.787 76.3349 185.593 76.1137C185.907 76.2888 186.349 76.5099 186.284 76.9338C186.165 77.3761 185.713 77.6064 185.345 77.8183C184.165 78.4173 182.866 78.7213 181.576 78.9885C177.826 79.7257 173.984 79.8915 170.169 79.7809C167.294 79.6796 164.419 79.4032 161.581 78.9148C161.075 78.795 160.503 78.6937 160.135 78.2975C159.895 78.0211 160.107 77.6341 160.338 77.4313C160.918 76.8969 161.664 76.6021 162.392 76.3349Z" fill="white"/>
<path d="M185.355 79.4848C186.286 79.1623 187.281 78.8214 187.972 78.0843C187.852 78.8859 187.161 79.4387 186.479 79.7981C185.171 80.4799 183.706 80.7932 182.25 81.0512C179.172 81.5396 176.049 81.6593 172.925 81.604C170.797 81.5395 168.65 81.4566 166.558 81.0143C166.061 80.8761 165.526 80.784 165.093 80.4891C166.954 80.8024 168.843 80.9314 170.732 81.0051C173.837 81.0973 176.952 80.9775 180.038 80.5905C181.826 80.3417 183.623 80.0377 185.355 79.4848Z" fill="white"/>
<path d="M182.784 64.936C183.171 64.4661 183.788 64.3463 184.35 64.2726C185.327 64.1436 186.368 64.3923 187.105 65.065C187.713 65.6086 188.054 66.4563 187.925 67.2763C187.787 68.2254 187.151 69.0178 186.432 69.6167C185.133 70.6579 183.53 71.266 181.927 71.6715C182.019 71.5701 182.12 71.478 182.24 71.4043C183.456 70.7501 184.663 69.9853 185.557 68.9165C186.101 68.253 186.525 67.3869 186.35 66.5116C186.165 65.498 185.179 64.7609 184.175 64.7056C183.696 64.6595 183.244 64.8438 182.784 64.936Z" stroke="white" stroke-width="0.0166262" stroke-miterlimit="10"/>
<path d="M164.261 65.7749C165.956 65.047 167.799 64.5771 169.651 64.6047C168.573 64.918 167.467 65.1852 166.454 65.6643C166.214 65.7933 165.938 65.9131 165.799 66.1619C165.726 66.3554 165.928 66.4844 166.076 66.5489C166.702 66.8069 167.393 66.8437 168.066 66.9082C170.425 67.0649 172.793 66.9727 175.142 66.8253C177.464 66.6779 179.768 66.3646 182.062 65.9961C181.555 66.2356 181.039 66.4752 180.569 66.7792C180.33 66.9451 180.035 66.9912 179.768 67.0557C176.948 67.6822 174.055 67.8757 171.18 67.9218C170.065 67.931 168.96 67.9126 167.854 67.8389C166.619 67.7559 165.375 67.6638 164.168 67.3413C163.818 67.24 163.45 67.1294 163.173 66.8806C163.035 66.77 163.035 66.5489 163.155 66.4199C163.459 66.1066 163.883 65.9592 164.261 65.7749Z" stroke="white" stroke-width="0.0166262" stroke-miterlimit="10"/>
<path d="M166.437 69.709C166.916 69.3312 167.488 69.1193 168.059 68.9165C167.875 69.1377 167.617 69.3496 167.598 69.6537C167.589 69.8472 167.746 69.9946 167.902 70.0867C168.206 70.2434 168.547 70.2987 168.888 70.3447C170.657 70.529 172.445 70.6304 174.232 70.5106C175.863 70.4277 177.485 70.1605 179.097 69.8748C179.54 70.2894 180.065 70.5751 180.618 70.8239C178.673 71.3951 176.674 71.7268 174.665 71.8835C172.767 72.0125 170.842 72.0033 168.953 71.6992C168.206 71.561 167.442 71.4044 166.76 71.0542C166.483 70.9068 166.17 70.7133 166.087 70.3908C166.032 70.1144 166.234 69.8656 166.437 69.709Z" stroke="white" stroke-width="0.0166262" stroke-miterlimit="10"/>
<path d="M167.508 73.7264C167.932 73.3855 168.457 73.2104 168.973 73.063C168.807 73.2196 168.512 73.4131 168.641 73.6803C168.89 74.0028 169.351 74.0397 169.719 74.1226C171.277 74.3161 172.852 74.4451 174.409 74.3253C175.589 74.2516 176.75 74.0397 177.902 73.837C178.565 74.2239 179.256 74.5557 179.966 74.8505C178.878 75.3389 177.708 75.6521 176.538 75.8733C174.566 76.2234 172.53 76.2695 170.549 75.9562C169.673 75.7996 168.78 75.5968 167.987 75.1638C167.683 74.9887 167.361 74.786 167.232 74.4451C167.13 74.1779 167.296 73.8922 167.508 73.7264Z" stroke="white" stroke-width="0.0166262" stroke-miterlimit="10"/>
<path d="M162.392 76.3349C163.24 76.0492 164.115 75.8189 165.009 75.7912C165.368 75.782 165.737 75.8005 166.05 75.9847C164.981 76.0492 163.913 76.3164 162.954 76.8048C162.742 76.9246 162.503 77.0628 162.42 77.3116C162.42 77.5972 162.742 77.6893 162.954 77.7815C164.29 78.279 165.719 78.4357 167.119 78.5831C171.293 78.9332 175.495 78.8411 179.669 78.4633C181.244 78.2883 182.829 78.1132 184.359 77.6801C184.847 77.5143 185.4 77.3484 185.722 76.9154C185.916 76.6574 185.787 76.3349 185.593 76.1137C185.907 76.2888 186.349 76.5099 186.284 76.9338C186.165 77.3761 185.713 77.6064 185.345 77.8183C184.165 78.4173 182.866 78.7213 181.576 78.9885C177.826 79.7257 173.984 79.8915 170.169 79.7809C167.294 79.6796 164.419 79.4032 161.581 78.9148C161.075 78.795 160.503 78.6937 160.135 78.2975C159.895 78.0211 160.107 77.6341 160.338 77.4313C160.918 76.8969 161.664 76.6021 162.392 76.3349Z" stroke="white" stroke-width="0.0166262" stroke-miterlimit="10"/>
<path d="M185.355 79.4848C186.286 79.1623 187.281 78.8214 187.972 78.0843C187.852 78.8859 187.161 79.4387 186.479 79.7981C185.171 80.4799 183.706 80.7932 182.25 81.0512C179.172 81.5396 176.049 81.6593 172.925 81.604C170.797 81.5395 168.65 81.4566 166.558 81.0143C166.061 80.8761 165.526 80.784 165.093 80.4891C166.954 80.8024 168.843 80.9314 170.732 81.0051C173.837 81.0973 176.952 80.9775 180.038 80.5905C181.826 80.3417 183.623 80.0377 185.355 79.4848Z" stroke="white" stroke-width="0.0166262" stroke-miterlimit="10"/>
<path d="M149 0L124 25.5248H149V0Z" fill="#282826"/>
<path d="M273.045 0H298.03H348V102.162H248.061V51.0812V25.5406L273.045 0Z" fill="#1581A2"/>
<g clip-path="url(#clip0_1585_9738)">
<path d="M311.631 56.588C311.631 56.0647 311.521 55.6022 311.298 55.2054C311.079 54.815 310.751 54.4879 310.312 54.2292C306.682 52.1034 303.049 49.9841 299.421 47.8561C298.443 47.2825 297.494 47.3035 296.523 47.8854C295.079 48.7507 287.846 52.96 285.69 54.2281C284.803 54.7501 284.371 55.5489 284.371 56.587C284.369 60.8622 284.371 65.1373 284.369 69.4125C284.369 69.9243 284.475 70.3779 284.688 70.7687C284.907 71.1708 285.239 71.507 285.689 71.7714C287.845 73.0395 295.078 77.2484 296.523 78.1141C297.494 78.6963 298.443 78.7171 299.421 78.1434C303.05 76.0153 306.683 73.896 310.313 71.7701C310.763 71.5058 311.095 71.1694 311.314 70.7676C311.527 70.3767 311.633 69.9232 311.633 69.4113C311.633 69.4113 311.633 60.8633 311.631 56.588Z" fill="white"/>
<path d="M298.042 62.9583L284.688 70.7689C284.906 71.171 285.239 71.5071 285.689 71.7716C287.844 73.0397 295.078 77.2486 296.522 78.1143C297.494 78.6965 298.442 78.7173 299.421 78.1435C303.049 76.0154 306.682 73.8961 310.312 71.7703C310.762 71.5059 311.095 71.1696 311.314 70.7678L298.042 62.9583Z" fill="white"/>
<path d="M311.632 56.5882C311.631 56.0648 311.521 55.6024 311.298 55.2056L298.043 62.9583L311.314 70.7678C311.527 70.3769 311.633 69.9234 311.633 69.4114C311.633 69.4114 311.633 60.8634 311.632 56.5882Z" fill="white"/>
<path d="M305.902 60.0386V61.4985H307.339V60.0386H308.058V61.4985H309.495V62.2285H308.058V63.6884H309.495V64.4184H308.058V65.8784H307.339V64.4184H305.902V65.8784H305.183V64.4184H303.746V63.6884H305.183V62.2285H303.746V61.4985H305.183V60.0386H305.902ZM307.339 62.2284H305.902V63.6884H307.339V62.2284Z" fill="#1581A2"/>
<path d="M298.07 52.7062C301.818 52.7062 305.091 54.7742 306.845 57.8482L306.828 57.8187L302.417 60.3984C301.548 58.9038 299.955 57.8952 298.127 57.8744L298.069 57.874C295.283 57.874 293.023 60.169 293.023 62.9998C293.022 63.892 293.252 64.7689 293.689 65.5428C294.559 67.0853 296.194 68.1256 298.07 68.1256C299.957 68.1256 301.601 67.0721 302.467 65.5132L302.446 65.5505L306.85 68.1422C305.116 71.1902 301.888 73.2518 298.182 73.2929L298.07 73.2936C294.309 73.2936 291.026 71.2127 289.278 68.1224C288.424 66.6138 287.936 64.8649 287.936 62.9998C287.936 57.3148 292.473 52.7061 298.069 52.7061L298.07 52.7062Z" fill="#1581A2"/>
</g>
<path d="M272.984 0L248 25.5406H272.984V0Z" fill="#282826"/>
<path d="M25.0469 126.162H50.0312H99.9999V228.199H0.0625V177.18V151.671L25.0469 126.162Z" fill="#6AEBBD"/>
<g clip-path="url(#clip1_1585_9738)">
<path d="M48.314 173.844C49.0901 173.4 50.1009 173.398 50.8763 173.844C54.7772 176.048 58.6793 178.249 62.5795 180.455C63.3131 180.868 63.8038 181.684 63.7963 182.53V195.791C63.8018 196.671 63.2626 197.507 62.4887 197.911C58.6006 200.103 54.7145 202.298 50.8271 204.49C50.035 204.943 49.0039 204.908 48.2365 204.418C47.0709 203.742 45.9033 203.07 44.7375 202.395C44.4993 202.253 44.2308 202.14 44.0625 201.909C44.2112 201.708 44.4771 201.683 44.6931 201.596C45.1797 201.441 45.6266 201.193 46.0736 200.952C46.1866 200.874 46.3246 200.904 46.433 200.973C47.4297 201.545 48.4177 202.133 49.4178 202.699C49.6311 202.822 49.8472 202.659 50.0295 202.557C53.8449 200.4 57.665 198.252 61.4798 196.095C61.6211 196.027 61.6992 195.877 61.6878 195.722C61.6904 191.348 61.6884 186.972 61.6891 182.598C61.7053 182.422 61.6036 182.26 61.4448 182.188C57.5702 180.006 53.6976 177.821 49.8237 175.638C49.7565 175.592 49.677 175.568 49.5956 175.567C49.5141 175.567 49.4346 175.592 49.3673 175.638C45.4934 177.821 41.6215 180.008 37.7475 182.19C37.5893 182.262 37.483 182.421 37.5019 182.598C37.5025 186.972 37.5019 191.348 37.5019 195.723C37.4951 195.799 37.5117 195.874 37.5494 195.94C37.5871 196.006 37.644 196.059 37.7125 196.091C38.7463 196.677 39.7814 197.259 40.8159 197.844C41.3986 198.157 42.1142 198.344 42.7562 198.103C43.3228 197.9 43.72 197.322 43.7092 196.72C43.7145 192.371 43.7065 188.021 43.7132 183.673C43.699 183.48 43.8822 183.32 44.0699 183.339C44.5666 183.335 45.064 183.332 45.5607 183.34C45.768 183.335 45.9107 183.543 45.8851 183.738C45.8831 188.114 45.8904 192.491 45.8817 196.868C45.8831 198.034 45.4039 199.303 44.3249 199.874C42.9958 200.563 41.3529 200.417 40.0398 199.756C38.903 199.189 37.8182 198.519 36.7016 197.912C35.9257 197.51 35.3892 196.671 35.3946 195.791V182.53C35.3865 181.667 35.8967 180.836 36.6531 180.428C40.5405 178.235 44.4273 176.039 48.314 173.844Z" fill="#12875D"/>
<path d="M51.7062 183.031C53.4016 182.921 55.2167 182.966 56.7424 183.801C57.9237 184.441 58.5785 185.785 58.5994 187.097C58.5664 187.274 58.3813 187.372 58.2124 187.359C57.7204 187.359 57.2284 187.366 56.7365 187.356C56.5278 187.364 56.4065 187.172 56.3803 186.987C56.239 186.359 55.8966 185.737 55.3056 185.434C54.3983 184.98 53.3464 185.003 52.3571 185.013C51.6348 185.051 50.8582 185.113 50.2464 185.538C49.7766 185.86 49.634 186.509 49.8016 187.032C49.9597 187.408 50.3932 187.529 50.7479 187.641C52.7911 188.175 54.9563 188.122 56.9606 188.825C57.7903 189.112 58.6021 189.669 58.8861 190.538C59.2576 191.702 59.0948 193.094 58.2663 194.029C57.5945 194.798 56.616 195.217 55.6401 195.444C54.3418 195.734 52.9944 195.741 51.676 195.613C50.4362 195.471 49.146 195.146 48.189 194.301C47.3706 193.59 46.9708 192.483 47.0105 191.414C47.02 191.234 47.1997 191.108 47.3726 191.123C47.8679 191.119 48.3633 191.118 48.8587 191.124C49.0565 191.109 49.2032 191.28 49.2134 191.467C49.3048 192.065 49.5296 192.693 50.0513 193.048C51.0581 193.697 52.3214 193.653 53.4742 193.671C54.4293 193.629 55.5014 193.616 56.2808 192.985C56.692 192.625 56.8139 192.022 56.7027 191.504C56.5823 191.066 56.1246 190.863 55.7316 190.729C53.7145 190.091 51.5252 190.323 49.5276 189.601C48.7167 189.315 47.9325 188.773 47.6209 187.94C47.1862 186.76 47.3854 185.302 48.3007 184.399C49.1931 183.5 50.4813 183.154 51.7062 183.03V183.031Z" fill="#12875D"/>
</g>
<path d="M25.1719 126.649L0.187515 152.158H25.1719V126.649Z" fill="#1FE19B"/>
<path d="M149 126.162H174H224V228.199H124V177.18V151.671L149 126.162Z" fill="#FFDB7E"/>
<g clip-path="url(#clip2_1585_9738)">
<path d="M173.865 173.454C165.904 173.454 166.402 176.92 166.402 176.92L166.41 180.511H174.007V181.589H163.393C163.393 181.589 158.299 181.009 158.299 189.073C158.299 197.137 162.745 196.851 162.745 196.851H165.399V193.109C165.399 193.109 165.256 188.645 169.774 188.645H177.309C177.309 188.645 181.542 188.714 181.542 184.538V177.633C181.542 177.633 182.185 173.454 173.865 173.454ZM169.676 175.869C170.432 175.869 171.043 176.482 171.043 177.241C171.043 177.999 170.432 178.613 169.676 178.613C168.921 178.613 168.31 177.999 168.31 177.241C168.31 176.482 168.921 175.869 169.676 175.869Z" fill="#8D6600"/>
<path d="M174.091 204.772C182.051 204.772 181.554 201.306 181.554 201.306L181.545 197.716H173.949V196.637H184.563C184.563 196.637 189.657 197.217 189.657 189.153C189.657 181.089 185.211 181.375 185.211 181.375H182.557V185.117C182.557 185.117 182.7 189.581 178.182 189.581H170.647C170.647 189.581 166.414 189.512 166.414 193.688V200.593C166.414 200.593 165.771 204.772 174.091 204.772ZM178.279 202.357C177.524 202.357 176.913 201.744 176.913 200.985C176.913 200.227 177.524 199.613 178.279 199.613C179.035 199.613 179.646 200.227 179.646 200.985C179.646 201.744 179.035 202.357 178.279 202.357Z" fill="#8D6600"/>
</g>
<path d="M149 126.324L124 151.834H149V126.324Z" fill="#282826"/>
<path d="M273 126.162H298H348V228.325H248V177.244V151.703L273 126.162Z" fill="#19BD82"/>
<path d="M312.213 182.687C312.213 182.158 312.1 181.691 311.872 181.29C311.647 180.896 311.311 180.566 310.86 180.305C307.136 178.158 303.409 176.017 299.687 173.868C298.684 173.289 297.711 173.31 296.715 173.898C295.232 174.772 287.812 179.023 285.601 180.303C284.691 180.831 284.248 181.637 284.248 182.686C284.246 187.003 284.248 191.321 284.246 195.639C284.246 196.156 284.355 196.614 284.573 197.008C284.798 197.415 285.139 197.754 285.6 198.021C287.811 199.302 295.232 203.553 296.714 204.427C297.711 205.015 298.684 205.036 299.687 204.456C303.41 202.307 307.137 200.167 310.861 198.02C311.322 197.753 311.663 197.413 311.888 197.007C312.106 196.613 312.215 196.155 312.215 195.637C312.215 195.637 312.215 187.005 312.213 182.687Z" fill="white"/>
<path d="M298.272 189.12L284.572 197.009C284.797 197.415 285.138 197.754 285.599 198.021C287.811 199.302 295.232 203.553 296.713 204.427C297.71 205.015 298.683 205.036 299.687 204.456C303.409 202.307 307.136 200.167 310.86 198.02C311.321 197.753 311.662 197.413 311.887 197.008L298.272 189.12Z" fill="white"/>
<path d="M294.215 191.457C295.012 192.849 296.511 193.787 298.23 193.787C299.96 193.787 301.467 192.837 302.26 191.43L298.273 189.12L294.215 191.457Z" fill="white"/>
<path d="M312.214 182.687C312.213 182.159 312.1 181.692 311.872 181.291L298.273 189.121L311.888 197.008C312.106 196.613 312.215 196.155 312.215 195.638C312.215 195.638 312.215 187.005 312.214 182.687Z" fill="white"/>
<path d="M311.465 189.683H310.401V190.747H309.337V189.683H308.273V188.619H309.337V187.555H310.401V188.619H311.465V189.683Z" fill="#19BD82"/>
<path d="M307.582 189.683H306.518V190.747H305.455V189.683H304.391V188.619H305.455V187.555H306.518V188.619H307.582V189.683Z" fill="#19BD82"/>
<path d="M302.262 191.429C301.468 192.836 299.961 193.787 298.231 193.787C296.512 193.787 295.014 192.848 294.216 191.456C293.829 190.78 293.606 189.997 293.606 189.162C293.606 186.607 295.677 184.537 298.231 184.537C299.939 184.537 301.43 185.464 302.231 186.841L306.274 184.513C304.667 181.74 301.667 179.874 298.231 179.874C293.102 179.874 288.943 184.032 288.943 189.162C288.943 190.845 289.391 192.423 290.173 193.784C291.776 196.572 294.785 198.45 298.231 198.45C301.684 198.45 304.698 196.565 306.298 193.768L302.262 191.429Z" fill="#19BD82"/>
<path d="M273 126.324L248 151.865H273V126.324Z" fill="#282826"/>
<defs>
<clipPath id="clip0_1585_9738">
<rect width="27.5053" height="31.4346" fill="white" transform="translate(284.248 47.2827)"/>
</clipPath>
<clipPath id="clip1_1585_9738">
<rect width="28.5426" height="31.4346" fill="white" transform="translate(35.3281 173.445)"/>
</clipPath>
<clipPath id="clip2_1585_9738">
<rect width="31.4346" height="31.4346" fill="white" transform="translate(158.283 173.445)"/>
</clipPath>
</defs>
</svg>
