<svg viewBox="0 0 494 273" fill="none" xmlns="http://www.w3.org/2000/svg">
  <circle cx="28" cy="28.6362" r="28" fill="#282826" />
  <circle cx="101" cy="28.6362" r="28" fill="#282826" />
  <circle cx="174" cy="28.6362" r="28" fill="#282826" />
  <circle cx="247" cy="28.6362" r="28" fill="#282826" />
  <circle cx="320" cy="28.6362" r="28" fill="#282826" />
  <circle cx="393" cy="28.6362" r="28" fill="#282826" />
  <circle cx="466" cy="28.6362" r="28" fill="#282826" />
  <circle cx="28" cy="100.636" r="28" fill="#282826" />
  <circle cx="101" cy="100.636" r="28" fill="#282826" />
  <circle cx="174" cy="100.636" r="28" fill="#282826" />
  <circle cx="247" cy="100.636" r="28" fill="#282826" />
  <circle cx="320" cy="100.636" r="28" fill="#282826" />
  <circle cx="393" cy="100.636" r="28" fill="#282826" />
  <circle cx="466" cy="100.636" r="28" fill="#282826" />
  <circle cx="28" cy="172.636" r="28" fill="#282826" />
  <circle cx="101" cy="172.636" r="28" fill="#282826" />
  <circle cx="174" cy="172.636" r="28" fill="#282826" />
  <circle cx="247" cy="172.636" r="28" fill="#282826" />
  <circle cx="320" cy="172.636" r="28" fill="#282826" />
  <circle cx="393" cy="172.636" r="28" fill="#282826" />
  <circle cx="466" cy="172.636" r="28" fill="#282826" />
  <circle cx="28" cy="244.636" r="28" fill="#FF8C4B" />
  <rect width="32" height="32" transform="translate(12 228.636)" fill="white" fill-opacity="0.01" />
  <path d="M38.6673 244.636H17.334" stroke="#282826" stroke-width="2" stroke-linecap="round"
    stroke-linejoin="round" />
  <circle cx="101" cy="244.636" r="28" fill="#19BD82" />
  <rect width="32" height="32" transform="translate(85 228.636)" fill="white" fill-opacity="0.01" />
  <path d="M101.001 233.969V255.303M111.667 244.636L90.334 244.636" stroke="#282826"
    stroke-width="2" stroke-linecap="round" stroke-linejoin="round" />
</svg>
