<svg width="326" height="256" viewBox="0 0 326 256" fill="none" xmlns="http://www.w3.org/2000/svg">
<circle cx="26.2299" cy="26.2299" r="26.2299" fill="#282826"/>
<circle cx="94.6147" cy="26.2299" r="26.2299" fill="#282826"/>
<circle cx="163" cy="26.2299" r="26.2299" fill="#282826"/>
<circle cx="231.385" cy="26.2299" r="26.2299" fill="#282826"/>
<circle cx="299.77" cy="26.2299" r="26.2299" fill="#282826"/>
<circle cx="26.2299" cy="93.6781" r="26.2299" fill="#282826"/>
<circle cx="94.6147" cy="93.6781" r="26.2299" fill="#282826"/>
<circle cx="163" cy="93.6781" r="26.2299" fill="#282826"/>
<circle cx="231.385" cy="93.6781" r="26.2299" fill="#282826"/>
<circle cx="299.77" cy="93.6781" r="26.2299" fill="#282826"/>
<circle cx="26.2299" cy="161.126" r="26.2299" fill="#282826"/>
<circle cx="94.6147" cy="161.126" r="26.2299" fill="#282826"/>
<circle cx="163" cy="161.126" r="26.2299" fill="#282826"/>
<circle cx="231.385" cy="161.126" r="26.2299" fill="#282826"/>
<circle cx="299.77" cy="161.126" r="26.2299" fill="#282826"/>
<circle cx="26.2299" cy="228.575" r="26.2299" fill="#FF8C4B"/>
<rect width="29.977" height="29.977" transform="translate(11.2422 213.586)" fill="white" fill-opacity="0.01"/>
<path d="M36.223 228.575H16.2383" stroke="#282826" stroke-width="1.87356" stroke-linecap="round" stroke-linejoin="round"/>
<circle cx="94.6147" cy="228.575" r="26.2299" fill="#19BD82"/>
<rect width="29.977" height="29.977" transform="translate(79.627 213.586)" fill="white" fill-opacity="0.01"/>
<path d="M94.6154 218.583V238.567M104.608 228.575L84.623 228.575" stroke="#282826" stroke-width="1.87356" stroke-linecap="round" stroke-linejoin="round"/>
</svg>
