<svg width="128" height="1082" viewBox="0 0 128 1082" fill="none" xmlns="http://www.w3.org/2000/svg">
<g clip-path="url(#clip0_1597_11875)">
<circle cx="64.1667" cy="37.1667" r="64.1667" fill="#1FE19B"/>
<rect width="73.3333" height="73.3333" transform="translate(27.5 0.5)" fill="white" fill-opacity="0.01"/>
<path d="M42.7754 40.2225L54.9976 52.4447L85.5532 21.8892" stroke="#282826" stroke-width="4.58333" stroke-linecap="round" stroke-linejoin="round"/>
<circle cx="64.1667" cy="183.5" r="64.1667" fill="#1FE19B"/>
<rect width="73.3333" height="73.3333" transform="translate(27.5 146.833)" fill="white" fill-opacity="0.01"/>
<path d="M42.7754 186.556L54.9976 198.778L85.5532 168.222" stroke="#282826" stroke-width="4.58333" stroke-linecap="round" stroke-linejoin="round"/>
<circle cx="64.1667" cy="329.834" r="64.1667" fill="#282826"/>
<circle cx="64.1667" cy="476.167" r="64.1667" fill="#282826"/>
<circle cx="64.1667" cy="622.5" r="64.1667" fill="#1FE19B"/>
<rect width="73.3333" height="73.3333" transform="translate(27.5 585.833)" fill="white" fill-opacity="0.01"/>
<path d="M42.7754 625.556L54.9976 637.778L85.5532 607.222" stroke="#282826" stroke-width="4.58333" stroke-linecap="round" stroke-linejoin="round"/>
<circle cx="64.1667" cy="768.834" r="64.1667" fill="#282826"/>
<circle cx="64.1667" cy="915.167" r="64.1667" fill="#1FE19B"/>
<rect width="73.3333" height="73.3333" transform="translate(27.5 878.5)" fill="white" fill-opacity="0.01"/>
<path d="M42.7754 918.222L54.9976 930.445L85.5532 899.889" stroke="#282826" stroke-width="4.58333" stroke-linecap="round" stroke-linejoin="round"/>
<circle cx="64.1667" cy="1061.5" r="64.1667" fill="#1FE19B"/>
<rect width="73.3333" height="73.3333" transform="translate(27.5 1024.83)" fill="white" fill-opacity="0.01"/>
<path d="M42.7754 1064.56L54.9976 1076.78L85.5532 1046.22" stroke="#282826" stroke-width="4.58333" stroke-linecap="round" stroke-linejoin="round"/>
</g>
<defs>
<clipPath id="clip0_1597_11875">
<rect width="1565" height="128" fill="white" transform="translate(128) rotate(90)"/>
</clipPath>
</defs>
</svg>
