<svg viewBox="0 0 1128 129" fill="none" xmlns="http://www.w3.org/2000/svg">
<circle cx="64.1667" cy="64.1667" r="64.1667" fill="#1FE19B"/>
<rect width="73.3333" height="73.3333" transform="translate(27.5 27.5)" fill="white" fill-opacity="0.01"/>
<path d="M42.7754 67.2225L54.9976 79.4447L85.5532 48.8892" stroke="#282826" stroke-width="4.58333" stroke-linecap="round" stroke-linejoin="round"/>
<circle cx="357.499" cy="64.1667" r="64.1667" fill="#282826"/>
<circle cx="504.167" cy="64.1667" r="64.1667" fill="#282826"/>
<circle cx="797.167" cy="64.1667" r="64.1667" fill="#282826"/>
<circle cx="210.833" cy="64.1667" r="64.1667" fill="#1FE19B"/>
<rect width="73.3333" height="73.3333" transform="translate(174.166 27.5)" fill="white" fill-opacity="0.01"/>
<path d="M189.441 67.2225L201.664 79.4447L232.219 48.8892" stroke="#282826" stroke-width="4.58333" stroke-linecap="round" stroke-linejoin="round"/>
<circle cx="650.833" cy="64.1667" r="64.1667" fill="#1FE19B"/>
<rect width="73.3333" height="73.3333" transform="translate(614.166 27.5)" fill="white" fill-opacity="0.01"/>
<path d="M629.441 67.2225L641.664 79.4447L672.219 48.8892" stroke="#282826" stroke-width="4.58333" stroke-linecap="round" stroke-linejoin="round"/>
<circle cx="944.167" cy="64.1667" r="64.1667" fill="#1FE19B"/>
<rect width="73.3333" height="73.3333" transform="translate(907.5 27.5)" fill="white" fill-opacity="0.01"/>
<path d="M922.775 67.2225L934.998 79.4447L965.553 48.8892" stroke="#282826" stroke-width="4.58333" stroke-linecap="round" stroke-linejoin="round"/>
<circle cx="1091.17" cy="64.1667" r="64.1667" fill="#1FE19B"/>
<rect width="73.3333" height="73.3333" transform="translate(1054.5 27.5)" fill="white" fill-opacity="0.01"/>
<path d="M1069.78 67.2225L1082 79.4447L1112.55 48.8892" stroke="#282826" stroke-width="4.58333" stroke-linecap="round" stroke-linejoin="round"/>
</svg>
