<svg width="32" height="33" viewBox="0 0 32 33" fill="none" xmlns="http://www.w3.org/2000/svg">
<rect x="0.5" y="0.824707" width="31" height="31" stroke="white" stroke-opacity="0.01"/>
<path d="M5.9998 3.12476C4.23249 3.12476 2.7998 4.55745 2.7998 6.32476M19.5998 3.12476C21.3671 3.12476 22.7998 4.55744 22.7998 6.32476M2.7998 19.9248C2.7998 21.6921 4.23249 23.1248 5.9998 23.1248M9.99981 3.12476H15.5998M2.7998 15.9248V10.3248M12.3998 29.5248H25.9998C27.7671 29.5248 29.1998 28.0921 29.1998 26.3248V12.7248C29.1998 10.9574 27.7671 9.52476 25.9998 9.52476H12.3998C10.6325 9.52476 9.19981 10.9574 9.19981 12.7248V26.3248C9.19981 28.0921 10.6325 29.5248 12.3998 29.5248Z" stroke="#282826" stroke-width="1.5" stroke-linecap="round" stroke-linejoin="round"/>
</svg>
