<svg viewBox="0 0 1083 499" fill="none" xmlns="http://www.w3.org/2000/svg">
<path opacity="0.3" d="M850 470.636L434.999 73.6362" stroke="#FFCEB2" stroke-width="56"/>
<path opacity="0.3" d="M850 470.636L1047 398.636" stroke="#FF8C4B" stroke-width="56"/>
<path opacity="0.3" d="M850 470.636L765.999 263.636" stroke="#44C0E6" stroke-width="56"/>
<circle cx="794" cy="113.636" r="28" fill="#1581A2"/>
<rect width="32" height="32" transform="translate(778 97.6362)" fill="white" fill-opacity="0.01"/>
<path d="M784.828 121.375C787.537 119.843 790.666 118.97 794 118.97C797.334 118.97 800.463 119.843 803.172 121.375M798 110.97C798 113.179 796.209 114.97 794 114.97C791.791 114.97 790 113.179 790 110.97C790 108.76 791.791 106.97 794 106.97C796.209 106.97 798 108.76 798 110.97ZM806 113.636C806 120.264 800.627 125.636 794 125.636C787.373 125.636 782 120.264 782 113.636C782 107.009 787.373 101.636 794 101.636C800.627 101.636 806 107.009 806 113.636Z" stroke="#282826" stroke-width="2" stroke-linecap="round" stroke-linejoin="round"/>
<circle cx="435" cy="73.6362" r="28" fill="#FFCEB2"/>
<rect width="32" height="32" transform="translate(419 57.6362)" fill="white" fill-opacity="0.01"/>
<path d="M425.828 81.3746C428.537 79.8434 431.666 78.9696 435 78.9696C438.334 78.9696 441.463 79.8434 444.172 81.3745M439 70.9696C439 73.1787 437.209 74.9696 435 74.9696C432.791 74.9696 431 73.1787 431 70.9696C431 68.7604 432.791 66.9696 435 66.9696C437.209 66.9696 439 68.7604 439 70.9696ZM447 73.6362C447 80.2636 441.627 85.6362 435 85.6362C428.373 85.6362 423 80.2636 423 73.6362C423 67.0088 428.373 61.6362 435 61.6362C441.627 61.6362 447 67.0088 447 73.6362Z" stroke="#282826" stroke-width="2" stroke-linecap="round" stroke-linejoin="round"/>
<circle cx="1047" cy="398.636" r="28" fill="#FF8C4B"/>
<rect width="32" height="32" transform="translate(1031 382.636)" fill="white" fill-opacity="0.01"/>
<path d="M1037.83 406.375C1040.54 404.843 1043.67 403.97 1047 403.97C1050.33 403.97 1053.46 404.843 1056.17 406.375M1051 395.97C1051 398.179 1049.21 399.97 1047 399.97C1044.79 399.97 1043 398.179 1043 395.97C1043 393.76 1044.79 391.97 1047 391.97C1049.21 391.97 1051 393.76 1051 395.97ZM1059 398.636C1059 405.264 1053.63 410.636 1047 410.636C1040.37 410.636 1035 405.264 1035 398.636C1035 392.009 1040.37 386.636 1047 386.636C1053.63 386.636 1059 392.009 1059 398.636Z" stroke="#282826" stroke-width="2" stroke-linecap="round" stroke-linejoin="round"/>
<path opacity="0.3" d="M850 470.636H991" stroke="#19BD82" stroke-width="56"/>
<circle cx="1055" cy="185.636" r="28" fill="#FFDB7E"/>
<rect width="32" height="32" transform="translate(1039 169.636)" fill="white" fill-opacity="0.01"/>
<path d="M1045.83 193.375C1048.54 191.843 1051.67 190.97 1055 190.97C1058.33 190.97 1061.46 191.843 1064.17 193.375M1059 182.97C1059 185.179 1057.21 186.97 1055 186.97C1052.79 186.97 1051 185.179 1051 182.97C1051 180.76 1052.79 178.97 1055 178.97C1057.21 178.97 1059 180.76 1059 182.97ZM1067 185.636C1067 192.264 1061.63 197.636 1055 197.636C1048.37 197.636 1043 192.264 1043 185.636C1043 179.009 1048.37 173.636 1055 173.636C1061.63 173.636 1067 179.009 1067 185.636Z" stroke="#282826" stroke-width="2" stroke-linecap="round" stroke-linejoin="round"/>
<circle cx="1023" cy="28.6362" r="28" fill="#6AEBBD"/>
<rect width="32" height="32" transform="translate(1007 12.6362)" fill="white" fill-opacity="0.01"/>
<path d="M1013.83 36.3746C1016.54 34.8434 1019.67 33.9696 1023 33.9696C1026.33 33.9696 1029.46 34.8434 1032.17 36.3745M1027 25.9696C1027 28.1787 1025.21 29.9696 1023 29.9696C1020.79 29.9696 1019 28.1787 1019 25.9696C1019 23.7604 1020.79 21.9696 1023 21.9696C1025.21 21.9696 1027 23.7604 1027 25.9696ZM1035 28.6362C1035 35.2636 1029.63 40.6362 1023 40.6362C1016.37 40.6362 1011 35.2636 1011 28.6362C1011 22.0088 1016.37 16.6362 1023 16.6362C1029.63 16.6362 1035 22.0088 1035 28.6362Z" stroke="#282826" stroke-width="2" stroke-linecap="round" stroke-linejoin="round"/>
<path opacity="0.3" d="M850 470.636L1055 185.636" stroke="#FFDB7E" stroke-width="56"/>
<path opacity="0.3" d="M850 470.636L1023 28.6362" stroke="#6AEBBD" stroke-width="56"/>
<path opacity="0.3" d="M850 470.636L794 113.636" stroke="#1581A2" stroke-width="56"/>
<path opacity="0.3" d="M850 470.636L-207 97.6362" stroke="#8FD9F0" stroke-width="56"/>
<circle cx="850" cy="470.636" r="28" fill="#282826"/>
<circle cx="991" cy="470.636" r="28" fill="#19BD82"/>
<rect width="32" height="32" transform="translate(975 454.636)" fill="white" fill-opacity="0.01"/>
<path d="M981.828 478.375C984.537 476.843 987.666 475.97 991 475.97C994.334 475.97 997.463 476.843 1000.17 478.375M995 467.97C995 470.179 993.209 471.97 991 471.97C988.791 471.97 987 470.179 987 467.97C987 465.76 988.791 463.97 991 463.97C993.209 463.97 995 465.76 995 467.97ZM1003 470.636C1003 477.264 997.627 482.636 991 482.636C984.373 482.636 979 477.264 979 470.636C979 464.009 984.373 458.636 991 458.636C997.627 458.636 1003 464.009 1003 470.636Z" stroke="#282826" stroke-width="2" stroke-linecap="round" stroke-linejoin="round"/>
<circle cx="766" cy="263.636" r="28" fill="#44C0E6"/>
<rect width="32" height="32" transform="translate(750 247.636)" fill="white" fill-opacity="0.01"/>
<path d="M756.828 271.375C759.537 269.843 762.666 268.97 766 268.97C769.334 268.97 772.463 269.843 775.172 271.375M770 260.97C770 263.179 768.209 264.97 766 264.97C763.791 264.97 762 263.179 762 260.97C762 258.76 763.791 256.97 766 256.97C768.209 256.97 770 258.76 770 260.97ZM778 263.636C778 270.264 772.627 275.636 766 275.636C759.373 275.636 754 270.264 754 263.636C754 257.009 759.373 251.636 766 251.636C772.627 251.636 778 257.009 778 263.636Z" stroke="#282826" stroke-width="2" stroke-linecap="round" stroke-linejoin="round"/>
</svg>
