<svg viewBox="0 0 878 625" fill="none" xmlns="http://www.w3.org/2000/svg">
<rect width="368.537" height="104.762" rx="52.381" fill="#FF8C4B" fill-opacity="0.1"/>
<rect width="282.483" height="104.762" rx="52.381" fill="#FF8C4B" fill-opacity="0.3"/>
<rect width="217.007" height="104.762" rx="52.381" fill="#FF8C4B" fill-opacity="0.4"/>
<rect width="104.762" height="104.762" rx="52.381" fill="#282826"/>
<rect width="59" height="60" transform="translate(22 22)" fill="white" fill-opacity="0.01"/>
<path d="M34.2917 52H68.7083M34.2917 52C31.5763 52 29.375 49.7614 29.375 47V37C29.375 34.2386 31.5763 32 34.2917 32H68.7083C71.4237 32 73.625 34.2386 73.625 37V47C73.625 49.7614 71.4237 52 68.7083 52M34.2917 52C31.5763 52 29.375 54.2386 29.375 57V67C29.375 69.7614 31.5763 72 34.2917 72H68.7083C71.4237 72 73.625 69.7614 73.625 67V57C73.625 54.2386 71.4237 52 68.7083 52M63.7917 42H63.8162M63.7917 62H63.8162" stroke="#F7F7F7" stroke-width="2" stroke-linecap="round" stroke-linejoin="round"/>
<rect y="130" width="641" height="105" rx="52.5" fill="#FF8C4B" fill-opacity="0.1"/>
<rect y="130" width="514" height="105" rx="52.5" fill="#FF8C4B" fill-opacity="0.3"/>
<rect y="130" width="447" height="105" rx="52.5" fill="#FF8C4B" fill-opacity="0.4"/>
<rect y="129.762" width="104.762" height="104.762" rx="52.381" fill="#282826"/>
<rect width="59" height="60" transform="translate(22 151.762)" fill="white" fill-opacity="0.01"/>
<path d="M34.2917 181.762H68.7083M34.2917 181.762C31.5763 181.762 29.375 179.523 29.375 176.762V166.762C29.375 164 31.5763 161.762 34.2917 161.762H68.7083C71.4237 161.762 73.625 164 73.625 166.762V176.762C73.625 179.523 71.4237 181.762 68.7083 181.762M34.2917 181.762C31.5763 181.762 29.375 184 29.375 186.762V196.762C29.375 199.523 31.5763 201.762 34.2917 201.762H68.7083C71.4237 201.762 73.625 199.523 73.625 196.762V186.762C73.625 184 71.4237 181.762 68.7083 181.762M63.7917 171.762H63.8162M63.7917 191.762H63.8162" stroke="#F7F7F7" stroke-width="2" stroke-linecap="round" stroke-linejoin="round"/>
<rect y="260.476" width="878" height="104" rx="52" fill="#FF8C4B" fill-opacity="0.1"/>
<rect y="260" width="340" height="104" rx="52" fill="#FF8C4B" fill-opacity="0.3"/>
<rect y="260" width="217.007" height="104.762" rx="52.381" fill="#FF8C4B" fill-opacity="0.4"/>
<rect y="260" width="104.762" height="104.762" rx="52.381" fill="#282826"/>
<rect width="59" height="60" transform="translate(22 282)" fill="white" fill-opacity="0.01"/>
<path d="M34.2917 312H68.7083M34.2917 312C31.5763 312 29.375 309.761 29.375 307V297C29.375 294.239 31.5763 292 34.2917 292H68.7083C71.4237 292 73.625 294.239 73.625 297V307C73.625 309.761 71.4237 312 68.7083 312M34.2917 312C31.5763 312 29.375 314.239 29.375 317V327C29.375 329.761 31.5763 332 34.2917 332H68.7083C71.4237 332 73.625 329.761 73.625 327V317C73.625 314.239 71.4237 312 68.7083 312M63.7917 302H63.8162M63.7917 322H63.8162" stroke="#F7F7F7" stroke-width="2" stroke-linecap="round" stroke-linejoin="round"/>
<rect y="390" width="543" height="105" rx="52.5" fill="#FF8C4B" fill-opacity="0.1"/>
<rect y="390" width="454" height="105" rx="52.5" fill="#FF8C4B" fill-opacity="0.3"/>
<rect y="390" width="300" height="105" rx="52.5" fill="#FF8C4B" fill-opacity="0.4"/>
<rect y="389.762" width="104.762" height="104.762" rx="52.381" fill="#282826"/>
<rect width="59" height="60" transform="translate(22 411.762)" fill="white" fill-opacity="0.01"/>
<path d="M34.2917 441.762H68.7083M34.2917 441.762C31.5763 441.762 29.375 439.524 29.375 436.762V426.762C29.375 424.001 31.5763 421.762 34.2917 421.762H68.7083C71.4237 421.762 73.625 424.001 73.625 426.762V436.762C73.625 439.524 71.4237 441.762 68.7083 441.762M34.2917 441.762C31.5763 441.762 29.375 444.001 29.375 446.762V456.762C29.375 459.524 31.5763 461.762 34.2917 461.762H68.7083C71.4237 461.762 73.625 459.524 73.625 456.762V446.762C73.625 444.001 71.4237 441.762 68.7083 441.762M63.7917 431.762H63.8162M63.7917 451.762H63.8162" stroke="#F7F7F7" stroke-width="2" stroke-linecap="round" stroke-linejoin="round"/>
<rect y="520" width="386" height="104" rx="52" fill="#FF8C4B" fill-opacity="0.1"/>
<rect y="520" width="232" height="104" rx="52" fill="#FF8C4B" fill-opacity="0.3"/>
<rect y="520" width="141" height="105" rx="52.5" fill="#FF8C4B" fill-opacity="0.4"/>
<rect y="520" width="104.762" height="104.762" rx="52.381" fill="#282826"/>
<rect width="59" height="60" transform="translate(22 542)" fill="white" fill-opacity="0.01"/>
<path d="M34.2917 572H68.7083M34.2917 572C31.5763 572 29.375 569.761 29.375 567V557C29.375 554.239 31.5763 552 34.2917 552H68.7083C71.4237 552 73.625 554.239 73.625 557V567C73.625 569.761 71.4237 572 68.7083 572M34.2917 572C31.5763 572 29.375 574.239 29.375 577V587C29.375 589.761 31.5763 592 34.2917 592H68.7083C71.4237 592 73.625 589.761 73.625 587V577C73.625 574.239 71.4237 572 68.7083 572M63.7917 562H63.8162M63.7917 582H63.8162" stroke="#F7F7F7" stroke-width="2" stroke-linecap="round" stroke-linejoin="round"/>
</svg>
