<svg width="492" height="769" viewBox="0 0 492 769" fill="none" xmlns="http://www.w3.org/2000/svg">
<path opacity="0.2" d="M45.125 315.875L446 180" stroke="#19BD82" stroke-width="90.25"/>
<path opacity="0.2" d="M45.125 315.875L446 587" stroke="#19BD82" stroke-width="90.25"/>
<path opacity="0.2" d="M225.625 45.125L45.125 180.5" stroke="#1996BD" stroke-width="90.25"/>
<path opacity="0.2" d="M45.125 315.875L45.125 180.5" stroke="#19BD82" stroke-width="90.25"/>
<path opacity="0.2" d="M45.125 180.5L45.125 45.125" stroke="#1996BD" stroke-width="90.25"/>
<path opacity="0.2" d="M45.125 452L45.125 587.375" stroke="#1996BD" stroke-width="90.25"/>
<circle cx="45.125" cy="180.5" r="45.125" transform="rotate(-90 45.125 180.5)" fill="#19BD82"/>
<circle cx="446.125" cy="180.5" r="45.125" fill="#19BD82"/>
<circle cx="446.125" cy="587.125" r="45.125" fill="#19BD82"/>
<circle cx="45.125" cy="315.875" r="45.125" fill="#282826"/>
<circle cx="225.625" cy="45.125" r="45.125" transform="rotate(-90 225.625 45.125)" fill="#1996BD"/>
<circle cx="45.125" cy="45.125" r="45.125" transform="rotate(-90 45.125 45.125)" fill="#1996BD"/>
<circle cx="45.125" cy="45.125" r="45.125" transform="matrix(-4.37114e-08 1 1 4.37114e-08 0 542.25)" fill="#1996BD"/>
<path opacity="0.2" d="M45 451L226 587" stroke="#1996BD" stroke-width="90.25"/>
<path opacity="0.2" d="M226 723L45.125 451.5" stroke="#1996BD" stroke-width="90.25"/>
<path opacity="0.2" d="M45.125 316.125L45.125 451.5" stroke="#19BD82" stroke-width="90.25"/>
<circle cx="45.125" cy="45.125" r="45.125" transform="matrix(-4.37114e-08 1 1 4.37114e-08 0 406.375)" fill="#19BD82"/>
<circle cx="45.125" cy="45.125" r="45.125" transform="matrix(1 0 0 -1 181 632)" fill="#1996BD"/>
<circle cx="45.125" cy="45.125" r="45.125" transform="matrix(1 0 0 -1 0 361)" fill="#282826"/>
<circle cx="45.125" cy="45.125" r="45.125" transform="matrix(-4.37114e-08 1 1 4.37114e-08 181 678)" fill="#1996BD"/>
</svg>
