<svg viewBox="0 0 392 181" fill="none" xmlns="http://www.w3.org/2000/svg">
<circle cx="90" cy="90.6362" r="90" fill="#FF8C4B"/>
<path d="M63.4828 93.8504C66.4266 99.3958 77.6441 103.493 90.0003 103.493C102.357 103.493 113.574 99.3958 116.518 93.8504M116.518 106.708C113.574 112.253 102.357 116.35 90.0003 116.35C77.5996 116.35 66.3834 112.283 63.4828 106.708M116.518 77.7789C116.518 84.8797 104.646 90.6361 90.0003 90.6361C75.3549 90.6361 63.4824 84.8797 63.4824 77.7789C63.4824 70.6781 75.3549 64.9218 90.0003 64.9218C104.646 64.9218 116.518 70.6781 116.518 77.7789Z" stroke="black" stroke-width="4.3714" stroke-linecap="round" stroke-linejoin="round"/>
<circle cx="302" cy="90.6362" r="90" fill="#19BD82"/>
<path d="M308.424 71.3504V64.9219M295.567 71.3504V64.9219M308.424 116.35V109.922M295.567 116.35V109.922M282.71 84.2076H276.281M282.71 97.0647H276.281M327.71 84.2076H321.281M327.71 97.0647H321.281M292.996 109.922H310.996C314.596 109.922 316.396 109.922 317.771 109.221C318.981 108.605 319.964 107.621 320.581 106.412C321.281 105.037 321.281 103.236 321.281 99.6361V81.6361C321.281 78.0358 321.281 76.2356 320.581 74.8605C319.964 73.6509 318.981 72.6674 317.771 72.0511C316.396 71.3504 314.596 71.3504 310.996 71.3504H292.996C289.395 71.3504 287.595 71.3504 286.22 72.0511C285.01 72.6674 284.027 73.6509 283.41 74.8605C282.71 76.2356 282.71 78.0358 282.71 81.6361V99.6361C282.71 103.236 282.71 105.037 283.41 106.412C284.027 107.621 285.01 108.605 286.22 109.221C287.595 109.922 289.395 109.922 292.996 109.922Z" stroke="black" stroke-width="4.3714" stroke-linecap="round" stroke-linejoin="round"/>
</svg>
