<svg width="1152" height="378" viewBox="0 0 1152 378" fill="none" xmlns="http://www.w3.org/2000/svg">
<circle cx="5.5" cy="189.176" r="20.5" fill="#FFE298"/>
<circle cx="39" cy="39" r="39" transform="matrix(-1 0 0 1 104 150.176)" fill="#FFE298"/>
<circle cx="13.5" cy="13.5" r="13.5" transform="matrix(-1 0 0 1 131 175.676)" fill="#FFE298"/>
<circle cx="28" cy="28" r="28" transform="matrix(-1 0 0 1 187 161.176)" fill="#FFE298"/>
<ellipse cx="42.5" cy="42" rx="42.5" ry="42" transform="matrix(-1 0 0 1 272 147.176)" fill="#FFE298"/>
<circle cx="118.5" cy="118.5" r="118.5" transform="matrix(-1 0 0 1 509 70.6758)" fill="#FFE298"/>
<circle cx="697.5" cy="189.176" r="188.5" fill="#FFE298"/>
<circle cx="55.5" cy="55.5" r="55.5" transform="matrix(-1 0 0 1 997 133.676)" fill="#FFE298"/>
<circle cx="1015.5" cy="189.176" r="18.5" fill="#FFE298"/>
<circle cx="56.5" cy="56.5" r="56.5" transform="matrix(-1 0 0 1 1147 132.676)" fill="#FFE298"/>
<circle cx="1254" cy="189.176" r="107" fill="#FFE298"/>
</svg>
