<svg width="32" height="33" viewBox="0 0 32 33" fill="none" xmlns="http://www.w3.org/2000/svg">
<rect x="0.5" y="0.824707" width="31" height="31" stroke="white" stroke-opacity="0.01"/>
<path d="M7.59981 5.52476C7.59981 6.85024 6.52529 7.92476 5.1998 7.92476C3.87432 7.92476 2.7998 6.85024 2.7998 5.52476C2.7998 4.19927 3.87432 3.12476 5.1998 3.12476C6.52529 3.12476 7.59981 4.19927 7.59981 5.52476Z" stroke="#282826" stroke-width="1.5" stroke-linecap="round" stroke-linejoin="round"/>
<path d="M29.1998 5.52476C29.1998 6.85024 28.1253 7.92476 26.7998 7.92476C25.4743 7.92476 24.3998 6.85024 24.3998 5.52476C24.3998 4.19927 25.4743 3.12476 26.7998 3.12476C28.1253 3.12476 29.1998 4.19927 29.1998 5.52476Z" stroke="#282826" stroke-width="1.5" stroke-linecap="round" stroke-linejoin="round"/>
<path d="M18.3998 5.52476C18.3998 6.85024 17.3253 7.92476 15.9998 7.92476C14.6743 7.92476 13.5998 6.85024 13.5998 5.52476C13.5998 4.19927 14.6743 3.12476 15.9998 3.12476C17.3253 3.12476 18.3998 4.19927 18.3998 5.52476Z" stroke="#282826" stroke-width="1.5" stroke-linecap="round" stroke-linejoin="round"/>
<path d="M7.59981 16.3248C7.59981 17.6502 6.52529 18.7248 5.1998 18.7248C3.87432 18.7248 2.7998 17.6502 2.7998 16.3248C2.7998 14.9993 3.87432 13.9248 5.1998 13.9248C6.52529 13.9248 7.59981 14.9993 7.59981 16.3248Z" stroke="#282826" stroke-width="1.5" stroke-linecap="round" stroke-linejoin="round"/>
<path d="M29.1998 16.3248C29.1998 17.6502 28.1253 18.7248 26.7998 18.7248C25.4743 18.7248 24.3998 17.6502 24.3998 16.3248C24.3998 14.9993 25.4743 13.9248 26.7998 13.9248C28.1253 13.9248 29.1998 14.9993 29.1998 16.3248Z" stroke="#282826" stroke-width="1.5" stroke-linecap="round" stroke-linejoin="round"/>
<path d="M18.3998 16.3248C18.3998 17.6502 17.3253 18.7248 15.9998 18.7248C14.6743 18.7248 13.5998 17.6502 13.5998 16.3248C13.5998 14.9993 14.6743 13.9248 15.9998 13.9248C17.3253 13.9248 18.3998 14.9993 18.3998 16.3248Z" stroke="#282826" stroke-width="1.5" stroke-linecap="round" stroke-linejoin="round"/>
<path d="M7.59981 27.1248C7.59981 28.4502 6.52529 29.5248 5.1998 29.5248C3.87432 29.5248 2.7998 28.4502 2.7998 27.1248C2.7998 25.7993 3.87432 24.7248 5.1998 24.7248C6.52529 24.7248 7.59981 25.7993 7.59981 27.1248Z" stroke="#282826" stroke-width="1.5" stroke-linecap="round" stroke-linejoin="round"/>
<path d="M29.1998 27.1248C29.1998 28.4502 28.1253 29.5248 26.7998 29.5248C25.4743 29.5248 24.3998 28.4502 24.3998 27.1248C24.3998 25.7993 25.4743 24.7248 26.7998 24.7248C28.1253 24.7248 29.1998 25.7993 29.1998 27.1248Z" stroke="#282826" stroke-width="1.5" stroke-linecap="round" stroke-linejoin="round"/>
<path d="M18.3998 27.1248C18.3998 28.4502 17.3253 29.5248 15.9998 29.5248C14.6743 29.5248 13.5998 28.4502 13.5998 27.1248C13.5998 25.7993 14.6743 24.7248 15.9998 24.7248C17.3253 24.7248 18.3998 25.7993 18.3998 27.1248Z" stroke="#282826" stroke-width="1.5" stroke-linecap="round" stroke-linejoin="round"/>
</svg>
