<svg width="98" height="98" viewBox="0 0 98 98" fill="none" xmlns="http://www.w3.org/2000/svg">
<g filter="url(#filter0_d_150_705)">
<circle cx="48.5" cy="48.5" r="36.5" fill="white"/>
</g>
<circle r="4" transform="matrix(1 0 0 -1 5 93)" fill="#0092FA" stroke="#225181" stroke-width="1.5"/>
<circle r="4" transform="matrix(1 0 0 -1 27 93)" fill="#0092FA" stroke="#225181" stroke-width="1.5"/>
<circle r="4" transform="matrix(1 0 0 -1 49 93)" fill="#9ED5FD" stroke="#225181" stroke-width="1.5"/>
<circle r="4" transform="matrix(1 0 0 -1 71 93)" stroke="#225181" stroke-width="1.5"/>
<circle r="4" transform="matrix(1 0 0 -1 93 93)" stroke="#225181" stroke-width="1.5" stroke-linecap="round" stroke-dasharray="2 6"/>
<circle r="4" transform="matrix(1 0 0 -1 27 71)" fill="#0092FA" stroke="#225181" stroke-width="1.5"/>
<circle r="4" transform="matrix(1 0 0 -1 5 71)" fill="#0092FA" stroke="#225181" stroke-width="1.5"/>
<circle r="4" transform="matrix(1 0 0 -1 27 49)" fill="#9ED5FD" stroke="#225181" stroke-width="1.5"/>
<circle r="4" transform="matrix(1 0 0 -1 27 27)" stroke="#225181" stroke-width="1.5"/>
<circle r="4" transform="matrix(1 0 0 -1 27 5)" stroke="#225181" stroke-width="1.5" stroke-linecap="round" stroke-dasharray="2 6"/>
<circle r="4" transform="matrix(1 0 0 -1 49 49)" fill="#9ED5FD" stroke="#225181" stroke-width="1.5"/>
<circle r="4" transform="matrix(1 0 0 -1 49 71)" fill="#9ED5FD" stroke="#225181" stroke-width="1.5"/>
<circle r="4" transform="matrix(1 0 0 -1 49 27)" stroke="#225181" stroke-width="1.5"/>
<circle r="4" transform="matrix(1 0 0 -1 5 49)" fill="#9ED5FD" stroke="#225181" stroke-width="1.5"/>
<circle r="4" transform="matrix(1 0 0 -1 49 5)" stroke="#225181" stroke-width="1.5" stroke-linecap="round" stroke-dasharray="2 6"/>
<circle r="4" transform="matrix(1 0 0 -1 71 27)" stroke="#225181" stroke-width="1.5"/>
<circle r="4" transform="matrix(1 0 0 -1 71 49)" stroke="#225181" stroke-width="1.5"/>
<circle r="4" transform="matrix(1 0 0 -1 71 71)" stroke="#225181" stroke-width="1.5"/>
<circle r="4" transform="matrix(1 0 0 -1 5 27)" stroke="#225181" stroke-width="1.5"/>
<circle r="4" transform="matrix(1 0 0 -1 71 5)" stroke="#225181" stroke-width="1.5" stroke-linecap="round" stroke-dasharray="2 6"/>
<circle r="4" transform="matrix(1 0 0 -1 93 27)" stroke="#225181" stroke-width="1.5" stroke-linecap="round" stroke-dasharray="2 6"/>
<circle r="4" transform="matrix(1 0 0 -1 93 49)" stroke="#225181" stroke-width="1.5" stroke-linecap="round" stroke-dasharray="2 6"/>
<circle r="4" transform="matrix(1 0 0 -1 93 71)" stroke="#225181" stroke-width="1.5" stroke-linecap="round" stroke-dasharray="2 6"/>
<circle r="4" transform="matrix(1 0 0 -1 5 5)" stroke="#225181" stroke-width="1.5" stroke-linecap="round" stroke-dasharray="2 6"/>
<circle r="4" transform="matrix(1 0 0 -1 93 5)" stroke="#225181" stroke-width="1.5" stroke-linecap="round" stroke-dasharray="2 6"/>
<defs>
<filter id="filter0_d_150_705" x="8" y="10" width="81" height="81" filterUnits="userSpaceOnUse" color-interpolation-filters="sRGB">
<feFlood flood-opacity="0" result="BackgroundImageFix"/>
<feColorMatrix in="SourceAlpha" type="matrix" values="0 0 0 0 0 0 0 0 0 0 0 0 0 0 0 0 0 0 127 0" result="hardAlpha"/>
<feOffset dy="2"/>
<feGaussianBlur stdDeviation="2"/>
<feComposite in2="hardAlpha" operator="out"/>
<feColorMatrix type="matrix" values="0 0 0 0 0.666667 0 0 0 0 0.886275 0 0 0 0 0.992157 0 0 0 1 0"/>
<feBlend mode="normal" in2="BackgroundImageFix" result="effect1_dropShadow_150_705"/>
<feBlend mode="normal" in="SourceGraphic" in2="effect1_dropShadow_150_705" result="shape"/>
</filter>
</defs>
</svg>
