<svg width="110" height="108" viewBox="0 0 110 108" fill="none" xmlns="http://www.w3.org/2000/svg">
<g filter="url(#filter0_d_154_988)">
<circle cx="40.5" cy="53.24" r="36.5" fill="white"/>
</g>
<circle r="8" transform="matrix(1 0 0 -1 41 53.74)" fill="#0092FA" stroke="#225181" stroke-width="1.5"/>
<path d="M89.5303 54.2703C89.8232 53.9774 89.8232 53.5026 89.5303 53.2097L84.7574 48.4367C84.4645 48.1438 83.9896 48.1438 83.6967 48.4367C83.4038 48.7296 83.4038 49.2045 83.6967 49.4973L87.9393 53.74L83.6967 57.9826C83.4038 58.2755 83.4038 58.7504 83.6967 59.0433C83.9896 59.3362 84.4645 59.3362 84.7574 59.0433L89.5303 54.2703ZM89 52.99H53V54.49H89V52.99Z" fill="#225181"/>
<circle cx="101" cy="53.74" r="8" transform="rotate(-90 101 53.74)" fill="#9ED5FD" stroke="#225181" stroke-width="1.5"/>
<path d="M75.6914 19.7988C75.6914 19.3846 75.3556 19.0488 74.9414 19.0488H68.1914C67.7772 19.0488 67.4414 19.3846 67.4414 19.7988C67.4414 20.213 67.7772 20.5488 68.1914 20.5488H74.1914V26.5488C74.1914 26.963 74.5272 27.2988 74.9414 27.2988C75.3556 27.2988 75.6914 26.963 75.6914 26.5488V19.7988ZM74.4111 19.2685L48.9552 44.7243L50.0159 45.785L75.4717 20.3292L74.4111 19.2685Z" fill="#225181"/>
<circle cx="83.4265" cy="11.3137" r="8" transform="rotate(-135 83.4265 11.3137)" fill="#9ED5FD" stroke="#225181" stroke-width="1.5"/>
<path d="M74.9412 88.4312C75.3554 88.4312 75.6912 88.0954 75.6912 87.6812V80.9312C75.6912 80.5169 75.3554 80.1812 74.9412 80.1812C74.5269 80.1812 74.1912 80.5169 74.1912 80.9312V86.9312H68.1912C67.7769 86.9312 67.4412 87.2669 67.4412 87.6812C67.4412 88.0954 67.7769 88.4312 68.1912 88.4312H74.9412ZM75.4715 87.1508L50.0156 61.695L48.955 62.7556L74.4108 88.2115L75.4715 87.1508Z" fill="#225181"/>
<circle cx="83.4263" cy="96.1663" r="8" transform="rotate(-45 83.4263 96.1663)" fill="#9ED5FD" stroke="#225181" stroke-width="1.5"/>
<circle r="8" transform="matrix(-4.37114e-08 -1 -1 4.37114e-08 41 53.74)" fill="#0092FA" stroke="#225181" stroke-width="1.5"/>
<circle r="8" transform="matrix(-0.5 -0.866025 -0.866025 0.5 41 53.74)" fill="#0092FA" stroke="#225181" stroke-width="1.5"/>
<circle r="8" transform="matrix(-0.866025 -0.5 -0.5 0.866025 41 53.74)" fill="#0092FA" stroke="#225181" stroke-width="1.5"/>
<circle r="8" transform="matrix(-0.5 0.866025 0.866025 0.5 41 53.74)" fill="#0092FA" stroke="#225181" stroke-width="1.5"/>
<ellipse rx="12" ry="12" transform="matrix(-1 -8.74228e-08 -8.74228e-08 1 41 53.8118)" fill="#0092FA" stroke="#225181" stroke-width="1.5"/>
<defs>
<filter id="filter0_d_154_988" x="0" y="14.74" width="81" height="81" filterUnits="userSpaceOnUse" color-interpolation-filters="sRGB">
<feFlood flood-opacity="0" result="BackgroundImageFix"/>
<feColorMatrix in="SourceAlpha" type="matrix" values="0 0 0 0 0 0 0 0 0 0 0 0 0 0 0 0 0 0 127 0" result="hardAlpha"/>
<feOffset dy="2"/>
<feGaussianBlur stdDeviation="2"/>
<feComposite in2="hardAlpha" operator="out"/>
<feColorMatrix type="matrix" values="0 0 0 0 0.666667 0 0 0 0 0.886275 0 0 0 0 0.992157 0 0 0 1 0"/>
<feBlend mode="normal" in2="BackgroundImageFix" result="effect1_dropShadow_154_988"/>
<feBlend mode="normal" in="SourceGraphic" in2="effect1_dropShadow_154_988" result="shape"/>
</filter>
</defs>
</svg>
