<?xml version="1.0" encoding="utf-8"?>
<!-- Generator: Adobe Illustrator 24.2.1, SVG Export Plug-In . SVG Version: 6.00 Build 0)  -->
<svg version="1.1" id="Layer_1" xmlns="http://www.w3.org/2000/svg" xmlns:xlink="http://www.w3.org/1999/xlink" x="0px" y="0px"
	 viewBox="0 0 543.3 167.4" style="enable-background:new 0 0 543.3 167.4;" xml:space="preserve">
<style type="text/css">
	.st0{fill:#95C122;}
	.st1{fill:#0E84C7;}
</style>
<path class="st0" d="M164.9,103c-14.9-19.7-37.2-39.8-43.3-45c-4.2-3.6-8.7-5.2-12.9-5.2c-4.2,0-8.4,1.9-12,4.9
	c-0.6,0.6-1.6,1.6-2.9,2.6C85,67.8,57.6,93,56.9,93.7c-1.9,1.9-4.9,3.2-7.8,3.2c-2.6,0-5.5-1.3-8.4-3.9c-1.9-1.9-11.3-9.4-22.3-21.7
	C11.6,63.9,6.1,57.1,6.1,57.1s-1.3,2.6-1.9,4.2c-0.6,1.6,0,2.3,0.3,2.9c3.6,5.2,20.4,25.2,43.3,45c4.2,3.6,8.7,5.2,12.9,5.2
	s8.4-1.9,12-4.9c0.6-0.6,1.9-1.6,2.9-2.6c8.7-7.4,25.5-22.6,33.3-30.1c1.6-1.6,2.9-2.6,3.6-3.2c1.9-1.9,4.9-3.2,7.8-3.2
	c2.6,0,5.5,1.3,8.4,3.9c4.9,4.2,12.9,11.6,22.3,21.3c6.8,7.4,12.3,14.2,12.3,14.2s1.3-2.6,1.9-4.5
	C165.9,104.3,165.2,103.4,164.9,103"/>
<path class="st1" d="M76.3,30.6c-7.8,5.5-39.5,34.9-45.6,42c0,0,4.5,4.9,11,10.3c1.6,1.6,3.9,1.3,5.5-0.6
	c12.3-12.3,37.2-34.3,40.4-36.9c9.4-8.1,20.4-8.7,30.4-1.3c24.3,18.1,45.9,46.9,49.5,52.4c0,0,0.6-2.6,1-4.9c0,0,0.3-2.3-0.6-4.2
	c-23-33-47.2-53.4-56.6-58.5C101.2,23.5,88.6,21.5,76.3,30.6"/>
<path class="st1" d="M50.4,13.1C34.9,25.7,14.6,44.5,9.4,50c0,0,3.9,4.9,9.7,10.7c1.3,1,2.3,0.6,3.6-0.3C38.2,45.5,55,30,64.7,22.5
	c16.5-12.6,35.6-13.9,54.7,1c7.1,5.5,13.3,11,22.3,20.4c11.6,12.6,19.1,23.3,27.5,35.2c0,0,0-3.2-1-7.4c0-0.6-0.3-1.9-1-2.9
	c-1.6-3.2-9.1-15.8-19.7-28.1c-21-24.6-34.3-32-43-36.5C93.5-1.7,71.5-3.4,50.4,13.1"/>
<path class="st1" d="M92.8,137c7.8-5.5,39.5-34.9,45.6-42c0,0-4.5-4.9-11-10.3c-1.6-1.6-3.9-1.3-5.5,0.6c-12.6,12-37.5,34-40.7,36.5
	c-9.4,8.1-20.4,8.7-30.4,1.3C26.5,105,4.9,76.2,1.3,70.7c0,0-0.6,2.6-1,4.9c0,0-0.3,2.3,0.6,4.2c23,33,47.2,53.4,56.6,58.5
	C68.2,144.1,80.5,145.7,92.8,137"/>
<path class="st1" d="M118.4,154.1c15.5-12.6,35.9-31.4,41.1-36.9c0,0-3.9-4.9-9.7-10.7c-1.3-1-2.3-0.6-3.2,0.3
	c-15.5,14.9-32.3,30.4-42,37.8c-16.5,12.6-35.6,13.9-54.7-1c-7.1-5.5-13.3-11-22.3-20.4C15.8,110.8,8.4,100.1,0,88.2
	c0,0,0,2.9,1,7.4c0.3,0.6,0.3,1.9,1,2.9c1.6,3.2,9.1,15.8,19.7,28.5c21,24.6,34.3,32,43,36.5C75.7,169,98,170.9,118.4,154.1"/>
<path class="st1" d="M244.8,9.3h-8.1v14.9h-30.1v41.4h30.1v22.3h8.1V65.5h30.4V24.1h-30.4V9.3z M237,58.1h-22.3V31.2H237V58.1z
	 M267.4,58.1h-22.3V31.2h22.3V58.1z"/>
<path class="st1" d="M339.9,49.7l-5.5,4.2l0.6,0.6c2.3,2.3,5.2,5.8,7.4,9.1l0.3,0.6l5.8-4.5l-0.3-0.6c-1.9-2.6-5.2-6.1-7.8-9.1
	L339.9,49.7z"/>
<polygon class="st1" points="352.2,65.2 332.1,65.2 332.1,49 348.9,49 348.9,42.2 332.1,42.2 332.1,31.9 350.5,31.9 350.5,25.4 
	306.9,25.4 306.9,31.9 325,31.9 325,42.2 308.5,42.2 308.5,49 325,49 325,65.2 305.6,65.2 305.6,72 352.2,72 "/>
<path class="st1" d="M294,85.6h69.5V12.2H294V85.6z M356,78.8h-54.7V19H356V78.8z"/>
<path class="st1" d="M411,54.5c-3.2-2.9-12.6-10.3-12.6-10.3v-3.9h10.7v-7.1h-10.7V21.9c7.8-1.3,11-2.3,11-2.3l-1.6-7.1
	c0,0-6.8,1.6-13.9,2.6c-9.1,1.3-14.2,1.6-14.2,1.6l0.6,7.1c0,0,5.8-0.6,10.7-1.6v10.7h-12.3V40H390c-2.9,9.4-7.8,18.4-12.6,25.5
	c0,0,5.2,5.8,5.2,5.5c3.2-4.5,6.1-9.7,8.4-15.2v31.4h7.1v-34c2.6,2.6,5.2,4.9,7.4,6.8l0.6,0.6l5.2-5.8L411,54.5z"/>
<path class="st1" d="M436.2,49c1.3-1.6,1.9-3.6,1.9-3.6l-7.1-1.3c1.3-0.6,2.6-1.6,3.9-2.3c8.7-5.5,14.6-12,18.4-19.4v-0.3v-6.5
	h-24.9c0.6-1.3,1.6-2.6,2.3-3.9l0.3-0.6l-6.8-2.6L424,9.3c-3.9,7.8-9.7,14.9-16.8,20.7c0,0,3.9,2.9,5.8,4.5
	c4.2-3.9,8.1-7.8,10.7-11.3H445c-3.9,4.9-7.4,8.7-11.6,11.6c-2.9-2.6-5.2-4.5-8.7-7.4L424,27l-4.5,4.9l0.6,0.3
	c3.2,2.6,5.2,4.2,7.1,6.1c-5.5,2.9-11.6,5.5-18.8,7.4c0,0,4.5,6.1,4.9,6.1c4.2-1.3,12.6-5.2,16.2-6.8c-4.9,9.4-15.2,17.1-22.6,21
	c0,0,3.2,3.2,5.5,5.5C424,66.2,432,55.8,432,55.8h16.2c-1,5.5-5.8,12.3-12.6,16.5c-2.6-2.6-5.5-5.2-8.4-8.1l-5.2,4.5
	c2.9,2.6,5.2,5.2,7.4,7.4c-10.3,4.5-23.9,5.2-23.9,5.2l2.9,6.1c0,0,40.1-1,48.2-32v-6.8L436.2,49L436.2,49z"/>
<rect x="470.2" y="16.7" class="st1" width="32.7" height="7.1"/>
<path class="st1" d="M504.2,73c-2.3-5.8-5.8-13.9-8.7-19.7l-0.3-0.6l-6.8,2.9l0.3,0.6c1.6,3.9,3.2,7.4,4.9,11.6L476.3,72
	c3.9-6.1,8.4-20.4,11-27.8h18.1v-7.1h-39.1v7.1h12.9c-0.6,4.2-5.2,17.8-11.3,28.8c-0.6,1.3-1.9,2.3-1.9,2.3l2.3,5.2
	c0,0,21-5.8,27.2-6.5l0.6,1.9L504.2,73z"/>
<path class="st1" d="M521.9,25.4c0-5.2,0.3-10,0.3-15.2V9.6h-7.8v0.6c0,5.2,0,10.3,0,15.2h-10.3v7.4h10v9.7
	c0,14.9-2.6,22.6-8.4,31.4c-3.6,5.5-9.7,9.1-9.7,9.1l5.8,5.8c0,0,20-10.3,20-43V32.9h13.3c0,13.3-0.6,26.5-1.3,39.1
	c0,3.9-1.9,5.8-5.2,5.8c-2.9,0-8.7,0-8.7,0c0.3,2.3,1.3,7.8,1.3,7.8h9.4c6.8,0,10.3-4.2,11-12c0.6-12,1.3-27.8,1.6-47.5v-0.6
	C543,25.4,521.9,25.4,521.9,25.4z"/>
<path class="st1" d="M277.5,118.9c-1-1-2.3-1.3-3.2-1.6c-2.3-0.6-4.9-0.6-6.8,0c-1,0.3-1.9,0.6-2.9,1c-1,0.3-1.6,1-2.3,1.6
	c-0.3,0.3-0.6,0.6-1,1v-19.1h-6.1v46.9h6.1V127c1-1.6,2.3-2.6,3.9-3.6s2.9-1.3,4.5-1.3c1.9,0,3.2,0.6,3.9,1.6c1,1,1.3,2.9,1.3,5.2
	v19.7h6.1v-20.7c0-2.3-0.3-4.2-1-5.5C279.4,120.8,278.4,119.5,277.5,118.9"/>
<rect x="287.5" y="105" class="st1" width="6.1" height="6.8"/>
<rect x="287.5" y="117.3" class="st1" width="6.1" height="31"/>
<path class="st1" d="M323.1,119.2c-1-1-1.9-1.6-3.2-1.9c-2.3-0.6-5.2-0.6-7.4-0.3c-1,0.3-1.9,0.6-2.9,1c-1,0.3-1.6,1-2.3,1.6
	c-0.3,0.3-1,0.6-1.3,1.3l-0.6-3.6h-4.9v31h6.1v-21.7c1-1.6,2.3-2.6,3.9-3.6s2.9-1.3,4.5-1.3s2.9,0.6,3.9,1.6s1.3,2.9,1.3,5.2v19.7
	h6.1v-20.7c0-1.9-0.3-3.9-0.6-5.2C324.7,121.1,323.7,120.2,323.1,119.2"/>
<path class="st1" d="M354.8,122.8c-1-1.9-2.3-3.2-4.5-4.5c-1.9-1-4.5-1.6-7.8-1.6c-1,0-1.6,0-2.6,0c-1,0-1.6,0.3-2.6,0.3
	c-0.6,0.3-1.6,0.3-2.3,0.6c-0.6,0.3-1.3,0.3-1.9,0.6h-0.3v5.2l0.6-0.3c1.3-0.3,2.6-1,3.9-1.3c1.3-0.3,2.6-0.3,4.2-0.3
	c1.9,0,3.6,0.3,4.5,1c1,0.6,1.9,1.3,2.3,2.3c0.3,0.3,0.3,1,0.3,1.6s0.3,1.3,0.3,1.9v1.3c-1-0.3-1.9-0.6-2.9-0.6
	c-1.3-0.3-2.9-0.3-4.5-0.3s-3.2,0.3-4.9,0.6c-1.3,0.3-2.6,1.3-3.6,1.9c-1,1-1.9,1.9-2.3,3.2c-0.6,1.3-1,2.6-1,4.2s0.3,2.9,0.6,4.2
	c0.6,1.3,1.3,2.3,2.3,3.2c1,1,1.9,1.6,3.2,1.9s2.6,0.6,4.2,0.6c1,0,2.3,0,3.2-0.3c1-0.3,1.9-0.6,2.6-1c1-0.3,1.6-1,2.3-1.3
	c0.3-0.3,0.6-0.6,1-0.6l0.3,2.6h5.2v-20.7c0-1,0-1.9-0.3-2.6C355.4,124.4,355.4,123.4,354.8,122.8 M349.6,135.1v5.2
	c-0.3,0.3-0.6,0.3-1,0.6c-0.3,0.3-1,0.6-1.6,1.3c-0.6,0.3-1.6,0.6-2.3,1c-1.6,0.6-3.2,0.6-4.9,0c-0.6-0.3-1.3-0.6-1.6-1
	s-0.6-1-1-1.6c-0.3-0.6-0.3-1.3-0.3-2.3c0-1.6,0.6-2.9,1.6-3.6c1-0.6,2.6-1.3,4.5-1.3c1.3,0,2.9,0,3.9,0.3
	C347.6,134.7,348.9,135.1,349.6,135.1"/>
<path class="st1" d="M243.5,134.7c-2.9,5.2-8.4,8.1-14.2,8.1c-9.1,0-16.5-7.4-16.5-16.5s7.4-16.5,16.5-16.5c5.8,0,11.3,3.2,14.2,8.1
	l0.3,0.3h6.5l-0.3-1c-3.6-8.1-11.6-13.6-20.7-13.6c-12.3,0-22.3,10-22.3,22.3s10,22.3,22.3,22.3c9.1,0,17.1-5.2,20.7-13.6l0.3-1
	L243.5,134.7L243.5,134.7z"/>
<path class="st1" d="M399.1,129.2c-1,1.9-1.9,4.9-3.2,8.7c-1.3-3.2-2.3-6.1-3.2-8.7l-10-24.3h-8.4v43.3h6.5v-21
	c0-3.9,0-8.4-0.3-13.3c1.3,2.9,2.3,5.8,3.2,8.4l10.7,25.5h3.2l10.7-25.5c1-2.6,2.3-5.5,3.6-8.7c-0.3,4.9-0.3,9.1-0.3,13.3v21h6.5
	v-43h-8.4L399.1,129.2z"/>
<path class="st1" d="M484.1,122.8c-0.6-1.3-1.6-2.3-2.6-2.9c-1-0.6-1.9-1.3-2.9-1.9c-1-0.3-1.9-1-2.9-1c-1-0.3-1.9-0.3-2.9-0.3
	c-1.9,0-3.6,0.3-5.2,1c-1,0.6-2.3,1.3-2.9,1.9v-17.8h-6.1v46.9h4.9l1-2.9l0.3,0.3c0.3,0.6,1,1,1.6,1.6c0.6,0.3,1.6,1,2.6,1.3
	c1,0.3,2.3,0.6,3.6,0.6c1.6,0,3.6-0.3,5.2-1c1.6-0.6,3.2-1.6,4.5-3.2c1.3-1.3,2.3-3.2,3.2-5.2c0.6-1.9,1.3-4.5,1.3-7.4
	c0-1.9-0.3-3.9-0.6-5.5C485.4,125.4,485.1,124.1,484.1,122.8 M480.2,132.8c0,1.6-0.3,3.2-0.6,4.5s-1,2.6-1.6,3.6
	c-0.6,1-1.6,1.6-2.6,2.3c-1,0.6-2.3,0.6-3.6,0.6c-1,0-1.6,0-2.6-0.3c-0.6-0.3-1.6-0.6-1.9-1c-0.6-0.3-1.3-0.6-1.6-1.3
	c-0.3-0.3-0.6-0.6-1-1V125c1-1,1.9-1.6,3.2-2.3c1.9-1,4.5-1.3,6.8-0.3c1,0.3,1.6,0.6,2.6,1.6c0.6,0.6,1.6,1.9,1.9,3.2
	C479.9,128.6,480.2,130.5,480.2,132.8"/>
<rect x="491.2" y="117.3" class="st1" width="6.1" height="31"/>
<rect x="491.2" y="105" class="st1" width="6.1" height="6.8"/>
<rect x="504.2" y="101.7" class="st1" width="6.1" height="46.9"/>
<path class="st1" d="M541.3,125c-0.6-1.9-1.6-3.6-2.6-4.9c-1.3-1.3-2.6-2.3-3.9-2.9c-3.2-1.3-7.1-1.3-10.3,0.3
	c-1.6,0.6-3.2,1.6-4.5,3.2c-1.3,1.3-2.3,3.2-3.2,5.2c-0.6,1.9-1.3,4.5-1.3,7.4s0.3,5.2,1.3,7.4c0.6,1.9,1.9,3.6,3.2,4.9
	c1.3,1.3,3.2,2.3,5.2,2.9s3.9,1,6.1,1c1.9,0,3.6,0,5.2-0.3c1.6-0.3,2.9-0.6,4.2-1.3l0.3-0.3v-5.2l-0.6,0.3c-1.3,0.3-2.6,1-3.9,1
	c-1.3,0.3-2.6,0.3-4.2,0.3c-1.6,0-2.9-0.3-4.2-0.6s-2.3-1-3.2-1.6c-1-0.6-1.6-1.6-2.3-2.9c-0.3-1.3-0.6-2.6-0.6-4.2h20.7v-0.6
	c0-0.6,0-1,0-1.3v-0.6C542,129.2,541.7,127,541.3,125 M521.9,129.2c0-1,0.3-1.6,0.6-2.6s1-1.6,1.6-2.6c0.6-0.6,1.6-1.3,2.3-1.6
	c1.6-0.6,4.2-0.6,5.8,0c1,0.3,1.6,1,1.9,1.6c0.6,0.6,1,1.6,1.3,2.6c0.3,0.6,0.3,1.6,0.3,2.6H521.9z"/>
<path class="st1" d="M438.2,116.6c-9.1,0-16.2,7.4-16.2,16.2c0,9.1,7.4,16.2,16.2,16.2c9.1,0,16.2-7.4,16.2-16.2
	C454.7,123.7,447.6,116.6,438.2,116.6 M438.2,143.8c-6.1,0-11-4.9-11-11s4.9-11,11-11s11,4.9,11,11S444.3,143.8,438.2,143.8"/>
</svg>
