<svg width="56" height="56" viewBox="0 0 56 56" fill="none" xmlns="http://www.w3.org/2000/svg">
<path d="M42.344 32.3703C41.2556 32.3703 40.3848 31.4995 40.3848 30.4111C40.3848 29.3226 41.2556 28.4519 42.344 28.4519C43.4325 28.4519 44.3032 29.3226 44.3032 30.4111C44.3032 31.4451 43.4325 32.3703 42.344 32.3703ZM32.688 32.3703C31.5996 32.3703 30.7289 31.4995 30.7289 30.4111C30.7289 29.3226 31.5996 28.4519 32.688 28.4519C33.7765 28.4519 34.6472 29.3226 34.6472 30.4111C34.6472 31.4451 33.7765 32.3703 32.688 32.3703ZM47.0167 43.367C50.071 41.1685 52 37.898 52 34.3052C52 27.6565 45.57 22.2945 37.586 22.2945C29.6021 22.2945 23.172 27.6565 23.172 34.3052C23.172 40.9541 29.6021 46.3161 37.586 46.3161C39.2471 46.3161 40.801 46.1016 42.3013 45.6727C42.4085 45.6191 42.5693 45.6191 42.73 45.6191C42.998 45.6191 43.266 45.7263 43.4802 45.8335L46.6416 47.6567C46.7488 47.7102 46.8024 47.7638 46.9096 47.7638C46.973 47.7641 47.0359 47.7518 47.0945 47.7276C47.1532 47.7034 47.2064 47.6679 47.2513 47.623C47.2961 47.5782 47.3316 47.5249 47.3557 47.4662C47.3799 47.4076 47.3921 47.3447 47.3919 47.2813C47.3919 47.174 47.3383 47.0668 47.3383 46.9059C47.3383 46.8523 46.9096 45.4046 46.6952 44.493C46.6416 44.3858 46.6416 44.2786 46.6416 44.1713C46.588 43.7959 46.7488 43.528 47.0167 43.367Z" fill="#282826"/>
<path d="M26.9504 21.035C25.7008 21.035 24.7114 20.0456 24.7114 18.7959C24.7114 17.5462 25.7008 16.5569 26.9504 16.5569C28.2001 16.5569 29.1895 17.5462 29.1895 18.7959C29.1895 19.9935 28.2001 21.035 26.9504 21.035ZM15.4752 21.035C14.2255 21.035 13.2362 20.0456 13.2362 18.7959C13.2362 17.5462 14.2255 16.5569 15.4752 16.5569C16.7249 16.5569 17.7143 17.5462 17.7143 18.7959C17.7143 19.9935 16.7249 21.035 15.4752 21.035ZM21.3472 9C11.7872 9 4 15.4226 4 23.3972C4 27.7326 6.30932 31.6396 10.0151 34.2623C10.2837 34.4764 10.4985 34.7974 10.4985 35.2256C10.4985 35.3325 10.4447 35.4932 10.4447 35.6003C10.1762 36.6707 9.69283 38.4369 9.63909 38.4903C9.58549 38.651 9.53175 38.758 9.53175 38.9186C9.53175 39.2397 9.8003 39.5073 10.1224 39.5073C10.2299 39.5073 10.3373 39.4538 10.4447 39.4002L14.2579 37.2059C14.5264 37.0453 14.8487 36.9382 15.1708 36.9382C15.3321 36.9382 15.4931 36.9382 15.6542 36.9918C17.4266 37.4735 19.3599 37.7945 21.2934 37.7945H22.2602C21.8841 36.6707 21.6693 35.4932 21.6693 34.2621C21.6693 27.0368 28.7585 21.1495 37.4589 21.1495H38.4257C37.1904 14.245 29.9937 9 21.3472 9Z" fill="#282826"/>
</svg>
