<svg width="56" height="56" viewBox="0 0 56 56" fill="none" xmlns="http://www.w3.org/2000/svg">
<path fill-rule="evenodd" clip-rule="evenodd" d="M28.2075 4C14.8214 4 4 14.9011 4 28.3873C4 39.1676 10.9336 48.2928 20.5524 51.5225C21.755 51.7653 22.1955 50.9978 22.1955 50.3521C22.1955 49.7868 22.1558 47.8488 22.1558 45.8296C15.4219 47.2835 14.0196 42.9225 14.0196 42.9225C12.9374 40.0961 11.334 39.3697 11.334 39.3697C9.12998 37.8758 11.4945 37.8758 11.4945 37.8758C13.9394 38.0373 15.2222 40.3791 15.2222 40.3791C17.3861 44.0934 20.873 43.0439 22.2758 42.3978C22.4759 40.8231 23.1176 39.7329 23.7989 39.1274C18.4282 38.5621 12.7774 36.4626 12.7774 27.0951C12.7774 24.4302 13.7387 22.25 15.2619 20.5544C15.0215 19.9489 14.1797 17.4451 15.5027 14.094C15.5027 14.094 17.5466 13.4478 22.1553 16.5973C24.1285 16.0634 26.1634 15.7919 28.2075 15.7896C30.2514 15.7896 32.335 16.0725 34.2591 16.5973C38.8683 13.4478 40.9122 14.094 40.9122 14.094C42.2352 17.4451 41.3929 19.9489 41.1526 20.5544C42.7159 22.25 43.6375 24.4302 43.6375 27.0951C43.6375 36.4626 37.9868 38.5214 32.5758 39.1274C33.4578 39.8945 34.2189 41.3478 34.2189 43.6494C34.2189 46.9198 34.1793 49.5445 34.1793 50.3516C34.1793 50.9978 34.6203 51.7653 35.8224 51.523C45.4412 48.2923 52.3748 39.1676 52.3748 28.3873C52.4144 14.9011 41.5534 4 28.2075 4Z" fill="#282826"/>
</svg>
