<svg width="66" height="66" viewBox="0 0 66 66" fill="none" xmlns="http://www.w3.org/2000/svg">
<path d="M18.9934 52.0453L17.9119 53.7277L18.9934 52.0453ZM29.2957 58.6682L28.2142 60.3506L29.2957 58.6682ZM36.6215 58.5429L35.4831 56.8985H35.4831L36.6215 58.5429ZM45.9208 52.105L47.0592 53.7493V53.7493L45.9208 52.105ZM49.7914 11.7663L50.3795 9.85471L49.7914 11.7663ZM34.8718 7.17565L34.2837 9.08721H34.2837L34.8718 7.17565ZM31.1177 7.13773L31.6671 9.06078L31.1177 7.13773ZM14.6872 11.8322L14.1378 9.9091L14.6872 11.8322ZM31.0004 32.9998C31.0004 34.1044 31.8958 34.9998 33.0004 34.9998C34.105 34.9998 35.0004 34.1044 35.0004 32.9998H31.0004ZM35.0004 19.7998C35.0004 18.6953 34.105 17.7998 33.0004 17.7998C31.8958 17.7998 31.0004 18.6953 31.0004 19.7998H35.0004ZM31.0004 46.1998C31.0004 47.3044 31.8958 48.1998 33.0004 48.1998C34.105 48.1998 35.0004 47.3044 35.0004 46.1998H31.0004ZM35.0004 42.8998C35.0004 41.7952 34.105 40.8998 33.0004 40.8998C31.8958 40.8998 31.0004 41.7952 31.0004 42.8998L35.0004 42.8998ZM7.90039 18.1782V35.39H11.9004V18.1782H7.90039ZM17.9119 53.7277L28.2142 60.3506L30.3772 56.9859L20.0749 50.363L17.9119 53.7277ZM37.7599 60.1873L47.0592 53.7493L44.7823 50.4606L35.4831 56.8985L37.7599 60.1873ZM56.4504 35.8256V18.0744H52.4504V35.8256H56.4504ZM50.3795 9.85471L35.46 5.26409L34.2837 9.08721L49.2032 13.6778L50.3795 9.85471ZM30.5683 5.21468L14.1378 9.9091L15.2367 13.7552L31.6671 9.06078L30.5683 5.21468ZM35.46 5.26409C33.8686 4.77442 32.1692 4.75726 30.5683 5.21468L31.6671 9.06078C32.5235 8.81611 33.4324 8.82529 34.2837 9.08721L35.46 5.26409ZM56.4504 18.0744C56.4504 14.299 53.988 10.965 50.3795 9.85471L49.2032 13.6778C51.1333 14.2717 52.4504 16.055 52.4504 18.0744H56.4504ZM47.0592 53.7493C52.9408 49.6775 56.4504 42.9791 56.4504 35.8256H52.4504C52.4504 41.6665 49.5847 47.1358 44.7823 50.4606L47.0592 53.7493ZM28.2142 60.3506C31.1369 62.2295 34.9031 62.1651 37.7599 60.1873L35.4831 56.8985C33.955 57.9564 31.9405 57.9909 30.3772 56.9859L28.2142 60.3506ZM7.90039 35.39C7.90039 42.8077 11.6722 49.7165 17.9119 53.7277L20.0749 50.363C14.9801 47.0878 11.9004 41.4467 11.9004 35.39H7.90039ZM11.9004 18.1782C11.9004 16.1244 13.2619 14.3194 15.2367 13.7552L14.1378 9.9091C10.4458 10.964 7.90039 14.3385 7.90039 18.1782H11.9004ZM35.0004 32.9998V19.7998H31.0004V32.9998H35.0004ZM35.0004 46.1998C35.0004 45.2333 35.0004 44.8915 35.0004 44.5498C35.0004 44.2081 35.0004 43.8664 35.0004 42.8998L31.0004 42.8998C31.0004 43.8664 31.0004 44.2081 31.0004 44.5498C31.0004 44.8915 31.0004 45.2333 31.0004 46.1998H35.0004Z" fill="#282826"/>
</svg>
