<svg width="56" height="56" viewBox="0 0 56 56" fill="none" xmlns="http://www.w3.org/2000/svg">
<path d="M14.1193 34.344C14.1193 37.1338 11.8663 39.3885 9.07876 39.3885C6.29117 39.3885 4.03819 37.1338 4.03819 34.344C4.03819 31.5541 6.29117 29.2994 9.07876 29.2994H14.1193V34.344ZM16.6396 34.344C16.6396 31.5541 18.8926 29.2994 21.6802 29.2994C24.4678 29.2994 26.7208 31.5541 26.7208 34.344V46.9554C26.7208 49.7452 24.4678 52 21.6802 52C18.8926 52 16.6396 49.7452 16.6396 46.9554V34.344Z" fill="#282826"/>
<path d="M21.6802 14.0892C18.8926 14.0892 16.6396 11.8344 16.6396 9.04459C16.6396 6.25478 18.8926 4 21.6802 4C24.4678 4 26.7208 6.25478 26.7208 9.04459V14.0892H21.6802ZM21.6802 16.6497C24.4678 16.6497 26.7208 18.9045 26.7208 21.6943C26.7208 24.4841 24.4678 26.7389 21.6802 26.7389H9.04057C6.25298 26.7389 4 24.4841 4 21.6943C4 18.9045 6.25298 16.6497 9.04057 16.6497H21.6802Z" fill="#282826"/>
<path d="M41.8807 21.6943C41.8807 18.9045 44.1337 16.6497 46.9212 16.6497C49.7088 16.6497 51.9618 18.9045 51.9618 21.6943C51.9618 24.4841 49.7088 26.7389 46.9212 26.7389H41.8807V21.6943ZM39.3604 21.6943C39.3604 24.4841 37.1074 26.7389 34.3198 26.7389C31.5322 26.7389 29.2792 24.4841 29.2792 21.6943V9.04459C29.2792 6.25478 31.5322 4 34.3198 4C37.1074 4 39.3604 6.25478 39.3604 9.04459V21.6943Z" fill="#282826"/>
<path d="M34.3198 41.9108C37.1074 41.9108 39.3604 44.1656 39.3604 46.9554C39.3604 49.7452 37.1074 52 34.3198 52C31.5322 52 29.2792 49.7452 29.2792 46.9554V41.9108H34.3198ZM34.3198 39.3885C31.5322 39.3885 29.2792 37.1338 29.2792 34.344C29.2792 31.5541 31.5322 29.2994 34.3198 29.2994H46.9594C49.747 29.2994 52 31.5541 52 34.344C52 37.1338 49.747 39.3885 46.9594 39.3885H34.3198Z" fill="#282826"/>
</svg>
