<svg width="66" height="66" viewBox="0 0 66 66" fill="none" xmlns="http://www.w3.org/2000/svg">
<path d="M59.3996 13.1996V15.8396C59.3996 19.536 59.3996 21.3841 58.6803 22.7959C58.0475 24.0378 57.0378 25.0475 55.7959 25.6803C54.3841 26.3996 52.536 26.3996 48.8396 26.3996H17.1596C13.4633 26.3996 11.6151 26.3996 10.2033 25.6803C8.9614 25.0475 7.95173 24.0378 7.31897 22.7959C6.59961 21.3841 6.59961 19.536 6.59961 15.8396V13.1996M6.59961 36.2996H16.4996M49.4996 36.2996H59.3996M59.3996 59.3996V56.0996C59.3996 53.0244 59.3996 51.4868 58.8972 50.2739C58.2274 48.6567 56.9425 47.3719 55.3253 46.702C54.1124 46.1996 52.5748 46.1996 49.4996 46.1996M6.59961 59.3996V56.0996C6.59961 53.0244 6.59961 51.4868 7.102 50.2739C7.77186 48.6567 9.05671 47.3719 10.6739 46.702C11.8868 46.1996 13.4244 46.1996 16.4996 46.1996M32.9996 59.3996C23.8869 59.3996 16.4996 52.0123 16.4996 42.8996V23.0996C16.4996 13.9869 23.8869 6.59961 32.9996 6.59961C42.1123 6.59961 49.4996 13.9869 49.4996 23.0996V42.8996C49.4996 52.0123 42.1123 59.3996 32.9996 59.3996ZM32.9996 59.3996V26.3996" stroke="#282826" stroke-width="4" stroke-linecap="round" stroke-linejoin="round"/>
</svg>
