<svg xmlns="http://www.w3.org/2000/svg" xml:space="preserve"
  style="enable-background:new 0 0 957.6 464.8" viewBox="0 0 957.6 464.8"><path d="M571.8 263.1c-16.6-6.2-30.9-14.9-43.2-26.3-12.2-11.4-21.8-25.6-28.8-42.8s-10.4-36.2-10.4-57.1c0-19.4 3.1-37.5 9.3-54.3s15-31.2 26.3-43.4 25.4-21.8 42.3-28.8S602.8 0 623.2 0c19.7 0 38.9 3.9 57.7 11.6 18.8 7.8 34.9 19.1 48.2 34l-37.4 31.7c-19.1-18.5-41.9-27.7-68.6-27.7-11 0-21.3 2-30.8 6.1-9.5 4-17.9 9.7-25 17-7.2 7.3-12.8 16.5-16.9 27.6-4.1 11.1-6.1 23.2-6.1 36.6 0 16.4 3.2 31.1 9.7 44.3 6.5 13.1 15.9 23.6 28.3 31.3 12.4 7.8 26.7 11.6 43 11.6 19.8 0 37.8-5.1 54.1-15.2v-39.2h-59.9v-45.3h110.9v114.9c-12.3 10-27.9 18-46.7 24s-38.2 9-58.4 9c-19.1.1-36.9-3-53.5-9.2zM.7 3.1h170.5v47.3H52.8v64h95V161h-95v61.8h126.3v47.1H.7V3.1zm225.3 0h88.2c20.8 0 39.8 3.3 57.1 9.9 17.3 6.6 31.9 15.7 43.8 27.4s21.1 25.8 27.7 42.3c6.5 16.6 9.8 34.6 9.8 54.2s-3.1 37.5-9.4 53.9-15.3 30.4-26.9 42.1c-11.7 11.7-26.1 20.7-43.4 27.2-17.2 6.5-36.4 9.7-57.6 9.7H226V3.1zm86 219.6c12.7 0 24.4-2.2 35.2-6.6 10.8-4.4 19.8-10.4 27.2-18.1 7.4-7.6 13.1-16.7 17.2-27.2s6.1-21.8 6.1-33.9c0-16.5-3.5-31.3-10.5-44.5s-16.8-23.5-29.4-30.9-26.8-11.1-42.5-11.1h-37.2v172.3H312zM831.4 160.9h54.4l20.3-46.5h-74.7v-64l103.6.3 20.2-46.2V3.4l-175.9-.3v266.7h178.3v-47.1H831.4v-61.8zM0 367.3h29.4c17.8 0 29 12.6 29 25.5 0 7.6-2.6 13.6-8.1 18.1 11.6 3.4 17.8 13.1 17.8 24.3 0 15.8-12.7 27.9-30.9 27.9H0v-95.8zm29 40.4c8.6 0 13.9-5.7 13.9-13 0-7-5.3-13-13.9-13H15.8v25.9H29v.1zm7.9 41c10.1 0 15.9-5.8 15.9-13.8 0-7.8-5.7-13.8-15.9-13.8H15.8v27.5l21.1.1zm73.5-26L74 367.3h18.6l25.6 39.7 25.8-39.7h18.6l-36.4 55.5v40.4h-15.8v-40.5zm112.2 18.9-10.7 21.6h-16.5l48.1-97.5 48.2 97.5h-16.5l-10.7-21.6h-41.9zm20.9-43-13.9 28.8h27.9l-14-28.8zm60.2 41.5c6.2 5.9 18.6 9.9 29 9.9 10.8 0 17.3-4.6 17.3-11.9 0-6.5-3.6-11.5-12.6-14.3l-11.6-3.9c-15.4-4.7-22.1-14.3-22.1-27.3 0-17 13.5-26.9 32.8-26.9 10.9 0 18.6 2.4 22.9 4.7v16.1c-6.2-3.6-15.1-5.9-22.8-5.9-9.7 0-17 3.9-17 11.1 0 7 3.8 10.7 12.6 13.5l10.7 3.5c16.7 5.1 23.1 14.6 22.9 28.6-.1 17.8-13.6 27.5-33.7 27.5-11.7 0-21.5-2.6-28.3-7.2l-.1-17.5zM434 365.7c10.4 0 17.4 1.9 23.4 4.3v16.2c-5.9-3-13.4-5.3-22.8-5.3-22.4 0-36.3 15.3-36.3 34.3s13.9 34.3 36.3 34.3c9.4 0 16.9-2.3 22.8-5.3v16.2c-5.9 2.4-13 4.3-23.4 4.3-30 0-51.7-21.9-51.7-49.5s21.8-49.5 51.7-49.5zm46.1 1.6h57.6v15.1h-41.8V407h29.4v15.1h-29.4V448h41.8v15.1h-57.6v-95.8zm96.6 34.6v61.3h-15.8v-97.5l65.5 62.9v-61.3h15.8v97.5l-65.5-62.9zm113-19.5h-27.8v-15.1h71.5v15.1h-27.9v80.7h-15.8v-80.7zm63.3-15.1h15.8v95.8H753v-95.8zm59.3 74.3-10.7 21.6h-16.5l48.1-97.5 48.2 97.5h-16.5l-10.7-21.6h-41.9zm20.9-43-13.9 28.8h27.9l-14-28.8zm64.5-31.3h15.8V448h43.9v15.1h-59.7v-95.8z"/></svg>
