<?xml version="1.0" encoding="UTF-8"?>
<svg width="76px" height="79px" viewBox="0 0 76 79" version="1.1" xmlns="http://www.w3.org/2000/svg" xmlns:xlink="http://www.w3.org/1999/xlink">
    <title>events</title>
    <defs>
        <filter x="-22.2%" y="-21.2%" width="143.6%" height="141.5%" filterUnits="objectBoundingBox" id="filter-1">
            <feOffset dx="0" dy="2" in="SourceAlpha" result="shadowOffsetOuter1"></feOffset>
            <feGaussianBlur stdDeviation="2" in="shadowOffsetOuter1" result="shadowBlurOuter1"></feGaussianBlur>
            <feColorMatrix values="0 0 0 0 0.0941176471   0 0 0 0 0.560784314   0 0 0 0 1  0 0 0 0.5 0" type="matrix" in="shadowBlurOuter1" result="shadowMatrixOuter1"></feColorMatrix>
            <feMerge>
                <feMergeNode in="shadowMatrixOuter1"></feMergeNode>
                <feMergeNode in="SourceGraphic"></feMergeNode>
            </feMerge>
        </filter>
    </defs>
    <g id="Page-1" stroke="none" stroke-width="1" fill="none" fill-rule="evenodd">
        <g id="Home" transform="translate(-838.000000, -1562.000000)">
            <g id="events" filter="url(#filter-1)" transform="translate(848.000000, 1572.000000)">
                <circle id="Oval" fill="#E6F1FF" fill-rule="nonzero" cx="28.7" cy="31.6" r="27.5"></circle>
                <rect id="Rectangle" fill="#FFFFFF" fill-rule="nonzero" x="0" y="15" width="48" height="36"></rect>
                <polyline id="Path" stroke="#2B5183" points="32 15 48 15 48 51 0 51 0 15 18 15"></polyline>
                <rect id="Rectangle" stroke="#2A5082" fill="#E9EAEB" fill-rule="nonzero" x="6" y="24" width="18" height="20"></rect>
                <path d="M15,44 L24,44 L24,39.1 C23.6,38.8 19.2,37 15,37 C10.8,37 6.4,38.8 6,39.1 L6,44 L15,44 Z" id="Path" stroke="#2A5082" fill="#188FFF" fill-rule="nonzero"></path>
                <path d="M15,27 L15,27 C12.8,27 11,28.9 11,31.2 L11,33.9 C11,36.2 12.8,38.1 15,38.1 L15,38.1 C17.2,38.1 19,36.2 19,33.9 L19,31.2 C19,28.9 17.2,27 15,27 Z" id="Path" stroke="#2A5082" fill="#FFFFFF" fill-rule="nonzero"></path>
                <polygon id="Path" fill="#E6F1FF" fill-rule="nonzero" points="22 0 14 0 21 16 21 17 29 17 29 16"></polygon>
                <polyline id="Path" stroke="#2B5183" stroke-linecap="round" points="14 0 21 16 21 17 29 17 29 16 22 0"></polyline>
                <polygon id="Path" fill="#188FFF" fill-rule="nonzero" points="30 0 21 16 21 19 29 19 29 16 38 0"></polygon>
                <polyline id="Path" stroke="#2A5082" stroke-linecap="round" points="38 0 29 16 29 19 21 19 21 16 30 0"></polyline>
                <line x1="29" y1="28" x2="42" y2="28" id="Path" stroke="#2B5183"></line>
                <line x1="29" y1="33" x2="42" y2="33" id="Path" stroke="#2B5183"></line>
                <line x1="29" y1="38" x2="37" y2="38" id="Path" stroke="#2B5183"></line>
                <line x1="17" y1="19" x2="33" y2="19" id="Path" stroke="#2B5183"></line>
                <line x1="15" y1="19" x2="13" y2="19" id="Path" stroke="#2B5183"></line>
                <line x1="35" y1="19" x2="37" y2="19" id="Path" stroke="#2B5183"></line>
            </g>
        </g>
    </g>
</svg>