<svg width="32" height="32" viewBox="0 0 32 32" fill="none" xmlns="http://www.w3.org/2000/svg">
<path d="M16 2.66663C14.2491 2.66663 12.5152 3.0115 10.8976 3.68157C9.2799 4.35163 7.81004 5.33375 6.57193 6.57187C4.07144 9.07235 2.66669 12.4637 2.66669 16C2.66669 21.8933 6.49335 26.8933 11.7867 28.6666C12.4534 28.7733 12.6667 28.36 12.6667 28V25.7466C8.97335 26.5466 8.18669 23.96 8.18669 23.96C7.57335 22.4133 6.70669 22 6.70669 22C5.49335 21.1733 6.80002 21.2 6.80002 21.2C8.13335 21.2933 8.84002 22.5733 8.84002 22.5733C10 24.6 11.96 24 12.72 23.68C12.84 22.8133 13.1867 22.2266 13.56 21.8933C10.6 21.56 7.49335 20.4133 7.49335 15.3333C7.49335 13.8533 8.00002 12.6666 8.86669 11.72C8.73335 11.3866 8.26669 9.99996 9.00002 8.19996C9.00002 8.19996 10.12 7.83996 12.6667 9.55996C13.72 9.26663 14.8667 9.11996 16 9.11996C17.1334 9.11996 18.28 9.26663 19.3334 9.55996C21.88 7.83996 23 8.19996 23 8.19996C23.7334 9.99996 23.2667 11.3866 23.1334 11.72C24 12.6666 24.5067 13.8533 24.5067 15.3333C24.5067 20.4266 21.3867 21.5466 18.4134 21.88C18.8934 22.2933 19.3334 23.1066 19.3334 24.3466V28C19.3334 28.36 19.5467 28.7866 20.2267 28.6666C25.52 26.88 29.3334 21.8933 29.3334 16C29.3334 14.249 28.9885 12.5152 28.3184 10.8975C27.6484 9.27984 26.6662 7.80998 25.4281 6.57187C24.19 5.33375 22.7201 4.35163 21.1025 3.68157C19.4848 3.0115 17.751 2.66663 16 2.66663Z" fill="white"/>
</svg>
