<svg id="Layer_1" data-name="Layer 1" xmlns="http://www.w3.org/2000/svg" viewBox="0 0 300 300"><path d="M289.96251,154.09383c-.706,22.5588-6.18979,43.89745-17.2918,63.53928-21.40069,37.86239-53.36352,61.81882-96.21956,70.26223C104.4386,302.08314,33.8929,257.77813,14.85345,186.52643A140.51933,140.51933,0,0,1,88.225,23.88592,138.30232,138.30232,0,0,1,138.239,9.99371c68.98261-6.0313,132.82909,40.04643,148.449,109.42921A143.54954,143.54954,0,0,1,289.96251,154.09383ZM93.27214,114.54533c-24.02992,2.5958-38.9476,19.36272-42.87532,37.27411-4.3637,19.89963,3.39917,39.35261,20.02754,50.60707a46.01281,46.01281,0,0,0,27.63927,8.10768c13.73121-.38971,25.234-5.87712,34.72267-16.05748,4.39392,6.32229,8.53237,12.3439,12.74062,18.31648,6.375,9.04769,15.06568,13.14552,26.1235,11.79688a25.4201,25.4201,0,0,0,15.99048-8.5027c-10.66372,2.47533-16.07713.40458-22.10658-8.22923q-14.95227-21.41071-29.8564-42.85486c-.6644-.957-1.7045-1.77155-1.698-3.09612,5.3611-3.55441,11.66735-2.39788,15.46408,2.96024,6.41148,9.04812,12.66846,18.20551,19.09486,27.24288,10.67,15.005,25.3559,20.695,43.27764,17.59741,19.11025-3.303,33.96682-18.28729,38.12474-37.66032,3.90942-18.21523-3.92837-37.86263-19.39832-48.7928a49.63144,49.63144,0,0,0-23.70742-8.68349A58.49858,58.49858,0,0,0,148.8981,66.443,58.45264,58.45264,0,0,0,93.27214,114.54533Z" fill="#d22e36"/><path d="M93.27214,114.54533A58.45264,58.45264,0,0,1,148.8981,66.443a58.49858,58.49858,0,0,1,57.93739,48.12811,49.63144,49.63144,0,0,1,23.70742,8.68349c15.46995,10.93017,23.30774,30.57757,19.39832,48.7928-4.15792,19.373-19.01449,34.35728-38.12474,37.66032-17.92174,3.09761-32.60767-2.59243-43.27764-17.59741-6.4264-9.03737-12.68338-18.19476-19.09486-27.24288-3.79673-5.35812-10.103-6.51465-15.46408-2.96024-.00649,1.32457,1.03361,2.13907,1.698,3.09612q14.89242,21.45221,29.8564,42.85486c6.02945,8.63381,11.44286,10.70456,22.10658,8.22923a25.4201,25.4201,0,0,1-15.99048,8.5027c-11.05782,1.34864-19.74853-2.74919-26.1235-11.79688-4.20825-5.97258-8.3467-11.99419-12.74062-18.31648-9.48862,10.18036-20.99146,15.66777-34.72267,16.05748a46.01281,46.01281,0,0,1-27.63927-8.10768C53.796,191.17205,46.03312,171.71907,50.39682,151.81944,54.32454,133.90805,69.24222,117.14113,93.27214,114.54533Zm39.14954,45.56908c.44877-.48086.76649-.789,1.04776-1.12732a22.79835,22.79835,0,0,1,36.98371,2.44352c4.1142,6.44675,8.70906,12.58736,13.07483,18.8745q9.21978,13.27745,25.12032,10.32406c14.47288-2.6708,25.05139-17.573,22.70751-32.06969-3.50135-21.65562-26.93389-31.14419-44.01235-19.99-.51536.33658-.94625.96606-1.86615.65545,6.27663-20.1572,1.64238-36.85482-16.70587-48.30732-12.73908-7.9514-29.84243-6.7237-41.6185,2.69552-15.44611,12.35476-18.48031,28.29514-12.14552,46.53422-12.81113-9.68527-28.12546-7.26832-37.31079,1.28455a28.82522,28.82522,0,0,0-5.29669,35.61913A28.47234,28.47234,0,0,0,105.767,189.815a28.13774,28.13774,0,0,0,15.03694-11.52233c4.9443-7.45466,5.76208-15.5854,3.56256-24.42447C127.89524,155.1254,130.12525,157.39641,132.42168,160.11441Z" fill="#fefefe"/><path d="M132.42168,160.11441c-2.29643-2.718-4.52644-4.989-8.05519-6.24617,2.19952,8.83907,1.38174,16.96981-3.56256,24.42447A28.13774,28.13774,0,0,1,105.767,189.815a28.47234,28.47234,0,0,1-33.36705-12.764,28.82522,28.82522,0,0,1,5.29669-35.61913c9.18533-8.55287,24.49966-10.96982,37.31079-1.28455-6.33479-18.23908-3.30059-34.17946,12.14552-46.53422,11.77607-9.41922,28.87942-10.64692,41.6185-2.69552,18.34825,11.4525,22.9825,28.15012,16.70587,48.30732.9199.31061,1.35079-.31887,1.86615-.65545,17.07846-11.15421,40.511-1.66564,44.01235,19.99,2.34388,14.49664-8.23463,29.39889-22.70751,32.06969q-15.93042,2.93972-25.12032-10.32406c-4.36577-6.28714-8.96063-12.42775-13.07483-18.8745a22.79835,22.79835,0,0,0-36.98371-2.44352C133.18817,159.32543,132.87045,159.63355,132.42168,160.11441Z" fill="#d22e36"/></svg>