<svg id="Layer_1" data-name="Layer 1" xmlns="http://www.w3.org/2000/svg" viewBox="0 0 750 191.33"><defs><style>.cls-1{fill:#0095d3;}.cls-2{fill:#666;}</style></defs><title>narvarlogo-freelogovectors.net</title><path id="Fill-1" class="cls-1" d="M161.9,374.39a39.52,39.52,0,0,1-39.25,39.24H100a4.19,4.19,0,0,1-4.29-4.29V374.39c0-12.88-10.43-23.31-23.92-23.31s-23.92,10.43-23.92,23.31v34.95a4.19,4.19,0,0,1-4.29,4.29H37.41a4.19,4.19,0,0,1-4.29-4.29V374.39a39.25,39.25,0,1,1,78.49,0v23.3h11.65c13.49,0,23.92-10.43,23.92-23.3v-35a4.19,4.19,0,0,1,4.29-4.29h6.13a4.19,4.19,0,0,1,4.3,4.29h0ZM95.67,279.33C42.31,279.33,0,321.65,0,375a95.67,95.67,0,1,0,95.67-95.67Z" transform="translate(0 -279.33)"/><path id="Fill-3" class="cls-2" d="M274.12,335.75A39.13,39.13,0,0,0,234.87,375v36.79a2.65,2.65,0,0,0,2.46,2.46h3.06a2.65,2.65,0,0,0,2.46-2.46V375a31.28,31.28,0,1,1,62.55,0v36.79a2.64,2.64,0,0,0,2.45,2.46h3.07a2.64,2.64,0,0,0,2.45-2.46V375a38.75,38.75,0,0,0-39.25-39.25" transform="translate(0 -279.33)"/><path id="Fill-5" class="cls-2" d="M366.11,406.28A31.28,31.28,0,1,1,397.38,375a31.42,31.42,0,0,1-31.27,31.28m39.25,5.51V375a39.53,39.53,0,0,0-39.25-39.25A39.12,39.12,0,0,0,326.86,375a39.35,39.35,0,0,0,70.52,23.92v12.87a2.65,2.65,0,0,0,2.46,2.46h3.06c1.23-.62,2.46-1.23,2.46-2.46" transform="translate(0 -279.33)"/><path id="Fill-7" class="cls-2" d="M618.77,406.28A31.28,31.28,0,1,1,650,375a31.41,31.41,0,0,1-31.27,31.28ZM658,375h0a39.52,39.52,0,0,0-39.24-39.25A39.12,39.12,0,0,0,579.52,375,39.35,39.35,0,0,0,650,398.92v12.87a2.64,2.64,0,0,0,2.45,2.46h3.07a2.64,2.64,0,0,0,2.45-2.46Z" transform="translate(0 -279.33)"/><path id="Fill-9" class="cls-2" d="M575.22,338.21a2.64,2.64,0,0,0-2.45-2.46h-3.06a2.65,2.65,0,0,0-2.46,2.46V375c0,17.17-14.1,31.28-31.89,31.28H513.29V338.21a2.65,2.65,0,0,0-2.46-2.46h-3.06a2.65,2.65,0,0,0-2.46,2.46v76H537.2a38.88,38.88,0,0,0,38-39.25Z" transform="translate(0 -279.33)"/><path id="Fill-11" class="cls-2" d="M453.19,335.75A39.13,39.13,0,0,0,413.94,375v36.79a2.64,2.64,0,0,0,2.45,2.46h3.07a2.64,2.64,0,0,0,2.45-2.46V375a31.32,31.32,0,0,1,62.55-2.45,2.64,2.64,0,0,0,2.46,2.45H490a2.64,2.64,0,0,0,2.46-2.45,39.07,39.07,0,0,0-39.25-36.8" transform="translate(0 -279.33)"/><path id="Fill-13" class="cls-2" d="M710.75,335.75c-21.46,0-39.25,17.17-39.25,38.64v36.79a2.64,2.64,0,0,0,2.46,2.45H677a2.64,2.64,0,0,0,2.46-2.45V374.39A31.33,31.33,0,0,1,742,371.93a2.64,2.64,0,0,0,2.45,2.46h3.07a2.64,2.64,0,0,0,2.45-2.46c-1.23-20.23-18.4-36.18-39.25-36.18" transform="translate(0 -279.33)"/></svg>