<svg version="1.1" id="Layer_1" xmlns="http://www.w3.org/2000/svg" xmlns:xlink="http://www.w3.org/1999/xlink" x="0px" y="0px" viewBox="0 0 3344 552" style="enable-background:new 0 0 3344 552;" xml:space="preserve">
 <style type="text/css">
  .st0{fill-rule:evenodd;clip-rule:evenodd;fill:#1C1E22;}
	.st1{fill-rule:evenodd;clip-rule:evenodd;fill:#00AB44;}
 </style>
 <path class="st0" d="M824,120h51.8l163.5,252.7V120h41.6v312h-49.1L865.9,179.5V432H824V120z M1239.1,120H1473v38.2h-191.5V253
	h177.1v36.1h-177.1v105.8h194.8V432h-237.2V120z M1851.8,157.2V120h-256.9v37.2h106.7V432h43.5V157.2H1851.8z M2090.1,395.9
	c14.5,0,26.5-1.5,35.8-4.5c16.7-5.5,30.3-16.1,41-31.9c8.5-12.6,14.6-28.7,18.3-48.4c2.2-11.8,3.2-22.7,3.2-32.7
	c0-38.7-7.8-68.7-23.4-90.1c-15.6-21.4-40.7-32.1-75.4-32.1h-76.1v239.6H2090.1z M1970.3,120h128.4c43.6,0,77.4,15.2,101.4,45.7
	c21.4,27.5,32.1,62.7,32.1,105.6c0,33.1-6.3,63.1-19,89.8c-22.3,47.3-60.6,70.9-115,70.9h-127.9V120z M2494.4,166.3l48.7,137.8
	h-100.6L2494.4,166.3z M2520.9,120h-49.2l-120.9,312h44.6l34.8-93.5h127l32.6,93.5h47.6L2520.9,120z M3249.8,304.1L3201,166.3
	l-51.8,137.8H3249.8z M3178.3,120h49.2L3344,432h-47.7l-32.6-93.5h-127L3102,432h-44.6L3178.3,120z M2978.4,157.2V120h-261.9v37.2
	h108.8V432h44.4V157.2H2978.4z">
 </path>
 <path class="st1" d="M413.4,552H277.8L0,0h394.3C547.7,0.3,671.9,128.2,672,286C671.8,433.1,556.1,552,413.4,552z">
 </path>
</svg>