<svg width="196" height="62" xmlns="http://www.w3.org/2000/svg">
  <g fill="none" fill-rule="evenodd">
    <path
      d="M157.16 53.062c.596 0 1.163.093 1.7.276.476.163.884.386 1.224.67l.124.108-.52.91a3.869 3.869 0 00-2.552-.958c-.646 0-1.145.124-1.5.372a1.175 1.175 0 00-.532 1.018c0 .287.092.527.278.719.186.191.415.34.69.449l.198.074.231.08.264.085.295.09.16.048c.588.168 1.065.33 1.427.485.363.156.672.383.925.683.255.3.381.688.381 1.167 0 .76-.296 1.356-.888 1.79-.593.436-1.405.654-2.437.654-1.283 0-2.353-.319-3.211-.956l-.127-.098.52-.91c.435.335.88.579 1.336.73.455.152.961.228 1.518.228.653 0 1.153-.116 1.5-.347.346-.232.52-.56.52-.983 0-.263-.09-.48-.266-.653a1.928 1.928 0 00-.648-.407l-.088-.034-.202-.073-.235-.08-.268-.086-.3-.092a12.351 12.351 0 01-1.47-.51 2.603 2.603 0 01-.962-.718c-.266-.315-.398-.732-.398-1.251 0-.496.134-.93.405-1.306.27-.375.654-.665 1.154-.868.5-.203 1.084-.306 1.754-.306zm-97.572 0c.621 0 1.19.088 1.706.264.458.156.86.382 1.204.677l.126.113-.532.91a3.92 3.92 0 00-1.149-.712 3.723 3.723 0 00-1.33-.222c-.944 0-1.677.326-2.201.976-.525.651-.787 1.552-.787 2.701 0 .958.228 1.695.684 2.21.455.515 1.102.772 1.94.772.805 0 1.58-.275 2.328-.827l.14-.106.375.91a3.513 3.513 0 01-1.3.784c-.513.18-1.067.27-1.663.27-.766 0-1.433-.162-2.002-.485a3.287 3.287 0 01-1.318-1.395c-.31-.608-.466-1.322-.466-2.145 0-.95.174-1.778.52-2.485.347-.706.839-1.251 1.476-1.635.637-.383 1.386-.575 2.25-.575zm47.625 0c1.198 0 2.173.32 2.925.956l.11.098-.52.91a4.292 4.292 0 00-1.16-.712 3.51 3.51 0 00-1.282-.222c-1 0-1.776.328-2.329.983-.552.654-.828 1.564-.828 2.73 0 .959.236 1.695.707 2.21.472.515 1.176.773 2.111.773a5.7 5.7 0 001.613-.237l.201-.063.182-2.383h-2.02l.084-.946h3.145l-.314 4.012a5.886 5.886 0 01-1.38.443c-.54.112-1.08.168-1.62.168-1.274 0-2.257-.35-2.95-1.048-.694-.699-1.041-1.667-1.041-2.905 0-.966.178-1.808.532-2.527a3.854 3.854 0 011.518-1.659c.657-.387 1.429-.58 2.316-.58zm-56.066 0c.597 0 1.163.093 1.699.276.477.163.885.386 1.224.67l.125.108-.52.91a3.866 3.866 0 00-2.552-.958c-.646 0-1.145.124-1.5.372a1.175 1.175 0 00-.532 1.018c0 .287.092.527.278.719.185.191.415.34.69.449l.198.074.231.08.264.085.295.09.16.048a12.3 12.3 0 011.427.485c.363.156.672.383.926.683.254.3.38.688.38 1.167 0 .76-.296 1.356-.888 1.79-.593.436-1.405.654-2.437.654-1.283 0-2.353-.319-3.21-.956l-.128-.098.52-.91c.435.335.88.579 1.336.73.456.152.962.228 1.518.228.653 0 1.153-.116 1.5-.347.346-.232.52-.56.52-.983 0-.263-.09-.48-.266-.653a1.93 1.93 0 00-.647-.407l-.089-.034-.202-.073-.235-.08-.268-.086-.3-.092a12.394 12.394 0 01-1.47-.51 2.601 2.601 0 01-.962-.718c-.265-.315-.399-.732-.399-1.251 0-.496.135-.93.405-1.306.27-.375.655-.665 1.155-.868.5-.203 1.084-.306 1.754-.306zm115.131.096l2.552 7.066 3.652-7.066h1.016l-.677 8.528h-1.125l.46-5.821-3.012 5.82h-.858l-2.104-5.832-.46 5.833h-1.125l.666-8.528h1.015zm-16.725 0l-.085 1.006h-4.353l-.218 2.683h4.112l-.085 1.006h-4.1l-.23 2.827h4.354l-.085 1.006h-5.574l.665-8.528h5.599zm-57.13 0l-.678 8.528H90.5l.665-8.528h1.258zm103.195 0l-.085 1.006h-4.354l-.217 2.683h4.111l-.084 1.006h-4.1l-.23 2.827h4.354l-.085 1.006h-5.575l.665-8.528h5.6zm-10.873 0l-.593 7.498h4.185l-.085 1.03h-5.43l.666-8.528h1.257zm-46.935 0c1.298 0 2.304.346 3.018 1.036.713.691 1.07 1.655 1.07 2.893 0 1.453-.391 2.583-1.173 3.39-.75.772-1.795 1.174-3.137 1.207l-.177.002h-3.241l.665-8.528h2.975zm-54.76 0l4.414 6.42.508-6.42h1.185l-.677 8.528h-.955l-4.414-6.432-.52 6.432H81.43l.665-8.528h.955zm-9.07 0l4.414 6.42.508-6.42h1.185l-.677 8.528h-.956l-4.414-6.432-.52 6.432h-1.16l.665-8.528h.955zm-5.926 0l3.169 8.528h-1.234l-.75-2.108h-4.354l-1.076 2.108h-1.306l4.51-8.528h1.04zm48.58 0l2.552 7.066 3.652-7.066h1.016l-.677 8.528h-1.125l.46-5.821-3.012 5.82h-.858l-2.105-5.832-.46 5.833h-1.124l.665-8.528h1.016zm13.23 0l3.169 8.528H131.8l-.75-2.108h-4.354l-1.076 2.108h-1.306l4.51-8.528h1.04zm49.113 0c.886 0 1.574.208 2.062.623.487.415.731.966.731 1.653 0 .822-.27 1.46-.81 1.91-.509.425-1.206.65-2.093.675l-.168.002h-2.31l-.29 3.665h-1.246l.665-8.528h3.459zm-15.722 0l-.677 8.528h-1.245l.665-8.528h1.257zm-67.881 0l4.414 6.42.508-6.42h1.185l-.678 8.528h-.955l-4.414-6.432-.52 6.432h-1.161l.665-8.528h.956zm42.315 1.03h-1.669l-.52 6.468h1.826c1.097 0 1.921-.304 2.474-.91.551-.607.828-1.497.828-2.671 0-.95-.246-1.669-.738-2.156-.464-.46-1.145-.703-2.04-.728l-.16-.003zm-70.24.348l-2.068 4.06h3.507l-1.438-4.06zm61.81 0l-2.068 4.06h3.507l-1.439-4.06zm49.597-.384h-2.153l-.23 2.887h2.14c.63 0 1.112-.132 1.446-.395.335-.264.502-.651.502-1.162 0-.423-.141-.75-.424-.983-.26-.213-.644-.328-1.152-.345l-.13-.002z"
      fill="#F59C00" />
    <path
      d="M36.69 32.141l1.227 1.258L19.85 50.676c-.651.623-1.359.353-1.799.063l-.096-.068-.086-.065-.076-.062-.089-.08-.086-.084L36.69 32.14zm-2.456-2.521l1.227 1.26-19.072 18.237-1.227-1.258 19.072-18.24zM31.777 27.1l1.226 1.26-19.07 18.238-1.229-1.26 19.073-18.238zm-8.596 3.404l1.23 1.258-12.908 12.344-1.23-1.26 12.908-12.342zm116.49-10.591l.268.007h.147c6.336 0 11.473 5.088 11.473 11.364 0 .183.002.351.006.511l.005.158v9.952h-5.198V31.42c.003-.099.008-.194.008-.288 0-1.761-.584-3.246-1.758-4.46-1.174-1.216-2.59-1.822-4.25-1.822-1.88 0-3.442.603-4.68 1.81-1.238 1.209-1.86 2.726-1.86 4.548 0 1.76.62 3.27 1.852 4.53 1.23 1.261 2.714 1.89 4.45 1.89 1.773 0 3.25-.621 4.45-1.86.21-.218.399-.447.571-.684l.127-.179V41.2a9.47 9.47 0 01-1.776.818c-1.097.37-2.342.554-3.723.554-1.425 0-2.78-.246-4.064-.747a10.456 10.456 0 01-3.229-1.969l-.202-.185a10.883 10.883 0 01-2.716-3.779 11.342 11.342 0 01-.96-4.601c0-1.725.355-3.35 1.06-4.879a11.624 11.624 0 013.011-3.977 9.885 9.885 0 013.264-1.887 11.523 11.523 0 013.725-.633zm-57.612.006c1.843-.075 3.65.268 5.42 1.035a9.765 9.765 0 012.916 1.926c.87.828 1.68 1.884 2.431 3.17l.09.166.118.226.045.089.167.313.063.113.027.046-15.086 8.628c.934 1.262 2.09 2.015 3.468 2.261 1.383.24 2.802-.057 4.275-.898.979-.56 1.731-1.267 2.286-2.114.78-1.186 1.107-3.497.771-4.644l-.037-.115 3.784 6.488c-.983 1.884-2.226 3.208-4.308 4.4-1.405.8-2.836 1.293-4.302 1.48-1.467.179-2.946.06-4.441-.365a11.52 11.52 0 01-3.917-1.992 11.35 11.35 0 01-2.891-3.284c-.758-1.295-1.246-2.645-1.463-4.051-.215-1.4-.152-2.815.195-4.23a11.667 11.667 0 011.897-4.18 10.396 10.396 0 013.277-2.956 11.25 11.25 0 015.215-1.512zm113.8-6.522V30.54l-.008.32c-.002.056-.003.113-.003.17l-.002.18c0 6.205-5.027 11.247-11.268 11.347l-.302.003-.3.009a11.594 11.594 0 01-3.73-.636 9.894 9.894 0 01-3.254-1.887 11.355 11.355 0 01-3.008-3.97 11.474 11.474 0 01-1.059-4.869c0-1.61.32-3.138.96-4.6a10.68 10.68 0 012.515-3.595l.194-.177a10.584 10.584 0 013.423-2.154 11.196 11.196 0 014.064-.747c1.38 0 2.621.187 3.72.554.528.18 1.034.408 1.527.682l.246.14v6.28a6.435 6.435 0 00-.695-.857c-1.199-1.241-2.681-1.862-4.444-1.862-1.736 0-3.225.63-4.447 1.89-1.23 1.262-1.85 2.765-1.85 4.52 0 1.828.622 3.335 1.854 4.546 1.239 1.205 2.796 1.81 4.683 1.81 1.654 0 3.068-.609 4.24-1.823 1.178-1.214 1.759-2.692 1.759-4.45l-.009-.291V13.398h5.195zm-142.979.008L64.8 31.61V13.406h5.523v28.5H65.09L53.059 23.154v18.752h-5.525v-28.5h5.346zm44.722 6.918l3.518 12.458 3.853-12.458h3.76l3.672 12.458 3.512-12.458h5.477l-7.596 21.582h-3.301l-3.804-13.068-3.713 13.068h-3.3l-7.52-21.582h5.442zm29.857-6.918v28.5h-4.913v-28.5h4.913zm34.773 6.502l.234.002.127.004.272.012c1.226.065 3.063.331 4.595 1.101 1.164.587 2.133 1.463 2.912 2.639.499.777.856 1.668 1.074 2.666.028.13.054.267.079.413l.046.301c.06.416.106.887.139 1.414l.022.406c.007.138.013.28.018.426l.013.447.004.231.005.478v11.457h-5.065V32.56l-.003-.501-.008-.484-.015-.465c-.081-2.13-.36-3.674-.913-4.56-.665-1.067-1.815-1.654-3.45-1.657-1.636.003-2.786.59-3.454 1.658-.651 1.043-1.05 3-1.073 5.756v9.599h-5.066l.001-11.457.005-.478.01-.457.007-.221.017-.426.022-.406c.016-.263.036-.513.06-.749l.036-.343c.047-.388.103-.733.17-1.036a8.057 8.057 0 011.074-2.666c.774-1.176 1.748-2.052 2.911-2.639 1.534-.77 3.35-1.036 4.565-1.101l.27-.012.245-.006h.114zM20.725 27.984l1.227 1.259L9.043 41.586l-1.225-1.257 12.907-12.345zm-2.458-2.52l1.228 1.26L6.587 39.067 5.36 37.81l12.906-12.345zm-2.458-2.52l1.228 1.26L4.13 36.543l-1.227-1.256 12.905-12.345zm-2.455-2.52l1.226 1.258L1.673 34.028l-1.227-1.26 12.908-12.345zm69.724 4.095c-1.26-.145-2.562.164-3.908.933a5.745 5.745 0 00-2.51 2.84 5.784 5.784 0 00-.297 3.64l.047.188 10.212-5.837c-1.102-1.033-2.283-1.617-3.544-1.764zM6.847 24.16l-6.14-6.295L18.746.62l.067-.055.053-.039.064-.043.075-.045.086-.045.096-.043c.368-.152.925-.222 1.541.258l.085.069 17.395 17.84L25.298 30.86 13.741 19.01l-.724-.747-6.17 5.898z"
      fill="#1d3d6a" />
  </g>
</svg>
