<?xml version="1.0" encoding="UTF-8"?>
<svg xmlns="http://www.w3.org/2000/svg" xmlns:xlink="http://www.w3.org/1999/xlink" width="427pt" height="150pt" viewBox="0 0 427 150" version="1.1">
<g id="surface1">
<path style=" stroke:none;fill-rule:nonzero;fill:rgb(13.72549%,12.156863%,12.54902%);fill-opacity:1;" d="M 199.90625 103.460938 L 199.90625 95.78125 L 208.890625 95.78125 L 208.890625 48.117188 L 199.90625 48.117188 L 199.90625 32.738281 L 213.507812 32.878906 L 227.105469 33.019531 L 237.804688 52.878906 C 243.6875 63.804688 249.097656 73.816406 249.828125 75.125 L 251.152344 77.507812 L 251.164062 62.808594 L 251.179688 48.117188 L 242.195312 48.117188 L 242.195312 32.753906 L 277.609375 32.753906 L 277.609375 48.117188 L 268.625 48.117188 L 268.625 111.164062 L 250.96875 110.875 L 240.210938 91.015625 C 234.292969 80.09375 229 70.320312 228.445312 69.296875 L 227.4375 67.445312 L 227.417969 81.613281 L 227.390625 95.78125 L 235.320312 95.78125 L 235.320312 111.144531 L 199.90625 111.144531 Z M 199.90625 103.460938 "/>
<path style=" stroke:none;fill-rule:nonzero;fill:rgb(13.72549%,12.156863%,12.54902%);fill-opacity:1;" d="M 296.109375 103.460938 L 296.109375 95.78125 L 308.277344 95.78125 L 308.140625 72.082031 L 308.003906 48.378906 L 303.640625 48.222656 L 299.277344 48.074219 L 299.277344 62.417969 L 283.40625 62.417969 L 283.6875 33.019531 L 318.175781 32.882812 L 352.667969 32.742188 L 352.667969 62.417969 L 337.335938 62.417969 L 337.335938 48.117188 L 328.351562 48.117188 L 328.351562 95.78125 L 339.980469 95.78125 L 339.980469 111.144531 L 296.109375 111.144531 Z M 296.109375 103.460938 "/>
<path style=" stroke:none;fill-rule:nonzero;fill:rgb(13.72549%,12.156863%,12.54902%);fill-opacity:1;" d="M 371.167969 103.460938 L 371.167969 95.78125 L 382.796875 95.78125 L 382.796875 48.117188 L 373.8125 48.117188 L 373.8125 62.417969 L 358.480469 62.417969 L 358.480469 32.753906 L 427.199219 32.753906 L 427.199219 62.417969 L 411.867188 62.417969 L 411.867188 48.117188 L 402.882812 48.117188 L 402.882812 95.78125 L 414.511719 95.78125 L 414.511719 111.144531 L 371.167969 111.144531 Z M 371.167969 103.460938 "/>
<path style=" stroke:none;fill-rule:nonzero;fill:rgb(0%,40.392157%,70.196078%);fill-opacity:1;" d="M 100.105469 0 C 93.675781 -0.00390625 86.28125 1.144531 81.511719 3.058594 L 79.519531 3.859375 L 78.214844 3.222656 C 76.390625 2.339844 71.722656 1.132812 67.859375 0.546875 C 63.167969 -0.164062 56.132812 -0.105469 51.59375 0.695312 C 33 3.953125 16.167969 17.503906 7.488281 36.171875 C -1.492188 55.488281 -2.476562 80.355469 4.976562 99.679688 C 10.679688 114.46875 20.941406 127.054688 34.726562 136.160156 C 46.832031 144.164062 61.527344 149.121094 75.191406 149.820312 C 89.613281 150.558594 102.984375 147.664062 116.226562 140.941406 C 124.261719 136.859375 130.695312 132.21875 137.003906 125.953125 C 143.625 119.375 147.714844 113.699219 151.660156 105.628906 C 155.132812 98.527344 157.25 91.773438 158.5625 83.527344 C 159.425781 78.121094 159.339844 64.410156 158.410156 58.417969 C 157.019531 49.480469 154.894531 42.574219 151.183594 34.96875 C 142.027344 16.203125 125.171875 3.277344 106.082031 0.402344 C 104.285156 0.128906 102.25 0 100.105469 0 Z M 61.140625 18.457031 L 59.121094 20.703125 C 54.785156 25.519531 51.132812 31.785156 49.167969 37.785156 C 44.433594 52.226562 47.460938 66.695312 57.105469 75.730469 C 67.277344 85.265625 81.867188 87.34375 94.558594 81.078125 C 107.859375 74.507812 114.703125 59.511719 111.679688 43.546875 C 110.179688 35.617188 105.6875 26.597656 100.554688 21.183594 C 99.390625 19.953125 98.441406 18.835938 98.441406 18.699219 C 98.441406 18.566406 99.878906 18.539062 101.636719 18.640625 C 109.628906 19.105469 117.683594 23.125 124.648438 30.125 C 132.515625 38.019531 137.179688 47.4375 139.523438 60.136719 C 140.316406 64.429688 140.3125 76.539062 139.511719 80.929688 C 137.378906 92.648438 133.066406 101.910156 125.820312 110.316406 C 115.976562 121.746094 101.785156 129.070312 86.203125 130.78125 C 66.175781 132.972656 45.597656 124.824219 32.960938 109.695312 C 24.554688 99.628906 20.121094 88.292969 19.191406 74.507812 C 17.660156 51.757812 28.414062 30.578125 45.859375 21.984375 C 50.382812 19.753906 53.527344 18.882812 57.875 18.640625 Z M 79.726562 23.554688 C 80.617188 23.554688 86.050781 29.082031 87.878906 31.84375 C 88.675781 33.046875 89.878906 35.15625 90.570312 36.53125 C 96.875 49.132812 93.371094 63.210938 83.304688 65.707031 C 78.085938 67 73.335938 65.6875 69.945312 62.023438 C 66.964844 58.796875 65.695312 55.054688 65.683594 49.488281 C 65.675781 44.386719 66.589844 40.753906 69.144531 35.75 C 69.980469 34.117188 71.351562 31.863281 72.199219 30.738281 C 74.277344 27.976562 78.910156 23.554688 79.726562 23.554688 Z M 79.726562 23.554688 "/>
</g>
</svg>
