<svg width="158" height="81" viewBox="0 0 158 81" fill="none" xmlns="http://www.w3.org/2000/svg">
<g filter="url(#filter0_d_150_747)">
<circle cx="40.5" cy="38.5" r="36.5" fill="white"/>
</g>
<path d="M78.2454 15L77.6602 14.5309C77.4798 14.756 77.4444 15.0645 77.5692 15.3246C77.6941 15.5846 77.9569 15.75 78.2454 15.75V15ZM96 33.7084L95.4377 34.2047C95.6441 34.4385 95.9736 34.5202 96.2653 34.4099C96.557 34.2995 96.75 34.0202 96.75 33.7084H96ZM96 44.2916H96.75C96.75 43.9798 96.557 43.7005 96.2653 43.5901C95.9736 43.4798 95.6441 43.5615 95.4377 43.7953L96 44.2916ZM78.9297 63V62.25C78.6617 62.25 78.414 62.3931 78.2801 62.6253C78.1461 62.8575 78.1463 63.1435 78.2805 63.3755L78.9297 63ZM65.0703 63L65.7195 63.3755C65.8537 63.1435 65.8539 62.8575 65.7199 62.6253C65.586 62.3931 65.3383 62.25 65.0703 62.25V63ZM48 45.9297L48.3755 45.2805C48.1435 45.1463 47.8575 45.1461 47.6253 45.2801C47.3931 45.414 47.25 45.6617 47.25 45.9297H48ZM48 32.0703H47.25C47.25 32.3383 47.3931 32.586 47.6253 32.7199C47.8575 32.8539 48.1435 32.8537 48.3755 32.7195L48 32.0703ZM65.7546 15V15.75C66.0431 15.75 66.3059 15.5846 66.4308 15.3246C66.5556 15.0645 66.5202 14.756 66.3398 14.5309L65.7546 15ZM72 1.25C67.1675 1.25 63.25 5.16751 63.25 10L64.75 10C64.75 5.99594 67.9959 2.75 72 2.75V1.25ZM80.75 10C80.75 5.16751 76.8325 1.25 72 1.25V2.75C76.0041 2.75 79.25 5.99594 79.25 10H80.75ZM78.8306 15.4691C80.0313 13.9712 80.75 12.0685 80.75 10H79.25C79.25 11.7153 78.6553 13.2896 77.6602 14.5309L78.8306 15.4691ZM93 14.25L78.2454 14.25V15.75L93 15.75V14.25ZM96.75 18C96.75 15.9289 95.0711 14.25 93 14.25V15.75C94.2426 15.75 95.25 16.7574 95.25 18H96.75ZM96.75 33.7084V18H95.25V33.7084H96.75ZM90 31.75C92.1653 31.75 94.1081 32.6983 95.4377 34.2047L96.5623 33.2121C94.9601 31.3967 92.6135 30.25 90 30.25V31.75ZM82.75 39C82.75 34.9959 85.9959 31.75 90 31.75V30.25C85.1675 30.25 81.25 34.1675 81.25 39H82.75ZM90 46.25C85.9959 46.25 82.75 43.0041 82.75 39H81.25C81.25 43.8325 85.1675 47.75 90 47.75V46.25ZM95.4377 43.7953C94.1081 45.3017 92.1653 46.25 90 46.25V47.75C92.6135 47.75 94.9601 46.6033 96.5623 44.7879L95.4377 43.7953ZM96.75 60V44.2916H95.25V60H96.75ZM93 63.75C95.0711 63.75 96.75 62.0711 96.75 60H95.25C95.25 61.2426 94.2426 62.25 93 62.25V63.75ZM78.9297 63.75H93V62.25H78.9297V63.75ZM80.75 67C80.75 65.4075 80.3239 63.9122 79.5789 62.6245L78.2805 63.3755C78.897 64.4412 79.25 65.6782 79.25 67H80.75ZM72 75.75C76.8325 75.75 80.75 71.8325 80.75 67H79.25C79.25 71.0041 76.0041 74.25 72 74.25V75.75ZM63.25 67C63.25 71.8325 67.1675 75.75 72 75.75V74.25C67.9959 74.25 64.75 71.0041 64.75 67H63.25ZM64.4211 62.6245C63.6761 63.9122 63.25 65.4075 63.25 67H64.75C64.75 65.6782 65.103 64.4412 65.7195 63.3755L64.4211 62.6245ZM51 63.75H65.0703V62.25H51V63.75ZM47.25 60C47.25 62.0711 48.9289 63.75 51 63.75V62.25C49.7574 62.25 48.75 61.2426 48.75 60H47.25ZM47.25 45.9297V60H48.75V45.9297H47.25ZM52 46.25C50.6782 46.25 49.4412 45.897 48.3755 45.2805L47.6245 46.5789C48.9122 47.3239 50.4075 47.75 52 47.75V46.25ZM59.25 39C59.25 43.0041 56.0041 46.25 52 46.25V47.75C56.8325 47.75 60.75 43.8325 60.75 39H59.25ZM52 31.75C56.0041 31.75 59.25 34.9959 59.25 39H60.75C60.75 34.1675 56.8325 30.25 52 30.25V31.75ZM48.3755 32.7195C49.4412 32.103 50.6782 31.75 52 31.75V30.25C50.4075 30.25 48.9122 30.6761 47.6245 31.4211L48.3755 32.7195ZM47.25 18L47.25 32.0703H48.75L48.75 18H47.25ZM51 14.25C48.9289 14.25 47.25 15.9289 47.25 18H48.75C48.75 16.7574 49.7574 15.75 51 15.75V14.25ZM65.7546 14.25L51 14.25V15.75L65.7546 15.75V14.25ZM63.25 10C63.25 12.0685 63.9687 13.9712 65.1694 15.4691L66.3398 14.5309C65.3447 13.2896 64.75 11.7153 64.75 10L63.25 10Z" fill="#225181"/>
<path fill-rule="evenodd" clip-rule="evenodd" d="M112 19C112 18.1576 112.13 17.3455 112.372 16.583C112.604 15.8487 112.107 15 111.337 15L99 15C97.3431 15 96 16.3431 96 18V31.0642C96 31.9854 94.7588 32.503 93.9586 32.0465C92.7913 31.3805 91.4401 31 90 31C85.5817 31 82 34.5817 82 39C82 43.4183 85.5817 47 90 47C91.4401 47 92.7913 46.6195 93.9586 45.9535C94.7588 45.497 96 46.0146 96 46.9358V60C96 61.6569 97.3431 63 99 63L111.337 63C112.107 63 112.604 62.1513 112.372 61.417C112.13 60.6545 112 59.8424 112 59C112 54.5817 115.582 51 120 51C124.418 51 128 54.5817 128 59C128 59.8424 127.87 60.6545 127.628 61.417C127.396 62.1513 127.893 63 128.663 63H141C142.657 63 144 61.6569 144 60V46.3286C144 45.4897 145.008 44.9852 145.776 45.3236C146.762 45.7585 147.853 46 149 46C153.418 46 157 42.4183 157 38C157 33.5817 153.418 30 149 30C147.853 30 146.762 30.2415 145.776 30.6764C145.008 31.0148 144 30.5103 144 29.6714V18C144 16.3431 142.657 15 141 15L128.663 15C127.893 15 127.396 15.8487 127.628 16.583C127.87 17.3455 128 18.1576 128 19C128 23.4183 124.418 27 120 27C115.582 27 112 23.4183 112 19Z" fill="#0092FA"/>
<path d="M127.628 16.583L126.913 16.8093L127.628 16.583ZM145.776 45.3236L145.473 46.0099L145.776 45.3236ZM145.776 30.6764L146.078 31.3626L145.776 30.6764ZM112.372 16.583L113.087 16.8093L112.372 16.583ZM112.372 61.417L111.657 61.6434L112.372 61.417ZM127.628 61.417L126.913 61.1907L127.628 61.417ZM111.657 16.3566C111.392 17.1916 111.25 18.0799 111.25 19L112.75 19C112.75 18.2353 112.868 17.4995 113.087 16.8093L111.657 16.3566ZM99 15.75L111.337 15.75V14.25L99 14.25V15.75ZM96.75 18C96.75 16.7574 97.7574 15.75 99 15.75V14.25C96.9289 14.25 95.25 15.9289 95.25 18H96.75ZM96.75 31.0642V18H95.25V31.0642H96.75ZM90 31.75C91.3064 31.75 92.5299 32.0948 93.587 32.6979L94.3303 31.3951C93.0528 30.6662 91.5739 30.25 90 30.25V31.75ZM82.75 39C82.75 34.9959 85.9959 31.75 90 31.75V30.25C85.1675 30.25 81.25 34.1675 81.25 39H82.75ZM90 46.25C85.9959 46.25 82.75 43.0041 82.75 39H81.25C81.25 43.8325 85.1675 47.75 90 47.75V46.25ZM93.587 45.3021C92.5299 45.9052 91.3064 46.25 90 46.25V47.75C91.5739 47.75 93.0528 47.3338 94.3303 46.6049L93.587 45.3021ZM96.75 60V46.9358H95.25V60H96.75ZM99 62.25C97.7574 62.25 96.75 61.2426 96.75 60H95.25C95.25 62.0711 96.9289 63.75 99 63.75V62.25ZM111.337 62.25L99 62.25V63.75L111.337 63.75V62.25ZM113.087 61.1907C112.868 60.5005 112.75 59.7647 112.75 59H111.25C111.25 59.9201 111.392 60.8084 111.657 61.6434L113.087 61.1907ZM112.75 59C112.75 54.9959 115.996 51.75 120 51.75V50.25C115.168 50.25 111.25 54.1675 111.25 59H112.75ZM120 51.75C124.004 51.75 127.25 54.9959 127.25 59H128.75C128.75 54.1675 124.832 50.25 120 50.25V51.75ZM127.25 59C127.25 59.7647 127.132 60.5005 126.913 61.1907L128.343 61.6434C128.608 60.8084 128.75 59.9201 128.75 59H127.25ZM141 62.25H128.663V63.75H141V62.25ZM143.25 60C143.25 61.2426 142.243 62.25 141 62.25V63.75C143.071 63.75 144.75 62.0711 144.75 60H143.25ZM143.25 46.3286V60H144.75V46.3286H143.25ZM149 45.25C147.959 45.25 146.971 45.031 146.078 44.6374L145.473 46.0099C146.553 46.486 147.747 46.75 149 46.75V45.25ZM156.25 38C156.25 42.0041 153.004 45.25 149 45.25V46.75C153.832 46.75 157.75 42.8325 157.75 38H156.25ZM149 30.75C153.004 30.75 156.25 33.9959 156.25 38H157.75C157.75 33.1675 153.832 29.25 149 29.25V30.75ZM146.078 31.3626C146.971 30.969 147.959 30.75 149 30.75V29.25C147.747 29.25 146.553 29.514 145.473 29.9901L146.078 31.3626ZM143.25 18V29.6714H144.75V18H143.25ZM141 15.75C142.243 15.75 143.25 16.7574 143.25 18H144.75C144.75 15.9289 143.071 14.25 141 14.25V15.75ZM128.663 15.75L141 15.75V14.25L128.663 14.25V15.75ZM128.75 19C128.75 18.0799 128.608 17.1916 128.343 16.3566L126.913 16.8093C127.132 17.4995 127.25 18.2353 127.25 19H128.75ZM120 27.75C124.832 27.75 128.75 23.8325 128.75 19H127.25C127.25 23.0041 124.004 26.25 120 26.25V27.75ZM111.25 19C111.25 23.8325 115.168 27.75 120 27.75V26.25C115.996 26.25 112.75 23.0041 112.75 19L111.25 19ZM128.663 14.25C127.979 14.25 127.441 14.6318 127.135 15.1163C126.834 15.5944 126.726 16.218 126.913 16.8093L128.343 16.3566C128.298 16.2136 128.323 16.0458 128.404 15.916C128.482 15.7926 128.577 15.75 128.663 15.75V14.25ZM144.75 46.3286C144.75 46.2404 144.798 46.1305 144.957 46.0439C145.124 45.9537 145.324 45.9441 145.473 46.0099L146.078 44.6374C145.46 44.3647 144.772 44.4381 144.242 44.7253C143.706 45.016 143.25 45.578 143.25 46.3286H144.75ZM145.473 29.9901C145.324 30.0559 145.124 30.0463 144.957 29.9561C144.798 29.8695 144.75 29.7596 144.75 29.6714H143.25C143.25 30.422 143.706 30.984 144.242 31.2747C144.772 31.5619 145.46 31.6353 146.078 31.3626L145.473 29.9901ZM113.087 16.8093C113.274 16.218 113.166 15.5944 112.865 15.1163C112.559 14.6318 112.021 14.25 111.337 14.25V15.75C111.423 15.75 111.518 15.7926 111.596 15.916C111.677 16.0458 111.702 16.2136 111.657 16.3566L113.087 16.8093ZM111.337 63.75C112.021 63.75 112.559 63.3682 112.865 62.8837C113.166 62.4056 113.274 61.782 113.087 61.1907L111.657 61.6434C111.702 61.7864 111.677 61.9542 111.596 62.084C111.518 62.2074 111.423 62.25 111.337 62.25V63.75ZM94.3303 46.6049C94.4839 46.5173 94.7351 46.5039 94.9677 46.6102C95.1966 46.7148 95.25 46.8525 95.25 46.9358H96.75C96.75 46.0979 96.1828 45.5162 95.5911 45.2458C95.003 44.9771 94.2335 44.9332 93.587 45.3021L94.3303 46.6049ZM95.25 31.0642C95.25 31.1475 95.1966 31.2852 94.9677 31.3898C94.7351 31.4961 94.4839 31.4827 94.3303 31.3951L93.587 32.6979C94.2335 33.0668 95.003 33.0229 95.5911 32.7542C96.1828 32.4838 96.75 31.9021 96.75 31.0642H95.25ZM126.913 61.1907C126.726 61.782 126.834 62.4056 127.135 62.8837C127.441 63.3682 127.979 63.75 128.663 63.75V62.25C128.577 62.25 128.482 62.2074 128.404 62.084C128.323 61.9542 128.298 61.7864 128.343 61.6434L126.913 61.1907Z" fill="#225181"/>
<defs>
<filter id="filter0_d_150_747" x="0" y="0" width="81" height="81" filterUnits="userSpaceOnUse" color-interpolation-filters="sRGB">
<feFlood flood-opacity="0" result="BackgroundImageFix"/>
<feColorMatrix in="SourceAlpha" type="matrix" values="0 0 0 0 0 0 0 0 0 0 0 0 0 0 0 0 0 0 127 0" result="hardAlpha"/>
<feOffset dy="2"/>
<feGaussianBlur stdDeviation="2"/>
<feComposite in2="hardAlpha" operator="out"/>
<feColorMatrix type="matrix" values="0 0 0 0 0.666667 0 0 0 0 0.886275 0 0 0 0 0.992157 0 0 0 1 0"/>
<feBlend mode="normal" in2="BackgroundImageFix" result="effect1_dropShadow_150_747"/>
<feBlend mode="normal" in="SourceGraphic" in2="effect1_dropShadow_150_747" result="shape"/>
</filter>
</defs>
</svg>
