<?xml version="1.0" encoding="UTF-8" standalone="no"?>
<svg
   height="30.903172"
   width="174.62399"
   color="#ff1f2c"
   viewBox="0 0 158.22284 28.005999"
   version="1.1"
   id="svg32"
   sodipodi:docname="Overstock.svg"
   inkscape:version="1.2.2 (732a01da63, 2022-12-09)"
   xmlns:inkscape="http://www.inkscape.org/namespaces/inkscape"
   xmlns:sodipodi="http://sodipodi.sourceforge.net/DTD/sodipodi-0.dtd"
   xmlns="http://www.w3.org/2000/svg"
   xmlns:svg="http://www.w3.org/2000/svg">
  <defs
     id="defs36" />
  <sodipodi:namedview
     id="namedview34"
     pagecolor="#ffffff"
     bordercolor="#111111"
     borderopacity="1"
     inkscape:showpageshadow="0"
     inkscape:pageopacity="0"
     inkscape:pagecheckerboard="1"
     inkscape:deskcolor="#d1d1d1"
     showgrid="false"
     inkscape:zoom="6.7845304"
     inkscape:cx="115.40961"
     inkscape:cy="24.172638"
     inkscape:window-width="1920"
     inkscape:window-height="1009"
     inkscape:window-x="-8"
     inkscape:window-y="-8"
     inkscape:window-maximized="1"
     inkscape:current-layer="g22" />
  <g
     fill="none"
     fill-rule="evenodd"
     id="g30"
     transform="translate(-0.681625,-0.027)">
    <g
       fill="#000000"
       id="g22">
      <path
         d="m 34.58,14.78 c 0,3.558 1.94,7.117 5.855,7.117 3.914,0 5.855,-3.559 5.855,-7.118 0,-3.558 -1.94,-7.117 -5.855,-7.117 -3.915,0 -5.856,3.559 -5.856,7.117 m 13.75,0 c 0,4.788 -2.783,8.833 -7.894,8.833 -5.112,0 -7.894,-4.045 -7.894,-8.833 0,-4.788 2.782,-8.831 7.894,-8.831 5.111,0 7.894,4.043 7.894,8.831 M 47.965,6.433 h 2.264 l 5.241,14.655 h 0.065 L 60.711,6.433 h 2.103 L 56.57,23.126 h -2.167 z m 27.541,7.182 C 75.409,10.54 73.5,7.662 70.2,7.662 c -3.332,0 -5.176,2.912 -5.5,5.953 z M 64.7,15.329 c 0.032,2.977 1.585,6.568 5.5,6.568 2.977,0 4.594,-1.747 5.24,-4.27 h 2.04 c -0.874,3.785 -3.074,5.984 -7.28,5.984 -5.306,0 -7.538,-4.076 -7.538,-8.832 0,-4.4 2.232,-8.831 7.538,-8.831 5.37,0 7.506,4.69 7.344,9.381 H 64.7 Z M 98.486,11.318 C 98.389,8.794 96.448,7.662 94.119,7.662 c -1.812,0 -3.947,0.712 -3.947,2.88 0,1.811 2.07,2.458 3.462,2.814 l 2.717,0.615 c 2.33,0.355 4.756,1.714 4.756,4.626 0,3.623 -3.591,5.015 -6.697,5.015 -3.883,0 -6.535,-1.812 -6.859,-5.889 h 2.039 c 0.162,2.75 2.2,4.174 4.917,4.174 1.91,0 4.562,-0.841 4.562,-3.17 0,-1.941 -1.812,-2.589 -3.656,-3.042 l -2.62,-0.582 c -2.653,-0.712 -4.66,-1.618 -4.66,-4.465 0,-3.397 3.333,-4.69 6.277,-4.69 3.332,0 5.985,1.747 6.114,5.37 z m 7.623,-4.885 h 3.397 v 1.714 h -3.397 v 11.259 c 0,1.326 0.194,2.103 1.65,2.2 0.582,0 1.165,-0.033 1.747,-0.097 v 1.747 c -0.615,0 -1.197,0.064 -1.812,0.064 -2.718,0 -3.656,-0.905 -3.623,-3.752 V 8.148 h -1.973 V 6.432 h 1.973 V 1.419 h 2.038 z m 5.815,8.347 c 0,3.558 1.941,7.117 5.856,7.117 3.915,0 5.856,-3.559 5.856,-7.118 0,-3.558 -1.941,-7.117 -5.856,-7.117 -3.915,0 -5.856,3.559 -5.856,7.117 m 13.75,0 c 0,4.788 -2.783,8.833 -7.894,8.833 -5.111,0 -7.894,-4.045 -7.894,-8.833 0,-4.788 2.783,-8.831 7.894,-8.831 5.111,0 7.894,4.043 7.894,8.831 m 14.443,-3.105 c -0.55,-2.491 -2.07,-4.012 -4.723,-4.012 -3.915,0 -5.856,3.559 -5.856,7.117 0,3.56 1.94,7.118 5.856,7.118 2.523,0 4.594,-1.974 4.852,-4.756 h 2.038 c -0.55,4.012 -3.17,6.47 -6.89,6.47 -5.112,0 -7.894,-4.043 -7.894,-8.832 0,-4.788 2.782,-8.832 7.894,-8.832 3.559,0 6.308,1.91 6.761,5.727 z m 4.308,-11.647 h 2.038 v 14.494 l 9.253,-8.088 h 2.717 l -7.117,6.179 7.603,10.514 h -2.556 l -6.6,-9.09 -3.3,2.75 v 6.34 h -2.038 z M 87.083,6.28 c -2.342,0.324 -4.105,1.796 -4.981,4.067 H 82.037 V 6.433 H 80.16 V 23.126 H 82.2 V 14.23 c 0,-3.03 1.931,-5.488 4.884,-5.926 V 6.28 Z"
         id="path20"
         sodipodi:nodetypes="csssccssscccccccccccsccssccsssccscssccssccssccssccccccscccscccccccccsssccsssccsssccsssccccccccccccccccccccccsccc" />
    </g>
    <g
       fill="#ff1f2c"
       id="g28">
      <path
         d="M 0.666,0.06 V 14.72 C 2.828,8.896 8.816,4.443 14.9,4.443 c 6.74,0 11.04,5.464 9.609,12.202 -1.105,5.195 -5.295,9.628 -10.243,11.388 H 28.64 V 0.061 H 0.666 Z"
         fill="#ff1f2c"
         id="path24" />
      <path
         d="m 20.04,16.645 c 0,-5.824 -3.463,-10.547 -7.734,-10.547 -4.271,0 -7.734,4.723 -7.734,10.547 0,5.825 3.463,10.547 7.734,10.547 4.271,0 7.734,-4.722 7.734,-10.547"
         fill="#ff1f2c"
         id="path26" />
    </g>
  </g>
</svg>
