<?xml version="1.0" encoding="UTF-8"?>
<svg width="118px" height="118px" viewBox="0 0 118 118" version="1.1" xmlns="http://www.w3.org/2000/svg" xmlns:xlink="http://www.w3.org/1999/xlink">
    <title>playlists</title>
    <defs>
        <filter x="-13.3%" y="-13.3%" width="126.5%" height="126.5%" filterUnits="objectBoundingBox" id="filter-1">
            <feOffset dx="0" dy="2" in="SourceAlpha" result="shadowOffsetOuter1"></feOffset>
            <feGaussianBlur stdDeviation="2" in="shadowOffsetOuter1" result="shadowBlurOuter1"></feGaussianBlur>
            <feColorMatrix values="0 0 0 0 0.0941176471   0 0 0 0 0.560784314   0 0 0 0 1  0 0 0 0.5 0" type="matrix" in="shadowBlurOuter1" result="shadowMatrixOuter1"></feColorMatrix>
            <feMerge>
                <feMergeNode in="shadowMatrixOuter1"></feMergeNode>
                <feMergeNode in="SourceGraphic"></feMergeNode>
            </feMerge>
        </filter>
    </defs>
    <g id="Page-1" stroke="none" stroke-width="1" fill="none" fill-rule="evenodd">
        <g id="Home" transform="translate(-700.000000, -1635.000000)">
            <g id="playlists" filter="url(#filter-1)" transform="translate(710.000000, 1645.000000)">
                <circle id="Oval" fill="#FFFFFF" cx="49" cy="49" r="43"></circle>
                <polygon id="Path" stroke="#2A5082" stroke-width="2" fill="#FFFFFF" points="15.75 76 15.75 68.9333333 7 68.9333333 7 76 0 76 0 23 7 23 7 30.0666667 15.75 30.0666667 15.75 23 82.25 23 82.25 30.0666667 91 30.0666667 91 23 98 23 98 76 91 76 91 68.9333333 82.25 68.9333333 82.25 76"></polygon>
                <path d="M40,37.6852357 L40,62.3406421 C40,63.5734124 41.7760618,64.4539626 42.8416988,63.7495225 L62.2007722,51.4218192 C63.2664093,50.7173791 63.2664093,49.3084987 62.2007722,48.6040585 L42.6640927,36.2763553 C41.7760618,35.5719151 40,36.2763553 40,37.6852357 Z" id="Path" stroke="#2A5082" stroke-width="2" fill="#188FFF" fill-rule="nonzero"></path>
                <rect id="Rectangle" stroke="#2A5082" stroke-width="2" x="82" y="37" width="9" height="9"></rect>
                <rect id="Rectangle" stroke="#2A5082" stroke-width="2" x="82" y="52" width="9" height="9"></rect>
                <rect id="Rectangle" stroke="#2A5082" stroke-width="2" x="7" y="37" width="9" height="9"></rect>
                <rect id="Rectangle" stroke="#2A5082" stroke-width="2" x="7" y="52" width="9" height="9"></rect>
                <path d="M10,19 C19.0941704,7.42727273 33.0852018,0 49,0 C64.9147982,0 78.9058296,7.42727273 88,19" id="Path" stroke="#188FFF" stroke-width="2"></path>
                <path d="M88,79 C78.9058296,90.5727273 64.9147982,98 49,98 C33.0852018,98 19.0941704,90.5727273 10,79" id="Path" stroke="#188FFF" stroke-width="2"></path>
                <path d="M33,19 C36.7333333,7.42727273 42.4222222,0 49,0 C55.5777778,0 61.2666667,7.42727273 65,19" id="Path" stroke="#188FFF" stroke-width="2"></path>
                <path d="M65,79 C61.2666667,90.5727273 55.5777778,98 49,98 C42.4222222,98 36.7333333,90.5727273 33,79" id="Path" stroke="#188FFF" stroke-width="2"></path>
            </g>
        </g>
    </g>
</svg>