<?xml version="1.0" encoding="utf-8"?>
<!-- Generator: Adobe Illustrator 19.2.1, SVG Export Plug-In . SVG Version: 6.00 Build 0)  -->
<svg version="1.1" id="layer" xmlns="http://www.w3.org/2000/svg" xmlns:xlink="http://www.w3.org/1999/xlink" x="0px" y="0px"
	 viewBox="0 163 652 326" style="enable-background:new 0 0 652 652;" xml:space="preserve">
<style type="text/css">
	.st0{fill:#171246;}
	.st1{fill:#26DB8E;}
</style>
<title>Matrix_BW_Logo</title>
<desc>Created with Sketch.</desc>
<path class="st0" d="M442.9,267.4h14.8v85.1h-14.8V267.4z M480,266c-5.1,0-9.2,4.2-9.2,9.4c0,4.9,4.2,9.1,9.2,9.1
	c5.1,0,9.2-4.1,9.2-9.1C489.3,270.1,485.2,266,480,266z M405,293.3c-17,0-29.8,13.1-29.8,30.6c0,17.5,13,30.6,30.3,30.6
	c15.7,0,24.2-10.1,26.7-18.9l-12.9-4.3c-1.6,4.8-6,9.7-13.8,9.7c-9.1,0-15.5-7-15.5-17.1c0-11.7,7.7-17,15.4-17
	c8.7,0,12.1,5.9,13.3,9.7l13.2-4.4C429.5,303.3,421,293.3,405,293.3z M472.7,295h14.8v57.5h-14.8V295z M358.3,295l-14.7,35l-15.9-35
	h-16.6l24.6,50.6l-0.1,0.2l-13.5,29.7h15.6l36.3-80.6C374.1,295,358.3,295,358.3,295z M588.5,330.4l15.4,22.2h18.1l-23.6-33.5
	l22.9-24H602l-21,22.6v-50.2h-14.8v85.2H581v-15.2l7.1-7.5C588.1,329.9,588.5,330.4,588.5,330.4z M528.3,293.3
	c-17,0-29.8,13.1-29.8,30.6c0,17.5,13,30.6,30.3,30.6c15.7,0,24.2-10.1,26.7-18.9l-12.9-4.3c-1.6,4.8-6,9.7-13.8,9.7
	c-9.1,0-15.5-7-15.5-17.1c0-11.7,7.7-17,15.4-17c8.7,0,12.1,5.9,13.3,9.7l13.2-4.4C552.8,303.3,544.4,293.3,528.3,293.3z
	 M52.1,354.4c17.2,0,30.2-13.1,30.2-30.6c0-17.7-12.7-30.6-30.2-30.6s-30.2,12.8-30.2,30.6v51.9H37v-25.1l0.8,0.4
	C42.2,353.2,47,354.4,52.1,354.4z M52.1,306.6c10.6,0,15.4,8.9,15.4,17.2S62.7,341,52.1,341c-7.4,0-14.9-5.3-14.9-17.2
	S44.7,306.6,52.1,306.6z M124.8,308.5v-15.1c-10.5,0.1-18.6,2.9-24,8.4c-7.4,7.4-7.4,17-7.4,21v29.8h15.1v-30.2c0-2.4,0-7,3-10
	C114.7,309.3,120.4,308.5,124.8,308.5z M162.6,293.3c-17.5,0-30.2,12.8-30.2,30.6c0,17.4,13,30.6,30.2,30.6s30.2-13.1,30.2-30.6
	C192.8,306.1,180.1,293.3,162.6,293.3z M162.6,341c-7.4,0-15.4-5.4-15.4-17.2c0-8.3,4.8-17.2,15.4-17.2s15.4,8.9,15.4,17.2
	S173.2,341,162.6,341z M219,303.5c-2.2-3.3-4.6-6.8-5.7-8.5h-17.5l14.6,19.8c3.9,5.3,3.9,12.7,0,18l-14.6,19.6h16.7l9.6-13.8
	c6.3-9,6.4-21,0.2-30.2C220.8,306.2,219.6,304.4,219,303.5z"/>
<path class="st1" d="M282,303.5c2.2-3.3,4.6-6.8,5.7-8.5h17.5l-14.6,19.8c-3.9,5.3-3.9,12.7,0,18l14.6,19.6h-16.7l-9.6-13.8
	c-6.3-9.1-6.4-21-0.2-30.2C280.2,306.2,281.4,304.4,282,303.5z"/>
</svg>
