<svg width="39" height="38" viewBox="0 0 39 38" fill="none" xmlns="http://www.w3.org/2000/svg">
<path d="M18.5904 1.92538C18.9572 1.18214 20.0171 1.18214 20.3839 1.92538L25.2755 11.8369C25.4212 12.132 25.7027 12.3366 26.0285 12.3839L36.9664 13.9733C37.7867 14.0925 38.1142 15.1005 37.5207 15.679L29.6059 23.394C29.3702 23.6238 29.2626 23.9548 29.3183 24.2792L31.1867 35.173C31.3268 35.9899 30.4694 36.6128 29.7357 36.2271L19.9525 31.0838C19.6612 30.9306 19.3131 30.9306 19.0218 31.0838L9.23858 36.2271C8.50495 36.6128 7.64752 35.9899 7.78763 35.173L9.65606 24.2792C9.7117 23.9548 9.60415 23.6238 9.36847 23.394L1.45366 15.679C0.860144 15.1005 1.18765 14.0925 2.00788 13.9733L12.9459 12.3839C13.2716 12.3366 13.5531 12.132 13.6988 11.8369L18.5904 1.92538Z" stroke="black" stroke-width="1.5"/>
</svg>
