<svg version="1.2" xmlns="http://www.w3.org/2000/svg" viewBox="0 0 1588 505">
	<title>thg-svg</title>
	<style>
		.s0 { fill: #000000 }
	</style>
	<g id="Layer">
		<g id="Layer">
			<g id="Layer">
				<path id="Layer" class="s0" d="m260.6 497.3h-111v-395.9h-149.6v-93.7h411v93.7h-150.4zm629.3-193h-222.7v193h-111v-489.6h111v204.2h222.7v-204.2h111v489.6h-111zm572.4-193q-35.9-14.7-71.7-14.7-42.9 0-78.3 20.6-35.5 20.7-55.9 56-20.4 35.3-20.4 78.7 0.1 43.3 20.8 79.3 20.7 36.1 56.2 56.7 35.4 20.6 78.3 20.6 21.8 0 47.1-7.3 25.3-7.4 49.1-19.9v-130.8h96.3v190.2q-39.4 28.7-94.2 46.5-54.7 17.9-105.3 17.9-73.8 0-133.5-33.3-59.7-33.2-94.1-90.9-34.5-57.7-34.5-129 0-70.7 35.2-128.4 35.1-57.7 96.6-90.6 61.4-32.8 136.6-32.8 54.8 0 107.1 19.5 52.4 19.6 90.3 53.2l-62.5 79q-27.4-25.8-63.2-40.5z"/>
			</g>
		</g>
	</g>
</svg>
