<?xml version="1.0" encoding="UTF-8" standalone="no"?>
<!-- Created with Inkscape (http://www.inkscape.org/) -->

<svg
   xmlns:dc="http://purl.org/dc/elements/1.1/"
   xmlns:cc="http://creativecommons.org/ns#"
   xmlns:rdf="http://www.w3.org/1999/02/22-rdf-syntax-ns#"
   xmlns:svg="http://www.w3.org/2000/svg"
   xmlns="http://www.w3.org/2000/svg"
   xmlns:sodipodi="http://sodipodi.sourceforge.net/DTD/sodipodi-0.dtd"
   xmlns:inkscape="http://www.inkscape.org/namespaces/inkscape"
   width="1115.5626mm"
   height="291.99207mm"
   viewBox="0 0 1115.5626 291.99207"
   version="1.1"
   id="svg894"
   inkscape:version="0.92.3 (2405546, 2018-03-11)"
   sodipodi:docname="vivo_new.svg">
  <defs
     id="defs888" />
  <sodipodi:namedview
     id="base"
     pagecolor="#ffffff"
     bordercolor="#666666"
     borderopacity="1.0"
     inkscape:pageopacity="0.0"
     inkscape:pageshadow="2"
     inkscape:zoom="0.12374369"
     inkscape:cx="1738.1865"
     inkscape:cy="1671.4264"
     inkscape:document-units="mm"
     inkscape:current-layer="layer1"
     showgrid="false"
     fit-margin-top="0"
     fit-margin-left="0"
     fit-margin-right="0"
     fit-margin-bottom="0"
     inkscape:window-width="1366"
     inkscape:window-height="745"
     inkscape:window-x="-8"
     inkscape:window-y="-8"
     inkscape:window-maximized="1" />
  <metadata
     id="metadata891">
    <rdf:RDF>
      <cc:Work
         rdf:about="">
        <dc:format>image/svg+xml</dc:format>
        <dc:type
           rdf:resource="http://purl.org/dc/dcmitype/StillImage" />
        <dc:title></dc:title>
      </cc:Work>
    </rdf:RDF>
  </metadata>
  <g
     inkscape:label="Layer 1"
     inkscape:groupmode="layer"
     id="layer1"
     transform="translate(72.125166,-110.90402)">
    <g
       transform="matrix(1.1066483,0,0,1.1066483,-80.978332,101.9689)"
       style="fill:#415fff;fill-rule:evenodd;stroke:#000000;stroke-width:1;stroke-linecap:square;stroke-linejoin:bevel;fill-opacity:1"
       id="g44">
      <g
         style="fill:#415fff;fill-opacity:1;stroke:#000000;stroke-width:1;stroke-linecap:butt;stroke-linejoin:miter;stroke-miterlimit:2;stroke-opacity:1"
         stroke-miterlimit="2"
         id="g6" />
      <g
         style="fill:#415fff;fill-opacity:1;stroke:#000000;stroke-width:1;stroke-linecap:butt;stroke-linejoin:miter;stroke-miterlimit:2;stroke-opacity:1"
         stroke-miterlimit="2"
         id="g8" />
      <g
         style="fill:#415fff;fill-opacity:1;stroke:#000000;stroke-width:1;stroke-linecap:butt;stroke-linejoin:miter;stroke-miterlimit:2;stroke-opacity:1"
         stroke-miterlimit="2"
         id="g10" />
      <g
         style="fill:#415fff;fill-opacity:1;stroke:#000000;stroke-width:1;stroke-linecap:butt;stroke-linejoin:miter;stroke-miterlimit:2;stroke-opacity:1"
         stroke-miterlimit="2"
         id="g12" />
      <g
         style="fill:#415fff;fill-opacity:1;stroke:#000000;stroke-width:1;stroke-linecap:butt;stroke-linejoin:miter;stroke-miterlimit:2;stroke-opacity:1"
         stroke-miterlimit="2"
         transform="matrix(0.257669,0,0,0.257669,8,8.07362)"
         id="g14" />
      <g
         style="fill:#415fff;fill-opacity:1;stroke:none"
         transform="matrix(0.257669,0,0,0.257669,8,8.07362)"
         id="g18">
        <path
           style="vector-effect:none;fill-rule:nonzero;fill:#415fff;fill-opacity:1"
           inkscape:connector-curvature="0"
           d="m 3522.47,853.333 h -336.44 c -189.11,0 -205.92,-155.871 -205.92,-203.487 0,-47.616 16.81,-203.487 205.92,-203.487 h 336.44 c 189.13,0 205.94,155.871 205.94,203.487 0,47.616 -16.81,203.487 -205.94,203.487 m 7.31,-577.641 h -337.92 c -351.18,0 -382.42,286.589 -382.42,374.154 0,87.565 31.24,374.154 382.42,374.154 h 337.92 c 351.2,0 382.43,-286.589 382.43,-374.154 0,-87.565 -31.23,-374.154 -382.43,-374.154"
           id="path16" />
      </g>
      <g
         style="fill:#415fff;fill-opacity:1;stroke:#000000;stroke-width:1;stroke-linecap:butt;stroke-linejoin:miter;stroke-miterlimit:2;stroke-opacity:1"
         stroke-miterlimit="2"
         transform="matrix(0.257669,0,0,0.257669,8,8.07362)"
         id="g20" />
      <g
         style="fill:#415fff;fill-opacity:1;stroke:none"
         transform="matrix(0.257669,0,0,0.257669,8,8.07362)"
         id="g24">
        <path
           style="vector-effect:none;fill-rule:nonzero;fill:#415fff;fill-opacity:1"
           inkscape:connector-curvature="0"
           d="m 2741.89,301.949 h -109.55 c -46.92,0 -56.58,7.89 -74.67,34.383 -18.12,26.479 -331.46,498.372 -331.46,498.372 -10.01,14.507 -20.62,20.375 -33.8,20.375 -13.19,0 -23.78,-5.868 -33.78,-20.375 0,0 -313.37,-471.893 -331.47,-498.372 -18.09,-26.506 -27.75,-34.383 -74.67,-34.383 h -109.56 c -25.2,0 -36.76,19.443 -20.9,43.192 l 374.26,560.548 c 58.07,84.256 100.68,118.311 196.12,118.311 95.45,0 138.06,-34.055 196.14,-118.311 l 374.24,-560.548 c 15.86,-23.749 4.34,-43.192 -20.9,-43.192 M 1299.7,347.727 c 0,-32.795 12.8,-45.778 45.1,-45.778 h 80.47 c 32.29,0 45.09,12.997 45.09,45.778 v 630.482 c 0,32.791 -12.8,45.791 -45.09,45.791 h -80.47 c -32.29,0 -45.1,-13 -45.1,-45.791 V 347.727 m -6.73,-199.772 c -26.04,-26.033 -26.04,-46.684 0,-72.7304 l 55.68,-55.6767 c 26.05,-26.05951 46.7,-26.05951 72.74,-0.0132 l 55.71,55.6768 c 26.03,26.0595 26.03,46.7105 0,72.7565 l -55.71,55.677 c -26.04,26.046 -46.69,26.046 -72.73,0 l -55.69,-55.677 v -0.013 M 1126.53,301.949 H 1017.1 c -46.87,0 -56.532,7.903 -74.597,34.382 -18.09,26.48 -331.119,498.36 -331.119,498.36 -9.978,14.507 -20.572,20.375 -33.74,20.375 -13.194,0 -23.775,-5.868 -33.766,-20.375 0,0 -313.029,-471.893 -331.093,-498.373 -18.064,-26.466 -27.727,-34.369 -74.594,-34.369 H 28.7539 c -28.120593,0 -36.71957,19.443 -20.87382,43.192 C 23.6996,368.903 381.719,905.676 381.719,905.676 439.732,989.945 482.32,1024 577.644,1024 c 95.311,0 137.912,-34.055 195.912,-118.325 L 1147.41,345.141 c 15.83,-23.749 7.25,-43.192 -20.88,-43.192"
           id="path22" />
      </g>
      <g
         style="fill:#415fff;fill-opacity:1;stroke:#000000;stroke-width:1;stroke-linecap:butt;stroke-linejoin:miter;stroke-miterlimit:2;stroke-opacity:1"
         stroke-miterlimit="2"
         transform="matrix(0.257669,0,0,0.257669,8,8.07362)"
         id="g26" />
      <g
         style="fill:#415fff;fill-opacity:1;stroke:#000000;stroke-width:1;stroke-linecap:butt;stroke-linejoin:miter;stroke-miterlimit:2;stroke-opacity:1"
         stroke-miterlimit="2"
         transform="matrix(0.257669,0,0,0.257669,8,8.07362)"
         id="g28" />
      <g
         style="fill:#415fff;fill-opacity:1;stroke:#000000;stroke-width:1;stroke-linecap:butt;stroke-linejoin:miter;stroke-miterlimit:2;stroke-opacity:1"
         stroke-miterlimit="2"
         transform="matrix(0.257669,0,0,0.257669,8,8.07362)"
         id="g30" />
      <g
         style="fill:#415fff;fill-opacity:1;stroke:#000000;stroke-width:1;stroke-linecap:butt;stroke-linejoin:miter;stroke-miterlimit:2;stroke-opacity:1"
         stroke-miterlimit="2"
         id="g32" />
      <g
         style="fill:#415fff;fill-opacity:1;stroke:#000000;stroke-width:1;stroke-linecap:butt;stroke-linejoin:miter;stroke-miterlimit:2;stroke-opacity:1"
         stroke-miterlimit="2"
         id="g34" />
      <g
         style="fill:#415fff;fill-opacity:1;stroke:#000000;stroke-width:1;stroke-linecap:butt;stroke-linejoin:miter;stroke-miterlimit:2;stroke-opacity:1"
         stroke-miterlimit="2"
         id="g36" />
      <g
         style="fill:#415fff;fill-opacity:1;stroke:#000000;stroke-width:1;stroke-linecap:butt;stroke-linejoin:miter;stroke-miterlimit:2;stroke-opacity:1"
         stroke-miterlimit="2"
         id="g38" />
      <g
         style="fill:#415fff;fill-opacity:1;stroke:#000000;stroke-width:1;stroke-linecap:butt;stroke-linejoin:miter;stroke-miterlimit:2;stroke-opacity:1"
         stroke-miterlimit="2"
         id="g40" />
      <g
         style="fill:#415fff;fill-opacity:1;stroke:#000000;stroke-width:1;stroke-linecap:butt;stroke-linejoin:miter;stroke-miterlimit:2;stroke-opacity:1"
         stroke-miterlimit="2"
         id="g42" />
    </g>
  </g>
</svg>
