<svg width="112" height="34" viewBox="0 0 112 34" fill="none" xmlns="http://www.w3.org/2000/svg">
<path fill-rule="evenodd" clip-rule="evenodd" d="M69.2147 9.56045C69.0056 9.56191 68.8048 9.64281 68.6534 9.78668C68.502 9.93055 68.4112 10.1266 68.3995 10.3349L68.4383 25.4429C68.4499 25.6506 68.5403 25.8461 68.6909 25.9899C68.8416 26.1337 69.0415 26.2149 69.25 26.2173H71.6955C71.904 26.2149 72.1038 26.1337 72.2545 25.9899C72.4052 25.8461 72.4955 25.6506 72.5071 25.4429L72.4719 10.3349C72.4602 10.1266 72.3694 9.93055 72.218 9.78668C72.0665 9.64281 71.8658 9.56191 71.6567 9.56045H69.2147ZM70.4074 0.0035202C69.7748 0.0035202 69.168 0.254219 68.7206 0.700472C68.2733 1.14672 68.0219 1.75198 68.0219 2.38308C68.0219 3.01417 68.2733 3.61942 68.7206 4.06567C69.168 4.51192 69.7748 4.76262 70.4074 4.76262C70.7316 4.78022 71.056 4.73172 71.3608 4.62008C71.6656 4.50844 71.9443 4.33602 72.18 4.11333C72.4158 3.89064 72.6035 3.62236 72.7318 3.32487C72.8601 3.02738 72.9263 2.70693 72.9263 2.38308C72.9263 2.05922 72.8601 1.73876 72.7318 1.44127C72.6035 1.14378 72.4158 0.875499 72.18 0.652808C71.9443 0.430117 71.6656 0.257695 71.3608 0.14606C71.056 0.0344249 70.7316 -0.0140756 70.4074 0.0035202ZM49.5023 9.92301C48.8847 9.92301 48.6377 10.3208 48.8847 10.8382L56.1578 25.8196C56.2229 25.948 56.3246 26.0543 56.4502 26.125C56.5759 26.1958 56.7197 26.2279 56.8635 26.2173H57.0682C57.2119 26.227 57.3554 26.1945 57.4808 26.1238C57.6062 26.0531 57.7082 25.9474 57.774 25.8196L65.0294 10.8488C65.2764 10.3313 65.0294 9.93357 64.4154 9.93357H62.5239C62.0722 9.93357 61.6205 9.93358 61.4158 10.3701L56.98 19.7475H56.9376L52.6642 10.3701C52.6001 10.2313 52.4952 10.1152 52.3635 10.0373C52.2318 9.9593 52.0794 9.92314 51.9266 9.93357L49.5023 9.92301ZM75.8737 10.8382C75.6267 10.3208 75.8737 9.92301 76.4877 9.92301H78.9121C79.0653 9.91284 79.2181 9.94907 79.3503 10.027C79.4825 10.1048 79.5881 10.2207 79.6532 10.3595L83.9231 19.7369H83.9655L88.4013 10.3595C88.606 9.92301 89.0577 9.92301 89.5129 9.92301H91.4009C92.0184 9.92301 92.2654 10.3208 92.0184 10.8382L84.7454 25.8196C84.6802 25.948 84.5785 26.0543 84.4529 26.125C84.3273 26.1958 84.1835 26.2279 84.0396 26.2173H83.8349C83.691 26.2279 83.5472 26.1958 83.4216 26.125C83.296 26.0543 83.1942 25.948 83.1291 25.8196L75.8737 10.8382ZM95.0215 9.92301C94.8929 9.90733 94.7624 9.92729 94.6443 9.98071C94.5263 10.0341 94.4253 10.1189 94.3524 10.2258C94.2794 10.3328 94.2375 10.4576 94.231 10.5867C94.2245 10.7159 94.2539 10.8443 94.3157 10.9579L100.992 25.281L97.3188 32.9371C97.251 33.0512 97.2169 33.1821 97.2205 33.3147C97.224 33.4472 97.265 33.5761 97.3388 33.6865C97.4125 33.7969 97.516 33.8842 97.6374 33.9384C97.7587 33.9927 97.893 34.0116 98.0246 33.9931H100.495C100.645 33.9853 100.79 33.937 100.914 33.8532C101.038 33.7695 101.137 33.6536 101.201 33.5179L111.897 10.9579C112.183 10.4405 111.854 9.92301 111.191 9.92301H108.862C108.69 9.89777 108.515 9.92618 108.36 10.0043C108.205 10.0825 108.079 10.2066 107.997 10.3595L103.074 20.9408H103.036L98.4163 10.3595C98.3429 10.2351 98.2403 10.1305 98.1174 10.0544C97.9945 9.97839 97.8548 9.93329 97.7105 9.92301H95.0215Z" fill="black"/>
<path fill-rule="evenodd" clip-rule="evenodd" d="M13.3405 13.497C12.871 13.9728 12.3116 14.3506 11.695 14.6084C11.0784 14.8662 10.4167 14.999 9.74833 14.999C9.07999 14.999 8.41829 14.8662 7.80164 14.6084C7.185 14.3506 6.62569 13.9728 6.15615 13.497C5.20169 12.5286 4.66662 11.2233 4.66662 9.8633C4.66662 8.50334 5.20169 7.19803 6.15615 6.22956C6.62544 5.75337 7.18468 5.37523 7.80135 5.11713C8.41803 4.85903 9.07985 4.72611 9.74833 4.72611C10.4168 4.72611 11.0786 4.85903 11.6953 5.11713C12.312 5.37523 12.8712 5.75337 13.3405 6.22956L16.9028 9.83513L13.3405 13.497ZM38.2517 3.70142C37.3177 2.5099 36.1169 1.55455 34.7461 0.912367C33.3753 0.270185 31.8728 -0.0408615 30.3598 0.00430088C27.7898 0.110195 25.3594 1.2022 23.5732 3.05355L20.1975 6.46899L16.8218 3.05355C13.0835 -0.728081 6.99743 -1.00624 3.12893 2.63103C1.88243 3.80449 0.959857 5.27994 0.45049 6.91459C-0.0588769 8.54925 -0.13779 10.2878 0.22139 11.9619C0.443399 13.0496 0.856984 14.0893 1.44284 15.0322C2.20785 16.2985 3.25189 17.3732 4.49531 18.1744C5.73873 18.9757 7.14868 19.4822 8.61758 19.6554C10.0865 19.8287 11.5756 19.664 12.9712 19.174C14.3668 18.6839 15.632 17.8815 16.6704 16.828L20.2221 13.1766L24.1153 17.1167C24.1951 17.197 24.29 17.2607 24.3945 17.3041C24.499 17.3476 24.6111 17.37 24.7242 17.37C24.8374 17.37 24.9495 17.3476 25.054 17.3041C25.1585 17.2607 25.2534 17.197 25.3332 17.1167L27.4206 15.0041C27.5816 14.8401 27.6718 14.6195 27.6718 14.3896C27.6718 14.1598 27.5816 13.9392 27.4206 13.7752L23.5028 9.81048L27.0404 6.22956C27.6568 5.60333 28.4258 5.14861 29.2714 4.91028C30.1171 4.67194 31.0103 4.6582 31.8628 4.87042C32.3415 4.9836 32.799 5.1726 33.2181 5.43027C33.8865 5.83578 34.4546 6.38736 34.8797 7.04366C35.3048 7.69996 35.576 8.44398 35.6728 9.21998C35.7696 9.99598 35.6897 10.7839 35.4389 11.5246C35.1882 12.2653 34.7731 12.9396 34.2248 13.497L20.1975 27.687L14.6675 22.1131C14.588 22.0329 14.4935 21.9693 14.3892 21.9259C14.285 21.8825 14.1732 21.8601 14.0604 21.8601C13.9475 21.8601 13.8357 21.8825 13.7315 21.9259C13.6273 21.9693 13.5327 22.0329 13.4531 22.1131L11.3658 24.2257C11.2031 24.3888 11.1117 24.6098 11.1117 24.8402C11.1117 25.0706 11.2031 25.2915 11.3658 25.4546L19.5604 33.7467C19.6402 33.827 19.7351 33.8907 19.8396 33.9342C19.9441 33.9776 20.0562 34 20.1693 34C20.2825 34 20.3946 33.9776 20.4991 33.9342C20.6036 33.8907 20.6985 33.827 20.7783 33.7467L37.516 16.8315C38.5835 15.7521 39.3886 14.4416 39.8689 13.0014C40.3493 11.5611 40.4921 10.0296 40.2863 8.52529C40.0594 6.76214 39.3559 5.0943 38.2517 3.70142Z" fill="#00BFAC"/>
</svg>
