<svg xmlns="http://www.w3.org/2000/svg" xmlns:xlink="http://www.w3.org/1999/xlink" xmlns:lucid="lucid" width="871.68" height="586.87"><g transform="translate(-1160.8245978592477 -896.5636510423033)" lucid:page-tab-id="0_0"><path d="M0 0h6299.2v6299.2H0z" fill="#fff"/><path d="M1296.2 1403.44h240v60h-240z" fill="none"/><use xlink:href="#a" transform="matrix(1,0,0,1,1296.195785166251,1403.4363489576963) translate(5.514702690972257 37.77007378472222)"/><use xlink:href="#b" transform="matrix(1,0,0,1,1296.195785166251,1403.4363489576963) translate(99.79671223958334 37.77007378472222)"/><use xlink:href="#c" transform="matrix(1,0,0,1,1296.195785166251,1403.4363489576963) translate(180.60986328124997 37.77007378472222)"/><path d="M1781.47 1176.46a6 6 0 0 1 6-6h210.08a6 6 0 0 1 6 6v200.98a6 6 0 0 1-6 6h-210.08a6 6 0 0 1-6-6z" fill="#edf5ff"/><path d="M1797.97 1170.46h9m6 0h9m6 0h9.02m6 0h9m6 0h9m6 0h9m6 0h9m6 0h9.02m6 0h9m6 0h9m6 0h9m6.02 0h9m6 0h9m6 0h4.5l.95.08.9.22.88.36.8.5.7.6.63.72.5.8.36.87.22.93.07.93v4.64m0 6.2v9.26m0 6.18v9.28m0 6.18v9.28m0 6.18v9.28m0 6.18v9.28m0 6.18v9.28m0 6.18v9.28m0 6.18v9.28m0 6.18v9.28m0 6.18v9.28m0 6.18v9.27m0 6.2v9.27m0 6.18v4.64l-.07.93-.22.92-.36.86-.5.8-.6.72-.72.6-.8.5-.88.36-.9.22-.95.08h-4.5m-6 0h-9m-6 0h-9m-6.02 0h-9m-6 0h-9m-6 0h-9m-6 0H1903m-6 0h-9m-6 0h-9m-6 0h-9m-6 0h-9m-6 0h-9.02m-6 0h-9m-6 0h-9m-6 0h-4.5l-.95-.08-.92-.22-.86-.36-.8-.5-.72-.6-.6-.72-.5-.8-.36-.87-.22-.92-.07-.94v-4.64m0-6.18v-9.28m0-6.18v-9.28m0-6.18v-9.28m0-6.18v-9.28m0-6.18v-9.28m0-6.18v-9.28m0-6.18v-9.28m0-6.18v-9.28m0-6.18v-9.28m0-6.18v-9.28m0-6.18v-9.28m0-6.18v-9.27m0-6.2v-4.64l.07-.93.22-.92.36-.86.5-.8.6-.72.72-.6.8-.5.87-.36.93-.22.94-.08h4.5" stroke="#4881b3" stroke-width="3" fill="none"/><path d="M1180.83 1176.46a6 6 0 0 1 6-6h470.45a6 6 0 0 1 6 6v200.98a6 6 0 0 1-6 6h-470.45a6 6 0 0 1-6-6z" fill="#edf5ff"/><path d="M1197.45 1170.46h9.1m6.07 0h9.1m6.08 0h9.1m6.08 0h9.1m6.07 0h9.1m6.08 0h9.1m6.07 0h9.1m6.08 0h9.1m6.08 0h9.1m6.07 0h9.1m6.08 0h9.1m6.08 0h9.1m6.08 0h9.1m6.08 0h9.1m6.07 0h9.12m6.07 0h9.1m6.07 0h9.1m6.07 0h9.1m6.08 0h9.1m6.07 0h9.1m6.07 0h9.1m6.08 0h9.1m6.07 0h9.1m6.08 0h9.1m6.07 0h9.1m6.08 0h9.1m6.08 0h9.1m6.07 0h9.1m6.08 0h9.1m6.07 0h9.1m6.08 0h4.55l.94.08.92.22.87.36.8.5.73.6.6.72.5.8.36.87.2.93.08.93v4.64m0 6.2v9.26m0 6.18v9.28m0 6.18v9.28m0 6.18v9.28m0 6.18v9.28m0 6.18v9.28m0 6.18v9.28m0 6.18v9.28m0 6.18v9.28m0 6.18v9.28m0 6.18v9.27m0 6.2v9.27m0 6.18v4.64l-.07.93-.2.92-.37.86-.5.8-.6.72-.72.6-.8.5-.86.36-.92.22-.94.08h-4.55m-6.07 0h-9.1m-6.08 0h-9.1m-6.07 0h-9.1m-6.07 0h-9.1m-6.08 0h-9.1m-6.07 0h-9.1m-6.08 0h-9.1m-6.07 0h-9.1m-6.08 0h-9.1m-6.08 0h-9.1m-6.07 0h-9.1m-6.08 0h-9.1m-6.07 0h-9.1m-6.08 0h-9.1m-6.08 0h-9.1m-6.08 0h-9.1m-6.08 0h-9.1m-6.07 0h-9.1m-6.08 0h-9.12m-6.07 0h-9.1m-6.06 0h-9.1m-6.08 0h-9.1m-6.07 0h-9.12m-6.07 0h-9.1m-6.07 0h-9.1m-6.07 0h-9.1m-6.08 0h-9.1m-6.07 0h-9.1m-6.07 0h-9.1m-6.08 0h-9.1m-6.07 0h-4.56l-.93-.08-.93-.22-.87-.36-.8-.5-.72-.6-.6-.72-.5-.8-.36-.87-.22-.92-.08-.94v-4.64m0-6.18v-9.28m0-6.18v-9.28m0-6.18v-9.28m0-6.18v-9.28m0-6.18v-9.28m0-6.18v-9.28m0-6.18v-9.28m0-6.18v-9.28m0-6.18v-9.28m0-6.18v-9.28m0-6.18v-9.28m0-6.18v-9.27m0-6.2v-4.64l.08-.93.22-.92.36-.86.5-.8.6-.72.72-.6.8-.5.87-.36.92-.22.92-.08h4.56" stroke="#4881b3" stroke-width="3" fill="none"/><path d="M1180.83 922.56a6 6 0 0 1 6-6h804.24a6 6 0 0 1 6 6v166.97a6 6 0 0 1-6 6h-804.24a6 6 0 0 1-6-6z" stroke="#4881b3" stroke-width="3" fill="#edf5ff"/><use xlink:href="#d" transform="matrix(1,0,0,1,1185.8245978592477,921.5636510423033) translate(258.2763671875 93.61512586805554)"/><use xlink:href="#e" transform="matrix(1,0,0,1,1185.8245978592477,921.5636510423033) translate(371.2280815972222 93.61512586805554)"/><use xlink:href="#f" transform="matrix(1,0,0,1,1185.8245978592477,921.5636510423033) translate(468.04383680555554 93.61512586805554)"/><path d="M1832.5 1205.36h120v120h-120v-120z" stroke="#fff" stroke-opacity="0" stroke-width="2" fill="#224c72"/><path d="M1930.9 1303.76h-11.2v-3.22h9.6v-70.35h-73.6v70.34h44.8v3.22h-46.4c-.87 0-1.6-.7-1.6-1.6v-73.58c0-.93.73-1.62 1.6-1.62h76.8c.9 0 1.6.7 1.6 1.62v73.57c0 .92-.7 1.6-1.6 1.6z" stroke="#fff" stroke-opacity="0" stroke-width="2" fill="#fff"/><path d="M1854.1 1239.76h76.8v3.2h-76.8v-3.2zM1858.9 1233.36h3.2v3.2h-3.2v-3.2zM1865.3 1233.36h3.2v3.2h-3.2v-3.2zM1871.7 1233.36h3.2v3.2h-3.2v-3.2zM1870.9 1286.66l-2.25-2.28 14.23-14.2-14.23-14.22 2.26-2.28 15.36 15.37c.33.3.47.7.47 1.12 0 .43-.16.82-.47 1.12zM1889.3 1278.16h24v3.2h-24v-3.2z" stroke="#fff" stroke-opacity="0" stroke-width="2" fill="#fff"/><use xlink:href="#g" transform="matrix(1,0,0,1,1802.5087354740863,1334.3629087278143) translate(5.1527777777778 16.501736111111107)"/><use xlink:href="#h" transform="matrix(1,0,0,1,1802.5087354740863,1334.3629087278143) translate(143.84201388888886 16.501736111111107)"/><use xlink:href="#i" transform="matrix(1,0,0,1,1802.5087354740863,1334.3629087278143) translate(90.5 37.19618055555554)"/><use xlink:href="#j" transform="matrix(1,0,0,1,1802.5087354740863,1334.3629087278143) translate(90.5 57.890624999999986)"/><path d="M1241.47 1205.36h120v120h-120v-120z" stroke="#fff" stroke-opacity="0" fill="#224c72"/><path d="M1319.08 1303.78c-.36 0-.65-.15-.94-.3-.43-.3-.67-.77-.67-1.3v-73.63c0-.53.3-1.07.77-1.38.48-.3 1.08-.3 1.6-.08l20.8 10.2c.56.24.9.78.9 1.4v56.55c.02.77-.42 1.4-1.1 1.62l-20.8 6.9h-.56zm1.6-72.6v68.76l17.6-5.84v-54.4zM1283.86 1303.78h-.5l-20.8-6.9v-.02c-.7-.22-1.12-.92-1.1-1.6v-56.56c0-.62.34-1.16.9-1.4l20.8-10.2c.53-.24 1.1-.24 1.6.07.5.3.76.85.76 1.38v73.62c0 .53-.25 1-.68 1.3-.3.23-.6.3-.98.3zm-19.2-9.6l17.6 5.84v-68.85l-17.6 8.6z" stroke="#fff" stroke-opacity="0" fill="#fff"/><path d="M1317.47 1249.36h-4.8v-3.2h4.8zm-9.6 0h-4.82v-3.2h4.8zm-9.6 0h-4.8v-3.2h4.8zm-9.6 0h-4.8v-3.2h4.8zM1317.47 1284.56h-4.8v-3.2h4.8zm-9.6 0h-4.82v-3.2h4.8zm-9.6 0h-4.8v-3.2h4.8zm-9.6 0h-4.8v-3.2h4.8zM1294.44 1270.87l-6-5.14c-.7-.57-.76-1.58-.2-2.26l.2-.17 5.98-5.14 2.1 2.43-4.6 3.97 4.6 3.9zM1308.5 1270.87l-2.07-2.43 4.57-3.87-4.6-3.92 2.1-2.5 6 5.13c.68.57.76 1.6.2 2.26l-.2.17z" stroke="#fff" stroke-opacity="0" fill="#fff"/><path d="M1296.76 1274.23l6.36-18.8 3.03 1.03-6.36 18.8-3.04-1.03z" stroke="#fff" stroke-opacity="0" stroke-width=".32" fill="#fff"/><use xlink:href="#k" transform="matrix(1,0,0,1,1211.4668553716674,1334.362908727814) translate(15.321180555555543 16.50173611111111)"/><use xlink:href="#l" transform="matrix(1,0,0,1,1211.4668553716674,1334.362908727814) translate(68.66319444444443 16.50173611111111)"/><use xlink:href="#m" transform="matrix(1,0,0,1,1211.4668553716674,1334.362908727814) translate(132.67361111111111 16.50173611111111)"/><use xlink:href="#n" transform="matrix(1,0,0,1,1211.4668553716674,1334.362908727814) translate(90 37.19618055555556)"/><use xlink:href="#o" transform="matrix(1,0,0,1,1211.4668553716674,1334.362908727814) translate(90 57.890625)"/><path d="M1481.47 1205.36h120v120h-120v-120z" stroke="#000" stroke-opacity="0" fill="#224c72"/><path d="M1516.53 1291.34c4.08-2.6 5.47-7.88 3.3-12.27-2.44-4.56-8.17-6.44-12.78-4.03l-5.56-9.58 9.2-16.03-2.78-1.6-9.64 16.74c-.35.53-.35 1.07 0 1.6l6.16 10.75c-1.73 1.88-2.6 4.03-2.6 6.54 0 5.2 4.17 9.5 9.38 9.5.87 0 1.57-.1 2.35-.28l5.04 8.78c.36.54.88.8 1.4.8h19.9v-3.13h-18.94zm-5.3-1.52c-3.4 0-6.26-2.87-6.26-6.27 0-3.5 2.86-6.27 6.25-6.27 3.48 0 6.26 2.78 6.26 6.27 0 3.4-2.78 6.18-6.26 6.18zm73.43-25.25l-6.08-10.57c3.56-2.6 4.86-7.17 3.04-11.3-2-4.73-7.56-6.97-12.34-4.9l-4.96-8.6c-.35-.46-.87-.8-1.4-.8h-19.9v3.2H1562l4.6 7.98c-2.78 2.6-3.82 6.27-2.7 9.85 1.57 5.02 6.87 7.8 11.9 6.18l5.66 9.77-8 13.8 2.8 1.6 8.42-14.6c.35-.53.35-1.07 0-1.6zm-11.65-11.83c-3.46 0-6.24-2.86-6.24-6.27 0-3.5 2.78-6.26 6.25-6.26 3.4 0 6.18 2.78 6.18 6.27 0 3.4-2.78 6.27-6.17 6.27zm-9.63 38.5c-1.22 0-2.26.2-3.4.64l-6.77-11.46-.35.17 8.34-14.33c.34-.54.34-1.17 0-1.62l-9.13-16.12c-.35-.44-.87-.8-1.4-.8h-16.85l-6.17-10.57c2.17-1.8 3.3-4.3 3.3-7.16 0-5.2-4.26-9.4-9.47-9.4-5.22 0-9.4 4.2-9.4 9.5 0 5.18 4.27 9.4 9.5 9.4 1.2 0 2.25-.2 3.38-.64l5.73 9.77-9.13 15.93c-.35.54-.35 1.08 0 1.62l9.2 16.03c.36.45.8.72 1.4.72h18.5c.1.1.27.1.36 0l6.25 10.66c-2.17 1.88-3.2 4.3-3.2 7.16 0 5.2 4.16 9.4 9.37 9.4 5.22 0 9.48-4.2 9.48-9.5-.1-5.18-4.26-9.4-9.48-9.3zm-41.8-54.97c-3.48 0-6.26-2.87-6.17-6.27 0-3.5 2.86-6.27 6.25-6.27 3.48.1 6.26 2.87 6.26 6.27-.08 3.5-2.86 6.27-6.34 6.27zm28.15 43.52h-16.6l-8.34-14.43 8.34-14.42h16.6l8.35 14.42zm13.73 27.12c-3.47 0-6.25-2.77-6.25-6.18 0-3.5 2.78-6.27 6.25-6.27 3.48 0 6.26 2.78 6.26 6.27 0 3.4-2.77 6.18-6.25 6.18z" stroke="#000" stroke-opacity="0" fill="#fff"/><use xlink:href="#p" transform="matrix(1,0,0,1,1451.4668553716674,1334.362908727814) translate(47.32638888888889 16.501736111111107)"/><use xlink:href="#q" transform="matrix(1,0,0,1,1451.4668553716674,1334.362908727814) translate(100.66840277777777 16.501736111111107)"/><use xlink:href="#j" transform="matrix(1,0,0,1,1451.4668553716674,1334.362908727814) translate(90 37.19618055555554)"/><path d="M1762 1098.04v.38l.08 1.35.14 1.3.2 1.3.23 1.26.3 1.24.33 1.23.4 1.23.46 1.22.5 1.22.6 1.23.64 1.25.73 1.26.83 1.3.9 1.3 1.04 1.37 1.17 1.4 1.3 1.47 1.5 1.53 1.74 1.6 2 1.73 2.33 1.86 2.8 2.02 3.37 2.24 4.22 2.55 5.5 3.03 7.92 3.9 16.18 7.13 31.86 13.66 7.9 3.9 5.52 3.03 4.22 2.55 3.38 2.24 2.78 2.02 2.34 1.85 2 1.7 1.72 1.63 1.5 1.53 1.32 1.46 1.16 1.4 1.03 1.36.92 1.32.2.3" stroke="#224c72" stroke-width="2" stroke-linejoin="round" fill="none"/><path d="M1763 1098.04l-2 .04-.03-1.05h2z" stroke="#224c72" stroke-width=".05" fill="#224c72"/><path d="M1891.57 1202.27l-8.55-12.32 8.87-2.68z" stroke="#224c72" stroke-width="2" fill="#224c72"/><path d="M1772.5 1403.44h240v60h-240z" fill="none"/><g><use xlink:href="#r" transform="matrix(1,0,0,1,1772.5087354740863,1403.4363489576963) translate(12.249131944444485 37.77007378472222)"/><use xlink:href="#s" transform="matrix(1,0,0,1,1772.5087354740863,1403.4363489576963) translate(106.53114149305557 37.77007378472222)"/><use xlink:href="#t" transform="matrix(1,0,0,1,1772.5087354740863,1403.4363489576963) translate(187.3442925347222 37.77007378472222)"/></g><path d="M1409.77 1098.04l-.02.83-.12 1.76-.2 1.7-.26 1.65-.34 1.62-.4 1.58-.5 1.56-.56 1.54-.63 1.55-.73 1.54-.8 1.56-.93 1.57-1.05 1.6-1.18 1.66-1.36 1.7-1.54 1.78-1.78 1.87-2.08 2-2.46 2.14-2.98 2.36-3.7 2.66-4.82 3.14-6.97 4.1-44.4 23.5-4.83 3.14-3.7 2.66-2.97 2.36-2.46 2.14-2.1 2-1.78 1.86-1.54 1.77-1.35 1.7-1.2 1.66-1.03 1.6-.93 1.57-.08.16" stroke="#224c72" stroke-width="2" stroke-linejoin="round" fill="none"/><path d="M1410.77 1098.08l-2-.04.03-1h2z" stroke="#224c72" stroke-width=".05" fill="#224c72"/><path d="M1302.27 1202.23l-.97-14.97 8.98 2.3z" stroke="#224c72" stroke-width="2" fill="#224c72"/><path d="M1567.47 1098.03v88.83" stroke="#224c72" stroke-width="2" fill="none"/><path d="M1568.47 1098.06h-2v-1.03h2z" stroke="#224c72" stroke-width=".05" fill="#224c72"/><path d="M1567.47 1202.13l-4.64-14.27h9.27z" stroke="#224c72" stroke-width="2" fill="#224c72"/><defs><path fill="#1d262b" d="M1094-1034c0 310-213 470-541 465H362V0H176v-1462h404c343 0 514 143 514 428zM532-727c244-1 369-71 369-297 0-186-113-279-338-279H362v576h170" id="u"/><path fill="#1d262b" d="M578-131c239 0 309-137 309-397v-570h182V0H922l-27-147h-10C815-36 704 20 551 20c-261 0-391-134-391-401v-717h182v707c0 173 79 260 236 260" id="v"/><path fill="#1d262b" d="M532-1413l-268-21v-122h451v1413l352 20V0H188v-123l344-20v-1270" id="w"/><path fill="#1d262b" d="M1026-301c0 225-197 321-448 321-165 0-290-23-375-69v-166c129 57 252 86 370 86 183 0 275-54 275-162 0-38-16-71-49-99s-108-63-226-106c-156-57-253-112-293-160s-61-105-61-171c2-338 524-340 789-217l-60 149c-121-48-228-72-319-72-157 0-236 44-236 133 0 41 17 74 51 98s111 57 232 101c141 51 234 101 280 151s70 111 70 183" id="x"/><path fill="#1d262b" d="M596-1118c288 2 430 92 430 366V0H895l-37-152h-8C752-34 680 17 483 20 272 23 135-98 135-307c0-221 170-337 510-348l203-7c15-197-55-305-244-305-98 0-207 27-328 82l-63-137c131-64 258-96 383-96zm-72 991c194 0 325-116 322-311v-99c-251 15-522-6-522 232 0 119 67 178 200 178" id="y"/><path fill="#1d262b" d="M442-897c93-139 173-221 377-221 79 0 159 15 240 45l-49 166c-82-30-157-45-224-45-221 0-340 134-340 360V0H264v-1098h148l22 201h8" id="z"/><g id="a"><use transform="matrix(0.010959201388888885,0,0,0.010959201388888885,0,0)" xlink:href="#u"/><use transform="matrix(0.010959201388888885,0,0,0.010959201388888885,13.46885850694444,0)" xlink:href="#v"/><use transform="matrix(0.010959201388888885,0,0,0.010959201388888885,26.93771701388888,0)" xlink:href="#w"/><use transform="matrix(0.010959201388888885,0,0,0.010959201388888885,40.406575520833314,0)" xlink:href="#x"/><use transform="matrix(0.010959201388888885,0,0,0.010959201388888885,53.87543402777776,0)" xlink:href="#y"/><use transform="matrix(0.010959201388888885,0,0,0.010959201388888885,67.3442925347222,0)" xlink:href="#z"/></g><path fill="#1d262b" d="M1004 0L860-453H369L223 0H33l483-1468h195L1196 0h-192zM807-618c-63-210-144-435-195-650-51 232-127 431-190 650h385" id="A"/><path fill="#1d262b" d="M137-547c0-322 136-571 430-571 137 0 245 53 322 160h12c-24-215-7-376-12-598h182V0H924l-27-147h-8C814-36 706 20 567 20c-294 0-430-246-430-567zm463 416c241 0 288-157 289-416 0-151-23-259-69-323s-121-97-222-97c-181 0-272 141-272 422 0 276 91 414 274 414" id="B"/><path fill="#1d262b" d="M977 0v-707c0-97-9-165-27-203s-47-57-88-57c-58 0-100 28-126 83s-40 148-40 278V0H535v-707c0-173-42-260-125-260-56 0-96 26-120 79s-36 160-36 319V0H92v-1098h127l27 148h10c45-112 112-168 201-168 109 0 180 61 213 182h6c51-121 124-182 219-182 85 0 147 30 186 92s58 165 58 309V0H977" id="C"/><path fill="#1d262b" d="M739-1436c0 71-43 115-106 115-71 0-107-38-107-115 0-76 36-114 107-114s106 38 106 114zM541-954l-269-21v-123h451v955l352 20V0H197v-123l344-20v-811" id="D"/><path fill="#1d262b" d="M887 0v-707c0-173-79-260-238-260-205 0-307 133-307 398V0H160v-1098h147l27 148h10c69-112 181-168 336-168 259 0 389 134 389 401V0H887" id="E"/><g id="b"><use transform="matrix(0.010959201388888885,0,0,0.010959201388888885,0,0)" xlink:href="#A"/><use transform="matrix(0.010959201388888885,0,0,0.010959201388888885,13.46885850694444,0)" xlink:href="#B"/><use transform="matrix(0.010959201388888885,0,0,0.010959201388888885,26.93771701388888,0)" xlink:href="#C"/><use transform="matrix(0.010959201388888885,0,0,0.010959201388888885,40.406575520833314,0)" xlink:href="#D"/><use transform="matrix(0.010959201388888885,0,0,0.010959201388888885,53.87543402777776,0)" xlink:href="#E"/></g><path fill="#1d262b" d="M1001 0H225v-123l295-20v-1176l-295-20v-123h776v123l-294 20v1176l294 20V0" id="F"/><g id="c"><use transform="matrix(0.010959201388888885,0,0,0.010959201388888885,0,0)" xlink:href="#A"/><use transform="matrix(0.010959201388888885,0,0,0.010959201388888885,13.46885850694444,0)" xlink:href="#u"/><use transform="matrix(0.010959201388888885,0,0,0.010959201388888885,26.93771701388888,0)" xlink:href="#F"/><use transform="matrix(0.010959201388888885,0,0,0.010959201388888885,40.406575520833314,0)" xlink:href="#x"/></g><g id="d"><use transform="matrix(0.013129340277777775,0,0,0.013129340277777775,0,0)" xlink:href="#u"/><use transform="matrix(0.013129340277777775,0,0,0.013129340277777775,16.135959201388886,0)" xlink:href="#v"/><use transform="matrix(0.013129340277777775,0,0,0.013129340277777775,32.27191840277777,0)" xlink:href="#w"/><use transform="matrix(0.013129340277777775,0,0,0.013129340277777775,48.40787760416666,0)" xlink:href="#x"/><use transform="matrix(0.013129340277777775,0,0,0.013129340277777775,64.54383680555554,0)" xlink:href="#y"/><use transform="matrix(0.013129340277777775,0,0,0.013129340277777775,80.67979600694443,0)" xlink:href="#z"/></g><g id="e"><use transform="matrix(0.013129340277777775,0,0,0.013129340277777775,0,0)" xlink:href="#A"/><use transform="matrix(0.013129340277777775,0,0,0.013129340277777775,16.135959201388886,0)" xlink:href="#B"/><use transform="matrix(0.013129340277777775,0,0,0.013129340277777775,32.27191840277777,0)" xlink:href="#C"/><use transform="matrix(0.013129340277777775,0,0,0.013129340277777775,48.40787760416666,0)" xlink:href="#D"/><use transform="matrix(0.013129340277777775,0,0,0.013129340277777775,64.54383680555554,0)" xlink:href="#E"/></g><path fill="#1d262b" d="M233 0v-1462h187v1296h635V0H233" id="G"/><path fill="#1d262b" d="M82-1098h188l262 654c55 137 84 233 89 290h6c15-75 45-172 90-292l239-652h189L670 143c-45 116-99 201-156 261-87 92-259 104-414 71V330c92 17 226 18 286-29 67-53 115-195 153-291" id="H"/><path fill="#1d262b" d="M631-1118c283 0 470 204 465 491v113H322c5 250 120 375 344 375 130 0 253-25 370-76v160C925-5 804 20 672 20c-329 0-539-224-539-561 0-331 182-577 498-577zM326-662h573c0-203-91-305-272-305-183 0-284 102-301 305" id="I"/><g id="f"><use transform="matrix(0.013129340277777775,0,0,0.013129340277777775,0,0)" xlink:href="#G"/><use transform="matrix(0.013129340277777775,0,0,0.013129340277777775,16.135959201388886,0)" xlink:href="#y"/><use transform="matrix(0.013129340277777775,0,0,0.013129340277777775,32.27191840277777,0)" xlink:href="#H"/><use transform="matrix(0.013129340277777775,0,0,0.013129340277777775,48.40787760416666,0)" xlink:href="#I"/><use transform="matrix(0.013129340277777775,0,0,0.013129340277777775,64.54383680555554,0)" xlink:href="#z"/></g><path fill="#58d6d7" d="M1092-551c0 322-136 571-430 571-138 0-245-53-322-159h-12c24 220 7 402 12 631H158v-1590h147l27 148h8c73-112 181-168 322-168 294 0 430 246 430 567zM629-967c-241 0-288 156-289 416 0 151 24 259 70 323s120 97 221 97c181 0 272-141 272-422 0-276-91-414-274-414" id="J"/><path fill="#58d6d7" d="M578-131c239 0 309-137 309-397v-570h182V0H922l-27-147h-10C815-36 704 20 551 20c-261 0-391-134-391-401v-717h182v707c0 173 79 260 236 260" id="K"/><path fill="#58d6d7" d="M532-1413l-268-21v-122h451v1413l352 20V0H188v-123l344-20v-1270" id="L"/><path fill="#58d6d7" d="M1026-301c0 225-197 321-448 321-165 0-290-23-375-69v-166c129 57 252 86 370 86 183 0 275-54 275-162 0-38-16-71-49-99s-108-63-226-106c-156-57-253-112-293-160s-61-105-61-171c2-338 524-340 789-217l-60 149c-121-48-228-72-319-72-157 0-236 44-236 133 0 41 17 74 51 98s111 57 232 101c141 51 234 101 280 151s70 111 70 183" id="M"/><path fill="#58d6d7" d="M596-1118c288 2 430 92 430 366V0H895l-37-152h-8C752-34 680 17 483 20 272 23 135-98 135-307c0-221 170-337 510-348l203-7c15-197-55-305-244-305-98 0-207 27-328 82l-63-137c131-64 258-96 383-96zm-72 991c194 0 325-116 322-311v-99c-251 15-522-6-522 232 0 119 67 178 200 178" id="N"/><path fill="#58d6d7" d="M442-897c93-139 173-221 377-221 79 0 159 15 240 45l-49 166c-82-30-157-45-224-45-221 0-340 134-340 360V0H264v-1098h148l22 201h8" id="O"/><path fill="#58d6d7" d="M285-465v-168h659v168H285" id="P"/><path fill="#58d6d7" d="M137-547c0-322 136-571 430-571 137 0 245 53 322 160h12c-24-215-7-376-12-598h182V0H924l-27-147h-8C814-36 706 20 567 20c-294 0-430-246-430-567zm463 416c241 0 288-157 289-416 0-151-23-259-69-323s-121-97-222-97c-181 0-272 141-272 422 0 276 91 414 274 414" id="Q"/><path fill="#58d6d7" d="M977 0v-707c0-97-9-165-27-203s-47-57-88-57c-58 0-100 28-126 83s-40 148-40 278V0H535v-707c0-173-42-260-125-260-56 0-96 26-120 79s-36 160-36 319V0H92v-1098h127l27 148h10c45-112 112-168 201-168 109 0 180 61 213 182h6c51-121 124-182 219-182 85 0 147 30 186 92s58 165 58 309V0H977" id="R"/><path fill="#58d6d7" d="M739-1436c0 71-43 115-106 115-71 0-107-38-107-115 0-76 36-114 107-114s106 38 106 114zM541-954l-269-21v-123h451v955l352 20V0H197v-123l344-20v-811" id="S"/><path fill="#58d6d7" d="M887 0v-707c0-173-79-260-238-260-205 0-307 133-307 398V0H160v-1098h147l27 148h10c69-112 181-168 336-168 259 0 389 134 389 401V0H887" id="T"/><g id="g"><use transform="matrix(0.008680555555555554,0,0,0.008680555555555554,0,0)" xlink:href="#J"/><use transform="matrix(0.008680555555555554,0,0,0.008680555555555554,10.668402777777777,0)" xlink:href="#K"/><use transform="matrix(0.008680555555555554,0,0,0.008680555555555554,21.336805555555554,0)" xlink:href="#L"/><use transform="matrix(0.008680555555555554,0,0,0.008680555555555554,32.00520833333333,0)" xlink:href="#M"/><use transform="matrix(0.008680555555555554,0,0,0.008680555555555554,42.67361111111111,0)" xlink:href="#N"/><use transform="matrix(0.008680555555555554,0,0,0.008680555555555554,53.342013888888886,0)" xlink:href="#O"/><use transform="matrix(0.008680555555555554,0,0,0.008680555555555554,64.01041666666666,0)" xlink:href="#P"/><use transform="matrix(0.008680555555555554,0,0,0.008680555555555554,74.67881944444443,0)" xlink:href="#N"/><use transform="matrix(0.008680555555555554,0,0,0.008680555555555554,85.3472222222222,0)" xlink:href="#Q"/><use transform="matrix(0.008680555555555554,0,0,0.008680555555555554,96.01562499999997,0)" xlink:href="#R"/><use transform="matrix(0.008680555555555554,0,0,0.008680555555555554,106.68402777777774,0)" xlink:href="#S"/><use transform="matrix(0.008680555555555554,0,0,0.008680555555555554,117.35243055555551,0)" xlink:href="#T"/></g><path fill="#58d6d7" d="M326-731c0 353 139 584 471 588 87 0 196-19 327-58v162c-97 39-217 59-358 59-433-1-637-301-637-753 0-438 243-750 668-750 147 0 274 29 383 86l-78 156c-103-52-204-78-305-78-307 1-471 259-471 588" id="U"/><path fill="#58d6d7" d="M233 0v-1462h187v1296h635V0H233" id="V"/><path fill="#58d6d7" d="M1001 0H225v-123l295-20v-1176l-295-20v-123h776v123l-294 20v1176l294 20V0" id="W"/><g id="h"><use transform="matrix(0.008680555555555554,0,0,0.008680555555555554,0,0)" xlink:href="#U"/><use transform="matrix(0.008680555555555554,0,0,0.008680555555555554,10.668402777777777,0)" xlink:href="#V"/><use transform="matrix(0.008680555555555554,0,0,0.008680555555555554,21.336805555555554,0)" xlink:href="#W"/></g><path fill="#58d6d7" d="M979-451c3 293-217 471-518 471-145 0-253-20-324-59v-166c108 41 211 62 309 62 205 2 347-105 347-306v-1013h186v1011" id="X"/><path fill="#58d6d7" d="M498 0L82-1098h188l240 652c57 154 90 262 100 325h6c67-256 244-708 340-977h189L729 0H498" id="Y"/><g id="k"><use transform="matrix(0.008680555555555556,0,0,0.008680555555555556,0,0)" xlink:href="#X"/><use transform="matrix(0.008680555555555556,0,0,0.008680555555555556,10.668402777777779,0)" xlink:href="#N"/><use transform="matrix(0.008680555555555556,0,0,0.008680555555555556,21.336805555555557,0)" xlink:href="#Y"/><use transform="matrix(0.008680555555555556,0,0,0.008680555555555556,32.005208333333336,0)" xlink:href="#N"/></g><g id="l"><use transform="matrix(0.008680555555555556,0,0,0.008680555555555556,0,0)" xlink:href="#N"/><use transform="matrix(0.008680555555555556,0,0,0.008680555555555556,10.668402777777779,0)" xlink:href="#Q"/><use transform="matrix(0.008680555555555556,0,0,0.008680555555555556,21.336805555555557,0)" xlink:href="#R"/><use transform="matrix(0.008680555555555556,0,0,0.008680555555555556,32.005208333333336,0)" xlink:href="#S"/><use transform="matrix(0.008680555555555556,0,0,0.008680555555555556,42.673611111111114,0)" xlink:href="#T"/></g><path fill="#58d6d7" d="M1004 0L860-453H369L223 0H33l483-1468h195L1196 0h-192zM807-618c-63-210-144-435-195-650-51 232-127 431-190 650h385" id="Z"/><path fill="#58d6d7" d="M1094-1034c0 310-213 470-541 465H362V0H176v-1462h404c343 0 514 143 514 428zM532-727c244-1 369-71 369-297 0-186-113-279-338-279H362v576h170" id="aa"/><g id="m"><use transform="matrix(0.008680555555555556,0,0,0.008680555555555556,0,0)" xlink:href="#Z"/><use transform="matrix(0.008680555555555556,0,0,0.008680555555555556,10.668402777777779,0)" xlink:href="#aa"/><use transform="matrix(0.008680555555555556,0,0,0.008680555555555556,21.336805555555557,0)" xlink:href="#W"/></g><path fill="#58d6d7" d="M373-604V0H186v-1462h357c347 0 520 138 520 415 0 191-96 322-289 392L1171 0H952L602-604H373zm497-434c0-207-118-263-338-265H373v541h164c215-1 333-70 333-276" id="ab"/><path fill="#58d6d7" d="M1059 0H217v-1462h842v164H403v452h617v162H403v520h656V0" id="ac"/><path fill="#58d6d7" d="M1087-391c0 281-226 411-532 411-177 0-315-23-414-69v-178c141 57 279 86 414 86 233 0 350-80 350-240 0-69-24-123-71-160s-142-82-285-133c-139-49-239-106-299-174s-90-156-90-264c2-252 211-371 481-371 153 0 291 26 416 78l-64 164c-129-52-249-78-360-78-195 0-293 70-293 209 0 68 22 123 66 164s134 85 270 133c164 58 273 119 328 181s83 143 83 241" id="ad"/><path fill="#58d6d7" d="M707 0H520v-1298H102v-164h1022v164H707V0" id="ae"/><g id="p"><use transform="matrix(0.008680555555555554,0,0,0.008680555555555554,0,0)" xlink:href="#ab"/><use transform="matrix(0.008680555555555554,0,0,0.008680555555555554,10.668402777777777,0)" xlink:href="#ac"/><use transform="matrix(0.008680555555555554,0,0,0.008680555555555554,21.336805555555554,0)" xlink:href="#ad"/><use transform="matrix(0.008680555555555554,0,0,0.008680555555555554,32.00520833333333,0)" xlink:href="#ae"/></g><g id="q"><use transform="matrix(0.008680555555555554,0,0,0.008680555555555554,0,0)" xlink:href="#Z"/><use transform="matrix(0.008680555555555554,0,0,0.008680555555555554,10.668402777777777,0)" xlink:href="#aa"/><use transform="matrix(0.008680555555555554,0,0,0.008680555555555554,21.336805555555554,0)" xlink:href="#W"/></g><g id="r"><use transform="matrix(0.010959201388888886,0,0,0.010959201388888886,0,0)" xlink:href="#u"/><use transform="matrix(0.010959201388888886,0,0,0.010959201388888886,13.468858506944441,0)" xlink:href="#v"/><use transform="matrix(0.010959201388888886,0,0,0.010959201388888886,26.937717013888882,0)" xlink:href="#w"/><use transform="matrix(0.010959201388888886,0,0,0.010959201388888886,40.40657552083332,0)" xlink:href="#x"/><use transform="matrix(0.010959201388888886,0,0,0.010959201388888886,53.875434027777764,0)" xlink:href="#y"/><use transform="matrix(0.010959201388888886,0,0,0.010959201388888886,67.3442925347222,0)" xlink:href="#z"/></g><g id="s"><use transform="matrix(0.010959201388888886,0,0,0.010959201388888886,0,0)" xlink:href="#A"/><use transform="matrix(0.010959201388888886,0,0,0.010959201388888886,13.468858506944441,0)" xlink:href="#B"/><use transform="matrix(0.010959201388888886,0,0,0.010959201388888886,26.937717013888882,0)" xlink:href="#C"/><use transform="matrix(0.010959201388888886,0,0,0.010959201388888886,40.40657552083332,0)" xlink:href="#D"/><use transform="matrix(0.010959201388888886,0,0,0.010959201388888886,53.875434027777764,0)" xlink:href="#E"/></g><path fill="#1d262b" d="M326-731c0 353 139 584 471 588 87 0 196-19 327-58v162c-97 39-217 59-358 59-433-1-637-301-637-753 0-438 243-750 668-750 147 0 274 29 383 86l-78 156c-103-52-204-78-305-78-307 1-471 259-471 588" id="af"/><g id="t"><use transform="matrix(0.010959201388888886,0,0,0.010959201388888886,0,0)" xlink:href="#af"/><use transform="matrix(0.010959201388888886,0,0,0.010959201388888886,13.468858506944441,0)" xlink:href="#G"/><use transform="matrix(0.010959201388888886,0,0,0.010959201388888886,26.937717013888882,0)" xlink:href="#F"/></g></defs></g></svg>