<svg xmlns="http://www.w3.org/2000/svg" xmlns:xlink="http://www.w3.org/1999/xlink" xmlns:lucid="lucid" width="940" height="700"><g transform="translate(26.671561331314138 181.8806440373296)" lucid:page-tab-id="0_0"><path d="M-1806.87-1258.84h3677.74v2581.68h-3677.74z" fill="#fff"/><path d="M233.33-161.88c33.14 0 60 26.86 60 60s-26.86 60-60 60h-180c-33.14 0-60-26.86-60-60s26.86-60 60-60z" stroke="#474e55" stroke-width="2" fill="#edf5ff"/><use xlink:href="#a" transform="matrix(1,0,0,1,-6.6715613313141375,-161.8806440373296) translate(48.48856119791673 51.08344184027777)"/><use xlink:href="#b" transform="matrix(1,0,0,1,-6.6715613313141375,-161.8806440373296) translate(102.86399522569447 87.66087239583331)"/><use xlink:href="#c" transform="matrix(1,0,0,1,-6.6715613313141375,-161.8806440373296) translate(183.6771462673611 87.66087239583331)"/><path d="M233.33 18.12c33.14 0 60 26.86 60 60s-26.86 60-60 60h-180c-33.14 0-60-26.86-60-60s26.86-60 60-60z" stroke="#474e55" stroke-width="2" fill="#edf5ff"/><use xlink:href="#a" transform="matrix(1,0,0,1,-6.6715613313141375,18.119355962670397) translate(48.48856119791673 51.08344184027777)"/><use xlink:href="#b" transform="matrix(1,0,0,1,-6.6715613313141375,18.119355962670397) translate(102.86399522569447 87.66087239583331)"/><use xlink:href="#d" transform="matrix(1,0,0,1,-6.6715613313141375,18.119355962670397) translate(183.6771462673611 87.66087239583331)"/><path d="M233.33 198.12c33.14 0 60 26.86 60 60s-26.86 60-60 60h-180c-33.14 0-60-26.86-60-60s26.86-60 60-60z" stroke="#474e55" stroke-width="2" fill="#edf5ff"/><use xlink:href="#a" transform="matrix(1,0,0,1,-6.6715613313141375,198.1193559626704) translate(48.48856119791673 51.08344184027777)"/><use xlink:href="#b" transform="matrix(1,0,0,1,-6.6715613313141375,198.1193559626704) translate(102.86399522569447 87.66087239583331)"/><use xlink:href="#e" transform="matrix(1,0,0,1,-6.6715613313141375,198.1193559626704) translate(183.6771462673611 87.66087239583331)"/><path d="M593.33 18.12h300v120h-300z" stroke="#474e55" stroke-width="2" fill-opacity="0"/><use xlink:href="#f" transform="matrix(1,0,0,1,598.3284386686859,23.119355962670397) translate(77.6557074652778 62.45844184027777)"/><use xlink:href="#g" transform="matrix(1,0,0,1,598.3284386686859,23.119355962670397) translate(198.87543402777777 62.45844184027777)"/><path d="M593.33 238.12h300v120h-300z" stroke="#474e55" stroke-width="2" fill-opacity="0"/><use xlink:href="#f" transform="matrix(1,0,0,1,598.3284386686859,243.1193559626704) translate(77.6557074652778 62.45844184027777)"/><use xlink:href="#h" transform="matrix(1,0,0,1,598.3284386686859,243.1193559626704) translate(198.87543402777777 62.45844184027777)"/><path d="M295.2-101.36l281.3 169.9" stroke="#5e5e5e" stroke-width="2" fill="none"/><path d="M295.72-102.2l-1.03 1.7-.42-.24.05-1.14-.04-1.2z" stroke="#5e5e5e" stroke-width=".05" fill="#5e5e5e"/><path d="M589.56 76.45l-14.6-3.4 4.78-7.95z" stroke="#5e5e5e" stroke-width="2" fill="#5e5e5e"/><path d="M295.13 78.7l282.3 208.43" stroke="#5e5e5e" stroke-width="2" fill="none"/><path d="M295.75 77.92l-1.2 1.6-.27-.2.05-1.2-.05-1.28z" stroke="#5e5e5e" stroke-width=".05" fill="#5e5e5e"/><path d="M589.73 296.2l-14.24-4.75L581 284z" stroke="#5e5e5e" stroke-width="2" fill="#5e5e5e"/><path d="M295.32 258.25L574 295.65" stroke="#5e5e5e" stroke-width="2" fill="none"/><path d="M295.48 257.26l-.27 2-.9-.14.03-1-.04-1z" stroke="#5e5e5e" stroke-width=".05" fill="#5e5e5e"/><path d="M589.12 297.7l-14.75 2.7 1.23-9.2z" stroke="#5e5e5e" stroke-width="2" fill="#5e5e5e"/><path d="M433.33 79.08c0-.52.42-.96.9-.96h58.2c.48 0 .9.44.9.96v38.08c0 .52-.42.96-.9.96h-58.2c-.48 0-.9-.44-.9-.96zm30 24.2l25.02-22.2H438.3zm-8.04-3.36l-17 15.24h50.05l-16.98-15.24-8.04 7.16zm-2.17-1.88l-17.1-15.16v30.48zm20.4 0l17.1 15.32V82.88z" stroke="#000" stroke-opacity="0" fill="#6f7681"/><g><use xlink:href="#i" transform="matrix(1,0,0,1,403.32843866868586,127.1193559626704) translate(43.79736328125 16.7314453125)"/></g><path d="M233.33 378.12c33.14 0 60 26.86 60 60s-26.86 60-60 60h-180c-33.14 0-60-26.86-60-60s26.86-60 60-60z" stroke="#474e55" stroke-width="2" fill="#edf5ff"/><g><use xlink:href="#a" transform="matrix(1,0,0,1,-6.6715613313141375,378.1193559626704) translate(48.48856119791673 51.08344184027777)"/><use xlink:href="#b" transform="matrix(1,0,0,1,-6.6715613313141375,378.1193559626704) translate(102.86399522569447 87.66087239583331)"/><use xlink:href="#j" transform="matrix(1,0,0,1,-6.6715613313141375,378.1193559626704) translate(183.6771462673611 87.66087239583331)"/></g><path d="M294.97 437.35L580.53 92.37" stroke="#5e5e5e" stroke-width="2" fill="none"/><path d="M295.75 437.97l-1.5 1.8.08-1.65-.05-1.37z" stroke="#5e5e5e" stroke-width=".05" fill="#5e5e5e"/><path d="M590.26 80.6l-5.52 13.96-7.14-5.9z" stroke="#5e5e5e" stroke-width="2" fill="#5e5e5e"/><defs><path fill="#474e55" d="M1092 0H877L297-1210h-8c32 442 13 766 18 1210H135v-1462h213L926-258h6c-25-469-9-747-14-1204h174V0" id="k"/><path fill="#474e55" d="M1112-551c0 331-186 571-502 571-301 0-495-251-495-571 0-330 184-567 501-567 302 0 496 249 496 567zM614-131c207 0 310-140 310-420 0-277-104-416-312-416-206 0-309 139-309 416 0 280 104 420 311 420" id="l"/><path fill="#474e55" d="M887 0v-707c0-173-79-260-238-260-205 0-307 133-307 398V0H160v-1098h147l27 148h10c69-112 181-168 336-168 259 0 389 134 389 401V0H887" id="m"/><path fill="#474e55" d="M285-465v-168h659v168H285" id="n"/><path fill="#474e55" d="M1094-1034c0 310-213 470-541 465H362V0H176v-1462h404c343 0 514 143 514 428zM532-727c244-1 369-71 369-297 0-186-113-279-338-279H362v576h170" id="o"/><path fill="#474e55" d="M596-1118c288 2 430 92 430 366V0H895l-37-152h-8C752-34 680 17 483 20 272 23 135-98 135-307c0-221 170-337 510-348l203-7c15-197-55-305-244-305-98 0-207 27-328 82l-63-137c131-64 258-96 383-96zm-72 991c194 0 325-116 322-311v-99c-251 15-522-6-522 232 0 119 67 178 200 178" id="p"/><path fill="#474e55" d="M442-897c93-139 173-221 377-221 79 0 159 15 240 45l-49 166c-82-30-157-45-224-45-221 0-340 134-340 360V0H264v-1098h148l22 201h8" id="q"/><path fill="#474e55" d="M1020-150v138C933 9 849 20 768 20 527 20 406-95 406-324v-637H139v-94l267-49 77-287h105v293h438v137H588v637c0 130 64 195 192 195 62 0 142-7 240-21" id="r"/><path fill="#474e55" d="M739-1436c0 71-43 115-106 115-71 0-107-38-107-115 0-76 36-114 107-114s106 38 106 114zM541-954l-269-21v-123h451v955l352 20V0H197v-123l344-20v-811" id="s"/><path fill="#474e55" d="M631-1118c283 0 470 204 465 491v113H322c5 250 120 375 344 375 130 0 253-25 370-76v160C925-5 804 20 672 20c-329 0-539-224-539-561 0-331 182-577 498-577zM326-662h573c0-203-91-305-272-305-183 0-284 102-301 305" id="t"/><path fill="#474e55" d="M137-547c0-322 136-571 430-571 137 0 245 53 322 160h12c-24-215-7-376-12-598h182V0H924l-27-147h-8C814-36 706 20 567 20c-294 0-430-246-430-567zm463 416c241 0 288-157 289-416 0-151-23-259-69-323s-121-97-222-97c-181 0-272 141-272 422 0 276 91 414 274 414" id="u"/><g id="a"><use transform="matrix(0.010959201388888886,0,0,0.010959201388888886,0,0)" xlink:href="#k"/><use transform="matrix(0.010959201388888886,0,0,0.010959201388888886,13.468858506944441,0)" xlink:href="#l"/><use transform="matrix(0.010959201388888886,0,0,0.010959201388888886,26.937717013888882,0)" xlink:href="#m"/><use transform="matrix(0.010959201388888886,0,0,0.010959201388888886,40.40657552083332,0)" xlink:href="#n"/><use transform="matrix(0.010959201388888886,0,0,0.010959201388888886,53.875434027777764,0)" xlink:href="#o"/><use transform="matrix(0.010959201388888886,0,0,0.010959201388888886,67.3442925347222,0)" xlink:href="#p"/><use transform="matrix(0.010959201388888886,0,0,0.010959201388888886,80.81315104166664,0)" xlink:href="#q"/><use transform="matrix(0.010959201388888886,0,0,0.010959201388888886,94.28200954861109,0)" xlink:href="#r"/><use transform="matrix(0.010959201388888886,0,0,0.010959201388888886,107.75086805555553,0)" xlink:href="#s"/><use transform="matrix(0.010959201388888886,0,0,0.010959201388888886,121.21972656249997,0)" xlink:href="#r"/><use transform="matrix(0.010959201388888886,0,0,0.010959201388888886,134.6885850694444,0)" xlink:href="#s"/><use transform="matrix(0.010959201388888886,0,0,0.010959201388888886,148.15744357638883,0)" xlink:href="#l"/><use transform="matrix(0.010959201388888886,0,0,0.010959201388888886,161.62630208333326,0)" xlink:href="#m"/><use transform="matrix(0.010959201388888886,0,0,0.010959201388888886,175.0951605902777,0)" xlink:href="#t"/><use transform="matrix(0.010959201388888886,0,0,0.010959201388888886,188.5640190972221,0)" xlink:href="#u"/></g><path fill="#474e55" d="M707 0H520v-1298H102v-164h1022v164H707V0" id="v"/><path fill="#474e55" d="M1092-551c0 322-136 571-430 571-138 0-245-53-322-159h-12c24 220 7 402 12 631H158v-1590h147l27 148h8c73-112 181-168 322-168 294 0 430 246 430 567zM629-967c-241 0-288 156-289 416 0 151 24 259 70 323s120 97 221 97c181 0 272-141 272-422 0-276-91-414-274-414" id="w"/><path fill="#474e55" d="M172-543c0-365 197-575 553-575 119 0 231 20 336 59l-62 158c-100-38-189-57-268-57-247 0-371 138-371 413 0 271 120 406 361 406 105 0 212-21 321-62v160C953 0 843 20 713 20c-347 1-541-210-541-563" id="x"/><g id="b"><use transform="matrix(0.010959201388888886,0,0,0.010959201388888886,0,0)" xlink:href="#v"/><use transform="matrix(0.010959201388888886,0,0,0.010959201388888886,13.468858506944441,0)" xlink:href="#l"/><use transform="matrix(0.010959201388888886,0,0,0.010959201388888886,26.937717013888882,0)" xlink:href="#w"/><use transform="matrix(0.010959201388888886,0,0,0.010959201388888886,40.40657552083332,0)" xlink:href="#s"/><use transform="matrix(0.010959201388888886,0,0,0.010959201388888886,53.875434027777764,0)" xlink:href="#x"/></g><path fill="#474e55" d="M758 0H582c3-449-8-824 8-1274-61 68-188 168-268 234l-97-123 383-299h150V0" id="y"/><use transform="matrix(0.010959201388888886,0,0,0.010959201388888886,0,0)" xlink:href="#y" id="c"/><path fill="#474e55" d="M594-1483c248 0 420 149 418 391 0 79-21 160-59 244-73 161-414 504-572 674v8h688V0H158v-156c172-193 489-508 607-698 43-69 62-147 62-231 0-146-91-244-235-244-107 0-213 46-318 137l-102-119c128-115 269-172 422-172" id="z"/><use transform="matrix(0.010959201388888886,0,0,0.010959201388888886,0,0)" xlink:href="#z" id="d"/><path fill="#474e55" d="M1010-1120c0 200-132 322-316 350v6c241 31 361 147 361 348 0 294-219 436-537 436-161 0-290-26-387-79v-170c123 64 250 96 383 96 236 0 354-96 354-289 0-172-127-258-381-258H354v-151h133c195 4 334-97 336-277 1-140-106-221-250-221-119 0-233 40-344 121l-92-125c125-100 270-150 436-150 252 0 437 128 437 363" id="A"/><use transform="matrix(0.010959201388888886,0,0,0.010959201388888886,0,0)" xlink:href="#A" id="e"/><path fill="#474e55" d="M326-731c0 353 139 584 471 588 87 0 196-19 327-58v162c-97 39-217 59-358 59-433-1-637-301-637-753 0-438 243-750 668-750 147 0 274 29 383 86l-78 156c-103-52-204-78-305-78-307 1-471 259-471 588" id="B"/><path fill="#474e55" d="M1026-301c0 225-197 321-448 321-165 0-290-23-375-69v-166c129 57 252 86 370 86 183 0 275-54 275-162 0-38-16-71-49-99s-108-63-226-106c-156-57-253-112-293-160s-61-105-61-171c2-338 524-340 789-217l-60 149c-121-48-228-72-319-72-157 0-236 44-236 133 0 41 17 74 51 98s111 57 232 101c141 51 234 101 280 151s70 111 70 183" id="C"/><path fill="#474e55" d="M578-131c239 0 309-137 309-397v-570h182V0H922l-27-147h-10C815-36 704 20 551 20c-261 0-391-134-391-401v-717h182v707c0 173 79 260 236 260" id="D"/><path fill="#474e55" d="M977 0v-707c0-97-9-165-27-203s-47-57-88-57c-58 0-100 28-126 83s-40 148-40 278V0H535v-707c0-173-42-260-125-260-56 0-96 26-120 79s-36 160-36 319V0H92v-1098h127l27 148h10c45-112 112-168 201-168 109 0 180 61 213 182h6c51-121 124-182 219-182 85 0 147 30 186 92s58 165 58 309V0H977" id="E"/><g id="f"><use transform="matrix(0.010959201388888886,0,0,0.010959201388888886,0,0)" xlink:href="#B"/><use transform="matrix(0.010959201388888886,0,0,0.010959201388888886,13.468858506944441,0)" xlink:href="#l"/><use transform="matrix(0.010959201388888886,0,0,0.010959201388888886,26.937717013888882,0)" xlink:href="#m"/><use transform="matrix(0.010959201388888886,0,0,0.010959201388888886,40.40657552083332,0)" xlink:href="#C"/><use transform="matrix(0.010959201388888886,0,0,0.010959201388888886,53.875434027777764,0)" xlink:href="#D"/><use transform="matrix(0.010959201388888886,0,0,0.010959201388888886,67.3442925347222,0)" xlink:href="#E"/><use transform="matrix(0.010959201388888886,0,0,0.010959201388888886,80.81315104166664,0)" xlink:href="#t"/><use transform="matrix(0.010959201388888886,0,0,0.010959201388888886,94.28200954861109,0)" xlink:href="#q"/></g><path fill="#474e55" d="M1004 0L860-453H369L223 0H33l483-1468h195L1196 0h-192zM807-618c-63-210-144-435-195-650-51 232-127 431-190 650h385" id="F"/><use transform="matrix(0.010959201388888886,0,0,0.010959201388888886,0,0)" xlink:href="#F" id="g"/><path fill="#474e55" d="M1137-424C1137-153 941 0 662 0H135v-1462c284 7 685-30 837 88 80 62 124 152 124 282 0 179-125 297-291 316v10c221 36 332 150 332 342zm-232-655c0-182-120-224-319-224H322v461h284c195-2 299-53 299-237zM322-686v528h307c207 0 311-91 311-274 0-169-108-254-324-254H322" id="G"/><use transform="matrix(0.010959201388888886,0,0,0.010959201388888886,0,0)" xlink:href="#G" id="h"/><path d="M532 0L254-1280h-8c34 456 12 817 18 1280H113v-1462h247L608-270h6l250-1192h252V0H963c5-467-12-807 14-1278h-8L686 0H532" id="H"/><path d="M1026-301c0 225-197 321-448 321-165 0-290-23-375-69v-166c129 57 252 86 370 86 183 0 275-54 275-162 0-38-16-71-49-99s-108-63-226-106c-156-57-253-112-293-160s-61-105-61-171c2-338 524-340 789-217l-60 149c-121-48-228-72-319-72-157 0-236 44-236 133 0 41 17 74 51 98s111 57 232 101c141 51 234 101 280 151s70 111 70 183" id="I"/><path d="M188-739c-1-248 156-381 410-379 57 0 107 7 150 20h378v113l-196 27c43 57 65 128 65 213 2 253-212 385-489 346-67 37-100 82-100 133 0 56 54 84 161 84h187c216-2 358 93 358 297 0 251-188 377-565 377-145 0-255-26-331-80S102 283 102 186c0-141 80-231 240-270-64-31-96-83-96-154 0-75 44-139 133-192-109-41-191-166-191-309zm406 221c149 0 223-77 223-230 0-159-75-239-225-239s-225 81-225 242c0 151 76 227 227 227zm346 649c0-146-78-149-248-149H504c-153 0-230 66-230 198 0 116 90 174 271 174 263 0 395-74 395-223" id="J"/><g id="i"><use transform="matrix(0.0087890625,0,0,0.0087890625,0,0)" xlink:href="#H"/><use transform="matrix(0.0087890625,0,0,0.0087890625,10.8017578125,0)" xlink:href="#I"/><use transform="matrix(0.0087890625,0,0,0.0087890625,21.603515625,0)" xlink:href="#J"/></g><path fill="#474e55" d="M1126-328H913V0H737v-328H61v-159l664-983h188v976h213v166zM737-494c1-292-4-481 13-788h-9c-24 68-55 128-90 180L240-494h497" id="K"/><use transform="matrix(0.010959201388888886,0,0,0.010959201388888886,0,0)" xlink:href="#K" id="j"/></defs></g></svg>