<svg xmlns="http://www.w3.org/2000/svg" xmlns:xlink="http://www.w3.org/1999/xlink" xmlns:lucid="lucid" width="1020" height="933.71"><g transform="translate(128.66666666666674 264.18825954861074)" lucid:page-tab-id="0_0"><path d="M-1806.87-1258.84h3677.74v2581.68h-3677.74z" fill="#fff"/><path d="M-108.67-244.2h400v893.72h-400z" stroke="#474e55" stroke-width="2" fill="#edf5ff"/><use xlink:href="#a" transform="matrix(1,0,0,1,-103.66666666666674,-239.18825954861074) translate(195 20.83344184027777)"/><use xlink:href="#b" transform="matrix(1,0,0,1,-103.66666666666674,-239.18825954861074) translate(195 46.96017795138887)"/><use xlink:href="#c" transform="matrix(1,0,0,1,-103.66666666666674,-239.18825954861074) translate(80.51470269097227 73.08691406249997)"/><use xlink:href="#d" transform="matrix(1,0,0,1,-103.66666666666674,-239.18825954861074) translate(242.14100477430554 73.08691406249997)"/><path d="M471.33-244.2h400v893.72h-400z" stroke="#474e55" stroke-width="2" fill="#edf5ff"/><use xlink:href="#a" transform="matrix(1,0,0,1,476.33333333333326,-239.18825954861074) translate(195 20.83344184027777)"/><use xlink:href="#b" transform="matrix(1,0,0,1,476.33333333333326,-239.18825954861074) translate(195 46.96017795138887)"/><use xlink:href="#e" transform="matrix(1,0,0,1,476.33333333333326,-239.18825954861074) translate(114.18684895833337 73.08691406249997)"/><path d="M139.33-110.48c17.68 0 32 13.94 32 31.13 0 17.2-14.32 31.12-32 31.12h-96c-17.67 0-32-13.93-32-31.12 0-17.2 14.33-31.13 32-31.13z" stroke="#474e55" stroke-width="2" fill="#6db1ff"/><use xlink:href="#f" transform="matrix(1,0,0,1,16.333333333333258,-105.478407118056) translate(61.53114149305556 34.08344184027777)"/><path d="M139.33 129.52c17.68 0 32 13.94 32 31.13 0 17.2-14.32 31.13-32 31.13h-96c-17.67 0-32-13.94-32-31.13 0-17.2 14.33-31.13 32-31.13z" stroke="#474e55" stroke-width="2" fill="#6db1ff"/><use xlink:href="#g" transform="matrix(1,0,0,1,16.333333333333258,134.521592881944) translate(61.53114149305556 34.08344184027777)"/><path d="M139.33 369.52c17.68 0 32 13.94 32 31.13 0 17.2-14.32 31.13-32 31.13h-96c-17.67 0-32-13.94-32-31.13 0-17.2 14.33-31.13 32-31.13z" stroke="#474e55" stroke-width="2" fill="#6db1ff"/><use xlink:href="#h" transform="matrix(1,0,0,1,16.333333333333258,374.521592881944) translate(61.53114149305556 34.08344184027777)"/><path d="M139.33-30.48c17.68 0 32 13.94 32 31.13 0 17.2-14.32 31.13-32 31.13h-96c-17.67 0-32-13.94-32-31.13 0-17.2 14.33-31.13 32-31.13z" stroke="#474e55" stroke-width="2" fill="#ced4db"/><use xlink:href="#i" transform="matrix(1,0,0,1,16.333333333333258,-25.478407118055998) translate(61.53114149305556 34.08344184027777)"/><path d="M139.33 49.52c17.68 0 32 13.94 32 31.13 0 17.2-14.32 31.13-32 31.13h-96c-17.67 0-32-13.94-32-31.13 0-17.2 14.33-31.13 32-31.13z" stroke="#474e55" stroke-width="2" fill="#fcce14"/><use xlink:href="#j" transform="matrix(1,0,0,1,16.333333333333258,54.521592881944) translate(61.53114149305556 34.08344184027777)"/><path d="M139.33 209.52c17.68 0 32 13.94 32 31.13 0 17.2-14.32 31.12-32 31.12h-96c-17.67 0-32-13.93-32-31.12 0-17.2 14.33-31.13 32-31.13z" stroke="#474e55" stroke-width="2" fill="#ced4db"/><use xlink:href="#k" transform="matrix(1,0,0,1,16.333333333333258,214.521592881944) translate(61.53114149305556 34.08344184027777)"/><path d="M139.33 289.52c17.68 0 32 13.94 32 31.13 0 17.2-14.32 31.13-32 31.13h-96c-17.67 0-32-13.94-32-31.13 0-17.2 14.33-31.13 32-31.13z" stroke="#474e55" stroke-width="2" fill="#fcce14"/><use xlink:href="#l" transform="matrix(1,0,0,1,16.333333333333258,294.521592881944) translate(61.53114149305556 34.08344184027777)"/><path d="M139.33 529.52c17.68 0 32 13.94 32 31.13 0 17.2-14.32 31.13-32 31.13h-96c-17.67 0-32-13.94-32-31.13 0-17.2 14.33-31.13 32-31.13z" stroke="#474e55" stroke-width="2" fill="#fcce14"/><use xlink:href="#m" transform="matrix(1,0,0,1,16.333333333333258,534.521592881944) translate(61.53114149305556 34.08344184027777)"/><path d="M139.33 449.52c17.68 0 32 13.94 32 31.13 0 17.2-14.32 31.13-32 31.13h-96c-17.67 0-32-13.94-32-31.13 0-17.2 14.33-31.13 32-31.13z" stroke="#474e55" stroke-width="2" fill="#ced4db"/><use xlink:href="#n" transform="matrix(1,0,0,1,16.333333333333258,454.521592881944) translate(61.53114149305556 34.08344184027777)"/><path d="M551.33-110.48h240v93.38h-240z" stroke="#474e55" stroke-width="2" fill="#6db1ff"/><use xlink:href="#o" transform="matrix(1,0,0,1,556.3333333333333,-105.47840711805588) translate(47.6557074652778 49.70844184027777)"/><use xlink:href="#p" transform="matrix(1,0,0,1,556.3333333333333,-105.47840711805588) translate(168.87543402777777 49.70844184027777)"/><path d="M551.33 193.96h240v93.38h-240z" stroke="#474e55" stroke-width="2" fill="#ced4db"/><use xlink:href="#o" transform="matrix(1,0,0,1,556.3333333333333,198.95822482638846) translate(47.6557074652778 49.70844184027777)"/><use xlink:href="#q" transform="matrix(1,0,0,1,556.3333333333333,198.95822482638846) translate(168.87543402777777 49.70844184027777)"/><path d="M551.33 498.4h240v93.38h-240z" stroke="#474e55" stroke-width="2" fill="#fcce14"/><use xlink:href="#o" transform="matrix(1,0,0,1,556.3333333333333,503.3948567708329) translate(47.6557074652778 49.70844184027777)"/><use xlink:href="#r" transform="matrix(1,0,0,1,556.3333333333333,503.3948567708329) translate(168.87543402777777 49.70844184027777)"/><path d="M173.33-79.3l358.52 14.75" stroke="#1071e5" stroke-width="2" fill="none"/><path d="M173.4-80.3l-.08 2-1.06-.05.07-.97v-.33l-.06-.7z" stroke="#1071e5" stroke-width=".05" fill="#1071e5"/><path d="M547.1-63.92l-14.44 4.04.38-9.26z" stroke="#1071e5" stroke-width="2" fill="#1071e5"/><path d="M173.2 160.14L534.4-54.34" stroke="#1071e5" stroke-width="2" fill="none"/><path d="M173.73 161l-1.5.87.1-1.2v-.32l-.07-.82.45-.27z" stroke="#1071e5" stroke-width=".05" fill="#1071e5"/><path d="M547.55-62.14l-9.9 11.27-4.73-7.97z" stroke="#1071e5" stroke-width="2" fill="#1071e5"/><path d="M172.97 399.87l365.68-449.3" stroke="#1071e5" stroke-width="2" fill="none"/><path d="M173.76 400.48l-1.56 1.92.13-1.7v-.35l-.1-1.1z" stroke="#1071e5" stroke-width=".05" fill="#1071e5"/><path d="M548.3-61.28l-5.42 14-7.2-5.86z" stroke="#1071e5" stroke-width="2" fill="#1071e5"/><path d="M173.18 1.18L534.7 230.73" stroke="#979ea8" stroke-width="2" fill="none"/><path d="M173.74.35l-1.08 1.7-.4-.27.07-1.1V.36l-.08-.94z" stroke="#979ea8" stroke-width=".05" fill="#979ea8"/><path d="M547.6 238.9l-14.53-3.72 4.97-7.83z" stroke="#979ea8" stroke-width="2" fill="#979ea8"/><path d="M173.33 240.65h358.5" stroke="#979ea8" stroke-width="2" fill="none"/><path d="M173.36 241.65h-1.1l.07-.97v-.33l-.06-.7h1.1z" stroke="#979ea8" stroke-width=".05" fill="#979ea8"/><path d="M547.1 240.65l-14.27 4.63V236z" stroke="#979ea8" stroke-width="2" fill="#979ea8"/><path d="M173.18 480.1L534.7 250.58" stroke="#979ea8" stroke-width="2" fill="none"/><path d="M173.74 480.94l-1.5.95.1-1.2v-.35l-.08-.84.4-.25z" stroke="#979ea8" stroke-width=".05" fill="#979ea8"/><path d="M547.6 242.38l-9.56 11.56-4.97-7.82z" stroke="#979ea8" stroke-width="2" fill="#979ea8"/><path d="M172.97 81.42l365.68 449.32" stroke="#fcce14" stroke-width="2" fill="none"/><path d="M173.76 80.8l-1.53 1.26.1-1.38v-.33l-.12-1.44z" stroke="#fcce14" stroke-width=".05" fill="#fcce14"/><path d="M548.3 542.58l-12.6-8.14 7.18-5.86z" stroke="#fcce14" stroke-width="2" fill="#fcce14"/><path d="M173.2 321.16L534.4 535.64" stroke="#fcce14" stroke-width="2" fill="none"/><path d="M173.73 320.3l-1.02 1.73-.45-.27.08-1.07v-.35l-.08-.9z" stroke="#fcce14" stroke-width=".05" fill="#fcce14"/><path d="M547.55 543.43l-14.63-3.3 4.73-7.97z" stroke="#fcce14" stroke-width="2" fill="#fcce14"/><path d="M173.33 560.6l358.52-14.75" stroke="#fcce14" stroke-width="2" fill="none"/><path d="M173.4 561.6l-1.14.05.07-.97v-.33l-.06-.7 1.05-.04z" stroke="#fcce14" stroke-width=".05" fill="#fcce14"/><path d="M547.1 545.22l-14.06 5.22-.38-9.27z" stroke="#fcce14" stroke-width="2" fill="#fcce14"/><path d="M351.33-163.23c0-.52.42-.96.9-.96h58.2c.48 0 .9.45.9.97v38.08c0 .52-.42.96-.9.96h-58.2c-.48 0-.9-.43-.9-.95zm30 24.2l25.02-22.2H356.3zm-8.04-3.36l-17 15.25h50.05l-16.98-15.24-8.04 7.17zm-2.17-1.87l-17.1-15.16v30.48zm20.4 0l17.1 15.32v-30.48z" stroke="#000" stroke-opacity="0" fill="#6f7681"/><g><use xlink:href="#s" transform="matrix(1,0,0,1,321.33333333333326,-115.18825954861074) translate(43.79736328125 16.7314453125)"/></g><defs><path fill="#474e55" d="M1094-1034c0 310-213 470-541 465H362V0H176v-1462h404c343 0 514 143 514 428zM532-727c244-1 369-71 369-297 0-186-113-279-338-279H362v576h170" id="t"/><path fill="#474e55" d="M596-1118c288 2 430 92 430 366V0H895l-37-152h-8C752-34 680 17 483 20 272 23 135-98 135-307c0-221 170-337 510-348l203-7c15-197-55-305-244-305-98 0-207 27-328 82l-63-137c131-64 258-96 383-96zm-72 991c194 0 325-116 322-311v-99c-251 15-522-6-522 232 0 119 67 178 200 178" id="u"/><path fill="#474e55" d="M442-897c93-139 173-221 377-221 79 0 159 15 240 45l-49 166c-82-30-157-45-224-45-221 0-340 134-340 360V0H264v-1098h148l22 201h8" id="v"/><path fill="#474e55" d="M1020-150v138C933 9 849 20 768 20 527 20 406-95 406-324v-637H139v-94l267-49 77-287h105v293h438v137H588v637c0 130 64 195 192 195 62 0 142-7 240-21" id="w"/><path fill="#474e55" d="M739-1436c0 71-43 115-106 115-71 0-107-38-107-115 0-76 36-114 107-114s106 38 106 114zM541-954l-269-21v-123h451v955l352 20V0H197v-123l344-20v-811" id="x"/><path fill="#474e55" d="M1112-551c0 331-186 571-502 571-301 0-495-251-495-571 0-330 184-567 501-567 302 0 496 249 496 567zM614-131c207 0 310-140 310-420 0-277-104-416-312-416-206 0-309 139-309 416 0 280 104 420 311 420" id="y"/><path fill="#474e55" d="M887 0v-707c0-173-79-260-238-260-205 0-307 133-307 398V0H160v-1098h147l27 148h10c69-112 181-168 336-168 259 0 389 134 389 401V0H887" id="z"/><path fill="#474e55" d="M631-1118c283 0 470 204 465 491v113H322c5 250 120 375 344 375 130 0 253-25 370-76v160C925-5 804 20 672 20c-329 0-539-224-539-561 0-331 182-577 498-577zM326-662h573c0-203-91-305-272-305-183 0-284 102-301 305" id="A"/><path fill="#474e55" d="M137-547c0-322 136-571 430-571 137 0 245 53 322 160h12c-24-215-7-376-12-598h182V0H924l-27-147h-8C814-36 706 20 567 20c-294 0-430-246-430-567zm463 416c241 0 288-157 289-416 0-151-23-259-69-323s-121-97-222-97c-181 0-272 141-272 422 0 276 91 414 274 414" id="B"/><g id="c"><use transform="matrix(0.010959201388888886,0,0,0.010959201388888886,0,0)" xlink:href="#t"/><use transform="matrix(0.010959201388888886,0,0,0.010959201388888886,13.468858506944441,0)" xlink:href="#u"/><use transform="matrix(0.010959201388888886,0,0,0.010959201388888886,26.937717013888882,0)" xlink:href="#v"/><use transform="matrix(0.010959201388888886,0,0,0.010959201388888886,40.40657552083332,0)" xlink:href="#w"/><use transform="matrix(0.010959201388888886,0,0,0.010959201388888886,53.875434027777764,0)" xlink:href="#x"/><use transform="matrix(0.010959201388888886,0,0,0.010959201388888886,67.3442925347222,0)" xlink:href="#w"/><use transform="matrix(0.010959201388888886,0,0,0.010959201388888886,80.81315104166664,0)" xlink:href="#x"/><use transform="matrix(0.010959201388888886,0,0,0.010959201388888886,94.28200954861109,0)" xlink:href="#y"/><use transform="matrix(0.010959201388888886,0,0,0.010959201388888886,107.75086805555553,0)" xlink:href="#z"/><use transform="matrix(0.010959201388888886,0,0,0.010959201388888886,121.21972656249997,0)" xlink:href="#A"/><use transform="matrix(0.010959201388888886,0,0,0.010959201388888886,134.6885850694444,0)" xlink:href="#B"/></g><path fill="#474e55" d="M707 0H520v-1298H102v-164h1022v164H707V0" id="C"/><path fill="#474e55" d="M1092-551c0 322-136 571-430 571-138 0-245-53-322-159h-12c24 220 7 402 12 631H158v-1590h147l27 148h8c73-112 181-168 322-168 294 0 430 246 430 567zM629-967c-241 0-288 156-289 416 0 151 24 259 70 323s120 97 221 97c181 0 272-141 272-422 0-276-91-414-274-414" id="D"/><path fill="#474e55" d="M172-543c0-365 197-575 553-575 119 0 231 20 336 59l-62 158c-100-38-189-57-268-57-247 0-371 138-371 413 0 271 120 406 361 406 105 0 212-21 321-62v160C953 0 843 20 713 20c-347 1-541-210-541-563" id="E"/><g id="d"><use transform="matrix(0.010959201388888886,0,0,0.010959201388888886,0,0)" xlink:href="#C"/><use transform="matrix(0.010959201388888886,0,0,0.010959201388888886,13.468858506944441,0)" xlink:href="#y"/><use transform="matrix(0.010959201388888886,0,0,0.010959201388888886,26.937717013888882,0)" xlink:href="#D"/><use transform="matrix(0.010959201388888886,0,0,0.010959201388888886,40.40657552083332,0)" xlink:href="#x"/><use transform="matrix(0.010959201388888886,0,0,0.010959201388888886,53.875434027777764,0)" xlink:href="#E"/></g><path fill="#474e55" d="M1087-391c0 281-226 411-532 411-177 0-315-23-414-69v-178c141 57 279 86 414 86 233 0 350-80 350-240 0-69-24-123-71-160s-142-82-285-133c-139-49-239-106-299-174s-90-156-90-264c2-252 211-371 481-371 153 0 291 26 416 78l-64 164c-129-52-249-78-360-78-195 0-293 70-293 209 0 68 22 123 66 164s134 85 270 133c164 58 273 119 328 181s83 143 83 241" id="F"/><path fill="#474e55" d="M578-131c239 0 309-137 309-397v-570h182V0H922l-27-147h-10C815-36 704 20 551 20c-261 0-391-134-391-401v-717h182v707c0 173 79 260 236 260" id="G"/><path fill="#474e55" d="M1092-551c0 322-136 571-430 571-138 0-245-53-322-159h-12L291 0H158v-1556h182c-2 221 6 379-8 602h8c71-109 179-164 322-164 294 0 430 246 430 567zM629-967c-241 0-289 146-289 416 0 151 24 259 70 323s120 97 221 97c181 0 272-141 272-422 0-276-91-414-274-414" id="H"/><path fill="#474e55" d="M1026-301c0 225-197 321-448 321-165 0-290-23-375-69v-166c129 57 252 86 370 86 183 0 275-54 275-162 0-38-16-71-49-99s-108-63-226-106c-156-57-253-112-293-160s-61-105-61-171c2-338 524-340 789-217l-60 149c-121-48-228-72-319-72-157 0-236 44-236 133 0 41 17 74 51 98s111 57 232 101c141 51 234 101 280 151s70 111 70 183" id="I"/><g id="e"><use transform="matrix(0.010959201388888886,0,0,0.010959201388888886,0,0)" xlink:href="#F"/><use transform="matrix(0.010959201388888886,0,0,0.010959201388888886,13.468858506944441,0)" xlink:href="#G"/><use transform="matrix(0.010959201388888886,0,0,0.010959201388888886,26.937717013888882,0)" xlink:href="#H"/><use transform="matrix(0.010959201388888886,0,0,0.010959201388888886,40.40657552083332,0)" xlink:href="#I"/><use transform="matrix(0.010959201388888886,0,0,0.010959201388888886,53.875434027777764,0)" xlink:href="#E"/><use transform="matrix(0.010959201388888886,0,0,0.010959201388888886,67.3442925347222,0)" xlink:href="#v"/><use transform="matrix(0.010959201388888886,0,0,0.010959201388888886,80.81315104166664,0)" xlink:href="#x"/><use transform="matrix(0.010959201388888886,0,0,0.010959201388888886,94.28200954861109,0)" xlink:href="#D"/><use transform="matrix(0.010959201388888886,0,0,0.010959201388888886,107.75086805555553,0)" xlink:href="#w"/><use transform="matrix(0.010959201388888886,0,0,0.010959201388888886,121.21972656249997,0)" xlink:href="#x"/><use transform="matrix(0.010959201388888886,0,0,0.010959201388888886,134.6885850694444,0)" xlink:href="#y"/><use transform="matrix(0.010959201388888886,0,0,0.010959201388888886,148.15744357638883,0)" xlink:href="#z"/></g><path fill="#474e55" d="M612 20c-153 0-268-65-347-194S147-489 147-733c0-501 155-752 465-752 155 0 271 64 350 193s119 316 119 559c0 502-156 753-469 753zm0-155c98 0 165-50 216-141 86-153 87-759 0-912-51-91-118-141-216-141-97 0-162 49-212 139-85 152-84 764 0 915 50 90 115 140 212 140" id="J"/><g id="f"><use transform="matrix(0.010959201388888886,0,0,0.010959201388888886,0,0)" xlink:href="#t"/><use transform="matrix(0.010959201388888886,0,0,0.010959201388888886,13.468858506944441,0)" xlink:href="#J"/></g><path fill="#474e55" d="M1010-1120c0 200-132 322-316 350v6c241 31 361 147 361 348 0 294-219 436-537 436-161 0-290-26-387-79v-170c123 64 250 96 383 96 236 0 354-96 354-289 0-172-127-258-381-258H354v-151h133c195 4 334-97 336-277 1-140-106-221-250-221-119 0-233 40-344 121l-92-125c125-100 270-150 436-150 252 0 437 128 437 363" id="K"/><g id="g"><use transform="matrix(0.010959201388888886,0,0,0.010959201388888886,0,0)" xlink:href="#t"/><use transform="matrix(0.010959201388888886,0,0,0.010959201388888886,13.468858506944441,0)" xlink:href="#K"/></g><path fill="#474e55" d="M1075-471c0 288-166 493-444 491-145 0-261-56-347-168S154-420 154-625c0-572 213-858 639-858 69 0 127 6 172 19v155c-47-16-103-24-166-24-149 0-262 47-337 141S347-949 340-745h12c63-113 166-170 307-170 262 0 416 178 416 444zM629-133c183-3 270-141 270-338 0-183-88-297-264-301-154-4-299 123-299 266 0 185 113 376 293 373" id="L"/><g id="h"><use transform="matrix(0.010959201388888886,0,0,0.010959201388888886,0,0)" xlink:href="#t"/><use transform="matrix(0.010959201388888886,0,0,0.010959201388888886,13.468858506944441,0)" xlink:href="#L"/></g><path fill="#474e55" d="M758 0H582c3-449-8-824 8-1274-61 68-188 168-268 234l-97-123 383-299h150V0" id="M"/><g id="i"><use transform="matrix(0.010959201388888886,0,0,0.010959201388888886,0,0)" xlink:href="#t"/><use transform="matrix(0.010959201388888886,0,0,0.010959201388888886,13.468858506944441,0)" xlink:href="#M"/></g><path fill="#474e55" d="M594-1483c248 0 420 149 418 391 0 79-21 160-59 244-73 161-414 504-572 674v8h688V0H158v-156c172-193 489-508 607-698 43-69 62-147 62-231 0-146-91-244-235-244-107 0-213 46-318 137l-102-119c128-115 269-172 422-172" id="N"/><g id="j"><use transform="matrix(0.010959201388888886,0,0,0.010959201388888886,0,0)" xlink:href="#t"/><use transform="matrix(0.010959201388888886,0,0,0.010959201388888886,13.468858506944441,0)" xlink:href="#N"/></g><path fill="#474e55" d="M1126-328H913V0H737v-328H61v-159l664-983h188v976h213v166zM737-494c1-292-4-481 13-788h-9c-24 68-55 128-90 180L240-494h497" id="O"/><g id="k"><use transform="matrix(0.010959201388888886,0,0,0.010959201388888886,0,0)" xlink:href="#t"/><use transform="matrix(0.010959201388888886,0,0,0.010959201388888886,13.468858506944441,0)" xlink:href="#O"/></g><path fill="#474e55" d="M1055-469c0 318-203 489-527 489-149 0-268-26-356-79v-172c96 64 216 96 360 96 224 0 336-105 336-314 0-196-115-294-344-294-59 0-136 9-231 26l-90-57 55-688h690v166H416l-39 419c71-13 141-20 209-20 270-4 469 161 469 428" id="P"/><g id="l"><use transform="matrix(0.010959201388888886,0,0,0.010959201388888886,0,0)" xlink:href="#t"/><use transform="matrix(0.010959201388888886,0,0,0.010959201388888886,13.468858506944441,0)" xlink:href="#P"/></g><path fill="#474e55" d="M614-1485c230 0 412 129 412 352 0 153-87 273-262 359 206 107 309 238 309 393 0 249-200 401-459 401-271 0-458-134-458-393 0-171 94-302 282-393-157-97-235-220-235-369 0-219 188-350 411-350zm-2 152c-137 0-233 71-231 207 0 60 16 110 49 152s95 84 186 126c155-69 232-161 232-278 1-138-96-207-236-207zm-2 1202c171 0 285-85 285-248 0-60-22-112-63-159-43-49-141-111-244-158-169 81-254 189-254 325 0 160 92 240 276 240" id="Q"/><g id="m"><use transform="matrix(0.010959201388888886,0,0,0.010959201388888886,0,0)" xlink:href="#t"/><use transform="matrix(0.010959201388888886,0,0,0.010959201388888886,13.468858506944441,0)" xlink:href="#Q"/></g><path fill="#474e55" d="M334 0l563-1296H143v-166h940v145L528 0H334" id="R"/><g id="n"><use transform="matrix(0.010959201388888886,0,0,0.010959201388888886,0,0)" xlink:href="#t"/><use transform="matrix(0.010959201388888886,0,0,0.010959201388888886,13.468858506944441,0)" xlink:href="#R"/></g><path fill="#474e55" d="M326-731c0 353 139 584 471 588 87 0 196-19 327-58v162c-97 39-217 59-358 59-433-1-637-301-637-753 0-438 243-750 668-750 147 0 274 29 383 86l-78 156c-103-52-204-78-305-78-307 1-471 259-471 588" id="S"/><path fill="#474e55" d="M977 0v-707c0-97-9-165-27-203s-47-57-88-57c-58 0-100 28-126 83s-40 148-40 278V0H535v-707c0-173-42-260-125-260-56 0-96 26-120 79s-36 160-36 319V0H92v-1098h127l27 148h10c45-112 112-168 201-168 109 0 180 61 213 182h6c51-121 124-182 219-182 85 0 147 30 186 92s58 165 58 309V0H977" id="T"/><g id="o"><use transform="matrix(0.010959201388888886,0,0,0.010959201388888886,0,0)" xlink:href="#S"/><use transform="matrix(0.010959201388888886,0,0,0.010959201388888886,13.468858506944441,0)" xlink:href="#y"/><use transform="matrix(0.010959201388888886,0,0,0.010959201388888886,26.937717013888882,0)" xlink:href="#z"/><use transform="matrix(0.010959201388888886,0,0,0.010959201388888886,40.40657552083332,0)" xlink:href="#I"/><use transform="matrix(0.010959201388888886,0,0,0.010959201388888886,53.875434027777764,0)" xlink:href="#G"/><use transform="matrix(0.010959201388888886,0,0,0.010959201388888886,67.3442925347222,0)" xlink:href="#T"/><use transform="matrix(0.010959201388888886,0,0,0.010959201388888886,80.81315104166664,0)" xlink:href="#A"/><use transform="matrix(0.010959201388888886,0,0,0.010959201388888886,94.28200954861109,0)" xlink:href="#v"/></g><path fill="#474e55" d="M1004 0L860-453H369L223 0H33l483-1468h195L1196 0h-192zM807-618c-63-210-144-435-195-650-51 232-127 431-190 650h385" id="U"/><use transform="matrix(0.010959201388888886,0,0,0.010959201388888886,0,0)" xlink:href="#U" id="p"/><path fill="#474e55" d="M1137-424C1137-153 941 0 662 0H135v-1462c284 7 685-30 837 88 80 62 124 152 124 282 0 179-125 297-291 316v10c221 36 332 150 332 342zm-232-655c0-182-120-224-319-224H322v461h284c195-2 299-53 299-237zM322-686v528h307c207 0 311-91 311-274 0-169-108-254-324-254H322" id="V"/><use transform="matrix(0.010959201388888886,0,0,0.010959201388888886,0,0)" xlink:href="#V" id="q"/><use transform="matrix(0.010959201388888886,0,0,0.010959201388888886,0,0)" xlink:href="#S" id="r"/><path d="M532 0L254-1280h-8c34 456 12 817 18 1280H113v-1462h247L608-270h6l250-1192h252V0H963c5-467-12-807 14-1278h-8L686 0H532" id="W"/><path d="M1026-301c0 225-197 321-448 321-165 0-290-23-375-69v-166c129 57 252 86 370 86 183 0 275-54 275-162 0-38-16-71-49-99s-108-63-226-106c-156-57-253-112-293-160s-61-105-61-171c2-338 524-340 789-217l-60 149c-121-48-228-72-319-72-157 0-236 44-236 133 0 41 17 74 51 98s111 57 232 101c141 51 234 101 280 151s70 111 70 183" id="X"/><path d="M188-739c-1-248 156-381 410-379 57 0 107 7 150 20h378v113l-196 27c43 57 65 128 65 213 2 253-212 385-489 346-67 37-100 82-100 133 0 56 54 84 161 84h187c216-2 358 93 358 297 0 251-188 377-565 377-145 0-255-26-331-80S102 283 102 186c0-141 80-231 240-270-64-31-96-83-96-154 0-75 44-139 133-192-109-41-191-166-191-309zm406 221c149 0 223-77 223-230 0-159-75-239-225-239s-225 81-225 242c0 151 76 227 227 227zm346 649c0-146-78-149-248-149H504c-153 0-230 66-230 198 0 116 90 174 271 174 263 0 395-74 395-223" id="Y"/><g id="s"><use transform="matrix(0.0087890625,0,0,0.0087890625,0,0)" xlink:href="#W"/><use transform="matrix(0.0087890625,0,0,0.0087890625,10.8017578125,0)" xlink:href="#X"/><use transform="matrix(0.0087890625,0,0,0.0087890625,21.603515625,0)" xlink:href="#Y"/></g></defs></g></svg>