<!-- Generated with https://getwaves.io/ -->
<svg xmlns="http://www.w3.org/2000/svg" viewBox="0 0 1440 320">
  <path fill-opacity="1"
    d="M0,96L14.1,112C28.2,128,56,160,85,170.7C112.9,181,141,171,169,176C197.6,181,226,203,254,176C282.4,149,311,75,339,74.7C367.1,75,395,149,424,160C451.8,171,480,117,508,112C536.5,107,565,149,593,181.3C621.2,213,649,235,678,213.3C705.9,192,734,128,762,112C790.6,96,819,128,847,149.3C875.3,171,904,181,932,192C960,203,988,213,1016,229.3C1044.7,245,1073,267,1101,240C1129.4,213,1158,139,1186,96C1214.1,53,1242,43,1271,69.3C1298.8,96,1327,160,1355,170.7C1383.5,181,1412,139,1426,117.3L1440,96L1440,320L1425.9,320C1411.8,320,1384,320,1355,320C1327.1,320,1299,320,1271,320C1242.4,320,1214,320,1186,320C1157.6,320,1129,320,1101,320C1072.9,320,1045,320,1016,320C988.2,320,960,320,932,320C903.5,320,875,320,847,320C818.8,320,791,320,762,320C734.1,320,706,320,678,320C649.4,320,621,320,593,320C564.7,320,536,320,508,320C480,320,452,320,424,320C395.3,320,367,320,339,320C310.6,320,282,320,254,320C225.9,320,198,320,169,320C141.2,320,113,320,85,320C56.5,320,28,320,14,320L0,320Z"></path>
</svg>
