<svg width="100%" height="100%" viewBox="0 0 40 40" fill="none" xmlns="http://www.w3.org/2000/svg">
  <path d="M3.5 13.9C3.5 11.6598 3.5 10.5397 3.93597 9.68404C4.31947 8.93139 4.93139 8.31947 5.68404 7.93597C6.53968 7.5 7.65979 7.5 9.9 7.5H11.1201C12.4035 7.5 13.0452 7.5 13.5705 7.64592C14.9223 8.02141 15.9786 9.07766 16.3541 10.4295C16.5 10.9548 16.5 11.5965 16.5 12.8799V13.1576C16.5 14.8245 16.5 15.658 16.4435 16.4797C16.2641 19.0908 15.6588 21.6549 14.6516 24.0706C14.3346 24.8308 13.9619 25.5763 13.2164 27.0672C13.0584 27.3833 12.9794 27.5413 12.883 27.6742C12.5739 28.1003 12.1094 28.3874 11.5901 28.4732C11.4281 28.5 11.2515 28.5 10.8981 28.5H7L11 20.5H9.9C7.65979 20.5 6.53968 20.5 5.68404 20.064C4.93139 19.6805 4.31947 19.0686 3.93597 18.316C3.5 17.4603 3.5 16.3402 3.5 14.1V13.9Z" stroke="#282826" stroke-width="1.5" stroke-linejoin="round"/>
  <path d="M23.5 17.9C23.5 15.6598 23.5 14.5397 23.936 13.684C24.3195 12.9314 24.9314 12.3195 25.684 11.936C26.5397 11.5 27.6598 11.5 29.9 11.5H31.1201C32.4035 11.5 33.0452 11.5 33.5705 11.6459C34.9223 12.0214 35.9786 13.0777 36.3541 14.4295C36.5 14.9548 36.5 15.5965 36.5 16.8799V17.1576C36.5 18.8245 36.5 19.658 36.4435 20.4797C36.2641 23.0908 35.6588 25.6549 34.6516 28.0706C34.3346 28.8308 33.9619 29.5763 33.2164 31.0672C33.0584 31.3833 32.9794 31.5413 32.883 31.6742C32.5739 32.1003 32.1094 32.3874 31.5901 32.4732C31.4281 32.5 31.2515 32.5 30.8981 32.5H27L31 24.5H29.9C27.6598 24.5 26.5397 24.5 25.684 24.064C24.9314 23.6805 24.3195 23.0686 23.936 22.316C23.5 21.4603 23.5 20.3402 23.5 18.1V17.9Z" stroke="#282826" stroke-width="1.5" stroke-linejoin="round"/>
</svg>
