<?xml version="1.0" encoding="UTF-8" standalone="no"?>
<!-- Created with Inkscape (http://www.inkscape.org/) by Marsupilami -->
<svg
   xmlns:dc="http://purl.org/dc/elements/1.1/"
   xmlns:cc="http://creativecommons.org/ns#"
   xmlns:rdf="http://www.w3.org/1999/02/22-rdf-syntax-ns#"
   xmlns:svg="http://www.w3.org/2000/svg"
   xmlns="http://www.w3.org/2000/svg"
   xmlns:sodipodi="http://sodipodi.sourceforge.net/DTD/sodipodi-0.dtd"
   xmlns:inkscape="http://www.inkscape.org/namespaces/inkscape"
   width="570"
   height="768"
   viewBox="0 0 58.77375 79.143753"
   id="svg2488"
   sodipodi:version="0.32"
   inkscape:version="0.46"
   version="1.0"
   sodipodi:docname="drawing.svg"
   inkscape:output_extension="org.inkscape.output.svg.inkscape">
  <defs
     id="defs2490" />
  <sodipodi:namedview
     id="base"
     pagecolor="#ffffff"
     bordercolor="#666666"
     borderopacity="1.0"
     gridtolerance="10000"
     guidetolerance="10"
     objecttolerance="10"
     inkscape:pageopacity="0.0"
     inkscape:pageshadow="2"
     inkscape:zoom="5.8843977"
     inkscape:cx="81.701156"
     inkscape:cy="38.331773"
     inkscape:document-units="px"
     inkscape:current-layer="svg2488"
     showgrid="false"
     inkscape:window-width="1280"
     inkscape:window-height="951"
     inkscape:window-x="0"
     inkscape:window-y="0" />
  <metadata
     id="metadata2493">
    <rdf:RDF>
      <cc:Work
         rdf:about="">
        <dc:format>image/svg+xml</dc:format>
        <dc:type
           rdf:resource="http://purl.org/dc/dcmitype/StillImage" />
      </cc:Work>
    </rdf:RDF>
  </metadata>
  <g
     inkscape:label="Layer 1"
     inkscape:groupmode="layer"
     id="layer1"
     transform="translate(92.244018,-198.50459)">
    <path
       d="M -62.862768,253.75084 C -76.440268,253.75084 -92.244018,243.26084 -92.244018,225.02084 C -92.244018,207.82209 -80.439018,198.50459 -70.131518,198.50459 C -67.250268,198.50459 -63.924018,199.27584 -62.862768,199.96709 L -62.852768,199.96709 C -61.790268,199.27584 -58.465268,198.50459 -55.582768,198.50459 C -45.276518,198.50459 -33.470268,207.82209 -33.470268,225.02084 C -33.470268,243.26084 -49.337768,253.75084 -62.852768,253.75084 L -62.862768,253.75084 z M -62.852768,246.71084 C -51.300268,246.71084 -40.582768,237.94334 -40.582768,224.46334 C -40.582768,212.25459 -49.384018,204.92584 -55.944018,205.46584 C -55.944018,205.46584 -55.616518,205.77584 -54.876518,206.57459 C -53.250268,208.32459 -50.741518,212.59959 -50.741518,217.35584 C -50.741518,224.97459 -56.624018,229.75584 -62.852768,229.75584 L -62.862768,229.75584 C -69.090268,229.75584 -74.974018,224.97459 -74.974018,217.35584 C -74.974018,212.59959 -72.464018,208.32459 -70.836518,206.57459 C -70.097768,205.77584 -69.771518,205.46584 -69.771518,205.46584 C -76.331518,204.92584 -85.131518,212.25459 -85.131518,224.46334 C -85.131518,237.94334 -74.414018,246.71084 -62.862768,246.71084 L -62.852768,246.71084 z M -62.852768,222.86834 C -60.476518,222.86834 -57.722768,221.21084 -57.722768,216.67959 C -57.722768,212.31084 -60.760268,208.69084 -62.852768,207.22084 L -62.862768,207.22084 C -64.991518,208.69084 -67.990268,212.31084 -67.990268,216.67959 C -67.990268,221.21084 -65.236518,222.86834 -62.862768,222.86834 L -62.852768,222.86834"
       id="path2440" />
    <path
       d="M 4.03125 62.15625 L 4.03125 65.46875 L 5.96875 65.46875 L 5.96875 75.84375 L 4.03125 75.84375 L 4.03125 79.15625 L 11.75 79.15625 L 11.75 75.84375 L 9.96875 75.84375 L 9.96875 69.5625 L 15.15625 79.15625 L 19 79.15625 L 19 65.46875 L 20.9375 65.46875 L 20.9375 62.15625 L 13.21875 62.15625 L 13.21875 65.5 L 15.15625 65.5 L 15.15625 71.90625 L 9.90625 62.15625 L 4.03125 62.15625 z M 22.21875 62.15625 L 22.21875 68.59375 L 25.5625 68.59375 L 25.5625 65.46875 L 27.53125 65.46875 L 27.53125 75.84375 L 24.96875 75.84375 L 24.96875 79.15625 L 34.46875 79.15625 L 34.46875 75.84375 L 31.875 75.84375 L 31.875 65.46875 L 33.84375 65.46875 L 33.84375 68.59375 L 37.1875 68.59375 L 37.1875 62.15625 L 22.21875 62.15625 z M 38.46875 62.15625 L 38.46875 68.59375 L 41.8125 68.59375 L 41.8125 65.46875 L 43.75 65.46875 L 43.75 75.84375 L 41.21875 75.84375 L 41.21875 79.15625 L 50.71875 79.15625 L 50.71875 75.84375 L 48.125 75.84375 L 48.125 65.46875 L 50.09375 65.46875 L 50.09375 68.59375 L 53.40625 68.59375 L 53.40625 62.15625 L 38.46875 62.15625 z "
       transform="translate(-92.244018,198.50459)"
       id="path2442" />
  </g>
</svg>
