<svg viewBox="0 0 190 35.968" xmlns="http://www.w3.org/2000/svg">
  <path
    d="M174.312 11.168h-8.106l3.188 4.575h4.109l-3.455 19.674h7.199l3.461-19.674h8.979L175.51 4.339z"
    style="fill-opacity:1;fill-rule:nonzero;stroke:none;stroke-width:1.33333" />
  <path d="M33.601 0H.895L0 5.152h12.7L7.379 35.416h7.2L19.9 5.152h12.808z"
    style="fill-opacity:1;fill-rule:nonzero;stroke:none;stroke-width:1.33333" />
  <path
    d="M38.927 10.624c-9.152 0-15.01 5.758-16.172 12.45-1.29 7.431 3.276 12.868 12.51 12.868 4.128 0 7.988-.776 11.124-2.518l.974-5.543c-3.064 2.196-6.963 3.423-10.267 3.423-4.604 0-8.264-1.918-7.688-6.315h19.024c.23-.52.504-1.436.703-2.576.922-5.31-.96-11.79-10.208-11.79m3.73 10.091h-12.52c.752-2.48 3.184-5.908 7.612-5.908 4.82 0 5.33 3.664 4.908 5.908"
    style="fill-opacity:1;fill-rule:nonzero;stroke:none;stroke-width:1.33333" />
  <path
    d="M70.721 10.625c-4.493 0-7.859 1.861-9.445 3.745h-.168l-6.338-3.745c-.233 2.1-.545 4.955-1.032 7.755l-2.957 17.037h7.197l2.503-14.267c.121-.7.359-1.442.67-1.946 1.074-1.874 3.33-3.598 6.191-3.598 3.93 0 5 2.652 4.396 6.128L69.33 35.417h7.2l2.535-14.401c1.332-7.668-3.384-10.39-8.344-10.39"
    style="fill-opacity:1;fill-rule:nonzero;stroke:none;stroke-width:1.33333" />
  <path
    d="M157.086 10.625c-4.496 0-7.859 1.861-9.446 3.745h-.168l-6.337-3.745c-.233 2.1-.545 4.955-1.033 7.755l-2.958 17.037h7.196l2.506-14.267c.12-.7.358-1.442.665-1.946 1.079-1.874 3.333-3.598 6.193-3.598 3.934 0 5 2.652 4.398 6.128l-2.406 13.683h7.198l2.533-14.401c1.332-7.668-3.381-10.39-8.341-10.39"
    style="fill-opacity:1;fill-rule:nonzero;stroke:none;stroke-width:1.33333" />
  <path
    d="M125.289 10.624c-9.15 0-15.007 5.758-16.17 12.45-1.29 7.431 3.275 12.868 12.51 12.868 4.126 0 7.99-.776 11.125-2.518l.973-5.543c-3.064 2.196-6.962 3.423-10.268 3.423-4.6 0-8.258-1.918-7.686-6.315h19.026c.227-.52.503-1.436.703-2.576.919-5.31-.965-11.79-10.213-11.79m3.733 10.091h-12.521c.753-2.48 3.185-5.908 7.612-5.908 4.82 0 5.33 3.664 4.91 5.908"
    style="fill-opacity:1;fill-rule:nonzero;stroke:none;stroke-width:1.33333" />
  <path
    d="M82.086 22.967C80.78 30.494 86.05 35.94 94.97 35.94c3.545 0 7.781-1.017 9.384-1.613l1.165-6.481c-2.503 2.69-5.893 3.248-8.297 3.248-4.902 0-8.612-2.852-7.748-7.823.75-4.445 4.96-7.863 10.446-7.863 2.236 0 5.267.75 7.18 3.266l1.115-6.592c-1.548-.595-4.027-1.443-7.695-1.443-10.008 0-17.173 5.07-18.434 12.33"
    style="fill-opacity:1;fill-rule:nonzero;stroke:none;stroke-width:1.33333" />
</svg>
