<?xml version="1.0" encoding="UTF-8"?>
<svg xmlns="http://www.w3.org/2000/svg" xmlns:xlink="http://www.w3.org/1999/xlink" width="35px" height="25px" viewBox="-3 -5 30 30" version="1.1">
<g id="surface1">
<path style=" stroke:none;fill-rule:evenodd;fill:black;fill-opacity:1;" d="M 0.242188 12.6875 C 0.242188 18.136719 3.777344 22.761719 8.683594 24.394531 C 9.300781 24.507812 9.523438 24.128906 9.523438 23.800781 C 9.523438 23.507812 9.511719 22.730469 9.507812 21.703125 C 6.074219 22.445312 5.351562 20.046875 5.351562 20.046875 C 4.789062 18.621094 3.980469 18.242188 3.980469 18.242188 C 2.859375 17.476562 4.066406 17.492188 4.066406 17.492188 C 5.304688 17.578125 5.957031 18.761719 5.957031 18.761719 C 7.054688 20.648438 8.84375 20.105469 9.546875 19.789062 C 9.660156 18.992188 9.976562 18.449219 10.332031 18.140625 C 7.589844 17.828125 4.710938 16.769531 4.710938 12.039062 C 4.710938 10.691406 5.191406 9.589844 5.980469 8.730469 C 5.851562 8.417969 5.429688 7.160156 6.101562 5.460938 C 6.101562 5.460938 7.136719 5.132812 9.492188 6.726562 C 10.476562 6.453125 11.535156 6.316406 12.582031 6.3125 C 13.632812 6.316406 14.6875 6.453125 15.671875 6.726562 C 18.027344 5.132812 19.0625 5.460938 19.0625 5.460938 C 19.738281 7.160156 19.3125 8.417969 19.1875 8.730469 C 19.976562 9.589844 20.453125 10.691406 20.453125 12.039062 C 20.453125 16.78125 17.570312 17.824219 14.820312 18.128906 C 15.261719 18.511719 15.65625 19.261719 15.65625 20.414062 C 15.65625 22.0625 15.640625 23.394531 15.640625 23.800781 C 15.640625 24.128906 15.863281 24.515625 16.492188 24.394531 C 21.390625 22.757812 24.921875 18.136719 24.921875 12.6875 C 24.921875 5.871094 19.398438 0.34375 12.582031 0.34375 C 5.769531 0.34375 0.242188 5.871094 0.242188 12.6875 Z M 0.242188 12.6875 "/>
</g>
</svg>